<svg width="48" height="48" viewBox="0 0 48 48" fill="none" xmlns="http://www.w3.org/2000/svg">
    <path
        d="M45.4957 35.7314H42.5603V24.6772C42.5603 15.8859 36.3974 8.50519 28.1588 6.615V4.78969C28.1588 3.88406 27.4214 3.14728 26.515 3.14728H26.2865V2.28506C26.2863 1.02506 25.2612 0 23.9987 0C22.7387 0 21.7136 1.02506 21.7136 2.28516V3.14737H21.4851C20.5787 3.14737 19.8412 3.88416 19.8412 4.78978V6.61509C11.6027 8.50528 5.43975 15.886 5.43975 24.6772V35.7314H2.50444C1.1235 35.7314 0 36.8548 0 38.2357C0 39.6167 1.1235 40.7402 2.50444 40.7402H4.97419C4.26619 41.5117 3.83334 42.539 3.83334 43.6656C3.83334 46.0555 5.78034 48 8.1735 48C10.5667 48 12.5138 46.0555 12.5138 43.6656C12.5138 42.5391 12.0809 41.5117 11.3729 40.7402H20.5457C20.9348 40.7402 21.2502 40.4248 21.2502 40.0357C21.2502 39.6465 20.9348 39.3311 20.5457 39.3311H2.50444C1.90041 39.3311 1.40906 38.8397 1.40906 38.2357C1.40906 37.6317 1.9005 37.1403 2.50444 37.1403H45.4957C46.0996 37.1403 46.591 37.6317 46.591 38.2357C46.591 38.8397 46.0996 39.3311 45.4957 39.3311H23.3637C22.9747 39.3311 22.6592 39.6465 22.6592 40.0357C22.6592 40.4248 22.9747 40.7402 23.3637 40.7402H36.627C35.919 41.5117 35.4862 42.539 35.4862 43.6656C35.4862 46.0555 37.4332 48 39.8264 48C42.2197 48 44.1667 46.0555 44.1667 43.6656C44.1667 42.5391 43.7338 41.5117 43.0258 40.7402H45.4956C46.8765 40.7402 47.9999 39.6167 47.9999 38.2357C48 36.8548 46.8766 35.7314 45.4957 35.7314ZM11.1048 43.6656C11.1048 45.2786 9.78984 46.5909 8.1735 46.5909C6.55725 46.5909 5.24231 45.2786 5.24231 43.6656C5.24231 42.0526 6.55725 40.7402 8.1735 40.7402C9.78984 40.7403 11.1048 42.0526 11.1048 43.6656ZM23.1226 2.28516C23.1226 1.80206 23.5156 1.40906 24.0012 1.40906C24.4843 1.40906 24.8772 1.80216 24.8772 2.28516V3.14737H23.1225V2.28516H23.1226ZM21.2502 6.34894V4.78969C21.2502 4.66097 21.3556 4.55634 21.4851 4.55634H26.5149C26.6445 4.55634 26.7498 4.66097 26.7498 4.78969V6.34894L26.7507 6.3495C25.8529 6.21572 24.9346 6.14569 24.0001 6.14569C23.0656 6.14569 22.1472 6.21572 21.2495 6.3495L21.2502 6.34894ZM6.84872 24.6772C6.84872 15.2358 14.5427 7.55466 24 7.55466C33.4573 7.55466 41.1513 15.2357 41.1513 24.6772V35.7314H35.5135C35.8177 35.2569 35.995 34.6937 35.995 34.0894V23.8822C35.995 22.1999 34.6264 20.8312 32.9441 20.8312H27.5565V18.8269C27.5565 17.662 26.6089 16.7145 25.4441 16.7145H22.6706C21.5059 16.7145 20.5583 17.6621 20.5583 18.8269V20.8312H15.0556C13.3733 20.8312 12.0047 22.1999 12.0047 23.8822V34.0894C12.0047 34.6936 12.182 35.2569 12.4862 35.7314H6.84872V24.6772ZM26.1476 20.8312H21.9674V18.8269C21.9674 18.439 22.2829 18.1235 22.6707 18.1235H25.4442C25.8321 18.1235 26.1476 18.439 26.1476 18.8269V20.8312ZM27.3903 22.2402V35.7314H20.6072V22.2402H27.3903ZM13.4138 34.0894V23.8822C13.4138 22.9767 14.1504 22.2402 15.0558 22.2402H16.0928V25.1382C16.0928 25.5274 16.4081 25.8428 16.7973 25.8428C17.1863 25.8428 17.5018 25.5274 17.5018 25.1382V22.2402H19.1982V35.7314H17.5018V27.9563C17.5018 27.5671 17.1863 27.2517 16.7973 27.2517C16.4082 27.2517 16.0928 27.5671 16.0928 27.9563V35.7314H15.0558C14.1504 35.7314 13.4138 34.9948 13.4138 34.0894ZM31.9047 35.7314V33.0422C31.9047 32.653 31.5893 32.3377 31.2002 32.3377C30.811 32.3377 30.4957 32.653 30.4957 33.0422V35.7314H28.7992V22.2402H30.4957V30.2242C30.4957 30.6133 30.811 30.9287 31.2002 30.9287C31.5893 30.9287 31.9047 30.6133 31.9047 30.2242V22.2402H32.9442C33.8497 22.2402 34.5862 22.9767 34.5862 23.8822V34.0894C34.5862 34.9948 33.8497 35.7314 32.9442 35.7314H31.9047ZM42.7577 43.6656C42.7577 45.2786 41.4427 46.5909 39.8264 46.5909C38.2101 46.5909 36.8952 45.2786 36.8952 43.6656C36.8952 42.0526 38.2102 40.7402 39.8264 40.7402C41.4427 40.7402 42.7577 42.0526 42.7577 43.6656Z"
        fill="#058DA6" />
</svg>