<svg width="48" height="48" viewBox="0 0 48 48" fill="none" xmlns="http://www.w3.org/2000/svg">
<g clip-path="url(#clip0_2408_12772)">
<path d="M40.8004 25.5996H33.4002C32.9584 25.5996 32.6002 25.9578 32.6002 26.3996V46.4H28.4002V38.0998C28.4002 37.658 28.042 37.2998 27.6001 37.2998H20.4C19.9582 37.2998 19.6 37.658 19.6 38.0998V46.4H15.3999V17.3995C15.3999 16.5173 16.1178 15.7994 17 15.7994H31.0002C31.8824 15.7994 32.6002 16.5173 32.6002 17.3995V21.8495C32.6002 22.2913 32.9584 22.6496 33.4002 22.6496C33.8421 22.6496 34.2003 22.2913 34.2003 21.8495V17.3995C34.2003 15.6349 32.7647 14.1994 31.0002 14.1994H17C15.2354 14.1994 13.7999 15.6349 13.7999 17.3995V46.4H7.19981C6.3176 46.4 5.59978 45.6821 5.59978 44.7999V28.7997C5.59978 27.9174 6.3176 27.1996 7.19981 27.1996H9.99986C10.4417 27.1996 10.7999 26.8414 10.7999 26.3996C10.7999 25.9578 10.4417 25.5996 9.99986 25.5996H7.19981C5.43528 25.5996 3.99976 27.0351 3.99976 28.7997V44.7999C3.99976 46.5645 5.43528 48 7.19981 48H33.4002C33.8421 48 34.2003 47.6418 34.2003 47.2V27.1996H40.8004C41.6826 27.1996 42.4004 27.9174 42.4004 28.7997V44.7999C42.4004 45.6821 41.6826 46.4 40.8004 46.4H37.4003C36.9585 46.4 36.6003 46.7582 36.6003 47.2C36.6003 47.6418 36.9585 48 37.4003 48H40.8004C42.5649 48 44.0004 46.5645 44.0004 44.7999V28.7997C44.0004 27.0351 42.5649 25.5996 40.8004 25.5996ZM21.2 38.8998H26.8001V46.4H21.2V38.8998ZM20.6838 7.06419L20.1744 10.0446C20.0629 10.6973 20.7503 11.196 21.3363 10.887L24.0001 9.48153L26.6638 10.887C27.2492 11.196 27.9373 10.6976 27.8258 10.0446L27.3163 7.06419L29.4736 4.95396C29.9459 4.49195 29.6841 3.68584 29.0296 3.59043L26.0507 3.15603L24.718 0.446182C24.4255 -0.148727 23.5748 -0.148727 23.2823 0.446182L21.9496 3.15603L18.9707 3.59043C18.3169 3.68564 18.0539 4.49145 18.5267 4.95396L20.6838 7.06419ZM22.5971 4.67855C22.8579 4.64055 23.0832 4.47645 23.1995 4.23995L24.0001 2.61202L24.8007 4.23995C24.917 4.47645 25.1424 4.64055 25.4031 4.67855L27.1991 4.94056L25.8976 6.21368C25.7099 6.39728 25.6242 6.66149 25.6684 6.92029L25.975 8.71452C24.2193 7.7882 24.2609 7.777 24 7.777C23.7359 7.777 23.7596 7.7993 22.025 8.71452L22.3316 6.92029C22.3758 6.66139 22.2902 6.39728 22.1024 6.21368L20.8008 4.94056L22.5971 4.67855ZM11.8332 7.2871C12.0148 6.72829 12.5247 6.73599 13.0322 6.66219C13.2609 6.19868 13.409 5.71497 13.9969 5.71497C14.5844 5.71497 14.7347 6.20228 14.9617 6.66219L15.5149 6.74259C16.1698 6.83779 16.4325 7.645 15.9584 8.10721L15.558 8.49742C15.6453 9.00683 15.81 9.48533 15.3342 9.83084C14.8589 10.1762 14.4509 9.87024 13.9969 9.63154C13.5395 9.87204 13.1353 10.1764 12.6596 9.83084C12.1842 9.48553 12.3491 9.00292 12.4358 8.49742C12.0661 8.13681 11.6515 7.84621 11.8332 7.2871ZM4.83307 11.2872C5.01467 10.7284 5.52458 10.7361 6.03209 10.6623L6.27949 10.1609C6.5724 9.56763 7.42121 9.56713 7.71432 10.1609L7.96172 10.6623C8.47313 10.7366 8.97904 10.728 9.16074 11.2872C9.34235 11.846 8.92524 12.1395 8.55803 12.4975L8.65253 13.0485C8.73664 13.5387 8.35783 13.9837 7.86392 13.9837C7.61732 13.9837 7.51981 13.9066 6.99701 13.6316L6.5023 13.8918C5.91659 14.1996 5.22958 13.7012 5.34148 13.0485L5.43598 12.4975C5.06597 12.1369 4.65137 11.8463 4.83307 11.2872ZM31.8394 7.2871C32.021 6.72829 32.5309 6.73599 33.0384 6.66219L33.2858 6.16088C33.5787 5.56747 34.4276 5.56717 34.7207 6.16088L34.9681 6.66219C35.4793 6.73649 35.9855 6.72789 36.1671 7.2871C36.3487 7.84591 35.9316 8.13941 35.5644 8.49742L35.6589 9.04843C35.743 9.53863 35.3642 9.98364 34.8703 9.98364C34.6237 9.98364 34.5262 9.90654 34.0034 9.63154L33.5086 9.89174C32.9229 10.1995 32.2359 9.70114 32.3478 9.04843L32.4423 8.49742C32.0722 8.13681 31.6577 7.84621 31.8394 7.2871ZM38.8395 11.2872C39.0211 10.7284 39.531 10.7361 40.0386 10.6623L40.286 10.1609C40.5789 9.56753 41.4277 9.56723 41.7208 10.1609L41.9682 10.6623C42.4794 10.7366 42.9856 10.728 43.1672 11.2872C43.3488 11.846 42.9317 12.1395 42.5645 12.4975L42.659 13.0485C42.7431 13.5387 42.3643 13.9837 41.8704 13.9837C41.6238 13.9837 41.5263 13.9066 41.0035 13.6316L40.5088 13.8918C39.9231 14.1996 39.236 13.7012 39.3479 13.0485L39.4424 12.4975C39.0723 12.1369 38.6578 11.8463 38.8395 11.2872ZM9.69985 32.7997C10.1417 32.7997 10.4999 33.1579 10.4999 33.5997V36.9998C10.4999 37.4416 10.1417 37.7998 9.69985 37.7998C9.25804 37.7998 8.89984 37.4416 8.89984 36.9998V33.5997C8.89984 33.1579 9.25804 32.7997 9.69985 32.7997ZM38.3003 37.7998C37.8585 37.7998 37.5003 37.4416 37.5003 36.9998V33.5997C37.5003 33.1579 37.8585 32.7997 38.3003 32.7997C38.7421 32.7997 39.1003 33.1579 39.1003 33.5997V36.9998C39.1003 37.4416 38.7421 37.7998 38.3003 37.7998ZM28.6002 23.8996H19.4C18.9582 23.8996 18.6 23.5414 18.6 23.0996C18.6 22.6578 18.9582 22.2995 19.4 22.2995H28.6002C29.042 22.2995 29.4002 22.6578 29.4002 23.0996C29.4002 23.5414 29.042 23.8996 28.6002 23.8996ZM27.2001 29.9997C27.642 29.9997 28.0002 30.3579 28.0002 30.7997C28.0002 31.2415 27.642 31.5997 27.2001 31.5997H20.8C20.3582 31.5997 20 31.2415 20 30.7997C20 30.3579 20.3582 29.9997 20.8 29.9997H27.2001Z" fill="#058DA6"/>
</g>
<defs>
<clipPath id="clip0_2408_12772">
<rect width="48" height="48" fill="white"/>
</clipPath>
</defs>
</svg>
