<svg width="48" height="48" viewBox="0 0 48 48" fill="none" xmlns="http://www.w3.org/2000/svg">
<g clip-path="url(#clip0_2408_12821)">
<path d="M47.9996 23.9917C47.9979 18.7036 46.3102 13.6891 43.1183 9.48984C42.8799 9.17634 42.4328 9.11541 42.1193 9.35363C41.8058 9.59194 41.7448 10.0391 41.9831 10.3526C44.8426 14.1146 46.4173 18.5729 46.5618 23.2868H39.6036C39.9521 22.61 40.1365 21.8551 40.1365 21.0712C40.1365 18.3982 37.9624 16.2237 35.29 16.2237C32.617 16.2237 30.4425 18.3982 30.4425 21.0712C30.4425 21.8551 30.6269 22.61 30.9755 23.2868H24.713V15.6288C24.713 15.3403 24.5391 15.0803 24.2725 14.97C24.006 14.8599 23.6992 14.9212 23.4954 15.1254C22.8482 15.7744 21.9874 16.1317 21.0717 16.1317C19.1849 16.1317 17.6499 14.5967 17.6499 12.7099C17.6499 10.8231 19.1849 9.28809 21.0717 9.28809C21.9874 9.28809 22.8482 9.64547 23.4954 10.2943C23.6992 10.4986 24.0058 10.5599 24.2725 10.4497C24.5392 10.3394 24.713 10.0793 24.713 9.79088V1.43784C27.613 1.52681 30.4199 2.15803 33.0662 3.31997C35.832 4.53431 38.2932 6.26634 40.3812 8.46787C40.6521 8.75353 41.1033 8.76553 41.389 8.49459C41.6747 8.22375 41.6866 7.77253 41.4157 7.48678C39.1962 5.14678 36.58 3.30562 33.6394 2.0145C30.5958 0.678094 27.3535 0.00046875 24.0027 9.375e-05C24.0019 9.375e-05 24.001 0 24.0002 0C23.9994 0 23.9987 9.375e-05 23.9979 9.375e-05C17.5882 0.0005625 11.562 2.49694 7.02956 7.02947C2.49647 11.5624 0 17.5892 0 23.9998C0 30.4104 2.49647 36.4373 7.02947 40.9702C11.5625 45.5032 17.5893 47.9997 23.9999 47.9997C30.4105 47.9997 36.4374 45.5033 40.9703 40.9702C45.5013 36.4393 47.9975 30.4156 47.9996 24.0081C47.9997 24.0053 48.0001 24.0025 48.0001 23.9997C48 23.997 47.9996 23.9944 47.9996 23.9917ZM23.728 37.5497C23.4613 37.6598 23.2874 37.92 23.2874 38.2086V46.5616C17.5248 46.384 12.1329 44.0573 8.03766 39.9621C3.94238 35.867 1.61569 30.4751 1.43803 24.7126H4.62225C5.01591 24.7126 5.33512 24.3934 5.33512 23.9997C5.33512 23.6061 5.01591 23.2868 4.62225 23.2868H1.43803C1.61569 17.5244 3.94238 12.1327 8.03756 8.03747C12.1328 3.94219 17.5247 1.6155 23.2873 1.43794V8.3955C22.6102 8.04684 21.8552 7.86216 21.0717 7.86216C18.3987 7.86216 16.2242 10.0367 16.2242 12.7097C16.2242 15.3827 18.3987 17.5572 21.0717 17.5572C21.8552 17.5572 22.6102 17.3726 23.2873 17.0239V23.2868H15.6283C15.3398 23.2868 15.0798 23.4607 14.9695 23.7272C14.8593 23.9938 14.9206 24.3006 15.1249 24.5043C15.7738 25.1515 16.1311 26.0123 16.1311 26.928C16.1311 28.8148 14.5965 30.3498 12.7103 30.3498C10.8234 30.3498 9.28847 28.8148 9.28847 26.928C9.28847 26.0123 9.64584 25.1515 10.2947 24.5043C10.499 24.3005 10.5603 23.9938 10.4501 23.7272C10.3399 23.4606 10.0798 23.2868 9.79134 23.2868H6.99862C6.60497 23.2868 6.28575 23.6059 6.28575 23.9996C6.28575 24.3934 6.60497 24.7125 6.99862 24.7125H8.39606C8.04741 25.3897 7.86272 26.1446 7.86272 26.9281C7.86272 29.6011 10.0373 31.7756 12.7103 31.7756C15.3827 31.7756 17.5568 29.6011 17.5568 26.9281C17.5568 26.1446 17.3722 25.3896 17.0234 24.7125H23.2872V32.3706C23.2872 32.6591 23.4612 32.9192 23.7279 33.0294C23.9947 33.1397 24.3015 33.0782 24.5051 32.8736C25.1513 32.2249 26.0121 31.8677 26.9286 31.8677C28.8148 31.8677 30.3494 33.4027 30.3494 35.2895C30.3494 37.1763 28.8148 38.7113 26.9286 38.7113C26.012 38.7113 25.1513 38.3541 24.5051 37.7053C24.3015 37.501 23.9947 37.4395 23.728 37.5497ZM39.9622 39.9622C35.8671 44.0573 30.4754 46.3839 24.713 46.5616V39.6042C25.3898 39.9528 26.1447 40.1372 26.9286 40.1372C29.601 40.1372 31.7751 37.9627 31.7751 35.2897C31.7751 32.6167 29.6009 30.4421 26.9286 30.4421C26.1448 30.4421 25.3898 30.6266 24.713 30.975V24.7125H32.371C32.6596 24.7125 32.9197 24.5385 33.0299 24.2719C33.1401 24.0052 33.0787 23.6983 32.8742 23.4947C32.2254 22.8485 31.8683 21.9877 31.8683 21.0712C31.8683 19.1844 33.4032 17.6495 35.29 17.6495C37.1763 17.6495 38.7109 19.1844 38.7109 21.0712C38.7109 21.9878 38.3536 22.8485 37.7049 23.4947C37.5005 23.6984 37.4391 24.0052 37.5492 24.2719C37.6594 24.5386 37.9195 24.7125 38.2081 24.7125H46.5617C46.384 30.4751 44.0573 35.867 39.9622 39.9622Z" fill="#058DA6"/>
</g>
<defs>
<clipPath id="clip0_2408_12821">
<rect width="48" height="48" fill="white"/>
</clipPath>
</defs>
</svg>
