<svg width="48" height="48" viewBox="0 0 48 48" fill="none" xmlns="http://www.w3.org/2000/svg">
<path d="M43.8925 10.843C39.394 4.19189 31.9125 0.23986 23.896 0.274642C20.0777 0.290485 16.2772 1.23445 12.9053 3.00455C12.5615 3.18502 12.429 3.61008 12.6095 3.95386C12.79 4.29764 13.215 4.4302 13.5588 4.24964C16.7318 2.58399 20.3083 1.6957 23.9018 1.68089C31.106 1.65324 37.8492 5.03808 42.1316 10.7915L40.3965 11.1994C39.9081 10.5895 39.3822 10.0013 38.8278 9.44695C34.8671 5.4862 29.6012 3.30502 24.0001 3.30502C23.6118 3.30502 23.297 3.61983 23.297 4.00814C23.297 4.39645 23.6118 4.71127 24.0001 4.71127C29.2256 4.71127 34.1384 6.7462 37.8334 10.4413C38.1918 10.7997 38.5358 11.1744 38.8661 11.5591L37.0651 11.9825C36.94 11.8497 36.8133 11.7181 36.685 11.5898C34.9291 9.83395 32.8832 8.48667 30.6043 7.58536C30.2434 7.44277 29.8347 7.61958 29.6919 7.98061C29.5491 8.34173 29.726 8.7502 30.0871 8.89308C32.0877 9.68433 33.8936 10.8503 35.4605 12.3597L33.5252 12.8146C32.223 11.7298 30.7632 10.8827 29.1811 10.2946C28.8169 10.1596 28.4124 10.3447 28.277 10.7087C28.1417 11.0727 28.3271 11.4775 28.6911 11.6128C30.5048 12.2838 32.1671 13.3613 33.548 14.7265C36.0981 17.2774 37.5025 20.6684 37.5025 24.2745C37.5025 27.8807 36.0981 31.2717 33.5482 33.8224C32.3817 34.9885 31.0393 35.919 29.5584 36.5883C29.2045 36.7483 29.0472 37.1647 29.2072 37.5186C29.3246 37.7785 29.5805 37.9324 29.8483 37.9324C29.9452 37.9324 30.0435 37.9124 30.1375 37.8699C31.7736 37.1306 33.2556 36.1035 34.5425 34.8169C37.3581 32.0005 38.9086 28.2565 38.9086 24.2747C38.9086 20.4023 37.4415 16.755 34.7708 13.9665L36.575 13.5424C39.1301 16.5268 40.5328 20.3213 40.5328 24.2747C40.5328 28.6913 38.8131 32.8428 35.6903 35.9648C35.4157 36.2394 35.4156 36.6845 35.6902 36.9592C35.8275 37.0965 36.0074 37.1652 36.1874 37.1652C36.3673 37.1652 36.5472 37.0965 36.6846 36.9593C40.0731 33.5717 41.9392 29.067 41.9392 24.2747C41.9392 20.2267 40.5832 16.332 38.1 13.1839L39.8324 12.7767C42.2747 16.122 43.5635 20.0873 43.5635 24.2746C43.5635 29.5001 41.5286 34.4129 37.8335 38.1079C36.2157 39.7257 34.3604 41.0327 32.319 41.9929C31.9676 42.1582 31.8167 42.577 31.982 42.9285C32.1017 43.1832 32.3547 43.3325 32.6186 43.3325C32.7189 43.3325 32.8208 43.311 32.9174 43.2655C35.1063 42.236 37.0947 40.8354 38.8277 39.1023C42.7884 35.1417 44.9696 29.8758 44.9696 24.2747C44.9696 19.9856 43.7069 15.9133 41.3092 12.4296L42.9932 12.0337C45.3502 15.6833 46.5939 19.9048 46.5939 24.2745C46.5939 33.2881 41.2491 41.4291 32.9773 45.0147C32.6211 45.1691 32.4574 45.5832 32.6119 45.9394C32.7268 46.2046 32.9856 46.3631 33.2574 46.3631C33.3506 46.3631 33.4455 46.3443 33.5366 46.3049C42.3228 42.4964 48.0001 33.849 48.0001 24.2745C48.0001 19.4612 46.5797 14.8167 43.8925 10.843Z" fill="#058DA6"/>
<path d="M25.8382 9.47875C25.1609 9.39531 24.4717 9.35847 23.7877 9.36756C19.884 9.42231 16.2082 10.9876 13.4377 13.7749C10.6672 16.5622 9.1239 20.2474 9.09203 24.1517C9.06428 27.561 10.1619 30.7804 12.266 33.4622C14.3052 36.0611 17.1803 37.9334 20.3615 38.7339C22.0899 39.1692 23.2969 40.6984 23.2969 42.4527V42.4958C23.2969 43.6786 22.7627 44.7745 21.8313 45.5028C20.8941 46.2354 19.6927 46.4905 18.5351 46.2028C14.3434 45.162 10.551 42.9414 7.56793 39.781C7.30149 39.4987 6.85646 39.4859 6.57399 39.7523C6.29162 40.0188 6.27878 40.4639 6.54531 40.7463C9.71368 44.1031 13.7425 46.4618 18.196 47.5675C18.6215 47.6732 19.0513 47.7253 19.4773 47.7253C20.6335 47.7253 21.7618 47.342 22.6974 46.6105C23.9721 45.6139 24.7032 44.1142 24.7032 42.4957V42.4526C24.7032 40.053 23.059 37.963 20.7048 37.3701C17.8242 36.6452 15.2202 34.949 13.3724 32.594C11.467 30.1656 10.4731 27.2503 10.4982 24.1631C10.5271 20.6284 11.9252 17.2912 14.4351 14.7662C16.945 12.241 20.2735 10.823 23.8076 10.7735C24.4269 10.7652 25.0524 10.7987 25.6664 10.8743C26.0517 10.9216 26.4027 10.6478 26.4501 10.2624C26.4976 9.87709 26.2236 9.52619 25.8382 9.47875Z" fill="#058DA6"/>
<path d="M1.40628 24.3104C1.40056 20.6691 2.28978 17.0445 3.97784 13.8286C5.61218 10.715 7.9894 7.98074 10.8525 5.92143C11.1678 5.69465 11.2395 5.25534 11.0127 4.94005C10.786 4.62487 10.3466 4.55305 10.0314 4.77984C6.9919 6.96609 4.46797 9.86906 2.73275 13.1751C0.938935 16.5923 -0.0059716 20.4436 2.83972e-05 24.3126C0.0075284 29.2994 1.53059 34.079 4.4045 38.1346C4.54156 38.328 4.7585 38.4312 4.97872 38.4312C5.11934 38.4312 5.26128 38.3892 5.38465 38.3017C5.70143 38.0772 5.77634 37.6384 5.55181 37.3215C2.84684 33.5043 1.41331 29.0051 1.40628 24.3104Z" fill="#058DA6"/>
</svg>
