<svg width="48" height="30" viewBox="0 0 48 30" fill="none" xmlns="http://www.w3.org/2000/svg">
<path d="M38.2788 9.96728C37.3076 9.96728 36.3696 10.1111 35.4841 10.3773L33.7001 5.69463C33.6051 5.44506 33.6375 5.17581 33.789 4.95597C33.9405 4.73613 34.1806 4.60994 34.4476 4.60994H37.1514C37.7997 4.60994 38.3272 5.13737 38.3272 5.78566C38.3272 6.43394 37.7998 6.96128 37.1514 6.96128H36.7757C36.3874 6.96128 36.0726 7.27609 36.0726 7.66441C36.0726 8.05272 36.3874 8.36753 36.7757 8.36753H37.1514C38.5751 8.36753 39.7334 7.20934 39.7334 5.78556C39.7334 4.36178 38.5752 3.20359 37.1514 3.20359H34.4476C33.7219 3.20359 33.0428 3.56041 32.6311 4.15788C32.2193 4.75534 32.1277 5.51706 32.386 6.19516L32.6779 6.96119H18.3491L17.6183 4.03788L19.7166 3.61825C20.4288 3.47575 20.9457 2.84519 20.9457 2.11891C20.9457 1.27581 20.2598 0.589844 19.4167 0.589844H13.5533C12.7102 0.589844 12.0243 1.27581 12.0243 2.11891C12.0243 2.86797 12.3565 3.56997 12.9358 4.04481C13.386 4.414 13.9414 4.60975 14.5114 4.60975C14.6748 4.60975 14.8395 4.59363 15.0031 4.56091L16.2378 4.31397L17.4617 9.20978L15.3502 11.767C13.7607 10.6342 11.8175 9.96728 9.72131 9.96728C4.36097 9.96728 0 14.3282 0 19.6886C0 25.0489 4.36097 29.4099 9.72122 29.4099C14.0621 29.4099 17.7473 26.5497 18.9922 22.615C19.5193 23.1006 20.2224 23.3978 20.994 23.3978C21.0615 23.3978 21.1283 23.3947 21.1948 23.3902L21.7069 24.9995C21.3367 25.0197 21.0424 25.3255 21.0424 25.7007C21.0424 26.0891 21.3572 26.4038 21.7455 26.4038H24C24.3883 26.4038 24.7031 26.0891 24.7031 25.7007C24.7031 25.3124 24.3883 24.9976 24 24.9976H23.1819L22.5348 22.9637C23.3839 22.4433 23.9516 21.5068 23.9516 20.4402C23.9516 19.8794 23.7948 19.3546 23.5225 18.9073L33.4594 9.013L34.1704 10.8795C30.8578 12.4306 28.5574 15.7957 28.5574 19.6886C28.5574 25.0489 32.9183 29.4099 38.2787 29.4099C43.639 29.4099 48 25.0488 48 19.6886C48 14.3283 43.639 9.96728 38.2788 9.96728ZM14.7272 3.18203C14.4072 3.24587 14.0794 3.16403 13.8272 2.95741C13.575 2.75069 13.4304 2.44506 13.4304 2.119C13.4304 2.05122 13.4855 1.99619 13.5532 1.99619H19.4166C19.4842 1.99619 19.5394 2.05122 19.5394 2.119C19.5394 2.17731 19.4978 2.22794 19.4407 2.23938L14.7272 3.18203ZM32.1145 8.36753L22.5285 17.9125C22.0808 17.6397 21.5555 17.4824 20.994 17.4824C20.9891 17.4824 20.9843 17.4827 20.9795 17.4827L18.7006 8.36744H32.1145V8.36753ZM17.8854 10.9052L19.6153 17.8246C19.5054 17.8828 19.3997 17.9477 19.2985 18.0188C18.9355 15.9308 17.9045 14.0691 16.4338 12.6633L17.8854 10.9052ZM16.4295 19.4312C16.3657 17.7558 15.6824 16.1779 14.5145 14.9879L15.5359 13.7508C17.0445 15.2284 17.994 17.2742 18.0345 19.538L16.4295 19.4312ZM13.6131 16.0796C14.4405 16.9712 14.9371 18.1174 15.0174 19.337L11.137 19.0784L13.6131 16.0796ZM9.72122 28.0037C5.13638 28.0037 1.40625 24.2735 1.40625 19.6886C1.40625 15.1038 5.13638 11.3736 9.72122 11.3736C11.4776 11.3736 13.1082 11.9215 14.4521 12.8547L9.17906 19.2409C9.01106 19.4444 8.97112 19.7247 9.07556 19.9669C9.18 20.2092 9.41128 20.3726 9.67444 20.3901L14.9252 20.7402C14.4358 23.1656 12.2886 24.9976 9.72122 24.9976C6.79388 24.9976 4.41225 22.616 4.41225 19.6886C4.41225 16.7612 6.79388 14.3796 9.72122 14.3796C9.90253 14.3796 10.0855 14.3889 10.265 14.4071C10.6516 14.4462 10.9963 14.1648 11.0355 13.7785C11.0747 13.3922 10.7933 13.0473 10.4069 13.008C10.1804 12.985 9.94978 12.9734 9.72122 12.9734C6.01847 12.9734 3.006 15.9858 3.006 19.6886C3.006 23.3914 6.01847 26.4038 9.72122 26.4038C13.0333 26.4038 15.7912 23.9929 16.3367 20.8343L17.942 20.9414C17.3361 24.934 13.8804 28.0037 9.72122 28.0037ZM20.994 21.9915C20.1385 21.9915 19.4426 21.2956 19.4426 20.4401C19.4426 19.5846 20.1385 18.8886 20.994 18.8886C21.8495 18.8886 22.5454 19.5846 22.5454 20.4401C22.5454 21.2956 21.8495 21.9915 20.994 21.9915ZM38.2788 28.0037C33.6938 28.0037 29.9637 24.2735 29.9637 19.6886C29.9637 16.3951 31.8886 13.5426 34.6724 12.1971L35.2439 13.6972C32.9938 14.836 31.5636 17.1393 31.5636 19.6886C31.5636 23.3914 34.576 26.4038 38.2788 26.4038C41.9815 26.4038 44.994 23.3914 44.994 19.6886C44.994 16.4005 42.6444 13.616 39.4071 13.0679C39.0243 13.0032 38.6613 13.2609 38.5965 13.6438C38.5316 14.0267 38.7895 14.3897 39.1724 14.4544C41.7308 14.8877 43.5878 17.089 43.5878 19.6886C43.5878 22.616 41.2062 24.9976 38.2789 24.9976C35.3514 24.9976 32.9699 22.616 32.9699 19.6886C32.9699 17.7233 34.0453 15.9431 35.7483 15.0208L37.6219 19.9389C37.7287 20.2194 37.9958 20.3919 38.2791 20.3919C38.3622 20.3919 38.4469 20.3771 38.5292 20.3457C38.8921 20.2074 39.0742 19.8012 38.936 19.4383L35.9862 11.6952C36.7147 11.4859 37.484 11.3735 38.2789 11.3735C42.8638 11.3735 46.5938 15.1037 46.5938 19.6885C46.5938 24.2735 42.8636 28.0037 38.2788 28.0037Z" fill="#058DA6"/>
</svg>
