<svg width="48" height="48" viewBox="0 0 48 48" fill="none" xmlns="http://www.w3.org/2000/svg">
<g clip-path="url(#clip0_2408_12731)">
<path d="M47.297 40.144H47.0626V33.1722C47.0626 33.1556 47.0613 33.1393 47.0602 33.123C47.4029 31.9613 47.7505 30.5919 47.9053 29.3893C48.0522 28.2481 48.1316 26.6616 47.1299 26.0621C46.1636 25.4838 44.7432 26.2611 43.7217 27.015C42.9385 27.593 42.1532 28.3378 41.4378 29.1674V10.9202C42.8887 10.8022 44.2984 10.7251 45.6565 10.6902V23.7937C45.6565 24.1821 45.9712 24.4968 46.3597 24.4968C46.7481 24.4968 47.0628 24.1821 47.0628 23.7937V10.6692C47.1408 10.6689 47.2195 10.668 47.2971 10.668C47.6856 10.668 48.0003 10.3532 48.0003 9.96484C48.0003 9.57643 47.6856 9.26171 47.2971 9.26171C42.9605 9.26171 38.1661 9.69634 33.1197 10.5356C23.651 7.90028 14.1428 6.44922 6.32848 6.44922C5.94008 6.44922 5.62536 6.76394 5.62536 7.15234C5.62536 7.54075 5.94008 7.85547 6.32848 7.85547C6.40611 7.85547 6.48495 7.8565 6.56286 7.85687V11.3026C6.56286 11.6911 6.87757 12.0058 7.26598 12.0058C7.65439 12.0058 7.9691 11.6911 7.9691 11.3026V7.87712C14.5195 8.04203 22.1399 9.17462 29.8638 11.1263C27.6711 11.557 25.4409 12.0595 23.1881 12.633C17.8617 13.9889 12.6632 15.6918 7.9691 17.6009V14.115C7.9691 13.7265 7.65439 13.4118 7.26598 13.4118C6.87757 13.4118 6.56286 13.7265 6.56286 14.115V18.1855C4.36161 19.1207 2.28458 20.0998 0.375181 21.108C0.0317758 21.2893 -0.0995677 21.7147 0.0817445 22.0581C0.207744 22.2968 0.451681 22.4331 0.70415 22.4331C0.782337 22.4331 0.861274 22.4192 0.937868 22.392V40.1439H0.703493C0.315088 40.1439 0.000369655 40.4587 0.000369655 40.8471C0.000369655 41.2355 0.315088 41.5502 0.703493 41.5502H15.7035C16.0919 41.5502 16.4066 41.2355 16.4066 40.8471C16.4066 40.4587 16.0919 40.1439 15.7035 40.1439H10.7816V26.183H17.8128V40.8471C17.8128 41.2356 18.1276 41.5503 18.516 41.5503H47.2971C47.6856 41.5503 48.0003 41.2356 48.0003 40.8471C48.0003 40.4587 47.6854 40.144 47.297 40.144ZM45.6563 40.144H44.1377C44.5445 39.4261 45.0924 38.3783 45.6563 37.0583V40.144ZM44.4329 28.2393C45.6324 27.3237 46.2786 27.2436 46.41 27.272C46.4672 27.3452 47.1293 28.3836 45.3908 33.7614C44.3419 37.0059 42.9996 39.3387 42.5032 40.144H29.784C28.9933 39.3002 28.3283 38.3167 27.8969 37.3475C27.4342 36.3075 27.4541 35.7618 27.4939 35.6228C27.8414 35.4613 29.3767 35.7399 30.4272 36.4716C30.6832 36.6499 31.0263 36.6381 31.2695 36.4427C31.5128 36.2472 31.598 35.9148 31.4789 35.6263C31.4173 35.4769 31.3588 35.3282 31.3052 35.1845C30.7598 33.7215 30.3621 32.1262 30.2143 30.8075C30.0421 29.2711 30.2723 28.6831 30.3676 28.5923C30.768 28.4772 32.638 29.3857 34.5342 31.7073C34.7225 31.9376 35.0353 32.0247 35.3149 31.9247C35.5949 31.8249 35.7819 31.5596 35.7819 31.2624C35.7819 29.6187 36.0936 27.8487 36.6371 26.4062C37.1632 25.0096 37.7163 24.4369 37.9065 24.3742C38.0967 24.4369 38.6499 25.0095 39.176 26.4062C39.7194 27.8487 40.0312 29.6187 40.0312 31.2642C40.0312 31.5754 40.2358 31.8496 40.534 31.9382C40.8323 32.0268 41.1534 31.9089 41.3234 31.6479C42.1767 30.3385 43.31 29.0961 44.4329 28.2393ZM24.5626 13.7395C25.9729 13.3936 27.3814 13.075 28.7814 12.7845V25.2846C28.7814 25.673 29.0961 25.9877 29.4845 25.9877C29.8729 25.9877 30.1876 25.673 30.1876 25.2846V12.5018C31.6081 12.2251 33.017 11.9777 34.4064 11.7617V29.4883C33.7841 28.8822 33.1407 28.3601 32.5191 27.9634C31.3027 27.1872 30.3103 26.9863 29.6495 27.3819C28.8887 27.8372 28.612 28.9678 28.8035 30.8383C28.9173 31.9496 29.1959 33.2406 29.5902 34.5098C28.4432 34.1124 27.1471 33.9713 26.4868 34.6314C25.4974 35.6208 26.3825 38.0853 27.9481 40.1439H24.5626V13.7395ZM40.0314 24.8593C39.1993 23.2347 38.3659 22.965 37.9067 22.965C36.9986 22.965 36.2885 23.8979 35.8126 24.8047V11.553C37.2459 11.3497 38.6547 11.1805 40.0314 11.0462V24.8593ZM9.37516 40.144H7.96892V26.183H9.37516V40.144ZM19.2189 26.183H19.4533C19.8417 26.183 20.1564 25.8683 20.1564 25.4799C20.1564 25.0915 19.8417 24.7767 19.4533 24.7767H6.32829C5.93989 24.7767 5.62517 25.0915 5.62517 25.4799C5.62517 25.8683 5.93989 26.183 6.32829 26.183H6.56267V40.144H2.34393V21.7299C2.34393 21.7125 2.34261 21.6956 2.3413 21.6785C8.2361 18.7234 15.5509 16.0555 23.1564 14.0934V40.144H19.2189V26.183Z" fill="#058DA6"/>
</g>
<defs>
<clipPath id="clip0_2408_12731">
<rect width="48" height="48" fill="white"/>
</clipPath>
</defs>
</svg>
