<svg width="48" height="48" viewBox="0 0 48 48" fill="none" xmlns="http://www.w3.org/2000/svg">
<g clip-path="url(#clip0_2408_12847)">
<path d="M45.5996 33.0077V27.9486C45.6022 27.2353 45.2856 26.5582 44.7364 26.103L40.9596 22.9503C40.5281 22.5919 39.9846 22.396 39.4236 22.3967H38.9756L34.7093 9.5968H35.9997C37.3251 9.5968 38.3997 8.52229 38.3997 7.19684C38.3997 5.87139 37.3251 4.79688 35.9997 4.79688H7.99993C6.23262 4.79688 4.79993 6.22956 4.79993 7.99688C4.79993 8.88054 5.51627 9.59688 6.39993 9.59688H7.19989V15.9968H5.59997C4.27452 15.9968 3.20001 17.0713 3.20001 18.3968V24.944C2.24454 25.2817 1.60425 26.1833 1.6 27.1968V28.144C0.644536 28.4816 0.00417303 29.3832 0 30.3966V35.1965C0 36.522 1.07452 37.5965 2.39996 37.5965C2.39996 40.6893 4.90717 43.1965 7.99993 43.1965C11.0927 43.1965 13.5999 40.6893 13.5999 37.5965H36.7997C36.7964 40.2555 38.6634 42.5501 41.2675 43.0877C43.8715 43.6252 46.4946 42.2574 47.5445 39.8145C48.5944 37.3716 47.7816 34.5272 45.5996 33.0077ZM37.37 22.6367C36.6368 22.9885 36.1323 23.6883 36.03 24.4951L29.5309 17.9967L30.9653 16.5623C31.2684 16.2484 31.2641 15.7494 30.9555 15.4409C30.647 15.1323 30.148 15.128 29.8341 15.4311L25.8341 19.4311C25.6262 19.6319 25.5427 19.9294 25.6159 20.2091C25.6892 20.4887 25.9076 20.7072 26.1873 20.7804C26.4669 20.8536 26.7644 20.7702 26.9653 20.5622L28.3997 19.1278L35.9996 26.7277V30.3964C35.9996 31.2801 35.2833 31.9964 34.3996 31.9964H27.9997C27.116 31.9964 26.3997 31.2801 26.3997 30.3964V25.5965C26.3997 23.8292 24.967 22.3965 23.1997 22.3965H16.7998C16.358 22.3965 15.9998 22.0383 15.9998 21.5965V16.7966C15.9998 15.4712 14.9253 14.3967 13.5998 14.3967H11.9998V9.59673H33.0236L37.37 22.6367ZM16.7998 23.9967H23.1998C24.0834 23.9967 24.7998 24.713 24.7998 25.5967V27.0527L11.9999 24.9191V15.9967H13.5999C14.0417 15.9967 14.3999 16.3549 14.3999 16.7967V21.5966C14.3999 22.9222 15.4744 23.9967 16.7998 23.9967ZM6.39993 7.9968C6.39993 7.11314 7.11628 6.3968 7.99993 6.3968H35.9996C36.4414 6.3968 36.7996 6.75497 36.7996 7.19676C36.7996 7.63855 36.4414 7.99672 35.9996 7.99672H6.39993V7.9968ZM10.3999 9.5968V24.7966H8.7999V9.5968H10.3999ZM4.79993 18.3967C4.79993 17.9549 5.1581 17.5967 5.59989 17.5967H7.19989V19.1967H4.79993V18.3967ZM4.79993 20.7967H7.19989V24.7966H4.79993V20.7967ZM3.20001 27.1966C3.20001 26.7548 3.55818 26.3966 3.99997 26.3966H11.1335L24.7998 28.6742V30.3966C24.8031 30.96 24.9566 31.5123 25.2445 31.9966H15.9359C14.7715 31.9947 13.6923 31.3858 13.0887 30.3902C12.6532 29.658 12.0327 29.0531 11.2895 28.6366C10.5497 28.2176 9.7141 27.9971 8.86391 27.9966H3.20001V27.1966ZM7.99993 41.5965C5.79083 41.5965 3.99997 39.8056 3.99997 37.5965C3.99997 35.3874 5.79083 33.5965 7.99993 33.5965C10.209 33.5965 11.9999 35.3874 11.9999 37.5965C11.9972 39.8045 10.2079 41.5938 7.99993 41.5965ZM37.0397 35.9965H13.3598C12.6451 33.6342 10.4679 32.0184 7.99986 32.0184C5.53178 32.0184 3.35472 33.6342 2.63987 35.9965H2.39989C1.9581 35.9965 1.59992 35.6383 1.59992 35.1965V30.3966C1.59992 29.9548 1.9581 29.5966 2.39989 29.5966H8.86383C9.43805 29.5973 10.0024 29.7462 10.5022 30.0287C11.0029 30.3087 11.4209 30.7156 11.7142 31.2087C12.6078 32.6872 14.2081 33.5924 15.9357 33.5967H34.3995C36.1669 33.5967 37.5995 32.164 37.5995 30.3967V24.7967C37.5995 24.3549 37.9577 23.9967 38.3995 23.9967H39.4235C39.6098 23.9967 39.7904 24.0612 39.9346 24.1792L43.7146 27.3344C43.8978 27.4854 44.0025 27.7114 43.9994 27.9488V32.2368C42.5778 31.8106 41.0451 31.9676 39.7394 32.6729C38.4338 33.3781 37.4625 34.574 37.0397 35.9965ZM42.3996 41.5965C40.1904 41.5965 38.3996 39.8056 38.3996 37.5965C38.3996 35.3874 40.1904 33.5965 42.3996 33.5965C44.6087 33.5965 46.3995 35.3874 46.3995 37.5965C46.3968 39.8045 44.6076 41.5938 42.3996 41.5965Z" fill="#058DA6"/>
<path d="M42.3995 35.1963C41.074 35.1963 39.9995 36.2708 39.9995 37.5963C39.9995 38.9217 41.074 39.9962 42.3995 39.9962C43.7249 39.9962 44.7994 38.9217 44.7994 37.5963C44.7994 36.2708 43.7249 35.1963 42.3995 35.1963ZM42.3995 38.3962C41.9577 38.3962 41.5995 38.038 41.5995 37.5963C41.5995 37.1545 41.9577 36.7963 42.3995 36.7963C42.8413 36.7963 43.1994 37.1545 43.1994 37.5963C43.1994 38.038 42.8413 38.3962 42.3995 38.3962Z" fill="#058DA6"/>
<path d="M8.00006 35.1963C6.67461 35.1963 5.6001 36.2708 5.6001 37.5963C5.6001 38.9217 6.67461 39.9962 8.00006 39.9962C9.32551 39.9962 10.4 38.9217 10.4 37.5963C10.4 36.2708 9.32551 35.1963 8.00006 35.1963ZM8.00006 38.3962C7.55827 38.3962 7.2001 38.038 7.2001 37.5963C7.2001 37.1545 7.55827 36.7963 8.00006 36.7963C8.44185 36.7963 8.80002 37.1545 8.80002 37.5963C8.80002 38.038 8.44185 38.3962 8.00006 38.3962Z" fill="#058DA6"/>
</g>
<defs>
<clipPath id="clip0_2408_12847">
<rect width="48" height="48" fill="white"/>
</clipPath>
</defs>
</svg>
