<svg width="48" height="48" viewBox="0 0 48 48" fill="none" xmlns="http://www.w3.org/2000/svg">
<g clip-path="url(#clip0_2408_12836)">
<path d="M47.9389 20.1417L43.5488 10.2407L43.9063 7.20158C43.9392 6.92333 43.806 6.64424 43.5493 6.49696C43.4311 6.42918 43.294 6.40293 43.1577 6.40536C41.7964 6.43039 40.4576 7.71318 39.8802 8.34431C37.2826 7.95993 34.8337 8.78081 32.5937 10.7876C31.0764 12.1469 29.689 14.0199 28.4628 16.3587C28.2011 16.2819 27.9265 16.2451 27.6468 16.2526L23.8639 16.3393L23.384 15.1736C23.2354 14.8125 22.8274 14.6122 22.4618 14.7498C22.0837 14.8923 21.9008 15.3178 22.0535 15.6888L22.7313 17.3349C22.8437 17.6078 23.1147 17.7849 23.4071 17.7764L25.6713 17.7245V20.1922L22.8786 20.2576C22.8786 20.2576 22.8785 20.2576 22.8785 20.2576L22.1318 20.2749C21.7035 20.2865 21.3102 20.08 21.0742 19.7241C21.0298 19.6572 20.9914 19.5848 20.9608 19.5115L18.5057 13.5474C18.3558 13.1831 17.9391 13.0095 17.5746 13.1594C17.2104 13.3094 17.0368 13.7261 17.1867 14.0904L18.8343 18.0926L14.6867 17.6749C14.7535 17.4466 14.8287 17.2053 14.9145 16.9484C15.4406 15.3716 16.2562 13.4837 17.4079 11.1767C17.658 10.6757 18.1704 10.3583 18.7304 10.3583H18.7338C19.3047 10.3583 19.7989 10.6628 20.0563 11.1729L20.8125 12.6741L21.1322 13.4504C21.2809 13.8114 21.6888 14.0117 22.054 13.874C22.4321 13.7314 22.615 13.3059 22.4622 12.935L22.1209 12.1059C22.1133 12.0892 22.1057 12.0726 22.098 12.0558L21.638 11.1427C21.9175 11.1867 22.2039 11.2101 22.4958 11.2101C25.2947 11.2101 27.6093 9.10406 27.9424 6.39383L28.931 6.56202C28.9715 6.56896 29.0117 6.57224 29.0514 6.57224C29.4145 6.57224 29.7326 6.29408 29.762 5.91111C29.7903 5.54005 29.513 5.21417 29.146 5.15183L27.9292 4.94483C27.5511 2.28429 25.2591 0.231445 22.4957 0.231445C20.1927 0.231445 18.2179 1.65757 17.4043 3.67245C17.3888 3.70414 17.3759 3.73751 17.365 3.77192C17.134 4.37802 17.0063 5.03455 17.0063 5.7208C17.0063 6.95005 17.4124 8.08612 18.0976 9.00206C17.2523 9.18918 16.5285 9.74456 16.1297 10.5433C13.6466 15.5184 12.5921 18.8188 12.8716 20.7843C12.7235 20.8326 12.5792 20.8877 12.4388 20.9498C11.8125 19.819 10.7457 18.5327 8.94221 17.6399C8.56833 17.4549 8.11543 17.6298 7.96224 18.0178C7.82611 18.3626 7.97733 18.7539 8.30939 18.9186C9.84418 19.6803 10.7302 20.7797 11.2381 21.7279C10.8973 22.0346 10.5899 22.4005 10.3156 22.8236C9.23733 22.0906 8.02505 21.9539 6.88899 22.4623C5.25342 23.1941 4.22714 25.0744 4.33514 27.1414C4.39017 28.1943 4.14295 28.9793 3.60042 29.4748C3.11901 29.9143 2.46613 30.0888 1.91394 30.1509C2.37398 29.0802 2.8581 27.2706 2.5341 24.7494C2.2806 22.7731 2.85717 20.6939 4.00279 19.4522C4.40011 19.0216 5.02401 18.5312 5.88192 18.4009C6.22289 18.349 6.48417 18.072 6.50048 17.7275L6.50058 17.7263C6.52186 17.2744 6.12333 16.922 5.67586 16.9877C4.65717 17.1373 3.72904 17.6456 2.95467 18.4849C1.53491 20.0235 0.814442 22.5536 1.11941 24.931C1.58094 28.5238 0.211348 30.3399 0.155941 30.4114C-0.00315289 30.6106 -0.0438405 30.8795 0.0492535 31.1169C0.142347 31.3543 0.355067 31.5238 0.607161 31.5617C0.640348 31.5668 0.925443 31.6076 1.34694 31.6075C2.18095 31.6075 3.54867 31.4477 4.55432 30.5352C5.43267 29.7381 5.83814 28.5713 5.75958 27.067C5.68326 25.6076 6.38723 24.2495 7.47145 23.7644C8.18555 23.4448 8.94821 23.5694 9.65649 24.1083C9.64918 24.1265 9.64112 24.1435 9.6339 24.1617C8.39405 27.2883 9.13018 29.533 9.96605 30.8655C10.4019 31.5604 10.9082 32.0818 11.3221 32.4389C9.68527 33.473 8.0873 32.519 8.01436 32.4742C7.75421 32.3103 7.4183 32.3318 7.18102 32.5272L5.56448 33.8584C5.28295 34.0903 5.22023 34.4984 5.42264 34.8018C7.3118 37.6347 8.0303 40.0482 7.50052 41.7815C7.04189 43.2821 5.80458 43.8051 5.75705 43.8247C5.48311 43.9323 5.29533 44.2015 5.30451 44.5149C5.30845 44.6461 5.35401 44.7728 5.42395 44.8838L7.01789 47.4154C7.1168 47.5725 7.2668 47.6957 7.44614 47.7439C7.50867 47.7608 7.57186 47.7691 7.63439 47.7691C7.81036 47.7691 7.98146 47.7038 8.11355 47.5841C11.5578 44.4598 11.2295 39.9619 10.7916 37.7336C12.0863 38.1466 13.2272 38.3551 14.1956 38.3551C15.3875 38.3551 17.647 37.9083 19.6669 34.9947H25.3417C25.7356 34.9947 26.0549 34.6754 26.0549 34.2815V33.493C26.0549 33.4749 26.053 33.4573 26.0527 33.4392C26.5354 33.4565 27.0034 33.497 27.4582 33.561L31.0164 37.1191H30.128L27.8479 35.3652C27.5639 35.1468 27.1621 35.1729 26.9087 35.4262L24.4505 37.8844C24.3374 37.9975 24.2564 38.1421 24.2346 38.3005C24.1903 38.6206 24.3598 38.9168 24.6354 39.0473L28.2303 40.7502C28.3124 40.7891 28.4002 40.817 28.4906 40.8248C28.536 40.8287 28.5813 40.8286 28.6266 40.8239L37.9453 39.873C38.2056 39.8463 38.4306 39.6794 38.5312 39.4379C38.6319 39.1963 38.5921 38.919 38.4277 38.7153L35.9501 35.6477C37.9027 35.8577 39.7085 35.8913 40.678 35.8908V40.0699L38.5104 40.7667C38.196 40.8677 37.9922 41.1712 38.0175 41.5003L38.3028 45.2088C38.3197 45.4278 38.4364 45.6268 38.6194 45.7482C38.7377 45.8268 38.8751 45.8673 39.0139 45.8673C39.0895 45.8673 39.1658 45.8552 39.2394 45.8306C42.5698 44.7204 44.4561 42.1758 44.6939 38.472C44.8673 35.7728 44.0974 33.4261 44.0645 33.3275C43.9964 33.1233 43.8399 32.9609 43.6384 32.8853L38.378 30.9127C38.6324 30.4623 38.9331 29.8415 39.1605 29.1039C39.7989 27.0338 39.5626 25.022 38.4775 23.2859C38.3111 23.0195 38.1631 22.7531 38.0313 22.4867C38.6561 22.286 39.2347 22.0216 39.7645 21.6918C39.7952 21.6727 39.824 21.6527 39.854 21.6334C40.1232 21.7431 40.4032 21.8344 40.6932 21.9035L42.2179 22.2666L42.5532 22.6019C43.5378 23.5865 45.1395 23.5862 46.1241 22.6019L47.7907 20.9353C47.9997 20.7266 48.0584 20.4113 47.9389 20.1417ZM26.5353 6.15458C26.3181 8.19177 24.5896 9.78384 22.4957 9.78384C21.2328 9.78384 20.1027 9.20456 19.3569 8.29799L21.8249 5.35302L24.0691 5.73486L23.9397 6.36524C23.8605 6.75111 24.109 7.12808 24.4949 7.2073C24.5433 7.21715 24.5916 7.22202 24.6391 7.22202C24.9706 7.22202 25.2676 6.98952 25.337 6.65211L25.4761 5.9743L26.5353 6.15458ZM22.4957 1.65785C24.3796 1.65785 25.9678 2.94692 26.4257 4.68908L19.1299 3.44764C19.8609 2.36848 21.0968 1.65785 22.4957 1.65785ZM18.5406 4.79427L20.1964 5.07599L18.6241 6.95221C18.5 6.56361 18.4327 6.14999 18.4327 5.72089C18.4327 5.40205 18.4709 5.09202 18.5406 4.79427ZM45.1584 17.3898C44.9411 17.5383 44.6764 17.7344 44.3885 17.9798C42.4777 16.7153 40.7805 14.294 40.1315 13.2982C41.0082 12.3681 41.9048 11.7277 42.4858 11.3624L45.1584 17.3898ZM30.3702 18.844C30.3542 18.1967 30.1084 17.5909 29.6751 17.1179C30.8241 14.9097 32.1557 13.0954 33.5455 11.8501C35.5525 10.052 37.7308 9.3674 40.0182 9.81496C40.2765 9.8655 40.5429 9.76884 40.7091 9.56437C41.0801 9.10818 41.735 8.46993 42.3635 8.1088L42.1532 9.89643C41.0374 10.5227 37.6613 12.7114 36.4503 16.8285C36.3025 17.1163 35.862 18.0945 35.862 19.5225C35.862 20.1595 35.9477 20.7991 36.1162 21.4384C34.3264 21.659 32.1555 21.4159 29.6692 20.7107C30.1378 20.2014 30.3869 19.5428 30.3704 18.8498C30.3703 18.8478 30.3702 18.8458 30.3702 18.844ZM27.0976 17.692H27.0977L27.6816 17.6786C28.0126 17.6709 28.3232 17.7906 28.5618 18.0175C28.7994 18.2436 28.9352 18.5483 28.9442 18.8756C28.9443 18.8774 28.9443 18.8793 28.9444 18.8811C28.9527 19.2099 28.8324 19.5223 28.6056 19.761C28.3786 19.9998 28.0725 20.1356 27.7444 20.1439L27.0976 20.1591V17.692ZM7.75833 45.9141L7.01677 44.7363C7.29455 44.5423 7.61724 44.2722 7.92474 43.9133L8.73089 44.4812C8.46492 44.9979 8.14102 45.4762 7.75833 45.9141ZM18.3937 34.193C18.388 34.2384 18.3874 34.2838 18.3904 34.3286C17.5741 35.4544 16.1349 36.9289 14.1956 36.9289C13.1044 36.9289 11.7136 36.6035 10.0609 35.9615C9.79965 35.8465 9.48333 35.8961 9.26921 36.1103C9.12999 36.2495 9.06052 36.4321 9.06071 36.6149C9.06071 36.6975 9.07496 36.78 9.10346 36.8586C9.15915 37.0269 9.62846 38.5017 9.63137 40.3982C9.63296 41.3802 9.51249 42.2875 9.27155 43.1175L8.68064 42.7012C8.74402 42.5537 8.80205 42.3985 8.85343 42.2349C9.50311 40.1656 8.86702 37.5843 6.9623 34.5554L7.72271 33.9291C8.94868 34.4761 11.1333 34.7716 12.9883 32.9166C13.145 32.7598 13.2187 32.5381 13.1897 32.3183C13.1606 32.0984 13.0295 31.9038 12.8374 31.793C12.6814 31.703 9.03802 29.5341 10.9598 24.6878C11.5204 23.2743 12.2944 22.446 13.3717 22.1194C14.0736 23.2347 15.3772 24.1171 17.2593 24.7468C18.1337 25.0394 18.9526 25.2144 19.5079 25.3122L18.3937 34.193ZM14.3979 21.02C14.2569 20.6961 14.1711 20.1143 14.3518 19.075L19.4499 19.5885L19.6429 20.0574C19.7095 20.2173 19.7914 20.3707 19.8859 20.513C20.3946 21.2801 21.2478 21.7225 22.1663 21.701L22.6794 21.6892L23.0375 21.938C23.5246 22.2761 23.7933 22.8516 23.7405 23.4422L23.3445 26.4891H20.798L21.0101 24.7985C21.034 24.6086 20.9805 24.4171 20.8617 24.267C20.7428 24.1169 20.5687 24.021 20.3784 24.0006C19.012 23.8542 15.2739 23.0335 14.3979 21.02ZM24.6286 33.5684H19.9097L20.6189 27.9157H23.159L22.698 31.4645C22.6715 31.668 22.734 31.8729 22.8695 32.0271C23.0049 32.1813 23.2002 32.2695 23.4053 32.2695C24.08 32.2695 24.6288 32.8184 24.6288 33.493V33.5684H24.6286ZM28.2681 39.1896L26.1607 38.1915L27.4746 36.8775L28.9532 38.0149L28.2681 39.1896ZM36.4911 38.5876L29.8767 39.2626L30.295 38.5454H32.7381C33.0264 38.5454 33.2866 38.3716 33.3969 38.1051C33.5074 37.8386 33.4464 37.5319 33.2424 37.3279L30.2075 34.2929C30.2908 34.3268 30.3738 34.3611 30.4562 34.3971C31.4483 34.8296 32.6468 35.1376 33.8821 35.3573L36.4911 38.5876ZM39.6508 44.1348L39.4829 41.9522L41.0578 41.4461L41.7155 42.6024C41.1681 43.2352 40.4795 43.7467 39.6508 44.1348ZM36.7389 30.8342C36.6 31.0133 36.5545 31.2477 36.6164 31.4657C36.6782 31.6837 36.8401 31.8594 37.0522 31.9389L42.8045 34.0961C42.994 34.7909 43.3962 36.5336 43.2685 38.4181C43.1958 39.4895 42.9676 40.4335 42.5869 41.249L42.1047 40.4012V35.1698C42.1047 34.9772 42.0269 34.7929 41.8889 34.6587C41.7508 34.5244 41.564 34.4512 41.372 34.4569C41.3039 34.4586 34.5486 34.6249 31.0263 33.0898C29.3978 32.38 27.5729 32.015 25.5928 32.0029C25.2609 31.5174 24.7735 31.146 24.2013 30.9654L25.1566 23.6132C25.1576 23.6053 25.1586 23.5975 25.1592 23.5894C25.2259 22.8956 25.0537 22.212 24.6916 21.6421L27.6523 21.5727C30.3459 22.494 32.7273 22.9556 34.7817 22.9556C35.4237 22.9556 36.0334 22.9097 36.6113 22.8197C36.7966 23.2285 37.0149 23.6363 37.2684 24.0419C39.3461 27.3663 36.8453 30.6955 36.7389 30.8342ZM37.5149 21.1489C37.3654 20.6065 37.2892 20.0672 37.2881 19.534C37.6033 20.0105 37.9904 20.4344 38.4341 20.794C38.1449 20.9318 37.8388 21.0506 37.5149 21.1489ZM39.715 19.9619C38.7406 19.339 38.0536 18.3331 37.8425 17.1507C38.1576 16.1165 38.638 15.2184 39.183 14.4518C39.6702 15.172 40.4458 16.2356 41.3961 17.2504C41.2561 17.8056 40.8424 18.9833 39.715 19.9619ZM42.1722 20.7893L41.1576 20.5476C41.8631 19.7912 42.2852 18.9905 42.534 18.3517C42.8017 18.5835 43.078 18.8026 43.3605 19.0034C42.9344 19.4991 42.5171 20.0924 42.1722 20.7893ZM45.1159 21.5932C44.6877 22.0213 43.9907 22.0215 43.5624 21.5932L43.431 21.4618C44.09 20.1118 45.096 19.2067 45.7494 18.7225L46.4366 20.2725L45.1159 21.5932Z" fill="#058DA6"/>
<path d="M42.4695 13.0799C42.0169 12.6143 41.2058 12.9981 41.2545 13.6363C41.2777 13.9396 41.4962 14.2021 41.7921 14.2758C42.0709 14.3454 42.3736 14.236 42.5426 14.0034C42.7459 13.7234 42.7142 13.3243 42.4695 13.0799Z" fill="#058DA6"/>
</g>
<defs>
<clipPath id="clip0_2408_12836">
<rect width="48" height="48" fill="white"/>
</clipPath>
</defs>
</svg>
