<svg width="48" height="46" viewBox="0 0 48 46" fill="none" xmlns="http://www.w3.org/2000/svg">
<path d="M47.9509 5.54105C47.8123 5.10228 47.4052 4.80393 46.945 4.80393H38.64C35.4489 2.05284 31.3996 0.390806 27.1913 0.112921C20.1433 -0.352645 13.2032 0.635458 6.56489 3.04938L0.694716 5.18394C0.147177 5.38301 -0.135349 5.98837 0.0638324 6.53591C0.21976 6.96455 0.624348 7.23072 1.05542 7.23062C1.17505 7.23062 1.2969 7.21004 1.41591 7.16679L7.28597 5.03223C13.6476 2.71896 20.2982 1.7721 27.0522 2.21815C29.9084 2.40678 32.682 3.31112 35.099 4.81353C34.5809 4.88052 34.1802 5.32235 34.1802 5.85871C34.1802 6.44138 34.6525 6.9137 35.2352 6.9137H43.6065L41.9332 8.08864C40.3165 9.2236 38.2433 9.49821 36.387 8.82323C35.8397 8.62415 35.234 8.90657 35.035 9.45411C34.836 10.0017 35.1184 10.607 35.6659 10.8061C36.5711 11.1352 37.5144 11.297 38.4531 11.297C38.9642 11.297 39.474 11.2486 39.9754 11.1536L38.6791 37.3702C38.6776 37.3999 38.6741 37.4297 38.6721 37.4594C36.9741 37.206 35.253 37.9527 34.2868 39.4007C33.9635 39.8854 34.0942 40.5404 34.5789 40.8639C34.7588 40.9839 34.9622 41.0414 35.1634 41.0414C35.5042 41.0414 35.8386 40.8766 36.042 40.572C36.4937 39.895 37.2577 39.5081 38.0488 39.5204C37.4699 40.5318 36.5489 41.2965 35.4452 41.6772L34.5154 41.9978C34.3695 42.0481 34.2204 42.0837 34.07 42.1062L32.9354 37.5678C32.794 37.0025 32.221 36.6588 31.656 36.8002C31.0907 36.9414 30.747 37.5143 30.8884 38.0796L31.7158 41.3894L30.8591 40.9039C30.2207 40.5421 29.901 39.8183 30.0636 39.1028C30.334 37.913 30.2611 36.6764 29.8526 35.5267L27.5188 28.9573C27.7902 29.0039 28.0664 29.0386 28.3482 29.0578L33.1064 29.3817C33.1308 29.3834 33.155 29.3842 33.1791 29.3842C33.7291 29.3842 34.1926 28.9577 34.2306 28.4009C34.2702 27.8196 33.831 27.3162 33.2497 27.2767L28.4915 26.9528C25.4327 26.7445 23.9541 24.4681 23.6172 22.5818C23.2803 20.6955 23.8796 18.0478 26.6771 16.7938L30.9195 14.8921C31.4512 14.6537 31.6889 14.0295 31.4506 13.4978C31.2123 12.9662 30.5884 12.7283 30.0563 12.9667L25.814 14.8684C24.4453 15.482 23.3414 16.4165 22.5784 17.5962C20.6904 18.1166 13.123 20.4104 7.94977 25.0089C7.51427 25.3959 7.47503 26.0628 7.8621 26.4983C8.07057 26.7328 8.36016 26.8525 8.65102 26.8524C8.90032 26.8524 9.15056 26.7645 9.35153 26.5859C13.2059 23.1597 18.6816 21.0535 21.5663 20.1117C21.3834 21.0367 21.3708 22.0054 21.54 22.9528C21.6551 23.5976 21.8535 24.2224 22.1228 24.8097C21.7317 25.9642 20.4843 29.4851 18.6188 33.2175C15.6945 39.0682 12.6034 42.785 9.67974 43.9663C9.13948 44.1846 8.87848 44.7994 9.09675 45.3397C9.2627 45.7504 9.6579 45.9998 10.0753 45.9998C10.2068 45.9998 10.3406 45.975 10.4701 45.9227C17.0715 43.2555 21.9058 31.6065 23.6058 26.957C23.6384 26.9896 23.6703 27.0231 23.7034 27.0549C24.0827 27.4201 24.4974 27.7378 24.9421 28.0073L27.8644 36.2332C28.1387 37.0055 28.1877 37.8362 28.0061 38.6353C27.6356 40.2659 28.364 41.9153 29.8187 42.7397L31.4146 43.644C32.1175 44.0422 32.9045 44.2451 33.6958 44.2451C34.2036 44.2451 34.7133 44.1616 35.2033 43.9926L36.1331 43.6719C37.7586 43.1114 39.1101 41.973 39.9388 40.4664C40.4419 39.5518 40.7349 38.5173 40.7866 37.4747L42.1242 10.4258C42.4765 10.2486 42.8183 10.0459 43.1458 9.81587L47.5514 6.72253C47.9278 6.45784 48.0896 5.97982 47.9509 5.54105Z" fill="#058DA6"/>
<path d="M36.5079 21.2806C36.7163 21.5121 37.0038 21.6299 37.2925 21.6299C37.5439 21.6299 37.7963 21.5406 37.9979 21.3591C38.431 20.9693 38.4661 20.3022 38.0764 19.8691L36.6522 18.2868C36.2625 17.8537 35.5955 17.8186 35.1623 18.2083C34.7291 18.598 34.6941 19.2652 35.0838 19.6982L36.5079 21.2806Z" fill="#058DA6"/>
</svg>
