<svg width="48" height="38" viewBox="0 0 48 38" fill="none" xmlns="http://www.w3.org/2000/svg">
<path d="M47.2969 35.6909H46.1744L46.9792 34.8444C47.2467 34.563 47.2355 34.118 46.954 33.8503C46.6727 33.5828 46.2277 33.5939 45.9599 33.8754L44.6777 35.2241L43.986 34.0116C43.7935 33.6742 43.364 33.5568 43.0269 33.7492C42.6895 33.9416 42.5721 34.371 42.7645 34.7082L43.3251 35.6908H40.0164V32.6867C40.0164 32.2983 39.7017 31.9836 39.3133 31.9836C38.9249 31.9836 38.6102 32.2983 38.6102 32.6867V35.6908H36.79V23.4972H38.6102V29.8753C38.6102 30.2637 38.9249 30.5784 39.3133 30.5784C39.7017 30.5784 40.0164 30.2637 40.0164 29.8753V23.4972H41.5727C43.8657 23.4972 45.7312 21.6318 45.7312 19.3387C45.7312 19.2106 45.7253 19.0826 45.7135 18.9551C47.0672 18.3358 47.9678 16.971 47.9678 15.4438C47.9678 14.1328 47.3112 12.9363 46.2476 12.2296C46.3743 11.8696 46.4396 11.4892 46.4396 11.103C46.4396 9.82941 45.7434 8.70019 44.6696 8.118C44.8321 7.71169 44.914 7.27575 44.9099 6.82622C44.901 5.86191 44.4756 4.94259 43.7428 4.30416C43.0043 3.66075 42.0342 3.36206 41.0806 3.48488C41.0417 3.49013 40.9969 3.47259 40.9855 3.42947C40.9573 3.32316 40.9222 3.216 40.8751 3.09178C40.7371 2.72888 40.331 2.54653 39.968 2.68434C39.605 2.82234 39.4226 3.22847 39.5605 3.59147C39.5899 3.66872 39.6108 3.73172 39.6259 3.78881C39.8152 4.50609 40.5174 4.97597 41.2601 4.8795C41.8153 4.80769 42.3833 4.98478 42.819 5.36428C43.2552 5.74444 43.4984 6.26831 43.5037 6.83906C43.5078 7.28288 43.3689 7.70409 43.1025 8.05697C42.9594 8.24644 42.9216 8.49563 43.0022 8.71903C43.0826 8.94253 43.2706 9.11016 43.5018 9.16491C44.4036 9.37819 45.0334 10.1751 45.0334 11.1029C45.0334 11.4768 44.9288 11.8415 44.7309 12.1575C44.6214 12.3324 44.5943 12.5466 44.6568 12.7433C44.7191 12.9399 44.8648 13.0992 45.0551 13.179C45.9702 13.5626 46.5615 14.4516 46.5615 15.4436C46.5615 16.5537 45.8134 17.5287 44.7422 17.8148C44.3709 17.914 44.148 18.2929 44.2417 18.6655C44.2969 18.8851 44.3249 19.1115 44.3249 19.3386C44.3249 20.8562 43.0902 22.0908 41.5727 22.0908H33.8276C32.31 22.0908 31.0754 20.8561 31.0754 19.3386C31.0754 19.1115 31.1034 18.8851 31.1586 18.6655C31.2523 18.2928 31.0294 17.9139 30.6581 17.8148C29.5868 17.5287 28.8388 16.5537 28.8388 15.4436C28.8388 14.4516 29.4302 13.5626 30.3452 13.179C30.5355 13.0991 30.6812 12.9398 30.7435 12.7433C30.806 12.5466 30.7789 12.3324 30.6694 12.1575C30.4716 11.8415 30.3669 11.4768 30.3669 11.1029C30.3669 10.1752 30.9967 9.37819 31.8985 9.16491C32.1297 9.11025 32.3176 8.94253 32.3981 8.71903C32.4787 8.49553 32.441 8.24653 32.2978 8.05697C32.0312 7.70381 31.8925 7.28259 31.8967 6.83878C31.9015 6.31266 32.1154 5.81597 32.4987 5.44031C32.8824 5.06419 33.3818 4.85625 33.9105 4.866C33.9898 4.86684 34.0692 4.87238 34.1466 4.88241C34.8844 4.97813 35.5851 4.50919 35.774 3.79059C36.0035 2.91797 36.7957 2.30859 37.7003 2.30859C37.7617 2.30859 37.8292 2.31272 37.9125 2.32153C38.2996 2.36278 38.6449 2.08256 38.6858 1.69641C38.7267 1.31025 38.4468 0.964031 38.0606 0.923156C37.9269 0.909 37.8125 0.902344 37.7003 0.902344C36.1573 0.902344 34.8059 1.94297 34.414 3.43275C34.4043 3.46988 34.3676 3.492 34.3275 3.48788C34.1954 3.47072 34.0602 3.46134 33.9259 3.45975C33.9135 3.45966 33.9011 3.45956 33.8888 3.45956C32.9997 3.45956 32.1577 3.80541 31.5144 4.43597C30.8626 5.07478 30.4989 5.9235 30.4904 6.82556C30.4863 7.27528 30.5681 7.71141 30.7307 8.11781C29.6569 8.7 28.9607 9.82922 28.9607 11.1029C28.9607 11.489 29.026 11.8695 29.1527 12.2295C28.0891 12.9362 27.4325 14.1327 27.4325 15.4437C27.4325 16.9709 28.333 18.3357 29.6868 18.955C29.6751 19.0824 29.6692 19.2105 29.6692 19.3387C29.6692 21.6317 31.5346 23.4971 33.8276 23.4971H35.3839V35.6907H31.9604L32.4928 35.0706C32.7458 34.7759 32.712 34.332 32.4173 34.0792C32.1224 33.8261 31.6785 33.8601 31.4258 34.1547L30.4888 35.2463L29.96 34.4853C29.7383 34.1665 29.3003 34.0876 28.9813 34.3091C28.6625 34.5308 28.5836 34.9689 28.8052 35.2878L29.0853 35.6908H26.2511V31.5444H29.3826C29.771 31.5444 30.0857 31.2297 30.0857 30.8413V28.4959C30.0857 27.5011 29.2763 26.6917 28.2815 26.6917H24.3691V23.5215H26.8427C27.2311 23.5215 27.5458 23.2068 27.5458 22.8184V19.7591C27.5458 19.3707 27.2311 19.056 26.8427 19.056H24.3691V18.9327C24.3691 18.5443 24.0544 18.2296 23.666 18.2296C23.2776 18.2296 22.9628 18.5443 22.9628 18.9327V19.056H10.5507V18.9327C10.5507 18.5443 10.236 18.2296 9.84759 18.2296C9.45919 18.2296 9.14447 18.5443 9.14447 18.9327V19.056H6.67087C6.28247 19.056 5.96775 19.3707 5.96775 19.7591V22.8184C5.96775 23.2068 6.28247 23.5215 6.67087 23.5215H9.14447V26.6917H5.232C4.23722 26.6917 3.42778 27.5011 3.42778 28.4959V30.8413C3.42778 31.2297 3.7425 31.5444 4.13091 31.5444H7.26244V35.6909H4.86572L5.31141 35.1577C5.56041 34.8597 5.52075 34.4163 5.22281 34.1673C4.92487 33.9183 4.48144 33.9579 4.23244 34.2559L3.40547 35.2453L3.10922 34.8304C2.88356 34.5144 2.44425 34.4409 2.12841 34.6668C1.81237 34.8924 1.73916 35.3316 1.96481 35.6476L1.99575 35.6909H0.703125C0.314719 35.6909 0 36.0056 0 36.394C0 36.7824 0.314719 37.0972 0.703125 37.0972H47.2969C47.6853 37.0972 48 36.7824 48 36.394C48 36.0056 47.6853 35.6909 47.2969 35.6909ZM7.374 20.4622H26.1395V22.1152H7.374V20.4622ZM10.5507 23.5215H22.9628V26.6917H10.5507V23.5215ZM8.66869 31.5444H10.463C10.8514 31.5444 11.1661 31.2297 11.1661 30.8413C11.1661 30.4529 10.8514 30.1382 10.463 30.1382H4.83394V28.4959C4.83394 28.2764 5.01244 28.0979 5.23191 28.0979H28.2814C28.5008 28.0979 28.6793 28.2764 28.6793 28.4959V30.1382H13.2742C12.8858 30.1382 12.571 30.4529 12.571 30.8413C12.571 31.2297 12.8858 31.5444 13.2742 31.5444H24.8449V35.6909H8.66869V31.5444Z" fill="#058DA6"/>
</svg>
