<svg width="42" height="48" viewBox="0 0 42 48" fill="none" xmlns="http://www.w3.org/2000/svg">
<path d="M41.236 23.8671L38.8511 21.2962C38.4593 20.8738 37.9263 20.6343 37.3502 20.622C37.0316 20.6144 36.7246 20.6775 36.4444 20.8031L34.5822 18.6434L32.5904 16.3391C31.704 15.3139 30.5651 14.5198 29.2967 14.0428C29.1097 13.9724 28.9124 13.9399 28.7155 13.9404L24.142 10.1262L21.9027 6.36775C21.704 6.03406 21.2725 5.92474 20.9387 6.1236C20.6051 6.32237 20.4958 6.75405 20.6945 7.08764L22.9953 10.9493C23.036 11.0177 23.088 11.0785 23.1491 11.1294L27.3683 14.6481C27.2733 14.7857 27.1989 14.9382 27.1494 15.1004L26.4476 17.4037C26.4206 17.492 26.3728 17.574 26.3092 17.641L23.6275 20.4659C23.5221 20.577 23.3799 20.6427 23.227 20.6512L15.5141 21.0793C15.2841 21.0921 15.0601 21.1302 14.8446 21.1899L14.3238 15.6424C14.2754 15.1266 14.0693 14.6481 13.7276 14.2583L1.43504 0.239701C1.17889 -0.0524544 0.734561 -0.0816137 0.442687 0.174632C0.150718 0.430597 0.121559 0.874925 0.377617 1.16689L12.6699 15.1854C12.8151 15.3511 12.9028 15.5545 12.9234 15.7737L13.5039 21.9567C13.16 22.289 12.8887 22.7011 12.722 23.1731L8.01173 36.5192C8.00142 36.5485 7.97714 36.5694 7.94779 36.5772L7.91713 36.5829L5.20325 36.9423C2.96005 37.2394 1.26843 39.1699 1.26843 41.4327V43.0042C0.806569 43.2548 0.492286 43.744 0.492286 44.3053V46.5206C0.492286 47.3363 1.15592 48 1.97163 48H14.9893C15.5586 48 16.1057 47.8271 16.5715 47.5L29.4168 38.483C29.5924 38.3598 29.7022 38.163 29.7148 37.9488L29.7752 36.9229L30.7045 36.8648C30.8617 36.855 31.0109 36.7927 31.1284 36.6879L33.5516 34.5284C33.6919 34.4034 33.7763 34.2273 33.786 34.0396L33.8485 32.8228H35.2159C35.4101 32.8228 35.5956 32.7425 35.7285 32.6009L41.2272 26.7452C41.9829 25.9405 41.9868 24.6762 41.236 23.8671ZM35.3547 21.6929L31.8806 25.1296C30.7536 23.1589 31.0046 20.7189 32.5238 19.017L32.7892 18.7196L33.5175 19.5622L35.3547 21.6929ZM14.0482 23.6411C14.2827 22.9769 14.8886 22.5224 15.5918 22.4834L18.8407 22.303L14.4963 33.4614C13.9971 34.7433 12.8917 35.6587 11.5391 35.9099L9.59028 36.2719L14.0482 23.6411ZM19.8495 37.0309L14.9243 35.4687C15.2913 35.0287 15.5911 34.5257 15.8068 33.9717L16.4272 32.3785L22.3231 34.584L19.8495 37.0309ZM23.4245 33.4945L16.9374 31.0679L18.1141 28.0457L25.9978 30.949L23.4245 33.4945ZM40.202 25.7825L34.9115 31.4164H33.1805C32.8062 31.4164 32.4974 31.7096 32.4782 32.0834L32.3963 33.6738L30.3739 35.4763L29.0657 35.558C28.7109 35.5802 28.4285 35.8637 28.4076 36.2186L28.3305 37.5271L15.7632 46.3489C15.5353 46.509 15.2676 46.5936 14.9892 46.5936H1.97154C1.93131 46.5936 1.89859 46.5607 1.89859 46.5206V44.3053C1.89859 44.265 1.93131 44.2324 1.97154 44.2324H7.51556C7.90391 44.2324 8.21876 43.9177 8.21876 43.5292C8.21876 43.1408 7.90391 42.826 7.51556 42.826H2.67473V41.4327C2.67473 39.8725 3.84111 38.5415 5.38786 38.3366L11.796 37.2929C12.4826 37.1653 13.1223 36.9114 13.6895 36.5526L18.72 38.1482L13.9911 42.826H10.5123C10.124 42.826 9.80911 43.1408 9.80911 43.5292C9.80911 43.9177 10.124 44.2324 10.5123 44.2324H14.2801C14.4653 44.2324 14.643 44.1594 14.7746 44.0291L28.4957 30.4561C28.7719 30.183 28.7743 29.7377 28.5012 29.4617C28.2281 29.1855 27.7828 29.1831 27.5068 29.4562L27.1018 29.8569L18.6243 26.7349L20.3832 22.2175L23.3045 22.0554C23.817 22.0271 24.2939 21.8064 24.6473 21.4341L27.3287 18.6095C27.5418 18.3851 27.7022 18.1099 27.7925 17.8137L28.4944 15.5104C28.5202 15.4259 28.5812 15.385 28.6153 15.3682C28.6494 15.3515 28.7188 15.328 28.8015 15.359C29.8508 15.7537 30.793 16.4107 31.5263 17.2588L31.8617 17.6468L31.4745 18.0806C29.5116 20.2796 29.2181 23.4514 30.744 25.9733L30.8502 26.1488L29.6372 27.3488C29.3611 27.6219 29.3586 28.0672 29.6317 28.3432C29.9048 28.6193 30.35 28.6219 30.6262 28.3486L36.8104 22.2312C36.9469 22.0962 37.1262 22.0216 37.3198 22.0282C37.5117 22.0323 37.6892 22.1121 37.8198 22.2528L38.7009 23.2026L33.5566 28.2658C33.2798 28.5383 33.2763 28.9835 33.5487 29.2603C33.6864 29.4002 33.8681 29.4702 34.05 29.4702C34.228 29.4702 34.4063 29.403 34.5433 29.2682L39.6579 24.2342L40.2048 24.8236C40.4551 25.0932 40.4538 25.5144 40.202 25.7825Z" fill="#058DA6"/>
<path d="M15.2777 25.7953C15.3429 25.8141 15.4086 25.8231 15.4732 25.8231C15.7784 25.8231 16.0595 25.6228 16.1485 25.315L16.2377 25.0061C16.3456 24.633 16.1305 24.2431 15.7573 24.1354C15.3839 24.0272 14.9943 24.2427 14.8866 24.6157L14.7973 24.9245C14.6896 25.2976 14.9047 25.6876 15.2777 25.7953Z" fill="#058DA6"/>
<path d="M13.9535 29.5969C14.0187 29.6157 14.0844 29.6247 14.1491 29.6247C14.4542 29.6247 14.7352 29.4245 14.8243 29.1167L14.9136 28.8078C15.0214 28.4347 14.8064 28.0448 14.4332 27.937C14.0601 27.8292 13.6703 28.0442 13.5624 28.4172L13.4731 28.7261C13.3653 29.0991 13.5803 29.489 13.9535 29.5969Z" fill="#058DA6"/>
<path d="M12.5214 33.5463C12.5866 33.5651 12.6523 33.5741 12.7169 33.5741C13.0221 33.5741 13.3032 33.3738 13.3922 33.0659L13.4814 32.7571C13.5893 32.384 13.3742 31.9941 13.001 31.8863C12.6277 31.7782 12.238 31.9937 12.1303 32.3667L12.041 32.6755C11.9332 33.0486 12.1483 33.4385 12.5214 33.5463Z" fill="#058DA6"/>
<path d="M19.1603 4.51286C19.2918 4.73366 19.5254 4.85621 19.765 4.85621C19.8875 4.85621 20.0114 4.82424 20.1243 4.75701C20.458 4.55824 20.5673 4.12657 20.3685 3.79297L18.3133 0.343452C18.1146 0.0097604 17.6829 -0.0996574 17.3492 0.0993011C17.0155 0.298072 16.9063 0.729743 17.1051 1.06334L19.1603 4.51286Z" fill="#058DA6"/>
</svg>
