<svg width="48" height="48" viewBox="0 0 48 48" fill="none" xmlns="http://www.w3.org/2000/svg">
<path d="M47.2969 32.3235H45.9712V29.7586C45.9712 28.6493 45.1157 27.7366 44.0299 27.6443C45.5075 21.7666 43.8905 16.6578 39.3199 12.1805C39.0407 11.9105 38.5957 11.9175 38.3257 12.1966C38.0556 12.4756 38.0628 12.9209 38.3418 13.1909C42.6489 17.4277 44.0674 22.1008 42.5844 27.636H19.2781C16.3218 17.8341 24.937 11.0655 29.8332 8.79239C30.521 8.45039 31.3419 8.45039 32.0295 8.79239C32.962 9.25636 34.3911 10.0413 35.9028 11.1459C36.2166 11.3749 36.6562 11.3065 36.8853 10.9929C37.1143 10.6793 37.046 10.2394 36.7324 10.0104C35.4101 9.04439 34.1494 8.31145 33.1974 7.81092L32.907 5.63845C32.5491 3.3473 29.3118 3.3488 28.9548 5.63845L28.6643 7.81083C23.3574 10.4169 15.0178 17.5864 17.8325 27.6443C16.7464 27.7364 15.8906 28.6492 15.8906 29.7586V32.3235H12.2458V14.7818C12.8789 14.703 13.3708 14.1628 13.3708 13.5087V11.858C13.3708 11.351 13.0747 10.913 12.6471 10.7044C13.5285 6.81933 9.89531 4.01967 8.15438 3.2558C8.11266 3.23508 8.07009 3.21652 8.02716 3.19917V0.700922C7.99491 -0.230109 6.65287 -0.229359 6.62091 0.700922V3.19917C6.57806 3.21661 6.53559 3.23498 6.49397 3.2557C4.74966 4.02239 1.12041 6.81914 2.00109 10.7043C1.57341 10.9129 1.27716 11.3509 1.27716 11.8579V13.5086C1.27716 14.1627 1.76906 14.703 2.40216 14.7817V32.3235H0.703125C0.314719 32.3235 0 32.6383 0 33.0266V41.1702C0.03225 42.1012 1.37428 42.1005 1.40625 41.1702V36.5422H46.5938V46.5915H39.8052V41.8957C39.5999 36.5026 31.8689 36.5066 31.6656 41.8957V46.5915H28.0699V41.8957C27.8646 36.5025 20.1337 36.5067 19.9303 41.8957V46.5915H16.3346V41.8957C16.1293 36.5025 8.39831 36.5067 8.19497 41.8957V46.5915H1.40625V44.4929C1.374 43.5618 0.0319688 43.5626 0 44.4929V47.2946C0 47.6829 0.314719 47.9977 0.703125 47.9977H47.2969C47.6853 47.9977 48 47.6829 48 47.2946V33.0267C48 32.6384 47.6853 32.3235 47.2969 32.3235ZM30.9309 5.31502C31.2241 5.31502 31.4744 5.53411 31.5133 5.82464L31.6982 7.20783C31.1922 7.10648 30.6697 7.10658 30.1637 7.20792L30.3487 5.82455C30.3876 5.53411 30.6379 5.31502 30.9309 5.31502ZM33.0718 41.8958C33.2062 38.3661 38.2658 38.3688 38.399 41.8958V46.5915H33.0718V41.8958ZM21.3365 41.8958C21.4708 38.3661 26.5305 38.3688 26.6635 41.8958V46.5915H21.3365V41.8958ZM9.60103 41.8958C9.73538 38.3662 14.7952 38.3688 14.9282 41.8958V46.5915H9.60103V41.8958ZM17.2969 29.7585C17.2969 29.3636 17.6182 29.0422 18.0132 29.0422H43.8487C44.2436 29.0422 44.565 29.3636 44.565 29.7585V32.3235H17.2969V29.7585ZM2.68331 13.3864V11.9802H11.9646V13.3864H2.68331ZM7.12012 4.51477C7.24772 4.4512 7.40025 4.4512 7.52794 4.51477C9.00412 5.1758 12.0433 7.45486 11.2396 10.5739H3.40847C2.60325 7.45552 5.64712 5.17364 7.12012 4.51477ZM3.80831 14.7927H10.8396V32.3235H3.80831V14.7927ZM1.40625 35.136V33.7298H46.5938V35.136H1.40625Z" fill="#058DA6"/>
<path d="M7.32373 16.333C6.16067 16.333 5.21436 17.2792 5.21436 18.4424V19.9424C5.32076 22.7376 9.32773 22.7355 9.43311 19.9424V18.4424C9.43311 17.2793 8.48679 16.333 7.32373 16.333ZM8.02686 19.9424C7.99376 20.8732 6.65342 20.8726 6.62061 19.9424V18.4424C6.6537 17.5115 7.99404 17.5122 8.02686 18.4424V19.9424Z" fill="#058DA6"/>
<path d="M7.32373 24.4961C6.16067 24.4961 5.21436 25.4423 5.21436 26.6055V28.1055C5.32076 30.9007 9.32773 30.8986 9.43311 28.1055V26.6055C9.43311 25.4424 8.48679 24.4961 7.32373 24.4961ZM8.02686 28.1055C7.99376 29.0363 6.65342 29.0357 6.62061 28.1055V26.6055C6.6537 25.6746 7.99404 25.6753 8.02686 26.6055V28.1055Z" fill="#058DA6"/>
</svg>
