<svg width="48" height="40" viewBox="0 0 48 40" fill="none" xmlns="http://www.w3.org/2000/svg">
<path d="M4.63672 31.3461C4.63672 31.7345 4.95153 32.0493 5.33984 32.0493C5.72816 32.0493 6.04297 31.7345 6.04297 31.3461V30.2314C6.04297 29.843 5.72816 29.5283 5.33984 29.5283C4.95153 29.5283 4.63672 29.843 4.63672 30.2314V31.3461Z" fill="#058DA6"/>
<path d="M7.50928 31.3461C7.50928 31.7345 7.82409 32.0493 8.2124 32.0493C8.60071 32.0493 8.91553 31.7345 8.91553 31.3461V30.2314C8.91553 29.843 8.60071 29.5283 8.2124 29.5283C7.82409 29.5283 7.50928 29.843 7.50928 30.2314V31.3461Z" fill="#058DA6"/>
<path d="M10.3821 31.3461C10.3821 31.7345 10.6969 32.0493 11.0852 32.0493C11.4735 32.0493 11.7883 31.7345 11.7883 31.3461V30.2314C11.7883 29.843 11.4735 29.5283 11.0852 29.5283C10.6969 29.5283 10.3821 29.843 10.3821 30.2314V31.3461Z" fill="#058DA6"/>
<path d="M13.2546 31.3461C13.2546 31.7345 13.5695 32.0493 13.9578 32.0493C14.3461 32.0493 14.6609 31.7345 14.6609 31.3461V30.2314C14.6609 29.843 14.3461 29.5283 13.9578 29.5283C13.5695 29.5283 13.2546 29.843 13.2546 30.2314V31.3461Z" fill="#058DA6"/>
<path d="M4.63672 26.9057C4.63672 27.2941 4.95153 27.6088 5.33984 27.6088C5.72816 27.6088 6.04297 27.2941 6.04297 26.9057V25.791C6.04297 25.4026 5.72816 25.0879 5.33984 25.0879C4.95153 25.0879 4.63672 25.4026 4.63672 25.791V26.9057Z" fill="#058DA6"/>
<path d="M7.50928 26.9057C7.50928 27.2941 7.82409 27.6088 8.2124 27.6088C8.60071 27.6088 8.91553 27.2941 8.91553 26.9057V25.791C8.91553 25.4026 8.60071 25.0879 8.2124 25.0879C7.82409 25.0879 7.50928 25.4026 7.50928 25.791V26.9057Z" fill="#058DA6"/>
<path d="M10.3821 26.9057C10.3821 27.2941 10.6969 27.6088 11.0852 27.6088C11.4735 27.6088 11.7883 27.2941 11.7883 26.9057V25.791C11.7883 25.4026 11.4735 25.0879 11.0852 25.0879C10.6969 25.0879 10.3821 25.4026 10.3821 25.791V26.9057Z" fill="#058DA6"/>
<path d="M13.2546 26.9057C13.2546 27.2941 13.5695 27.6088 13.9578 27.6088C14.3461 27.6088 14.6609 27.2941 14.6609 26.9057V25.791C14.6609 25.4026 14.3461 25.0879 13.9578 25.0879C13.5695 25.0879 13.2546 25.4026 13.2546 25.791V26.9057Z" fill="#058DA6"/>
<path d="M4.63672 22.4663C4.63672 22.8547 4.95153 23.1694 5.33984 23.1694C5.72816 23.1694 6.04297 22.8547 6.04297 22.4663V21.3516C6.04297 20.9632 5.72816 20.6484 5.33984 20.6484C4.95153 20.6484 4.63672 20.9632 4.63672 21.3516V22.4663Z" fill="#058DA6"/>
<path d="M7.50928 22.4663C7.50928 22.8547 7.82409 23.1694 8.2124 23.1694C8.60071 23.1694 8.91553 22.8547 8.91553 22.4663V21.3516C8.91553 20.9632 8.60071 20.6484 8.2124 20.6484C7.82409 20.6484 7.50928 20.9632 7.50928 21.3516V22.4663Z" fill="#058DA6"/>
<path d="M10.3821 22.4663C10.3821 22.8547 10.6969 23.1694 11.0852 23.1694C11.4735 23.1694 11.7883 22.8547 11.7883 22.4663V21.3516C11.7883 20.9632 11.4735 20.6484 11.0852 20.6484C10.6969 20.6484 10.3821 20.9632 10.3821 21.3516V22.4663Z" fill="#058DA6"/>
<path d="M13.2546 22.4663C13.2546 22.8547 13.5695 23.1694 13.9578 23.1694C14.3461 23.1694 14.6609 22.8547 14.6609 22.4663V21.3516C14.6609 20.9632 14.3461 20.6484 13.9578 20.6484C13.5695 20.6484 13.2546 20.9632 13.2546 21.3516V22.4663Z" fill="#058DA6"/>
<path d="M4.63672 18.0269C4.63672 18.4153 4.95153 18.73 5.33984 18.73C5.72816 18.73 6.04297 18.4153 6.04297 18.0269V16.9121C6.04297 16.5237 5.72816 16.209 5.33984 16.209C4.95153 16.209 4.63672 16.5237 4.63672 16.9121V18.0269Z" fill="#058DA6"/>
<path d="M7.50928 18.0269C7.50928 18.4153 7.82409 18.73 8.2124 18.73C8.60071 18.73 8.91553 18.4153 8.91553 18.0269V16.9121C8.91553 16.5237 8.60071 16.209 8.2124 16.209C7.82409 16.209 7.50928 16.5237 7.50928 16.9121V18.0269Z" fill="#058DA6"/>
<path d="M10.3821 18.0269C10.3821 18.4153 10.6969 18.73 11.0852 18.73C11.4735 18.73 11.7883 18.4153 11.7883 18.0269V16.9121C11.7883 16.5237 11.4735 16.209 11.0852 16.209C10.6969 16.209 10.3821 16.5237 10.3821 16.9121V18.0269Z" fill="#058DA6"/>
<path d="M13.2546 18.0269C13.2546 18.4153 13.5695 18.73 13.9578 18.73C14.3461 18.73 14.6609 18.4153 14.6609 18.0269V16.9121C14.6609 16.5237 14.3461 16.209 13.9578 16.209C13.5695 16.209 13.2546 16.5237 13.2546 16.9121V18.0269Z" fill="#058DA6"/>
<path d="M4.63672 13.5864C4.63672 13.9748 4.95153 14.2895 5.33984 14.2895C5.72816 14.2895 6.04297 13.9748 6.04297 13.5864V12.4717C6.04297 12.0833 5.72816 11.7686 5.33984 11.7686C4.95153 11.7686 4.63672 12.0833 4.63672 12.4717V13.5864Z" fill="#058DA6"/>
<path d="M7.50928 13.5864C7.50928 13.9748 7.82409 14.2895 8.2124 14.2895C8.60071 14.2895 8.91553 13.9748 8.91553 13.5864V12.4717C8.91553 12.0833 8.60071 11.7686 8.2124 11.7686C7.82409 11.7686 7.50928 12.0833 7.50928 12.4717V13.5864Z" fill="#058DA6"/>
<path d="M10.3821 13.5864C10.3821 13.9748 10.6969 14.2895 11.0852 14.2895C11.4735 14.2895 11.7883 13.9748 11.7883 13.5864V12.4717C11.7883 12.0833 11.4735 11.7686 11.0852 11.7686C10.6969 11.7686 10.3821 12.0833 10.3821 12.4717V13.5864Z" fill="#058DA6"/>
<path d="M13.9578 14.2895C14.3461 14.2895 14.6609 13.9748 14.6609 13.5864V12.4717C14.6609 12.0833 14.3461 11.7686 13.9578 11.7686C13.5695 11.7686 13.2546 12.0833 13.2546 12.4717V13.5864C13.2546 13.9747 13.5695 14.2895 13.9578 14.2895Z" fill="#058DA6"/>
<path d="M5.33984 9.85004C5.72816 9.85004 6.04297 9.53532 6.04297 9.14691V8.03223C6.04297 7.64382 5.72816 7.3291 5.33984 7.3291C4.95153 7.3291 4.63672 7.64382 4.63672 8.03223V9.14691C4.63672 9.53532 4.95153 9.85004 5.33984 9.85004Z" fill="#058DA6"/>
<path d="M8.2124 9.85004C8.60071 9.85004 8.91553 9.53532 8.91553 9.14691V8.03223C8.91553 7.64382 8.60071 7.3291 8.2124 7.3291C7.82409 7.3291 7.50928 7.64382 7.50928 8.03223V9.14691C7.50928 9.53532 7.82409 9.85004 8.2124 9.85004Z" fill="#058DA6"/>
<path d="M11.0852 9.85004C11.4735 9.85004 11.7883 9.53532 11.7883 9.14691V8.03223C11.7883 7.64382 11.4735 7.3291 11.0852 7.3291C10.6969 7.3291 10.3821 7.64382 10.3821 8.03223V9.14691C10.3821 9.53532 10.6969 9.85004 11.0852 9.85004Z" fill="#058DA6"/>
<path d="M25.3315 34.8545H19.7166C19.3282 34.8545 19.0134 35.1692 19.0134 35.5576C19.0134 35.946 19.3282 36.2607 19.7166 36.2607H25.3315C25.7199 36.2607 26.0346 35.946 26.0346 35.5576C26.0346 35.1692 25.7198 34.8545 25.3315 34.8545Z" fill="#058DA6"/>
<path d="M25.3315 31.9023H19.7166C19.3282 31.9023 19.0134 32.2171 19.0134 32.6055C19.0134 32.9939 19.3282 33.3086 19.7166 33.3086H25.3315C25.7199 33.3086 26.0346 32.9939 26.0346 32.6055C26.0346 32.2171 25.7198 31.9023 25.3315 31.9023Z" fill="#058DA6"/>
<path d="M25.3315 28.9512H19.7166C19.3282 28.9512 19.0134 29.2659 19.0134 29.6543C19.0134 30.0427 19.3282 30.3574 19.7166 30.3574H25.3315C25.7199 30.3574 26.0346 30.0427 26.0346 29.6543C26.0346 29.2659 25.7198 28.9512 25.3315 28.9512Z" fill="#058DA6"/>
<path d="M25.3315 25.999H19.7166C19.3282 25.999 19.0134 26.3137 19.0134 26.7021C19.0134 27.0906 19.3282 27.4053 19.7166 27.4053H25.3315C25.7199 27.4053 26.0346 27.0906 26.0346 26.7021C26.0346 26.3137 25.7198 25.999 25.3315 25.999Z" fill="#058DA6"/>
<path d="M25.3315 23.0469H19.7166C19.3282 23.0469 19.0134 23.3616 19.0134 23.75C19.0134 24.1384 19.3282 24.4531 19.7166 24.4531H25.3315C25.7199 24.4531 26.0346 24.1384 26.0346 23.75C26.0346 23.3616 25.7198 23.0469 25.3315 23.0469Z" fill="#058DA6"/>
<path d="M25.3315 20.0957H19.7166C19.3282 20.0957 19.0134 20.4104 19.0134 20.7988C19.0134 21.1872 19.3282 21.502 19.7166 21.502H25.3315C25.7199 21.502 26.0346 21.1872 26.0346 20.7988C26.0346 20.4104 25.7198 20.0957 25.3315 20.0957Z" fill="#058DA6"/>
<path d="M25.3315 17.1436H19.7166C19.3282 17.1436 19.0134 17.4583 19.0134 17.8467C19.0134 18.2351 19.3282 18.5498 19.7166 18.5498H25.3315C25.7199 18.5498 26.0346 18.2351 26.0346 17.8467C26.0346 17.4583 25.7198 17.1436 25.3315 17.1436Z" fill="#058DA6"/>
<path d="M25.3315 14.1914H19.7166C19.3282 14.1914 19.0134 14.5061 19.0134 14.8945C19.0134 15.2829 19.3282 15.5977 19.7166 15.5977H25.3315C25.7199 15.5977 26.0346 15.2829 26.0346 14.8945C26.0346 14.5061 25.7198 14.1914 25.3315 14.1914Z" fill="#058DA6"/>
<path d="M25.3315 11.2402H19.7166C19.3282 11.2402 19.0134 11.555 19.0134 11.9434C19.0134 12.3318 19.3282 12.6465 19.7166 12.6465H25.3315C25.7199 12.6465 26.0346 12.3318 26.0346 11.9434C26.0346 11.555 25.7198 11.2402 25.3315 11.2402Z" fill="#058DA6"/>
<path d="M46.8382 35.3022C47.4788 35.3022 48 34.7809 48 34.1404V30.7519C48 30.1113 47.4788 29.59 46.8382 29.59H44.7281C44.3397 29.59 44.025 29.9047 44.025 30.2931C44.025 30.6815 44.3397 30.9963 44.7281 30.9963H46.5938V33.8959H37.425V30.9964H42.0094C42.3978 30.9964 42.7125 30.6816 42.7125 30.2932C42.7125 29.9048 42.3978 29.5901 42.0094 29.5901H38.771V5.14742C38.771 4.91511 38.6562 4.69789 38.4644 4.56692C38.2726 4.43586 38.0285 4.40782 37.8122 4.49248L34.3669 5.83704C34.0052 5.97823 33.8262 6.38585 33.9675 6.74764C34.1086 7.10923 34.5163 7.28801 34.8781 7.14711L37.3646 6.1766V7.85061L29.1614 11.203V9.37789L32.1593 8.20807C32.521 8.06689 32.6999 7.65926 32.5588 7.29739C32.4176 6.9357 32.01 6.7571 31.6481 6.89792L28.3256 8.19439H16.7678L3.042 0.778855C2.82422 0.661199 2.56041 0.666636 2.34769 0.793574C2.13497 0.920417 2.00466 1.14982 2.00466 1.39742V32.1896C2.00466 32.578 2.31947 32.8927 2.70778 32.8927C3.09609 32.8927 3.41091 32.578 3.41091 32.1896V2.57642L15.8868 9.31667V37.9002H12.6433V35.0185C12.6433 34.4391 12.172 33.9679 11.5927 33.9679H7.70513C7.12575 33.9679 6.65447 34.4391 6.65447 35.0185V37.9002H3.41091V34.9084C3.41091 34.52 3.09609 34.2052 2.70778 34.2052C2.31947 34.2052 2.00466 34.52 2.00466 34.9084V37.9002H0.703125C0.314812 37.9002 0 38.2149 0 38.6033C0 38.9917 0.314812 39.3064 0.703125 39.3064H47.2969C47.6853 39.3064 48 38.9917 48 38.6033C48 38.2149 47.6853 37.9002 47.2969 37.9002H42.7125V35.3021H46.8382V35.3022ZM37.3647 20.9059L29.1615 24.2583V22.5135L37.3647 19.1611V20.9059ZM29.1615 25.7774L37.3647 22.425V24.1697L29.1615 27.5221V25.7774ZM37.3647 17.642L29.1615 20.9944V19.2497L37.3647 15.8973V17.642ZM29.1615 29.0411L37.3647 25.6887V27.4335L29.1615 30.7859V29.0411ZM37.3647 14.3781L29.1615 17.7305V15.9859L37.3647 12.6334V14.3781ZM29.1615 35.5688L36.0188 32.7664V34.1404C36.0188 34.2619 36.0376 34.3791 36.0723 34.4893L29.1615 37.3135V35.5688ZM37.1804 29.5901C36.5398 29.5901 36.0187 30.1114 36.0187 30.752V31.2474L29.1614 34.0498V32.305L37.3646 28.9526V29.5901H37.1804ZM37.3647 9.36964V11.1144L29.1615 14.4668V12.722L37.3647 9.36964ZM8.06063 37.9002V35.3741H11.237V37.9002H8.06063ZM17.2929 9.60064H27.7552V37.9002H17.2929V9.60064ZM31.443 37.9002L37.3647 35.4801V37.9002H31.443ZM41.3063 37.9002H38.771V35.3021H41.3063V37.9002Z" fill="#058DA6"/>
</svg>
