<svg width="48" height="48" viewBox="0 0 48 48" fill="none" xmlns="http://www.w3.org/2000/svg">
<path d="M47.0738 14.7294L36.9412 11.305C36.5734 11.1812 36.1742 11.3781 36.0498 11.746C35.9255 12.1139 36.123 12.513 36.4908 12.6373L46.5267 16.0291L41.8027 18.3322C41.6065 18.1999 41.3864 18.0984 41.1477 18.036L26.9779 14.3328C26.5275 12.0156 23.6746 11.0431 21.9222 12.6922C21.3157 13.2629 20.9678 14.0678 20.9678 14.9005V14.9159C20.9728 15.8963 21.7843 16.6938 22.7769 16.6938H25.2233C25.855 16.6938 26.4869 16.3642 26.8145 15.7436L40.0287 19.1972C35.8534 21.2328 26.4803 25.8026 25.2855 26.3851C24.442 26.7963 23.5023 26.7693 22.7145 26.3851L1.47317 16.0291L23.0607 8.73324C23.6663 8.52848 24.3336 8.52848 24.9391 8.73324L33.3675 11.5818C33.7355 11.706 34.1344 11.5089 34.2588 11.1408C34.3831 10.7729 34.1857 10.3738 33.8178 10.2495L25.3894 7.40088C24.4933 7.09814 23.5066 7.09814 22.6104 7.40088L0.926102 14.7294C-0.225965 15.119 -0.32994 16.7146 0.76503 17.2484L11.8936 22.674C11.2814 25.5847 10.3467 28.7183 9.33072 31.4996C8.91482 32.637 9.27316 33.9024 10.2221 34.6483C13.4337 37.1725 17.2284 39.1224 21.1177 40.3758C22.9453 40.9647 24.9833 40.9874 26.8818 40.3758C30.7723 39.1218 34.5674 37.1712 37.7773 34.6483C38.7297 33.8995 39.0832 32.6336 38.6687 31.4996C37.6742 28.7799 36.7267 25.6259 36.1059 22.6743L41.3406 20.1222V30.7053C40.4459 30.7738 39.7384 31.5221 39.7384 32.4341V34.4832C39.7384 34.7876 39.8706 35.0611 40.0797 35.2516L39.8185 39.2008C39.7675 39.9723 40.381 40.628 41.1544 40.628H42.9333C43.7065 40.628 44.3202 39.9726 44.2692 39.2008L44.0081 35.2516C44.2171 35.0611 44.3493 34.7877 44.3493 34.4832V32.434C44.3493 31.522 43.6418 30.7737 42.7471 30.7052V20.1069C42.7471 19.8908 42.713 19.6814 42.6523 19.4827L47.2349 17.2485C48.3284 16.7153 48.2277 15.1196 47.0738 14.7294ZM25.2233 15.2875H22.7769C22.5596 15.2875 22.3752 15.1141 22.3742 14.9123V14.9005C22.3742 14.4474 22.5559 14.027 22.886 13.7162C23.8986 12.7632 25.5581 13.4492 25.6238 14.8199C25.6395 15.1482 25.4282 15.2875 25.2233 15.2875ZM36.5562 29.692C32.757 32.6654 27.3655 34.7924 25.5084 35.1464C25.1269 35.2192 24.8767 35.5874 24.9495 35.9688C25.0222 36.3504 25.3915 36.6007 25.7719 36.5278C27.7144 36.1574 33.0366 34.089 37.032 31.0991C37.1303 31.3793 37.2441 31.6984 37.3479 31.9824C37.5541 32.5468 37.3774 33.1736 36.9082 33.5425C33.1215 36.5186 29.1311 38.1732 26.4505 39.037C24.8493 39.5531 23.1102 39.5404 21.549 39.037C18.8684 38.1731 14.878 36.5186 11.0913 33.5425C10.6222 33.1738 10.4452 32.547 10.6517 31.9823C10.6559 31.971 10.6599 31.9596 10.664 31.9483C10.7662 31.6684 10.8795 31.3506 10.9675 31.0989C14.8685 34.0173 20.1762 36.1368 22.227 36.5281C22.6089 36.6007 22.9767 36.3506 23.0495 35.9692C23.1222 35.5877 22.872 35.2194 22.4906 35.1467C20.7374 34.8125 15.3274 32.7304 11.4433 29.6919C12.0144 27.9455 12.6761 25.7012 13.1963 23.3091L22.0982 27.6491C23.2834 28.227 24.6702 28.2496 25.9018 27.6491L34.8032 23.3093C35.3233 25.7013 35.985 27.9456 36.5562 29.692ZM41.2264 39.2216L41.471 35.524H42.6166L42.8611 39.2216H41.2264ZM42.9429 32.4339V34.1175H41.1448V32.4339C41.1448 32.2555 41.2954 32.1047 41.474 32.1047H42.6136C42.7921 32.1048 42.9429 32.2555 42.9429 32.4339Z" fill="#058DA6"/>
</svg>
