<svg width="48" height="48" viewBox="0 0 48 48" fill="none" xmlns="http://www.w3.org/2000/svg">
<path d="M24 3.78027C22.0469 3.78027 20.458 5.36915 20.458 7.32226C20.458 9.27536 22.0469 10.8641 24 10.8641C25.9531 10.8641 27.542 9.27517 27.542 7.32226C27.5421 5.36915 25.9531 3.78027 24 3.78027ZM24 9.45048C22.8264 9.45048 21.8716 8.49573 21.8716 7.32216C21.8716 6.1486 22.8263 5.19375 24 5.19375C25.1737 5.19375 26.1284 6.1485 26.1284 7.32216C26.1284 8.49582 25.1737 9.45048 24 9.45048Z" fill="#058DA6"/>
<path d="M23.9998 0C23.6093 0 23.293 0.316501 23.293 0.706784V1.65179C23.293 2.04216 23.6094 2.35857 23.9998 2.35857C24.3901 2.35857 24.7065 2.04207 24.7065 1.65179V0.706784C24.7066 0.316501 24.3902 0 23.9998 0Z" fill="#058DA6"/>
<path d="M20.4905 2.81262L19.8223 2.14447C19.5464 1.86846 19.0988 1.86856 18.8227 2.14447C18.5467 2.42047 18.5467 2.86803 18.8228 3.14413L19.491 3.81238C19.629 3.95038 19.8099 4.01938 19.9907 4.01938C20.1716 4.01938 20.3525 3.95038 20.4906 3.81228C20.7666 3.53619 20.7666 3.08863 20.4905 2.81262Z" fill="#058DA6"/>
<path d="M18.33 6.61523H17.385C16.9945 6.61523 16.6782 6.93174 16.6782 7.32202C16.6782 7.7124 16.9946 8.0288 17.385 8.0288H18.33C18.7205 8.0288 19.0368 7.7123 19.0368 7.32202C19.0368 6.93174 18.7204 6.61523 18.33 6.61523Z" fill="#058DA6"/>
<path d="M20.4901 10.832C20.2141 10.556 19.7666 10.556 19.4904 10.832L18.8222 11.5002C18.5462 11.7762 18.5462 12.2237 18.8222 12.4997C18.9603 12.6377 19.1413 12.7068 19.3221 12.7068C19.503 12.7068 19.6839 12.6378 19.822 12.4997L20.4901 11.8316C20.7661 11.5556 20.7661 11.108 20.4901 10.832Z" fill="#058DA6"/>
<path d="M23.9998 12.2852C23.6093 12.2852 23.293 12.6017 23.293 12.9919V13.9369C23.293 14.3273 23.6094 14.6437 23.9998 14.6437C24.3901 14.6437 24.7065 14.3272 24.7065 13.9369V12.9919C24.7066 12.6017 24.3902 12.2852 23.9998 12.2852Z" fill="#058DA6"/>
<path d="M29.1776 11.5002L28.5095 10.832C28.2335 10.556 27.7859 10.556 27.5098 10.832C27.2337 11.108 27.2337 11.5555 27.5097 11.8316L28.1779 12.4998C28.316 12.6378 28.4968 12.7068 28.6778 12.7068C28.8586 12.7068 29.0395 12.6378 29.1775 12.4998C29.4536 12.2238 29.4536 11.7762 29.1776 11.5002Z" fill="#058DA6"/>
<path d="M30.6152 6.61523H29.6702C29.2797 6.61523 28.9634 6.93174 28.9634 7.32202C28.9634 7.7123 29.2798 8.0288 29.6702 8.0288H30.6152C31.0056 8.0288 31.3219 7.7123 31.3219 7.32202C31.3219 6.93174 31.0056 6.61523 30.6152 6.61523Z" fill="#058DA6"/>
<path d="M29.1774 2.14447C28.9015 1.86846 28.454 1.86856 28.1779 2.14447L27.5097 2.81262C27.2337 3.08863 27.2337 3.53619 27.5098 3.81228C27.6477 3.95038 27.8287 4.01938 28.0095 4.01938C28.1904 4.01938 28.3713 3.95038 28.5094 3.81228L29.1775 3.14413C29.4535 2.86812 29.4535 2.42056 29.1774 2.14447Z" fill="#058DA6"/>
<path d="M43.6057 36.2048C43.6051 36.1925 43.605 36.1802 43.6038 36.1678C43.6013 36.143 43.5976 36.1185 43.5925 36.0945C43.5924 36.0939 43.5924 36.0935 43.5923 36.0929L42.3335 30.1137C42.333 30.1115 42.3325 30.1095 42.3322 30.1073L41.0735 24.1285C41.073 24.1263 41.0725 24.1243 41.0721 24.1221L39.8122 18.1374C39.7434 17.8103 39.4549 17.5762 39.1205 17.5762H8.87958C8.54527 17.5762 8.2568 17.8103 8.18789 18.1374L6.92826 24.1214C6.9277 24.124 6.92714 24.1264 6.92667 24.1289L5.66807 30.1079C5.6677 30.1096 5.66732 30.1113 5.66704 30.113L4.40835 36.0923C4.4031 36.1176 4.39907 36.1433 4.39654 36.1694C4.39597 36.1754 4.39607 36.1816 4.3956 36.1876C4.39438 36.2044 4.39307 36.2212 4.39307 36.2383V39.0736C4.39307 39.464 4.70947 39.7804 5.09985 39.7804H21.8755V43.7513H16.4397C16.0492 43.7513 15.7329 44.0678 15.7329 44.4581V46.5866H8.87968C8.48921 46.5866 8.17289 46.9031 8.17289 47.2934C8.17289 47.6836 8.4893 48.0001 8.87968 48.0001H16.4398H31.5603H39.1194C39.5099 48.0001 39.8262 47.6836 39.8262 47.2934C39.8262 46.9031 39.5098 46.5866 39.1194 46.5866H32.2672V44.4581C32.2672 44.0677 31.9508 43.7513 31.5604 43.7513H26.1246V39.7804H42.9004C43.2908 39.7804 43.6072 39.4639 43.6072 39.0736V36.251C43.6073 36.25 43.6073 36.2489 43.6073 36.2478V36.2386C43.6073 36.2271 43.6062 36.2161 43.6057 36.2048ZM42.0295 35.5316H30.9594L30.6385 30.9601H41.0671L42.0295 35.5316ZM39.8071 24.975L40.7696 29.5465H30.5393L30.2184 24.975H39.8071ZM38.5471 18.9898L39.5096 23.5614H30.1192L29.7983 18.9898H38.5471ZM19.6189 18.9898H28.3813L28.7022 23.5614H19.2981L19.6189 18.9898ZM19.199 24.975H28.8013L29.1223 29.5465H18.8782L19.199 24.975ZM18.7791 30.9602H29.2214L29.5423 35.5316H18.4582L18.7791 30.9602ZM9.45315 18.9898H18.2018L17.881 23.5614H8.49071L9.45315 18.9898ZM8.19324 24.975H17.7818L17.461 29.5465H7.2308L8.19324 24.975ZM30.8536 45.1651V46.5868H17.1467V45.1651H22.5825H25.4179H30.8536ZM23.2893 43.7515V39.7806H24.711V43.7515H23.2893ZM25.4261 38.3669C25.4233 38.3669 25.4206 38.3665 25.4179 38.3665H22.5825C22.5798 38.3665 22.5771 38.3669 22.5744 38.3669H5.80663V36.9453H9.17368C9.56415 36.9453 9.88046 36.6288 9.88046 36.2385C9.88046 35.8481 9.56406 35.5317 9.17368 35.5317H5.97089L6.93323 30.9602H17.3618L17.041 35.5316H12.2303H12.2302C11.8398 35.5316 11.5234 35.8481 11.5234 36.2384C11.5234 36.6288 11.8398 36.9452 12.2302 36.9452H12.2303H17.6994C17.6999 36.9452 17.7003 36.9452 17.7007 36.9452C17.701 36.9452 17.7014 36.9452 17.7017 36.9452H30.2986C30.2989 36.9452 30.2993 36.9452 30.2996 36.9452C30.3 36.9452 30.3004 36.9452 30.3009 36.9452H42.1935V38.3668H25.4261V38.3669Z" fill="#058DA6"/>
</svg>
