<svg width="48" height="40" viewBox="0 0 48 40" fill="none" xmlns="http://www.w3.org/2000/svg">
<path d="M37.6634 10.1917C38.0637 9.99109 38.5528 10.1537 38.7535 10.5538C38.8726 10.7916 39.1159 10.9418 39.382 10.9418C39.648 10.9418 39.8913 10.7916 40.0106 10.5538C40.2113 10.1535 40.7001 9.991 41.1004 10.1917C41.4475 10.3655 41.8701 10.2253 42.0441 9.87822C42.218 9.53106 42.0777 9.10853 41.7306 8.93453C41.2009 8.66903 40.5996 8.62572 40.0372 8.81247C39.7968 8.89234 39.5757 9.01019 39.3808 9.16037C38.7272 8.65853 37.8178 8.54125 37.0332 8.93453C36.6861 9.10853 36.5458 9.53106 36.7197 9.87822C36.8938 10.2254 37.3162 10.3656 37.6634 10.1917Z" fill="#058DA6"/>
<path d="M23.2733 6.32447C23.6736 6.12376 24.1625 6.28622 24.3631 6.68654C24.4824 6.92438 24.7257 7.07457 24.9917 7.07457C25.2578 7.07457 25.5011 6.92438 25.6203 6.68654C25.821 6.28613 26.3098 6.12338 26.7104 6.32447C27.0571 6.49838 27.48 6.35813 27.654 6.01088C27.8279 5.66372 27.6875 5.24129 27.3404 5.06729C26.5557 4.67401 25.6463 4.79148 24.9928 5.29304C24.7979 5.14294 24.5768 5.0251 24.3364 4.94523C23.7741 4.75848 23.1726 4.80197 22.643 5.06729C22.296 5.24129 22.1556 5.66382 22.3295 6.01097C22.5034 6.35813 22.9261 6.49838 23.2733 6.32447Z" fill="#058DA6"/>
<path d="M31.7966 1.85769C32.1968 1.65726 32.6858 1.81954 32.8867 2.21976C33.0058 2.4576 33.2491 2.60779 33.5152 2.60779C33.7812 2.60779 34.0245 2.4576 34.1438 2.21976C34.2409 2.02588 34.4078 1.88141 34.6137 1.81297C34.8197 1.74463 35.0397 1.76038 35.2336 1.85769C35.5804 2.0316 36.0032 1.89135 36.1772 1.54429C36.3512 1.19722 36.2109 0.774693 35.8638 0.600693C35.3343 0.335099 34.7329 0.291693 34.1704 0.478443C33.9304 0.558224 33.7098 0.675693 33.5152 0.825412C33.3204 0.675693 33.0998 0.558131 32.8598 0.478443C32.2975 0.291693 31.696 0.335099 31.1664 0.600693C30.8193 0.774693 30.679 1.19722 30.853 1.54429C31.027 1.89144 31.4498 2.03188 31.7966 1.85769Z" fill="#058DA6"/>
<path d="M47.9762 35.7238C47.8969 34.4862 47.0019 33.4669 45.8241 33.2002C45.7596 32.981 45.662 32.776 45.5381 32.5899V31.1671C45.5381 25.0818 42.9447 19.2519 38.4229 15.1726C38.1347 14.9125 37.69 14.9352 37.4299 15.2237C37.1697 15.5119 37.1926 15.9565 37.481 16.2167C38.0271 16.7094 38.5425 17.2299 39.0271 17.7742H34.9507C34.6106 17.1129 34.2439 16.4788 33.851 15.8759C32.8679 14.3674 31.7624 13.113 30.5682 12.1337C32.1096 12.6651 33.5875 13.3849 34.9705 14.2851C35.2962 14.4971 35.7316 14.4049 35.9434 14.0795C36.1553 13.754 36.0632 13.3186 35.7378 13.1067C32.2463 10.8339 28.191 9.63185 24.0096 9.63007C24.0064 9.63007 24.0032 9.62988 24.0001 9.62988C24.0001 9.62988 24.0001 9.62988 24 9.62988H23.9999C23.9955 9.62988 23.9911 9.63016 23.9866 9.63016C18.3237 9.63363 12.9777 11.8167 8.93213 15.7782C4.971 19.657 2.68884 24.8155 2.48034 30.3364C1.41816 30.4838 0.587906 31.3665 0.526219 32.4533C0.185062 32.9026 0 33.4488 0 34.02V38.9333C0 39.3217 0.314719 39.6364 0.703125 39.6364H36.7622C37.1506 39.6364 37.4653 39.3217 37.4653 38.9333C37.4653 38.5449 37.1506 38.2302 36.7622 38.2302H1.40625V36.6055H13.3931C13.7815 36.6055 14.0963 36.2908 14.0963 35.9024C14.0963 35.514 13.7815 35.1993 13.3931 35.1993H13.0072C13.0651 35.012 13.0972 34.8138 13.0972 34.6078C13.0972 33.8717 12.7045 33.2144 12.0865 32.8628C11.9664 32.5146 11.7391 32.217 11.4447 32.0078V31.1675C11.4447 29.3312 11.5984 27.5332 11.895 25.8097H18.2601C18.1468 27.5384 18.0881 29.3353 18.0881 31.1674V35.1993H16.6744C16.286 35.1993 15.9713 35.514 15.9713 35.9024C15.9713 36.2908 16.286 36.6055 16.6744 36.6055H21.8505C21.8524 36.6055 21.8542 36.6058 21.8559 36.6058C21.8577 36.6058 21.8595 36.6055 21.8614 36.6055H26.1384C26.1403 36.6055 26.1421 36.6058 26.1439 36.6058C26.1457 36.6058 26.1474 36.6055 26.1493 36.6055H46.5938V38.2302H40.0434C39.655 38.2302 39.3403 38.5449 39.3403 38.9333C39.3403 39.3217 39.655 39.6364 40.0434 39.6364H47.2969C47.6853 39.6364 48 39.3217 48 38.9333C48 38.9333 47.9912 35.7809 47.9762 35.7238ZM46.3789 35.1993H33.708C33.9473 34.804 34.38 34.5383 34.8748 34.5383C35.2632 34.5383 35.5779 34.2236 35.5779 33.8352C35.5779 33.3679 35.9581 32.9877 36.4253 32.9877C36.8137 32.9877 37.1285 32.673 37.1285 32.2846C37.1285 31.5324 37.7405 30.9203 38.4928 30.9203C38.8812 30.9203 39.1959 30.6056 39.1959 30.2172C39.1959 29.7499 39.5762 29.3697 40.0434 29.3697C40.5107 29.3697 40.8908 29.7499 40.8908 30.2171C40.8908 30.6054 41.2056 30.9202 41.5939 30.9202C42.3462 30.9203 42.9583 31.5323 42.9583 32.2846C42.9583 32.673 43.273 32.9877 43.6614 32.9877C44.1287 32.9877 44.5089 33.3679 44.5089 33.8352C44.5089 34.2236 44.8237 34.5383 45.2121 34.5383C45.7069 34.5383 46.1396 34.804 46.3789 35.1993ZM19.2915 17.7742H14.6454C14.8292 17.4459 15.0197 17.1247 15.2182 16.8128C16.9672 14.0642 19.124 12.2281 21.457 11.4535C20.7689 12.5592 20.1598 14.1644 19.6347 16.2647C19.5136 16.7491 19.3992 17.2531 19.2915 17.7742ZM20.999 16.6057C22.0259 12.4982 23.2557 11.0386 23.998 11.0361H24H24.0017C24.7439 11.0384 25.974 12.4979 27.0009 16.6057C27.0953 16.9832 27.1854 17.3733 27.2714 17.7742H20.7284C20.8145 17.3733 20.9047 16.9833 20.999 16.6057ZM27.5474 19.1805C27.8362 20.7896 28.0631 22.5462 28.2235 24.4035H19.7765C19.9369 22.5462 20.1638 20.7895 20.4526 19.1805H27.5474ZM28.975 19.1805H34.0742C34.8216 20.783 35.4106 22.5408 35.8265 24.4035H29.6344C29.4777 22.5542 29.2565 20.7985 28.975 19.1805ZM36.1042 25.8097C36.3551 27.2667 36.503 28.7773 36.543 30.3188C36.1752 30.6836 35.9087 31.1502 35.7904 31.6726C35.0574 31.8882 34.4783 32.4672 34.2628 33.2002C33.2562 33.4281 32.456 34.2056 32.195 35.1993H29.9118V31.1674C29.9118 29.3352 29.8531 27.5384 29.7398 25.8097H36.1042ZM44.1319 31.1671V31.1774C43.7829 30.3809 43.0714 29.7781 42.206 29.5821C41.9311 28.6475 41.0657 27.9634 40.0434 27.9634C39.0622 27.9634 38.2267 28.5946 37.9182 29.4717C37.8559 28.2263 37.7248 27.002 37.5287 25.8095H43.4017C43.8808 27.5403 44.1319 29.3412 44.1319 31.1671ZM40.1687 19.1805C41.352 20.7785 42.2914 22.5397 42.9573 24.4035H37.264C36.8714 22.5565 36.3177 20.801 35.6149 19.1805H40.1687ZM32.6729 16.6436C32.9107 17.0084 33.1378 17.3858 33.3552 17.7742H28.7084C28.6007 17.2531 28.4863 16.7491 28.3652 16.2647C27.8404 14.1653 27.2317 12.5607 26.5438 11.455C28.8266 12.2147 30.9444 13.9915 32.6729 16.6436ZM17.4376 12.1279C16.1938 13.1471 15.0458 14.4642 14.0317 16.0579C13.6827 16.6063 13.3557 17.1799 13.0499 17.7743H8.97028C9.27328 17.4351 9.588 17.1041 9.91594 16.783C12.0818 14.662 14.6469 13.0876 17.4376 12.1279ZM7.82334 19.1805H12.3846C11.6807 20.8025 11.1265 22.5574 10.7343 24.4035H5.03034C5.69325 22.5401 6.63197 20.7822 7.82334 19.1805ZM11.6909 34.6079C11.6909 34.9003 11.4817 35.1446 11.2049 35.1994H1.40625V34.0201C1.40625 33.7116 1.52419 33.4189 1.73831 33.1959C1.87734 33.0511 1.94784 32.8536 1.932 32.6534C1.93012 32.6302 1.92872 32.6069 1.92872 32.5833C1.92872 32.0528 2.41416 31.6301 2.95734 31.7347C3.33816 31.8075 3.70584 31.5587 3.77981 31.1783C3.88809 30.6211 4.37953 30.2166 4.94841 30.2166C4.96631 30.2166 4.98422 30.2172 5.00194 30.218C5.36006 30.2344 5.67047 29.9826 5.72897 29.6311C5.79844 29.2135 6.15684 28.9103 6.58125 28.9103C7.05787 28.9103 7.44562 29.2981 7.44562 29.7747C7.44562 29.8481 7.43644 29.9208 7.41853 29.9907C7.34391 30.2809 7.46128 30.5863 7.71084 30.7518C7.91044 30.8841 8.04731 31.0944 8.0865 31.3286C8.14219 31.6616 8.42663 31.9081 8.76422 31.9157C9.23803 31.9264 9.66009 32.217 9.83953 32.6559C9.94247 32.9079 10.1814 33.0778 10.4533 33.092C10.6248 33.1011 10.763 33.237 10.7747 33.4082C10.7945 33.6978 10.9902 33.9454 11.2674 34.0316C11.5208 34.1104 11.6909 34.342 11.6909 34.6079ZM10.0409 30.86C9.81778 30.7305 9.57497 30.6337 9.31959 30.575C9.20775 30.3161 9.04809 30.0792 8.84963 29.8777C8.85122 29.8434 8.85188 29.8091 8.85188 29.7746C8.85188 28.5227 7.83328 27.504 6.58125 27.504C5.66372 27.504 4.86328 28.0443 4.50684 28.8481C4.32656 28.8792 4.15247 28.9301 3.98587 28.9969C4.10147 27.9128 4.30284 26.8476 4.58766 25.8095H10.4701C10.2018 27.4427 10.0564 29.1352 10.0409 30.86ZM12.1727 24.4035C12.5883 22.5422 13.1768 20.7848 13.9255 19.1805H19.0248C18.7434 20.7985 18.5222 22.5542 18.3655 24.4035H12.1727ZM19.4944 31.1674C19.4944 29.3322 19.554 27.5348 19.6689 25.8097H28.3309C28.4458 27.5348 28.5054 29.3322 28.5054 31.1674V35.1993H26.8471V33.1642C26.8471 31.5944 25.5698 30.3171 24 30.3171C22.4302 30.3171 21.1529 31.5944 21.1529 33.1642V35.1993H19.4945V31.1674H19.4944ZM25.4408 35.1993H22.5592V33.1642C22.5592 32.3697 23.2056 31.7234 24 31.7234C24.7944 31.7234 25.4408 32.3698 25.4408 33.1642V35.1993Z" fill="#058DA6"/>
</svg>
