<svg width="48" height="48" viewBox="0 0 48 48" fill="none" xmlns="http://www.w3.org/2000/svg">
<g clip-path="url(#clip0_2408_12779)">
<path d="M34.799 43.888L32.9109 42.1652L31.5283 31.4913C31.4093 30.5779 30.9604 29.7292 30.2819 29.1144C30.4091 28.7909 30.4446 28.4334 30.3745 28.0827C30.2561 27.491 29.8545 26.9951 29.3 26.7561L24.2748 24.5904C24.2745 24.5902 24.274 24.59 24.2736 24.5899L24.2686 24.5878C24.2658 24.5866 24.2633 24.5851 24.2606 24.584L17.3952 21.7038L19.5068 16.223L21.9555 16.1296C22.3399 16.1149 22.6397 15.7915 22.625 15.4071C22.6103 15.0227 22.288 14.7244 21.9025 14.7376L18.6317 14.8623L18.6356 12.6203L22.7248 12.4038C23.1089 12.3834 23.4038 12.0555 23.3835 11.6714C23.3632 11.2873 23.0348 10.9913 22.6511 11.0127L21.7388 11.061C21.8281 10.9413 21.921 10.8243 22.0187 10.7118C22.4787 10.1827 23.1182 9.86033 23.8073 9.8008C24.7254 10.9889 26.4189 11.6634 27.9391 11.388C28.4357 11.7776 28.6219 12.4575 28.3682 13.0589L24.3384 22.6113C24.1889 22.9657 24.355 23.3742 24.7094 23.5238C25.056 23.6699 25.471 23.5117 25.6218 23.1527L27.8502 17.8706L29.7079 19.1012C30.13 19.3808 30.6166 19.5272 31.1207 19.5272C31.2089 19.5272 37.5715 19.2899 37.668 19.2863C38.3392 19.2614 38.9748 18.9545 39.4119 18.4443C39.8493 17.9337 40.0551 17.2579 39.9767 16.5901C39.8337 15.3737 38.8027 14.4566 37.5787 14.4566H31.531L29.7673 13.2694C30.0028 12.4406 29.843 11.5699 29.3681 10.8908C29.4151 10.8648 29.4626 10.8402 29.5088 10.8123C30.517 10.2049 31.2286 9.24107 31.5124 8.0984L32.109 5.69687C32.695 3.33779 31.2536 0.942017 28.8959 0.356285C27.7538 0.0724742 26.5693 0.250878 25.561 0.858341C24.5528 1.4658 23.8412 2.42961 23.5573 3.57238L22.9608 5.9739C22.7443 6.84558 22.8053 7.72209 23.0864 8.51065C21.706 8.80672 20.6739 9.93407 20.032 11.1511L15.4612 11.3932C14.6126 11.4381 13.8073 11.7864 13.1936 12.374L9.14325 16.2519C8.6346 16.739 8.35014 17.395 8.34233 18.0989C8.33463 18.8029 8.60441 19.4649 9.10229 19.9631C9.60713 20.4682 10.2721 20.7211 10.9374 20.721C11.597 20.721 12.2568 20.4724 12.7605 19.9747L16.4398 16.3397L17.9918 16.2805L15.8576 21.8201C15.8575 21.8203 15.8574 21.8205 15.8573 21.8208L12.8005 29.3123C12.5219 29.9951 12.6774 30.7748 13.1967 31.2986L16.0081 34.1343L5.96049 38.1207V35.5509L11.8865 33.0879C12.2418 32.9402 12.41 32.5326 12.2624 32.1773C12.1147 31.8222 11.7071 31.6539 11.3519 31.8015L5.11956 34.3919H1.97637C0.886538 34.3919 0 35.2789 0 36.3691V40.187C0 41.4195 1.00235 42.4224 2.23436 42.4224C2.86123 42.4224 3.46313 42.1566 3.8855 41.693L5.67046 39.7344L17.2067 35.1574C17.5072 35.2886 17.8474 35.3366 18.1769 35.2936C18.7505 35.2187 19.2445 34.8883 19.5325 34.3869L20.9782 31.87L23.7678 33.8217C24.0888 34.0462 24.4572 34.1562 24.8231 34.1562C25.1613 34.1562 25.4965 34.0602 25.7909 33.8761L27.5014 42.5735V45.2548C27.5014 46.6444 28.6314 47.7749 30.0203 47.7749H33.2933C34.5253 47.7749 35.5276 46.7721 35.5276 45.5395C35.5275 44.9125 35.262 44.3106 34.799 43.888ZM31.8915 15.8496H37.5787C38.0965 15.8496 38.5326 16.2379 38.5932 16.7527C38.6269 17.0397 38.542 17.3186 38.354 17.538C38.1664 17.757 37.9045 17.8835 37.6165 17.8942L31.4453 18.1228L31.8915 15.8496ZM30.5458 15.4727L30.1094 17.6961L28.4012 16.5645L29.2342 14.5898L30.5458 15.4727ZM24.9094 3.90819C25.1036 3.12651 25.5904 2.46704 26.28 2.05154C26.9717 1.63473 27.7842 1.51549 28.5602 1.7082C30.242 2.12602 31.2816 3.97478 30.6859 5.64737L28.4781 4.32054C27.8031 3.91488 26.932 4.04648 26.4071 4.63332L25.9269 5.17011C25.8446 5.26215 25.7051 5.27979 25.6022 5.21163L24.7296 4.6324L24.9094 3.90819ZM24.3128 6.30972L24.3729 6.0677L24.8316 6.37222C25.5073 6.82079 26.4245 6.70331 26.965 6.09891L27.4452 5.56212C27.5251 5.47287 27.6577 5.45281 27.7605 5.51457L30.3346 7.06151L30.1605 7.76258C29.7738 9.34797 28.0959 10.3635 26.5098 9.96249C24.8975 9.56194 23.9121 7.92334 24.3128 6.30972ZM17.2386 14.9152L16.1162 14.958C15.9422 14.9646 15.777 15.0362 15.6533 15.1585L11.7815 18.9837C11.3131 19.4464 10.5532 19.4442 10.0877 18.9783C9.85695 18.7473 9.73176 18.4405 9.73539 18.1143C9.73901 17.788 9.87088 17.4839 10.1068 17.2582L14.1571 13.3802C14.53 13.0233 15.0193 12.8116 15.535 12.7843L17.2426 12.6939L17.2386 14.9152ZM4.56744 38.8767L2.85585 40.7547C2.69685 40.9292 2.47034 41.0293 2.23436 41.0293C1.77048 41.0293 1.39305 40.6514 1.39305 40.187V36.3691C1.39305 36.0469 1.65467 35.7849 1.97637 35.7849H4.56744V38.8767ZM18.3245 33.6931C18.2292 33.8591 18.0781 33.9017 17.9965 33.9123C17.9149 33.9233 17.7577 33.9206 17.6227 33.7844L14.1859 30.3177C14.0605 30.1913 14.023 30.003 14.0903 29.8385L16.8812 22.9986L22.9944 25.5632L18.3245 33.6931ZM25.7389 32.008C25.737 32.0099 25.7352 32.0119 25.7333 32.0138L25.1412 32.6254C24.9884 32.7833 24.7465 32.8064 24.5663 32.6804L21.6748 30.6574L24.2856 26.112L28.7487 28.0355C28.9419 28.1187 28.9947 28.2873 29.0083 28.3559C29.022 28.4244 29.0382 28.6 28.8922 28.7509L28.8624 28.7817C28.8584 28.7856 28.8546 28.7898 28.8507 28.7938L25.7389 32.008ZM26.9841 32.7247L29.4164 30.2122C29.813 30.5999 30.0748 31.1167 30.1469 31.6708L31.4605 41.811H28.7712L26.9841 32.7247ZM33.2932 46.3819H30.0203C29.3994 46.3819 28.8944 45.8763 28.8944 45.2548V43.2039H31.9826L33.86 44.9169C34.0345 45.0762 34.1346 45.3031 34.1346 45.5394C34.1345 46.004 33.7571 46.3819 33.2932 46.3819ZM41.8833 35.5416C38.5106 35.5416 35.7667 38.2855 35.7667 41.6583C35.7667 45.031 38.5106 47.7749 41.8833 47.7749C45.2561 47.7749 48 45.031 48 41.6583C48 38.2855 45.2561 35.5416 41.8833 35.5416ZM41.8833 46.3819C39.2788 46.3819 37.1597 44.2629 37.1597 41.6583C37.1597 39.0537 39.2788 36.9347 41.8833 36.9347C44.4879 36.9347 46.6069 39.0537 46.6069 41.6583C46.6069 44.2629 44.4879 46.3819 41.8833 46.3819Z" fill="#058DA6"/>
</g>
<defs>
<clipPath id="clip0_2408_12779">
<rect width="48" height="48" fill="white"/>
</clipPath>
</defs>
</svg>
