<svg width="48" height="40" viewBox="0 0 48 40" fill="none" xmlns="http://www.w3.org/2000/svg">
<path d="M46.0943 17.1184H43.7C44.2849 15.1969 44.5826 13.2923 44.5826 11.4473C44.5826 8.8655 43.6924 6.33754 42.0763 4.32887C41.8327 4.02638 41.3903 3.9784 41.0879 4.22193C40.785 4.4651 40.737 4.90785 40.9806 5.21034C42.4168 6.99562 43.1764 9.15224 43.1764 11.4473C43.1764 13.2831 42.8556 15.19 42.2253 17.1184H39.998C39.6095 17.1184 39.2949 17.4334 39.2949 17.8216C39.2949 18.2098 39.6095 18.5247 39.998 18.5247H46.0943C46.3697 18.5247 46.5938 18.7488 46.5938 19.0242C46.5938 19.2992 46.3697 19.5237 46.0943 19.5237H35.0505C34.8403 19.5237 34.6407 19.6178 34.5074 19.7801L33.0323 21.5752C32.9316 21.6976 32.7767 21.766 32.6188 21.7569C32.4603 21.7481 32.3142 21.6639 32.2277 21.5309L29.8452 17.8743C29.7155 17.6751 29.4936 17.555 29.2559 17.555H27.0019C26.658 17.555 26.3647 17.8036 26.3083 18.1427L24.3604 29.8472C24.3209 30.0864 24.1158 30.2618 23.8807 30.2643H23.8678C23.6276 30.2643 23.4214 30.0933 23.3771 29.8575L20.4401 14.2565C20.3826 13.9518 20.1321 13.7204 19.8234 13.6878C19.5158 13.6544 19.2214 13.828 19.1009 14.114L15.976 21.5408C15.9005 21.7195 15.7266 21.8396 15.5325 21.8462C15.3391 21.8521 15.1568 21.7448 15.0692 21.5712L14.2343 19.9108C14.1149 19.6735 13.8717 19.5237 13.6062 19.5237H1.90577C1.63037 19.5237 1.40625 19.2996 1.40625 19.0242C1.40625 18.7485 1.63037 18.5247 1.90577 18.5247H14.3471C14.5357 18.5247 14.7063 18.6291 14.792 18.7972C14.9162 19.0407 15.1707 19.1912 15.4442 19.1802C15.7174 19.17 15.9602 19.0022 16.0664 18.7503L19.7308 10.0418C19.8157 9.84035 20.0274 9.71547 20.2442 9.73891C20.465 9.76235 20.6408 9.92458 20.6822 10.1432L23.1039 23.0079C23.1666 23.3404 23.4573 23.581 23.795 23.5806H23.8023C24.1432 23.577 24.4325 23.3294 24.4886 22.9932L25.4902 16.9734C25.5304 16.7317 25.7377 16.5563 25.9831 16.5563H29.9078C30.0773 16.5563 30.2337 16.6409 30.326 16.783L32.1691 19.6116C32.2914 19.7991 32.4958 19.9174 32.7196 19.9298C32.9415 19.9419 33.1594 19.8475 33.3018 19.6742L34.0961 18.7071C34.1917 18.5913 34.3323 18.5247 34.4821 18.5247H36.794C37.1822 18.5247 37.4971 18.2098 37.4971 17.8216C37.4971 17.4334 37.1822 17.1184 36.794 17.1184H34.4821C33.9097 17.1184 33.3732 17.3722 33.01 17.8142L32.8239 18.0406L31.5045 16.0154C31.1514 15.4734 30.5545 15.1501 29.9078 15.1501H25.9827C25.0474 15.1501 24.2568 15.8199 24.103 16.7427L23.7521 18.851L22.0639 9.88283C21.9071 9.05007 21.2355 8.43044 20.3929 8.34071C19.5634 8.25209 18.7581 8.72743 18.4347 9.49648L15.1527 17.2957C14.9052 17.1807 14.6316 17.1184 14.3471 17.1184H5.77406C5.14344 15.19 4.82301 13.2831 4.82301 11.4473C4.82301 5.95668 9.29042 1.48926 14.7814 1.48926C18.3124 1.48926 21.612 3.38917 23.3921 6.4474C23.5181 6.66383 23.7496 6.79713 23.9997 6.79713C24.2498 6.79713 24.4816 6.66383 24.6072 6.4474C26.3874 3.38917 29.6866 1.48926 33.218 1.48926C35.208 1.48926 37.1287 2.0741 38.7723 3.18116C39.0946 3.39796 39.5315 3.31263 39.7483 2.99036C39.965 2.66846 39.8797 2.23157 39.5578 2.01441C37.681 0.750978 35.4888 0.0830078 33.218 0.0830078C29.561 0.0830078 26.1226 1.86756 23.9997 4.80531C21.8768 1.86756 18.438 0.0830078 14.7814 0.0830078C8.51479 0.0830078 3.41676 5.18104 3.41676 11.4473C3.41676 13.2923 3.71412 15.1969 4.29933 17.1184H1.90577C0.854738 17.1184 0 17.9732 0 19.0242C0 20.0749 0.854738 20.93 1.90577 20.93H5.8246C7.33669 23.9952 9.55886 27.1259 12.4362 30.2387C12.5746 30.3885 12.7632 30.4647 12.9525 30.4647C13.1232 30.4647 13.2946 30.4028 13.4297 30.2775C13.715 30.0139 13.7326 29.5693 13.4689 29.284C10.8791 26.4825 8.84291 23.6762 7.4026 20.9296H13.1726L13.8131 22.2033C14.146 22.8654 14.8385 23.277 15.5801 23.2514C16.3206 23.2265 16.9845 22.7691 17.272 22.0861L19.4905 16.8138L21.995 30.1175C22.1646 31.0176 22.9523 31.6706 23.8678 31.6706H23.8781H23.888C24.8138 31.6607 25.5956 30.9909 25.7476 30.0779L27.5977 18.9612H28.8751L31.0496 22.2985C31.3796 22.8053 31.9373 23.1276 32.5416 23.1609C33.1473 23.1946 33.7351 22.935 34.1185 22.4681L35.3826 20.9296H40.5971C37.9183 26.0317 33.6241 30.4511 30.4146 33.3149C27.4904 35.9238 24.9372 37.7285 23.9997 38.3679C22.8655 37.5944 19.3656 35.1141 15.6819 31.5468C15.4029 31.2769 14.9579 31.2839 14.688 31.5629C14.4178 31.842 14.4247 32.2869 14.7038 32.5572C19.2657 36.9748 23.4427 39.691 23.6181 39.8045C23.7342 39.8796 23.8667 39.9169 23.9997 39.9169C24.1323 39.9169 24.2652 39.8796 24.3813 39.8045C24.5102 39.721 27.5772 37.7285 31.332 34.3809C34.7711 31.3146 39.4249 26.5041 42.1748 20.9296H46.0943C47.145 20.9296 48.0001 20.0749 48.0001 19.0238C48.0001 17.9732 47.1454 17.1184 46.0943 17.1184V17.1184Z" fill="#058DA6"/>
</svg>
