<svg width="48" height="48" viewBox="0 0 48 48" fill="none" xmlns="http://www.w3.org/2000/svg">
<g clip-path="url(#clip0_2408_12734)">
<path d="M19.9576 10.8623H12.8447C12.1984 10.8623 11.6729 11.3878 11.6729 12.0342V23.653C11.6729 24.299 12.1984 24.8248 12.8447 24.8248H19.9576C20.604 24.8248 21.1295 24.299 21.1295 23.653V12.0342C21.1295 11.3878 20.604 10.8623 19.9576 10.8623ZM15.6979 23.4186H13.0791V20.5431H15.6979V23.4186ZM15.6979 19.1368H13.0791V16.5499H15.6979V19.1368ZM15.6979 15.1437H13.0791V12.2686H15.6979V15.1437ZM19.7233 23.4186H17.1041V20.5431H19.7233V23.4186ZM19.7233 19.1368H17.1041V16.5499H19.7233V19.1368ZM19.7233 15.1437H17.1041V12.2686H19.7233V15.1437Z" fill="#058DA6"/>
<path d="M29.3879 38.9336C28.9994 38.9336 28.6848 39.2485 28.6848 39.6367V41.325C28.6848 41.7131 28.9994 42.0281 29.3879 42.0281C29.7765 42.0281 30.0911 41.7131 30.0911 41.325V39.6367C30.0911 39.2485 29.7765 38.9336 29.3879 38.9336Z" fill="#058DA6"/>
<path d="M47.9933 31.8333C47.9607 31.5864 47.8344 31.3663 47.6377 31.214L32.7414 19.6882C32.4111 19.433 32.0163 19.2979 31.5995 19.2979C31.1824 19.2979 30.7876 19.433 30.457 19.6886L28.204 21.4318V19.4125C28.204 19.0239 27.8895 18.7094 27.5009 18.7094C27.1124 18.7094 26.7978 19.0239 26.7978 19.4125V22.5198L15.5617 31.2136C15.3661 31.3645 15.2361 31.5919 15.2054 31.8362C15.1735 32.0834 15.2398 32.3287 15.3918 32.5269L16.5318 34.0096C16.7109 34.2415 16.9811 34.3744 17.2737 34.3744C17.4795 34.3744 17.6828 34.3052 17.8461 34.1788L31.5995 23.5375L41.9952 31.5809V46.2308H36.3321V44.9125C36.3321 44.5239 36.0175 44.2094 35.629 44.2094C35.2404 44.2094 34.9258 44.5239 34.9258 44.9125V46.2308H28.2721V35.4591H34.9258V41.6078C34.9258 41.9963 35.2404 42.3109 35.629 42.3109C36.0175 42.3109 36.3321 41.9963 36.3321 41.6078V35.2247C36.3321 34.5787 35.8062 34.0529 35.1602 34.0529H28.0381C27.3918 34.0529 26.8659 34.5787 26.8659 35.2247V46.2308H21.5229V44.313C21.5229 43.6666 20.9974 43.1411 20.351 43.1411H19.6779C19.7339 42.8613 19.7643 42.5724 19.7643 42.2765C19.7643 39.843 17.7842 37.8633 15.3508 37.8633C14.0298 37.8633 12.7939 38.4694 11.9673 39.4523C11.6546 39.3534 11.3221 39.2996 10.9771 39.2996C10.7237 39.2996 10.4747 39.3278 10.2326 39.3842C9.46685 38.0724 8.0379 37.2286 6.49322 37.2286C6.32879 37.2286 6.16619 37.2389 6.00579 37.2576V13.7212L16.4018 5.677L26.7981 13.7212V16.1309C26.7981 16.5194 27.1127 16.834 27.5013 16.834C27.8895 16.834 28.2044 16.5194 28.2044 16.1309V14.8092L30.1556 16.3187C30.3185 16.4451 30.5218 16.5143 30.7276 16.5143C31.0209 16.5143 31.2916 16.381 31.4699 16.1488C31.4725 16.1455 31.475 16.1418 31.4776 16.1385L32.5696 14.6635L32.5766 14.6547C32.6487 14.5642 32.8403 14.3243 32.7956 13.9731C32.763 13.7252 32.6363 13.5051 32.44 13.3539L17.544 1.82812C17.2137 1.57288 16.8189 1.43774 16.4018 1.43774C15.9847 1.43774 15.5899 1.57288 15.2592 1.82849L11.1694 4.99292V4.10669C11.7223 4.01294 12.145 3.53174 12.145 2.95276V1.54688C12.145 0.900513 11.6191 0.375 10.9731 0.375H5.2752C4.6292 0.375 4.10333 0.900513 4.10333 1.54688V2.95239C4.10333 3.53174 4.52593 4.01257 5.07891 4.10669V9.70532L0.365045 13.3528C0.168756 13.5037 0.0387507 13.7314 0.00798902 13.975C-0.0242375 14.2225 0.0416804 14.4679 0.194024 14.6664L1.33404 16.1492C1.51275 16.3813 1.78301 16.5143 2.07598 16.5143C2.28179 16.5143 2.48467 16.4451 2.64874 16.3187L4.59954 14.8092V37.671C3.48333 38.2203 2.62383 39.2384 2.3045 40.4802C1.24432 40.8889 0.515924 41.9187 0.515924 43.0876C0.515924 43.2166 0.525079 43.3433 0.541925 43.4678C0.318902 43.6813 0.179742 43.9808 0.179742 44.313V46.4656C0.179742 47.1116 0.705255 47.6375 1.35162 47.6375H45.4394C45.8279 47.6375 46.1425 47.3225 46.1425 46.9343C46.1425 46.5458 45.8279 46.2312 45.4394 46.2312H43.4014V32.6689L45.353 34.1788C45.5159 34.3048 45.7192 34.3744 45.925 34.3744C46.2183 34.3744 46.4889 34.2411 46.6673 34.0085C46.6698 34.0052 46.6724 34.002 46.675 33.9987L47.7674 32.5232L47.7747 32.514C47.8465 32.424 48.0376 32.1841 47.9933 31.8333ZM15.3508 39.2695C17.009 39.2695 18.3581 40.6187 18.3581 42.2765C18.3581 42.5771 18.3127 42.8672 18.2303 43.1411H14.2195C14.2499 42.9624 14.2668 42.7786 14.2668 42.5911C14.2668 41.6371 13.8585 40.7772 13.2084 40.1752C13.7643 39.6108 14.5334 39.2695 15.3508 39.2695ZM5.50958 1.78125H10.7387V2.71802H5.50958V1.78125ZM9.76311 4.12427V6.08093L6.48516 8.61731V4.12427H9.76311ZM2.16131 14.918L1.59405 14.1801L16.1194 2.94067C16.2026 2.87659 16.2974 2.84399 16.4018 2.84399C16.5062 2.84399 16.601 2.87659 16.6838 2.94031L31.1894 14.1643L30.6357 14.9125L16.8321 4.23193C16.5787 4.03601 16.2249 4.03601 15.9715 4.23193L2.16131 14.918ZM20.1166 46.2312H1.58599V44.5474H8.0628C8.45098 44.5474 8.76592 44.2328 8.76592 43.8442C8.76592 43.4557 8.45098 43.1411 8.0628 43.1411H1.924C1.92327 43.1232 1.92217 43.1056 1.92217 43.0876C1.92217 42.4244 2.39349 41.8513 3.04351 41.7253C3.33758 41.6682 3.56316 41.4313 3.60564 41.135C3.81072 39.7101 5.05218 38.6353 6.49322 38.6353C7.68999 38.6353 8.78423 39.3864 9.216 40.504C9.28631 40.6864 9.42913 40.8311 9.61077 40.9039C9.79241 40.9764 9.99566 40.9698 10.1725 40.8864C10.4252 40.767 10.6962 40.7062 10.9771 40.7062C12.0157 40.7062 12.8605 41.5518 12.8605 42.5914C12.8605 42.783 12.8305 42.9672 12.777 43.1411H11.4378C11.0492 43.1411 10.7347 43.4561 10.7347 43.8442C10.7347 44.2328 11.0492 44.5474 11.4378 44.5474H20.1166V46.2312ZM45.8334 32.7726L32.0298 22.0924C31.7764 21.8961 31.4227 21.8961 31.1692 22.0924L17.3587 32.7781L16.7914 32.0402L31.3172 20.8011C31.4003 20.7367 31.4952 20.7041 31.5995 20.7041C31.7035 20.7041 31.7988 20.7367 31.8815 20.8008L46.3871 32.0244L45.8334 32.7726Z" fill="#058DA6"/>
</g>
<defs>
<clipPath id="clip0_2408_12734">
<rect width="48" height="48" fill="white"/>
</clipPath>
</defs>
</svg>
