<svg viewBox="0 0 396 234" fill="none" xmlns="http://www.w3.org/2000/svg">
    <path
        d="M195.643 120.25L157.834 98.2551C155.426 96.8649 153.465 93.439 153.465 90.6337L153.564 43.7881L143.534 49.5724C140.059 51.5585 137.601 54.6368 136.31 58.0875L136.211 97.5103C136.211 101.979 139.339 107.465 143.187 109.7L195.569 140.185C197.008 141.029 198.2 140.334 198.2 138.671V124.818C198.225 123.155 197.058 121.095 195.618 120.25H195.643Z"
        fill="url(#paint0_linear_2295_12005)" />
    <path
        d="M197.009 84.6761L187.103 78.9166C185.912 78.2215 184.919 76.5085 184.919 75.1183V62.085L179.953 64.9647C178.216 65.9577 176.999 67.4721 176.354 69.2099V78.5442C176.329 80.7537 177.893 83.5093 179.805 84.6265L196.984 94.6311C197.704 95.0532 198.3 94.7056 198.3 93.8864V86.9849C198.3 86.1408 197.729 85.123 197.009 84.7009V84.6761Z"
        fill="url(#paint1_linear_2295_12005)" />
    <path
        d="M233.676 59.0804L225.434 54.2891L225.359 82.2673C225.359 84.0548 224.093 86.2642 222.529 87.158L199.963 100.142C199.044 100.688 198.275 102.004 198.275 103.071V114.094C198.25 115.161 198.994 115.608 199.938 115.087L233.676 95.6731C236.158 94.258 238.194 90.7328 238.194 87.8779L238.243 64.5916C237.424 62.3822 235.86 60.4209 233.651 59.13L233.676 59.0804Z"
        fill="url(#paint2_linear_2295_12005)" />
    <path
        d="M191.522 2.05686L143.385 29.7621C139.537 31.9963 136.36 37.4579 136.36 41.9017L136.31 58.1127C137.601 54.6372 140.084 51.5836 143.534 49.5976L194.104 20.5022C196.512 19.1119 200.459 19.1119 202.867 20.5022L240.676 42.4975C242.116 43.3416 244.475 43.3416 245.939 42.4975L257.93 35.596C259.37 34.752 259.37 33.3866 257.93 32.5425L205.548 2.08169C203.612 0.96454 201.08 0.393555 198.547 0.393555C196.015 0.393555 193.458 0.939715 191.522 2.05686Z"
        fill="url(#paint3_linear_2295_12005)" />
    <path
        d="M193.98 26.3111L160.242 45.7246C159.324 46.2707 159.324 47.1396 160.242 47.6858L169.75 53.2219C170.669 53.768 172.208 53.768 173.127 53.2219L195.693 40.2381C197.232 39.3444 199.789 39.3444 201.328 40.2381L233.701 59.0807C235.91 60.3716 237.499 62.3328 238.318 64.5671V52.0799C238.318 49.225 236.307 45.6997 233.85 44.2599L203.016 26.3111C201.775 25.5911 200.137 25.2188 198.523 25.2188C196.909 25.2188 195.271 25.5663 194.03 26.2862"
        fill="url(#paint4_linear_2295_12005)" />
    <path
        d="M195.022 46.3699L179.879 55.0836C177.967 56.2007 176.378 58.9067 176.378 61.141V69.2093C176.999 67.4715 178.24 65.9571 179.953 64.9641L196.313 55.5553C197.505 54.8602 199.491 54.8602 200.683 55.5553L210.588 61.3148C211.308 61.7368 212.499 61.7368 213.219 61.3148L219.202 57.864C219.922 57.442 219.922 56.7717 219.202 56.3497L202.023 46.345C201.055 45.7741 199.789 45.501 198.523 45.501C197.257 45.501 195.991 45.7741 195.022 46.3202"
        fill="url(#paint5_linear_2295_12005)" />
    <path fill-rule="evenodd" clip-rule="evenodd"
        d="M37.0649 172.689C36.7707 172.393 36.6123 172.029 36.6123 171.619C36.6123 171.209 36.7707 170.845 37.0649 170.549C37.359 170.276 37.7211 170.14 38.1284 170.14C38.5357 170.14 38.8977 170.276 39.1919 170.549C39.4861 170.845 39.6218 171.187 39.6445 171.642C39.6445 172.051 39.4861 172.415 39.1919 172.689C38.8977 172.962 38.5357 173.098 38.1284 173.098C37.7211 173.098 37.359 172.962 37.0875 172.689"
        fill="black" />
    <path fill-rule="evenodd" clip-rule="evenodd"
        d="M33.2631 172.689C32.9689 172.393 32.8105 172.029 32.8105 171.619C32.8105 171.209 32.9689 170.845 33.2631 170.549C33.5573 170.276 33.9193 170.14 34.3266 170.14C34.7339 170.14 35.096 170.276 35.3901 170.549C35.6843 170.845 35.8201 171.187 35.8427 171.642C35.8427 172.051 35.6843 172.415 35.3901 172.689C35.096 172.962 34.7339 173.098 34.3266 173.098C33.9193 173.098 33.5573 172.962 33.2857 172.689"
        fill="black" />
    <path
        d="M38.6032 175.125V182.498C39.0105 186.891 43.2646 186.458 43.2646 186.458C43.2646 186.458 47.5186 186.891 47.9259 182.498V175.125H46.161V173.35H49.6909V181.52C49.6909 186.435 47.9938 188.188 43.2872 188.188C38.5579 188.188 36.8608 186.435 36.8608 181.52V175.125"
        fill="black" />
    <path
        d="M27.7192 186.458H32.0638C32.0638 186.458 36.3179 186.89 36.7252 182.498V175.124H38.4902V181.519C38.4902 186.435 36.7931 188.187 32.0864 188.187H27.7419"
        fill="black" />
    <path
        d="M27.7194 188.187C22.9901 188.187 21.293 186.435 21.293 181.519L21.0667 177.013H16.4054C13.9163 177.013 12.6944 177.878 12.6944 181.087C12.6944 183.545 13.5995 184.614 15.4776 184.66H17.9667V188.165C17.9667 188.165 18.2609 193.149 11.8798 193.149H6.90159C1.87816 193.149 0.837275 188.165 0.837275 188.165C-0.158359 182.68 3.73366 180.973 3.73366 180.973C3.98257 180.837 4.23148 180.746 4.50302 180.7C5.77019 180.518 6.72056 181.155 6.87896 182.293C7.03736 183.499 6.24537 184.319 5.38551 184.501C5.38551 184.501 4.59353 184.683 3.86943 184.296C3.86943 184.296 2.42124 185.115 2.89643 188.165C2.89643 188.165 3.48475 191.328 7.89722 191.328H10.8841C16.1791 191.328 15.8849 188.165 15.8849 188.165V186.412C10.2732 186.594 10.7031 181.019 10.7031 181.019C10.6578 174.737 16.609 175.102 16.609 175.102H23.058V182.475C23.4653 186.867 27.7194 186.435 27.7194 186.435"
        fill="black" />
    <path fill-rule="evenodd" clip-rule="evenodd"
        d="M47.1342 192.512C46.84 192.239 46.6816 191.852 46.6816 191.442C46.6816 191.033 46.84 190.668 47.1342 190.373C47.4284 190.099 47.7904 189.963 48.1977 189.963C48.605 189.963 48.9671 190.099 49.2612 190.373C49.5554 190.668 49.6912 191.033 49.7138 191.465C49.7138 191.875 49.5554 192.239 49.2612 192.512C48.9671 192.785 48.605 192.921 48.1977 192.921C47.7904 192.921 47.4284 192.785 47.1568 192.512"
        fill="black" />
    <path fill-rule="evenodd" clip-rule="evenodd"
        d="M43.3554 192.512C43.0612 192.239 42.9028 191.852 42.9028 191.442C42.9028 191.033 43.0612 190.668 43.3554 190.373C43.6496 190.099 44.0116 189.963 44.4189 189.963C44.8262 189.963 45.1883 190.099 45.4824 190.373C45.7766 190.668 45.9124 191.033 45.935 191.465C45.935 191.875 45.7766 192.239 45.4824 192.512C45.1883 192.785 44.8262 192.921 44.4189 192.921C44.0116 192.921 43.6496 192.785 43.378 192.512"
        fill="black" />
    <path fill-rule="evenodd" clip-rule="evenodd"
        d="M10.7709 197.495C10.4768 197.222 10.3184 196.835 10.3184 196.426C10.3184 196.016 10.4768 195.652 10.7709 195.356C11.0651 195.083 11.4271 194.946 11.8344 194.946C12.2417 194.946 12.6038 195.083 12.898 195.356C13.1921 195.652 13.3279 196.016 13.3505 196.448C13.3505 196.858 13.1921 197.222 12.898 197.495C12.6038 197.768 12.2417 197.905 11.8344 197.905C11.4271 197.905 11.0651 197.768 10.7935 197.495"
        fill="black" />
    <path fill-rule="evenodd" clip-rule="evenodd"
        d="M6.99211 197.495C6.69795 197.222 6.53955 196.835 6.53955 196.426C6.53955 196.016 6.69795 195.652 6.99211 195.356C7.28628 195.083 7.64832 194.946 8.05563 194.946C8.46293 194.946 8.82498 195.083 9.11915 195.356C9.41331 195.652 9.54908 196.016 9.57171 196.448C9.57171 196.858 9.41331 197.222 9.11915 197.495C8.82498 197.768 8.46293 197.905 8.05563 197.905C7.64832 197.905 7.28628 197.768 7.01474 197.495"
        fill="black" />
    <path
        d="M4.86616 224.873H12.7951V221.982H10.4479V208.843H13.9401V211.82H17.0029V206.038H0.658363V211.82H3.72118V208.843H7.21336V221.982H4.86616V224.873ZM18.7258 224.873H26.4544V221.982H24.1072V216.744H32.809V221.982H30.4618V224.873H38.1904V221.982H36.0436V208.929H38.1904V206.038H30.4618V208.929H32.809V213.91H24.1072V208.929H26.4544V206.038H18.7258V208.929H20.8726V221.982H18.7258V224.873ZM40.3059 224.873H54.3892V219.492H51.2977V222.011H45.6873V216.686H51.3836V213.939H45.6873V208.901H51.2691V211.42H54.3605V206.038H40.3059V208.929H42.4528V221.982H40.3059V224.873ZM69.9287 225.217C73.793 225.217 76.5695 223.184 76.5695 219.606C76.5695 216.114 74.022 214.94 70.6443 213.738C68.7551 213.051 67.1807 212.364 67.1807 210.818C67.1807 209.444 68.2684 208.5 70.129 208.5C71.3026 208.5 72.1041 208.757 72.6194 209.072C72.5049 209.301 72.419 209.502 72.419 209.96C72.419 210.904 73.1632 211.878 74.48 211.878C75.5677 211.878 76.3978 211.105 76.3978 209.759C76.3978 207.498 73.6785 205.695 70.1577 205.695C66.3506 205.695 63.9175 208.042 63.9175 211.047C63.9175 214.54 66.3792 215.656 69.8714 216.915C71.7606 217.574 73.335 218.318 73.335 219.864C73.335 221.495 72.0182 222.411 69.9573 222.411C68.7264 222.411 67.6673 222.096 66.9803 221.61C67.1521 221.266 67.238 220.923 67.238 220.465C67.238 219.549 66.4365 218.604 65.177 218.604C64.0034 218.604 63.2019 219.492 63.2019 220.837C63.2019 223.127 66.2075 225.217 69.9287 225.217ZM87.7275 225.217C91.878 225.217 94.7691 222.869 94.7691 217.946V208.929H96.8301V206.038H89.3591V208.929H91.6204V217.946C91.6204 220.866 90.1606 222.268 87.7275 222.268C85.323 222.268 83.8632 220.722 83.8632 217.831V208.929H86.1245V206.038H78.5677V208.929H80.6286V218.003C80.6286 222.869 83.5197 225.217 87.7275 225.217ZM105.066 225.217C108.931 225.217 111.707 223.184 111.707 219.606C111.707 216.114 109.16 214.94 105.782 213.738C103.893 213.051 102.318 212.364 102.318 210.818C102.318 209.444 103.406 208.5 105.267 208.5C106.44 208.5 107.242 208.757 107.757 209.072C107.643 209.301 107.557 209.502 107.557 209.96C107.557 210.904 108.301 211.878 109.618 211.878C110.705 211.878 111.535 211.105 111.535 209.759C111.535 207.498 108.816 205.695 105.295 205.695C101.488 205.695 99.0552 208.042 99.0552 211.047C99.0552 214.54 101.517 215.656 105.009 216.915C106.898 217.574 108.473 218.318 108.473 219.864C108.473 221.495 107.156 222.411 105.095 222.411C103.864 222.411 102.805 222.096 102.118 221.61C102.29 221.266 102.376 220.923 102.376 220.465C102.376 219.549 101.574 218.604 100.315 218.604C99.141 218.604 98.3396 219.492 98.3396 220.837C98.3396 223.127 101.345 225.217 105.066 225.217ZM117.519 224.873H125.448V221.982H123.101V208.843H126.593V211.82H129.656V206.038H113.311V211.82H116.374V208.843H119.866V221.982H117.519V224.873ZM129.266 224.873H136.508V222.011H134.218L135.277 218.919H142.319L143.378 222.011H141.202V224.873H148.444V221.982H146.813L142.118 208.901H144.179V206.038H133.531V208.901H135.592L130.898 221.982H129.266V224.873ZM136.165 216.228L138.798 208.815L141.431 216.228H136.165ZM149.884 224.873H157.698V221.982H155.408V208.929H157.698V206.038H149.884V208.929H152.174V221.982H149.884V224.873ZM175.379 224.959L177.125 224.902V208.929H179.186V206.038H171.629V208.929H173.977V217.86L164.702 206.038H159.807V208.929H161.954V221.982H159.807V224.873H167.45V221.982H165.103V211.878L175.379 224.959ZM180.393 224.873H187.635V222.011H185.345L186.404 218.919H193.446L194.505 222.011H192.33V224.873H199.572V221.982H197.94L193.246 208.901H195.306V206.038H184.658V208.901H186.719L182.025 221.982H180.393V224.873ZM187.292 216.228L189.925 208.815L192.559 216.228H187.292ZM201.011 224.873H208.854C213.434 224.873 215.953 222.726 215.953 219.606C215.953 217.259 214.55 215.885 212.203 215.198C214.064 214.568 215.409 213.166 215.409 210.99C215.409 208.156 213.148 206.038 208.539 206.038H201.011V208.929H203.158V221.982H201.011V224.873ZM206.364 222.039V216.601H208.826C211.259 216.601 212.633 217.574 212.633 219.32C212.633 221.123 211.144 222.039 208.911 222.039H206.364ZM206.364 214.024V208.872H208.482C210.772 208.872 212.089 209.759 212.089 211.362C212.089 212.994 210.829 214.024 208.568 214.024H206.364ZM218.063 224.873H231.745V219.349H228.625V222.011H223.444V208.929H225.934V206.038H218.063V208.929H220.21V221.982H218.063V224.873ZM233.745 224.873H247.828V219.492H244.736V222.011H239.126V216.686H244.822V213.939H239.126V208.901H244.708V211.42H247.799V206.038H233.745V208.929H235.891V221.982H233.745V224.873ZM266.774 225.217C269.779 225.217 272.499 223.986 274.331 221.953L272.184 219.721C270.781 221.238 268.978 222.211 266.774 222.211C262.795 222.211 260.161 219.205 260.161 215.427C260.161 211.505 262.967 208.7 266.631 208.7C268.348 208.7 269.436 209.13 269.98 209.559C269.865 209.788 269.779 210.16 269.779 210.532C269.779 211.763 270.667 212.565 271.955 212.565C273.128 212.565 274.016 211.62 274.016 210.246C274.016 207.985 271.096 205.695 266.716 205.695C261.221 205.695 256.812 209.788 256.812 215.456C256.812 221.324 260.963 225.217 266.774 225.217ZM276.653 224.873H284.468V221.982H282.178V208.929H284.468V206.038H276.653V208.929H278.943V221.982H276.653V224.873ZM290.384 224.873H298.313V221.982H295.966V208.843H299.458V211.82H302.521V206.038H286.176V211.82H289.239V208.843H292.731V221.982H290.384V224.873ZM308.143 224.873H316.129V221.982H313.754V217.688L319.106 208.929H320.996V206.038H313.868V208.929H315.643L312.208 214.969L308.744 208.929H310.405V206.038H303.277V208.929H305.166L310.519 217.688V221.982H308.143V224.873Z"
        fill="black" />
    <path d="M327.732 217.717H333.744V216.228H327.732V217.717Z" fill="black" />
    <path
        d="M343.639 224.873H350.852V223.442H348.075V217.144L353.743 207.469H355.833V206.038H349.85V207.469H351.997L347.274 215.77L342.608 207.469H344.669V206.038H338.687V207.469H340.748L346.415 217.173V223.442H343.639V224.873ZM357.94 224.873H364.896V223.442H362.234V207.469H364.896V206.038H357.94V207.469H360.602V223.442H357.94V224.873ZM372.041 224.873H378.997V223.442H376.335V207.412H381.631V210.446H383.205V206.038H367.834V210.446H369.408V207.412H374.704V223.442H372.041V224.873ZM386.145 224.873H393.101V223.442H390.439V207.469H393.101V206.038H386.145V207.469H388.807V223.442H386.145V224.873Z"
        fill="black" />
    <path fill-rule="evenodd" clip-rule="evenodd"
        d="M335.37 193.718C334.985 193.354 334.804 192.898 334.782 192.375C334.782 191.852 334.985 191.396 335.347 191.032C335.709 190.691 336.162 190.532 336.682 190.509C337.18 190.509 337.656 190.668 338.018 191.032C338.38 191.396 338.561 191.852 338.583 192.398C338.583 192.898 338.38 193.376 338.018 193.718C337.656 194.059 337.18 194.241 336.682 194.241C336.185 194.241 335.732 194.059 335.37 193.718Z"
        fill="black" />
    <path
        d="M335.37 193.718C334.985 193.354 334.804 192.898 334.782 192.375C334.782 191.852 334.985 191.396 335.347 191.032C335.709 190.691 336.162 190.532 336.682 190.509C337.18 190.509 337.656 190.668 338.018 191.032C338.38 191.396 338.561 191.852 338.583 192.398C338.583 192.898 338.38 193.376 338.018 193.718C337.656 194.059 337.18 194.241 336.682 194.241C336.185 194.241 335.732 194.059 335.37 193.718Z"
        fill="black" />
    <path fill-rule="evenodd" clip-rule="evenodd"
        d="M330.596 193.718C330.211 193.354 330.03 192.898 330.007 192.375C330.007 191.852 330.211 191.396 330.573 191.032C330.935 190.691 331.388 190.532 331.908 190.509C332.406 190.509 332.881 190.668 333.243 191.032C333.605 191.396 333.786 191.852 333.809 192.398C333.809 192.898 333.605 193.376 333.243 193.718C332.881 194.059 332.406 194.241 331.908 194.241C331.41 194.241 330.958 194.059 330.596 193.718Z"
        fill="black" />
    <path
        d="M330.596 193.718C330.211 193.354 330.03 192.898 330.007 192.375C330.007 191.852 330.211 191.396 330.573 191.032C330.935 190.691 331.388 190.532 331.908 190.509C332.406 190.509 332.881 190.668 333.243 191.032C333.605 191.396 333.786 191.852 333.809 192.398C333.809 192.898 333.605 193.376 333.243 193.718C332.881 194.059 332.406 194.241 331.908 194.241C331.41 194.241 330.958 194.059 330.596 193.718Z"
        fill="black" />
    <path
        d="M154.278 185.866C156.179 185.866 157.333 184.751 157.333 182.452V175.352H155.568V173.076H159.799V182.452C159.799 186.321 157.536 188.165 154.278 188.165"
        fill="black" />
    <path
        d="M154.278 185.866C156.179 185.866 157.333 184.751 157.333 182.452V175.352H155.568V173.076H159.799V182.452C159.799 186.321 157.536 188.165 154.278 188.165"
        fill="black" />
    <path
        d="M238.228 180.494V182.543C238.228 184.841 237.074 185.843 235.173 185.843V188.164C238.432 188.164 240.695 186.412 240.695 182.52V180.563L238.228 180.472V180.494Z"
        fill="black" />
    <path
        d="M238.228 180.494V182.543C238.228 184.841 237.074 185.843 235.173 185.843V188.164C238.432 188.164 240.695 186.412 240.695 182.52V180.563L238.228 180.472V180.494Z"
        fill="black" />
    <path
        d="M159.777 180.494V182.543C159.777 184.841 160.931 185.843 162.831 185.843V188.164C159.573 188.164 157.31 186.412 157.31 182.52V180.563L159.777 180.472V180.494Z"
        fill="black" />
    <path
        d="M159.777 180.494V182.543C159.777 184.841 160.931 185.843 162.831 185.843V188.164C159.573 188.164 157.31 186.412 157.31 182.52V180.563L159.777 180.472V180.494Z"
        fill="black" />
    <path
        d="M253.343 180.494V182.543C253.343 184.841 254.475 185.843 256.398 185.843V188.164C253.14 188.164 250.877 186.412 250.877 182.52V180.563L253.343 180.472V180.494Z"
        fill="black" />
    <path
        d="M253.343 180.494V182.543C253.343 184.841 254.475 185.843 256.398 185.843V188.164C253.14 188.164 250.877 186.412 250.877 182.52V180.563L253.343 180.472V180.494Z"
        fill="black" />
    <path
        d="M238.228 180.495C238.228 176.148 241.373 172.803 245.854 172.803C250.334 172.803 253.366 176.171 253.366 180.495C253.366 184.819 250.221 188.187 245.741 188.187C241.26 188.187 238.228 184.819 238.228 180.495ZM250.719 180.495C250.719 177.4 248.637 175.17 245.786 175.17C242.935 175.17 240.83 177.377 240.83 180.495C240.83 183.613 242.912 185.82 245.786 185.82C248.66 185.82 250.719 183.613 250.719 180.495Z"
        fill="black" />
    <path
        d="M238.228 180.495C238.228 176.148 241.373 172.803 245.854 172.803C250.334 172.803 253.366 176.171 253.366 180.495C253.366 184.819 250.221 188.187 245.741 188.187C241.26 188.187 238.228 184.819 238.228 180.495ZM250.719 180.495C250.719 177.4 248.637 175.17 245.786 175.17C242.935 175.17 240.83 177.377 240.83 180.495C240.83 183.613 242.912 185.82 245.786 185.82C248.66 185.82 250.719 183.613 250.719 180.495Z"
        fill="black" />
    <path
        d="M114.792 180.494V182.543C114.792 184.841 113.638 185.843 111.737 185.843V188.164C114.996 188.164 117.259 186.412 117.259 182.52V180.563L114.792 180.472V180.494Z"
        fill="black" />
    <path
        d="M114.792 180.494V182.543C114.792 184.841 113.638 185.843 111.737 185.843V188.164C114.996 188.164 117.259 186.412 117.259 182.52V180.563L114.792 180.472V180.494Z"
        fill="black" />
    <path
        d="M114.792 180.495C114.792 176.148 117.937 172.803 122.418 172.803C126.898 172.803 129.93 176.171 129.93 180.495C129.93 184.819 126.785 188.187 122.304 188.187C117.824 188.187 114.792 184.819 114.792 180.495ZM127.283 180.495C127.283 177.4 125.201 175.17 122.35 175.17C119.499 175.17 117.394 177.377 117.394 180.495C117.394 183.613 119.476 185.82 122.35 185.82C125.224 185.82 127.283 183.613 127.283 180.495Z"
        fill="black" />
    <path
        d="M114.792 180.495C114.792 176.148 117.937 172.803 122.418 172.803C126.898 172.803 129.93 176.171 129.93 180.495C129.93 184.819 126.785 188.187 122.304 188.187C117.824 188.187 114.792 184.819 114.792 180.495ZM127.283 180.495C127.283 177.4 125.201 175.17 122.35 175.17C119.499 175.17 117.394 177.377 117.394 180.495C117.394 183.613 119.476 185.82 122.35 185.82C125.224 185.82 127.283 183.613 127.283 180.495Z"
        fill="black" />
    <path
        d="M151.223 182.475V173.099H146.992V175.374H148.757V182.475C148.757 184.773 146.516 185.889 144.593 185.889C143.009 185.889 142.127 185.297 142.127 185.297C142.194 185.069 142.24 184.887 142.149 184.5C141.991 183.749 141.289 183.067 140.248 183.203C139.298 183.34 138.732 184.159 138.891 185.251C139.14 186.981 141.651 188.187 144.593 188.187C146.539 188.187 148.508 187.527 149.797 186.162C150.77 187.504 152.332 188.187 154.255 188.187V185.866C152.354 185.866 151.2 184.751 151.2 182.452"
        fill="black" />
    <path
        d="M151.223 182.475V173.099H146.992V175.374H148.757V182.475C148.757 184.773 146.516 185.889 144.593 185.889C143.009 185.889 142.127 185.297 142.127 185.297C142.194 185.069 142.24 184.887 142.149 184.5C141.991 183.749 141.289 183.067 140.248 183.203C139.298 183.34 138.732 184.159 138.891 185.251C139.14 186.981 141.651 188.187 144.593 188.187C146.539 188.187 148.508 187.527 149.797 186.162C150.77 187.504 152.332 188.187 154.255 188.187V185.866C152.354 185.866 151.2 184.751 151.2 182.452"
        fill="black" />
    <path d="M268.686 186.048V169.48H264.522V171.665H266.106V186.048H264.522V188.188H270.224V186.048H268.686Z"
        fill="black" />
    <path d="M268.686 186.048V169.48H264.522V171.665H266.106V186.048H264.522V188.188H270.224V186.048H268.686Z"
        fill="black" />
    <path d="M135.18 186.048V169.48H131.017V171.665H132.623V186.048H131.017V188.188H136.719V186.048H135.18Z"
        fill="black" />
    <path d="M135.18 186.048V169.48H131.017V171.665H132.623V186.048H131.017V188.188H136.719V186.048H135.18Z"
        fill="black" />
    <path
        d="M232.141 182.475V173.235H229.674V182.475C229.674 184.774 228.52 185.889 226.62 185.889V188.21C228.43 188.21 229.923 187.618 230.896 186.412C231.869 187.596 233.363 188.21 235.173 188.21V185.889C233.272 185.889 232.118 184.774 232.118 182.475"
        fill="black" />
    <path
        d="M232.141 182.475V173.235H229.674V182.475C229.674 184.774 228.52 185.889 226.62 185.889V188.21C228.43 188.21 229.923 187.618 230.896 186.412C231.869 187.596 233.363 188.21 235.173 188.21V185.889C233.272 185.889 232.118 184.774 232.118 182.475"
        fill="black" />
    <path
        d="M214.967 182.475V173.235H212.5V182.475C212.5 184.774 211.346 185.889 209.445 185.889V188.21C211.256 188.21 212.749 187.618 213.722 186.412C214.695 187.596 216.188 188.21 217.999 188.21V185.889C216.098 185.889 214.944 184.774 214.944 182.475"
        fill="black" />
    <path
        d="M214.967 182.475V173.235H212.5V182.475C212.5 184.774 211.346 185.889 209.445 185.889V188.21C211.256 188.21 212.749 187.618 213.722 186.412C214.695 187.596 216.188 188.21 217.999 188.21V185.889C216.098 185.889 214.944 184.774 214.944 182.475"
        fill="black" />
    <path
        d="M256.398 185.866C258.299 185.866 259.453 184.774 259.453 182.475V171.756V169.48H263.526V171.756H261.92V182.475C261.92 186.344 259.657 188.188 256.398 188.188"
        fill="black" />
    <path
        d="M256.398 185.866C258.299 185.866 259.453 184.774 259.453 182.475V171.756V169.48H263.526V171.756H261.92V182.475C261.92 186.344 259.657 188.188 256.398 188.188"
        fill="black" />
    <path
        d="M84.1538 182.385V173.008H81.6194V174.624C80.3296 173.509 78.6325 172.826 76.6413 172.826C72.1609 172.826 69.0156 176.149 69.0156 180.518C69.0156 183.955 70.7806 186.64 73.9485 187.801C74.7179 188.074 75.6004 188.233 76.3924 188.233C79.4471 188.233 80.9406 186.959 81.1895 185.161C81.3479 184.023 80.7822 183.158 79.7866 183.022C78.723 182.885 77.9311 183.591 77.8179 184.364C77.7727 184.751 77.8179 185.184 77.9084 185.48C77.9084 185.48 77.8179 185.798 76.1661 185.798C73.7449 185.798 71.6405 183.454 71.6405 180.518C71.6405 177.401 73.7223 175.193 76.596 175.193C79.4698 175.193 81.6194 177.423 81.6194 180.518V182.521C81.6194 186.344 83.8822 188.211 87.1859 188.211V185.889C85.3078 185.889 84.1538 184.66 84.1538 182.385Z"
        fill="black" />
    <path
        d="M84.1538 182.385V173.008H81.6194V174.624C80.3296 173.509 78.6325 172.826 76.6413 172.826C72.1609 172.826 69.0156 176.149 69.0156 180.518C69.0156 183.955 70.7806 186.64 73.9485 187.801C74.7179 188.074 75.6004 188.233 76.3924 188.233C79.4471 188.233 80.9406 186.959 81.1895 185.161C81.3479 184.023 80.7822 183.158 79.7866 183.022C78.723 182.885 77.9311 183.591 77.8179 184.364C77.7727 184.751 77.8179 185.184 77.9084 185.48C77.9084 185.48 77.8179 185.798 76.1661 185.798C73.7449 185.798 71.6405 183.454 71.6405 180.518C71.6405 177.401 73.7223 175.193 76.596 175.193C79.4698 175.193 81.6194 177.423 81.6194 180.518V182.521C81.6194 186.344 83.8822 188.211 87.1859 188.211V185.889C85.3078 185.889 84.1538 184.66 84.1538 182.385Z"
        fill="black" />
    <path fill-rule="evenodd" clip-rule="evenodd"
        d="M77.207 170.755C76.8223 170.391 76.6413 169.935 76.6187 169.412C76.6187 168.889 76.8223 168.433 77.1844 168.069C77.5464 167.728 77.999 167.569 78.5194 167.546C79.0172 167.546 79.4924 167.705 79.8545 168.069C80.2165 168.433 80.3975 168.889 80.4202 169.435C80.4202 169.935 80.2165 170.413 79.8545 170.755C79.4924 171.096 79.0172 171.278 78.5194 171.278C78.0216 171.278 77.569 171.096 77.207 170.755Z"
        fill="black" />
    <path
        d="M77.207 170.755C76.8223 170.391 76.6413 169.935 76.6187 169.412C76.6187 168.889 76.8223 168.433 77.1844 168.069C77.5464 167.728 77.999 167.569 78.5194 167.546C79.0172 167.546 79.4924 167.705 79.8545 168.069C80.2165 168.433 80.3975 168.889 80.4202 169.435C80.4202 169.935 80.2165 170.413 79.8545 170.755C79.4924 171.096 79.0172 171.278 78.5194 171.278C78.0216 171.278 77.569 171.096 77.207 170.755Z"
        fill="black" />
    <path fill-rule="evenodd" clip-rule="evenodd"
        d="M72.4326 170.755C72.0479 170.391 71.8669 169.935 71.8442 169.412C71.8442 168.889 72.0479 168.433 72.4099 168.069C72.772 167.728 73.2245 167.569 73.745 167.546C74.2428 167.546 74.718 167.705 75.08 168.069C75.4421 168.433 75.6231 168.889 75.6457 169.435C75.6457 169.935 75.4421 170.413 75.08 170.755C74.718 171.096 74.2428 171.278 73.745 171.278C73.2472 171.278 72.7946 171.096 72.4326 170.755Z"
        fill="black" />
    <path
        d="M72.4326 170.755C72.0479 170.391 71.8669 169.935 71.8442 169.412C71.8442 168.889 72.0479 168.433 72.4099 168.069C72.772 167.728 73.2245 167.569 73.745 167.546C74.2428 167.546 74.718 167.705 75.08 168.069C75.4421 168.433 75.6231 168.889 75.6457 169.435C75.6457 169.935 75.4421 170.413 75.08 170.755C74.718 171.096 74.2428 171.278 73.745 171.278C73.2472 171.278 72.7946 171.096 72.4326 170.755Z"
        fill="black" />
    <path fill-rule="evenodd" clip-rule="evenodd"
        d="M159.708 170.755C159.324 170.391 159.143 169.935 159.12 169.412C159.12 168.889 159.324 168.433 159.686 168.069C160.048 167.728 160.5 167.569 161.021 167.546C161.519 167.546 161.994 167.705 162.356 168.069C162.718 168.433 162.899 168.889 162.922 169.435C162.922 169.935 162.718 170.413 162.356 170.755C161.994 171.096 161.519 171.278 161.021 171.278C160.523 171.278 160.07 171.096 159.708 170.755Z"
        fill="black" />
    <path
        d="M159.708 170.755C159.324 170.391 159.143 169.935 159.12 169.412C159.12 168.889 159.324 168.433 159.686 168.069C160.048 167.728 160.5 167.569 161.021 167.546C161.519 167.546 161.994 167.705 162.356 168.069C162.718 168.433 162.899 168.889 162.922 169.435C162.922 169.935 162.718 170.413 162.356 170.755C161.994 171.096 161.519 171.278 161.021 171.278C160.523 171.278 160.07 171.096 159.708 170.755Z"
        fill="black" />
    <path fill-rule="evenodd" clip-rule="evenodd"
        d="M154.866 170.755C154.481 170.391 154.3 169.935 154.278 169.412C154.278 168.889 154.481 168.433 154.844 168.069C155.206 167.728 155.658 167.569 156.179 167.546C156.676 167.546 157.152 167.705 157.514 168.069C157.876 168.433 158.057 168.889 158.079 169.435C158.079 169.935 157.876 170.413 157.514 170.755C157.152 171.096 156.676 171.278 156.179 171.278C155.681 171.278 155.228 171.096 154.866 170.755Z"
        fill="black" />
    <path
        d="M154.866 170.755C154.481 170.391 154.3 169.935 154.278 169.412C154.278 168.889 154.481 168.433 154.844 168.069C155.206 167.728 155.658 167.569 156.179 167.546C156.676 167.546 157.152 167.705 157.514 168.069C157.876 168.433 158.057 168.889 158.079 169.435C158.079 169.935 157.876 170.413 157.514 170.755C157.152 171.096 156.676 171.278 156.179 171.278C155.681 171.278 155.228 171.096 154.866 170.755Z"
        fill="black" />
    <path
        d="M226.62 185.866C224.742 185.866 223.588 184.66 223.588 182.361V175.124H221.053V182.498C221.053 186.321 223.316 188.164 226.62 188.164"
        fill="black" />
    <path
        d="M226.62 185.866C224.742 185.866 223.588 184.66 223.588 182.361V175.124H221.053V182.498C221.053 186.321 223.316 188.164 226.62 188.164"
        fill="black" />
    <path
        d="M218.021 185.866C219.899 185.866 221.053 184.66 221.053 182.361V175.124H223.587V182.498C223.587 186.321 221.325 188.164 218.021 188.164"
        fill="black" />
    <path
        d="M218.021 185.866C219.899 185.866 221.053 184.66 221.053 182.361V175.124H223.587V182.498C223.587 186.321 221.325 188.164 218.021 188.164"
        fill="black" />
    <path d="M209.445 185.866H162.832V188.188H209.445V185.866Z" fill="black" />
    <path d="M111.737 185.866H87.186V188.188H111.737V185.866Z" fill="black" />
    <path
        d="M329.668 182.452C329.668 184.728 331.976 185.866 333.854 185.866C335.732 185.866 336.909 184.751 336.909 182.452V175.352H335.144V173.076H339.375V182.452C339.375 186.321 337.113 188.165 333.877 188.165C330.641 188.165 327.224 186.344 327.224 182.498"
        fill="black" />
    <path
        d="M329.668 182.452C329.668 184.728 331.976 185.866 333.854 185.866C335.732 185.866 336.909 184.751 336.909 182.452V175.352H335.144V173.076H339.375V182.452C339.375 186.321 337.113 188.165 333.877 188.165C330.641 188.165 327.224 186.344 327.224 182.498"
        fill="black" />
    <path
        d="M327.201 174.851V182.452C327.201 184.75 324.961 185.843 323.061 185.843V188.164C326.319 188.164 329.668 186.321 329.668 182.452V174.851H327.201Z"
        fill="black" />
    <path
        d="M327.201 174.851V182.452C327.201 184.75 324.961 185.843 323.061 185.843V188.164C326.319 188.164 329.668 186.321 329.668 182.452V174.851H327.201Z"
        fill="black" />
    <path
        d="M355.124 182.452V173.076H350.893V175.352H352.658V182.452C352.658 184.751 350.418 185.866 348.494 185.866C346.91 185.866 346.028 185.274 346.028 185.274C346.096 185.047 346.141 184.865 346.05 184.478C345.892 183.727 345.191 183.044 344.15 183.181C343.199 183.317 342.634 184.137 342.792 185.229C343.041 186.959 345.553 188.165 348.494 188.165C350.44 188.165 352.409 187.505 353.699 186.139C354.672 187.482 356.233 188.165 358.156 188.165V185.843C356.256 185.843 355.102 184.728 355.102 182.43"
        fill="black" />
    <path
        d="M355.124 182.452V173.076H350.893V175.352H352.658V182.452C352.658 184.751 350.418 185.866 348.494 185.866C346.91 185.866 346.028 185.274 346.028 185.274C346.096 185.047 346.141 184.865 346.05 184.478C345.892 183.727 345.191 183.044 344.15 183.181C343.199 183.317 342.634 184.137 342.792 185.229C343.041 186.959 345.553 188.165 348.494 188.165C350.44 188.165 352.409 187.505 353.699 186.139C354.672 187.482 356.233 188.165 358.156 188.165V185.843C356.256 185.843 355.102 184.728 355.102 182.43"
        fill="black" />
    <path fill-rule="evenodd" clip-rule="evenodd"
        d="M326.794 170.755C326.41 170.391 326.229 169.935 326.206 169.412C326.206 168.889 326.41 168.433 326.772 168.069C327.134 167.728 327.586 167.569 328.107 167.546C328.605 167.546 329.08 167.705 329.442 168.069C329.804 168.433 329.985 168.889 330.008 169.435C330.008 169.935 329.804 170.413 329.442 170.755C329.08 171.096 328.605 171.278 328.107 171.278C327.609 171.278 327.156 171.096 326.794 170.755Z"
        fill="black" />
    <path
        d="M326.794 170.755C326.41 170.391 326.229 169.935 326.206 169.412C326.206 168.889 326.41 168.433 326.772 168.069C327.134 167.728 327.586 167.569 328.107 167.546C328.605 167.546 329.08 167.705 329.442 168.069C329.804 168.433 329.985 168.889 330.008 169.435C330.008 169.935 329.804 170.413 329.442 170.755C329.08 171.096 328.605 171.278 328.107 171.278C327.609 171.278 327.156 171.096 326.794 170.755Z"
        fill="black" />
    <path
        d="M292.784 182.361V172.985H290.25V174.601C288.96 173.485 287.263 172.803 285.272 172.803C280.791 172.803 277.646 176.125 277.646 180.495C277.646 183.931 279.411 186.617 282.579 187.778C283.348 188.051 284.231 188.187 285.023 188.187C288.078 188.187 289.571 186.913 289.82 185.115C289.978 183.977 289.413 183.112 288.417 182.976C287.353 182.816 286.561 183.545 286.448 184.318C286.403 184.705 286.448 185.138 286.539 185.433C286.539 185.433 286.448 185.752 284.796 185.752C282.375 185.752 280.271 183.408 280.271 180.472C280.271 177.354 282.353 175.147 285.226 175.147C288.1 175.147 290.25 177.377 290.25 180.472V182.475C290.25 186.298 292.513 188.142 295.816 188.142V185.82C293.938 185.82 292.784 184.591 292.784 182.316"
        fill="black" />
    <path
        d="M292.784 182.361V172.985H290.25V174.601C288.96 173.485 287.263 172.803 285.272 172.803C280.791 172.803 277.646 176.125 277.646 180.495C277.646 183.931 279.411 186.617 282.579 187.778C283.348 188.051 284.231 188.187 285.023 188.187C288.078 188.187 289.571 186.913 289.82 185.115C289.978 183.977 289.413 183.112 288.417 182.976C287.353 182.816 286.561 183.545 286.448 184.318C286.403 184.705 286.448 185.138 286.539 185.433C286.539 185.433 286.448 185.752 284.796 185.752C282.375 185.752 280.271 183.408 280.271 180.472C280.271 177.354 282.353 175.147 285.226 175.147C288.1 175.147 290.25 177.377 290.25 180.472V182.475C290.25 186.298 292.513 188.142 295.816 188.142V185.82C293.938 185.82 292.784 184.591 292.784 182.316"
        fill="black" />
    <path fill-rule="evenodd" clip-rule="evenodd"
        d="M285.973 170.755C285.588 170.391 285.407 169.935 285.385 169.412C285.385 168.889 285.588 168.433 285.95 168.069C286.313 167.728 286.765 167.569 287.286 167.546C287.783 167.546 288.259 167.705 288.621 168.069C288.983 168.433 289.164 168.889 289.186 169.435C289.186 169.935 288.983 170.413 288.621 170.755C288.259 171.096 287.783 171.278 287.286 171.278C286.788 171.278 286.335 171.096 285.973 170.755Z"
        fill="black" />
    <path
        d="M285.973 170.755C285.588 170.391 285.407 169.935 285.385 169.412C285.385 168.889 285.588 168.433 285.95 168.069C286.313 167.728 286.765 167.569 287.286 167.546C287.783 167.546 288.259 167.705 288.621 168.069C288.983 168.433 289.164 168.889 289.186 169.435C289.186 169.935 288.983 170.413 288.621 170.755C288.259 171.096 287.783 171.278 287.286 171.278C286.788 171.278 286.335 171.096 285.973 170.755Z"
        fill="black" />
    <path fill-rule="evenodd" clip-rule="evenodd"
        d="M281.199 170.755C280.814 170.391 280.633 169.935 280.61 169.412C280.61 168.889 280.814 168.433 281.176 168.069C281.538 167.728 281.991 167.569 282.511 167.546C283.009 167.546 283.484 167.705 283.846 168.069C284.208 168.433 284.389 168.889 284.412 169.435C284.412 169.935 284.208 170.413 283.846 170.755C283.484 171.096 283.009 171.278 282.511 171.278C282.013 171.278 281.561 171.096 281.199 170.755Z"
        fill="black" />
    <path
        d="M281.199 170.755C280.814 170.391 280.633 169.935 280.61 169.412C280.61 168.889 280.814 168.433 281.176 168.069C281.538 167.728 281.991 167.569 282.511 167.546C283.009 167.546 283.484 167.705 283.846 168.069C284.208 168.433 284.389 168.889 284.412 169.435C284.412 169.935 284.208 170.413 283.846 170.755C283.484 171.096 283.009 171.278 282.511 171.278C282.013 171.278 281.561 171.096 281.199 170.755Z"
        fill="black" />
    <path d="M323.061 185.866H295.816V188.188H323.061V185.866Z" fill="black" />
    <path d="M323.061 185.866H295.816V188.188H323.061V185.866Z" fill="black" />
    <path
        d="M361.212 180.472V182.52C361.212 184.819 360.057 185.82 358.157 185.82V188.141C361.415 188.141 363.678 186.389 363.678 182.497V180.54L361.212 180.449V180.472Z"
        fill="black" />
    <path
        d="M361.212 180.472V182.52C361.212 184.819 360.057 185.82 358.157 185.82V188.141C361.415 188.141 363.678 186.389 363.678 182.497V180.54L361.212 180.449V180.472Z"
        fill="black" />
    <path
        d="M376.327 180.472V182.52C376.327 184.819 377.458 185.82 379.382 185.82V188.141C376.123 188.141 373.86 186.389 373.86 182.497V180.54L376.327 180.449V180.472Z"
        fill="black" />
    <path
        d="M376.327 180.472V182.52C376.327 184.819 377.458 185.82 379.382 185.82V188.141C376.123 188.141 373.86 186.389 373.86 182.497V180.54L376.327 180.449V180.472Z"
        fill="black" />
    <path
        d="M361.211 180.472C361.211 176.126 364.357 172.78 368.837 172.78C373.317 172.78 376.35 176.148 376.35 180.472C376.35 184.797 373.204 188.165 368.724 188.165C364.244 188.165 361.211 184.797 361.211 180.472ZM373.702 180.472C373.702 177.377 371.62 175.147 368.769 175.147C365.918 175.147 363.814 177.355 363.814 180.472C363.814 183.59 365.895 185.798 368.769 185.798C371.643 185.798 373.702 183.59 373.702 180.472Z"
        fill="black" />
    <path
        d="M361.211 180.472C361.211 176.126 364.357 172.78 368.837 172.78C373.317 172.78 376.35 176.148 376.35 180.472C376.35 184.797 373.204 188.165 368.724 188.165C364.244 188.165 361.211 184.797 361.211 180.472ZM373.702 180.472C373.702 177.377 371.62 175.147 368.769 175.147C365.918 175.147 363.814 177.355 363.814 180.472C363.814 183.59 365.895 185.798 368.769 185.798C371.643 185.798 373.702 183.59 373.702 180.472Z"
        fill="black" />
    <path d="M391.668 186.026V169.458H387.505V171.643H389.111V186.026H387.505V188.165H393.207V186.026H391.668Z"
        fill="black" />
    <path d="M391.668 186.026V169.458H387.505V171.643H389.111V186.026H387.505V188.165H393.207V186.026H391.668Z"
        fill="black" />
    <path
        d="M379.382 185.844C381.283 185.844 382.437 184.751 382.437 182.453V171.734V169.458H386.51V171.734H384.903V182.453C384.903 186.322 382.64 188.165 379.382 188.165"
        fill="black" />
    <path
        d="M379.382 185.844C381.283 185.844 382.437 184.751 382.437 182.453V171.734V169.458H386.51V171.734H384.903V182.453C384.903 186.322 382.64 188.165 379.382 188.165"
        fill="black" />
    <path d="M56.3438 179.972H62.3628V181.474H56.3438V179.972Z" fill="black" />
    <defs>
        <linearGradient id="paint0_linear_2295_12005" x1="186.434" y1="143.39" x2="118.502" y2="27.2758"
            gradientUnits="userSpaceOnUse">
            <stop stop-color="#67B996" />
            <stop offset="0.35" stop-color="#67B996" />
            <stop offset="0.5" stop-color="#50A286" />
            <stop offset="0.83" stop-color="#27796A" />
            <stop offset="1" stop-color="#17695F" />
        </linearGradient>
        <linearGradient id="paint1_linear_2295_12005" x1="187.29" y1="94.7343" x2="187.359" y2="64.3977"
            gradientUnits="userSpaceOnUse">
            <stop stop-color="#E58E35" />
            <stop offset="1" stop-color="#D06640" />
        </linearGradient>
        <linearGradient id="paint2_linear_2295_12005" x1="252.46" y1="38.5524" x2="209.153" y2="109.207"
            gradientUnits="userSpaceOnUse">
            <stop stop-color="#1D5273" />
            <stop offset="0.59" stop-color="#0C7A95" />
            <stop offset="1" stop-color="#0391A9" />
        </linearGradient>
        <linearGradient id="paint3_linear_2295_12005" x1="138.383" y1="29.1832" x2="306.674" y2="29.565"
            gradientUnits="userSpaceOnUse">
            <stop stop-color="#67B996" />
            <stop offset="0.21" stop-color="#5CAE8E" />
            <stop offset="0.57" stop-color="#40927B" />
            <stop offset="1" stop-color="#17695F" />
        </linearGradient>
        <linearGradient id="paint4_linear_2295_12005" x1="132.645" y1="52.5803" x2="235.22" y2="43.3546"
            gradientUnits="userSpaceOnUse">
            <stop stop-color="#1D5273" />
            <stop offset="0.59" stop-color="#0C7A95" />
            <stop offset="1" stop-color="#0391A9" />
        </linearGradient>
        <linearGradient id="paint5_linear_2295_12005" x1="176.824" y1="57.3476" x2="242.884" y2="57.4975"
            gradientUnits="userSpaceOnUse">
            <stop stop-color="#E58E35" />
            <stop offset="1" stop-color="#D06640" />
        </linearGradient>
    </defs>
</svg>