<svg width="33" height="32" viewBox="0 0 33 32" fill="none" xmlns="http://www.w3.org/2000/svg">
<g clip-path="url(#clip0_1977_6667)">
<path d="M29.6257 14.5001H15.156C11.8463 14.5001 8.6249 13.8881 5.56278 12.6801V3.4375C5.56278 2.57594 6.26371 1.875 7.12528 1.875H8.37528C9.23684 1.875 9.93778 2.57594 9.93778 3.4375V3.881C8.49671 4.29019 7.43778 5.61706 7.43778 7.1875V8.4375C7.43778 8.95525 7.85753 9.375 8.37528 9.375H13.3753C13.893 9.375 14.3128 8.95525 14.3128 8.4375V7.1875C14.3128 5.61706 13.2538 4.29025 11.8128 3.881V3.4375C11.8128 1.54206 10.2707 0 8.37528 0H7.12528C5.22984 0 3.68778 1.54206 3.68778 3.4375V12.0182C2.50221 11.8872 1.31484 12.5248 0.805714 13.67C0.500588 14.3563 0.481088 15.1205 0.750651 15.8218C1.02021 16.5231 1.54671 17.0774 2.23315 17.3825C2.30134 17.4128 2.36984 17.4423 2.43815 17.4721V21.0625C2.43815 23.9602 3.90659 26.5211 6.13821 28.0409L4.47059 30.5424C4.18334 30.9732 4.29978 31.5553 4.73059 31.8424C4.89046 31.949 5.07103 32 5.24978 32C5.55271 32 5.85003 31.8534 6.03065 31.5824L7.80465 28.9213C8.75684 29.2947 9.79265 29.4999 10.8756 29.4999H22.1256C23.2085 29.4999 24.2443 29.2946 25.1965 28.9213L26.9706 31.5824C27.1513 31.8534 27.4485 32 27.7515 32C27.9302 32 28.1108 31.949 28.2707 31.8424C28.7015 31.5553 28.8179 30.9732 28.5307 30.5424L26.863 28.041C29.0947 26.5212 30.5632 23.9603 30.5632 21.0626V19.9639C31.6543 19.5769 32.4381 18.5348 32.4381 17.3126C32.4381 15.7618 31.1765 14.5001 29.6257 14.5001ZM10.8753 5.625C11.7368 5.625 12.4378 6.32594 12.4378 7.1875V7.5H9.31278V7.1875C9.31278 6.32594 10.0137 5.625 10.8753 5.625ZM28.6882 21.0625C28.6882 24.6811 25.7442 27.625 22.1257 27.625H10.8757C7.25709 27.625 4.31315 24.6811 4.31315 21.0625V18.2214C7.78865 19.4852 11.426 20.1251 15.156 20.1251H28.6882V21.0625ZM29.6257 18.2501H15.156C10.9388 18.2501 6.84715 17.3817 2.99471 15.6691C2.5224 15.4593 2.30903 14.9041 2.51909 14.4316C2.67403 14.0829 3.01796 13.8756 3.37765 13.8756C3.50453 13.8756 3.6334 13.9014 3.75653 13.956C7.36784 15.5612 11.2032 16.3751 15.156 16.3751H29.6257C30.1426 16.3751 30.5632 16.7956 30.5632 17.3126C30.5632 17.8295 30.1426 18.2501 29.6257 18.2501Z" fill="#058DA6"/>
</g>
<defs>
<clipPath id="clip0_1977_6667">
<rect width="32" height="32" fill="white" transform="translate(0.5)"/>
</clipPath>
</defs>
</svg>
