<svg width="33" height="32" viewBox="0 0 33 32" fill="none" xmlns="http://www.w3.org/2000/svg">
<g clip-path="url(#clip0_1224_11952)">
<path d="M29.531 14.5258V7.39966C29.531 5.8286 28.2528 4.55042 26.6817 4.55042H6.31825C4.74719 4.55042 3.469 5.8286 3.469 7.39966V14.5258C1.75925 14.9991 0.5 16.5679 0.5 18.4261V23.8407C0.5 24.3653 0.925375 24.7907 1.45 24.7907H3.469V26.4997C3.469 27.0243 3.89437 27.4497 4.419 27.4497C4.94362 27.4497 5.369 27.0243 5.369 26.4997V24.7907H27.631V26.4997C27.631 27.0243 28.0564 27.4497 28.581 27.4497C29.1056 27.4497 29.531 27.0243 29.531 26.4997V24.7907H31.55C32.0746 24.7907 32.5 24.3653 32.5 23.8407V18.4261C32.5 16.5679 31.2407 14.9991 29.531 14.5258ZM5.369 7.39966C5.369 6.87629 5.79488 6.45042 6.31825 6.45042H26.6818C27.2052 6.45042 27.6311 6.87629 27.6311 7.39966V14.3788H25.4051V12.4719C25.4051 10.8137 24.0561 9.46467 22.3979 9.46467H18.5572C17.762 9.46467 17.0384 9.77548 16.5001 10.2814C15.9618 9.77554 15.2381 9.46467 14.4429 9.46467H10.6022C8.944 9.46467 7.595 10.8137 7.595 12.4719V14.3788H5.369V7.39966ZM23.5051 12.4719V14.3788H17.45V12.4719C17.45 11.8613 17.9468 11.3647 18.5572 11.3647H22.3979C23.0084 11.3647 23.5051 11.8614 23.5051 12.4719ZM15.5499 12.4719V14.3788H9.49481V12.4719C9.49481 11.8613 9.99156 11.3647 10.602 11.3647H14.4427C15.0532 11.3647 15.5499 11.8614 15.5499 12.4719ZM30.6 22.8907H2.4V18.4261C2.4 17.2421 3.36325 16.2788 4.54731 16.2788H28.4527C29.6367 16.2788 30.6 17.242 30.6 18.4261V22.8907Z" fill="#058DA6"/>
</g>
<defs>
<clipPath id="clip0_1224_11952">
<rect width="32" height="32" fill="white" transform="translate(0.5)"/>
</clipPath>
</defs>
</svg>
