<svg width="33" height="32" viewBox="0 0 33 32" fill="none" xmlns="http://www.w3.org/2000/svg">
<g clip-path="url(#clip0_1977_6651)">
<path d="M29.531 14.5262V7.40003C29.531 5.82897 28.2528 4.55078 26.6817 4.55078H6.31825C4.74719 4.55078 3.469 5.82897 3.469 7.40003V14.5262C1.75925 14.9995 0.5 16.5682 0.5 18.4265V23.841C0.5 24.3657 0.925375 24.791 1.45 24.791H3.469V26.5C3.469 27.0247 3.89437 27.45 4.419 27.45C4.94362 27.45 5.369 27.0247 5.369 26.5V24.791H27.631V26.5C27.631 27.0247 28.0564 27.45 28.581 27.45C29.1056 27.45 29.531 27.0247 29.531 26.5V24.791H31.55C32.0746 24.791 32.5 24.3657 32.5 23.841V18.4265C32.5 16.5682 31.2407 14.9995 29.531 14.5262ZM5.369 7.40003C5.369 6.87666 5.79488 6.45078 6.31825 6.45078H26.6818C27.2052 6.45078 27.6311 6.87666 27.6311 7.40003V14.3792H25.4051V12.4722C25.4051 10.814 24.0561 9.46503 22.3979 9.46503H18.5572C17.762 9.46503 17.0384 9.77584 16.5001 10.2818C15.9618 9.77591 15.2381 9.46503 14.4429 9.46503H10.6022C8.944 9.46503 7.595 10.8141 7.595 12.4722V14.3792H5.369V7.40003ZM23.5051 12.4722V14.3792H17.45V12.4722C17.45 11.8617 17.9468 11.365 18.5572 11.365H22.3979C23.0084 11.365 23.5051 11.8617 23.5051 12.4722ZM15.5499 12.4722V14.3792H9.49481V12.4722C9.49481 11.8617 9.99156 11.365 10.602 11.365H14.4427C15.0532 11.365 15.5499 11.8617 15.5499 12.4722ZM30.6 22.891H2.4V18.4265C2.4 17.2425 3.36325 16.2792 4.54731 16.2792H28.4527C29.6367 16.2792 30.6 17.2424 30.6 18.4265V22.891Z" fill="#058DA6"/>
</g>
<defs>
<clipPath id="clip0_1977_6651">
<rect width="32" height="32" fill="white" transform="translate(0.5)"/>
</clipPath>
</defs>
</svg>
