<svg width="21" height="18" viewBox="0 0 21 18" fill="none" xmlns="http://www.w3.org/2000/svg">
<path d="M16.3268 0.71875H4.29652C1.92742 0.71875 0 2.64617 0 5.01527V17.0455C0 17.5207 0.384968 17.9048 0.859304 17.9048C1.33364 17.9048 1.71861 17.5207 1.71861 17.0455V15.3269H18.9047V17.0455C18.9047 17.5207 19.2888 17.9048 19.764 17.9048C20.2392 17.9048 20.6233 17.5207 20.6233 17.0455V5.01527C20.6233 2.64617 18.6959 0.71875 16.3268 0.71875ZM4.29652 2.43736H16.3268C17.7481 2.43736 18.9047 3.59398 18.9047 5.01527V10.1711H17.1861C17.1861 8.27547 15.6445 6.73388 13.7489 6.73388H12.8896C11.8636 6.73388 10.9424 7.18587 10.3116 7.89995C9.68092 7.18501 8.75974 6.73388 7.73374 6.73388H6.87443C4.97881 6.73388 3.43722 8.27547 3.43722 10.1711H1.71861V5.01527C1.71861 3.59398 2.87523 2.43736 4.29652 2.43736ZM11.171 10.1711C11.171 9.22328 11.9417 8.45249 12.8896 8.45249H13.7489C14.6967 8.45249 15.4675 9.22328 15.4675 10.1711H11.171ZM5.15582 10.1711C5.15582 9.22328 5.92662 8.45249 6.87443 8.45249H7.73374C8.68155 8.45249 9.45234 9.22328 9.45234 10.1711H5.15582ZM1.71861 13.6083V11.8897H18.9047V13.6083H1.71861Z" fill="#4CADBF"/>
</svg>
