<svg viewBox="0 0 24 23" fill="none" xmlns="http://www.w3.org/2000/svg">
    <g clip-path="url(#clip0_2762_6715)">
        <path
            d="M22.0625 3.8103H19.105C18.9155 3.81034 18.7303 3.86657 18.5727 3.97188C18.4152 4.07718 18.2924 4.22684 18.2199 4.40193C18.1473 4.57701 18.1284 4.76967 18.1653 4.95554C18.2023 5.14141 18.2935 5.31215 18.4275 5.44618L19.4683 6.48693L16.0317 9.92255C15.8491 10.0971 15.6062 10.1944 15.3536 10.1944C15.1011 10.1944 14.8582 10.0971 14.6756 9.92255L14.5127 9.75868C13.9651 9.2355 13.2369 8.94354 12.4796 8.94354C11.7223 8.94354 10.9941 9.2355 10.4465 9.75868L5.559 14.6462C5.37893 14.8268 5.27796 15.0715 5.27832 15.3265C5.27868 15.5815 5.38033 15.826 5.56092 16.0061C5.7415 16.1861 5.98623 16.2871 6.24125 16.2867C6.49628 16.2864 6.74072 16.1847 6.92079 16.0041L11.8083 11.1166C11.9908 10.9419 12.2337 10.8444 12.4863 10.8444C12.739 10.8444 12.9819 10.9419 13.1643 11.1166L13.3273 11.2805C13.8751 11.8033 14.6032 12.0949 15.3604 12.0949C16.1176 12.0949 16.8457 11.8033 17.3935 11.2805L20.83 7.84393L21.8708 8.88468C22.0053 9.0165 22.1756 9.10577 22.3605 9.14136C22.5454 9.17696 22.7367 9.15728 22.9105 9.0848C23.0843 9.01231 23.2329 8.89023 23.3377 8.7338C23.4426 8.57737 23.499 8.39352 23.5 8.20522V5.2478C23.5 4.86655 23.3485 4.50092 23.0789 4.23134C22.8093 3.96175 22.4437 3.8103 22.0625 3.8103Z"
            fill="#058DA6" />
        <path
            d="M22.5417 21.0603H5.29167C4.52917 21.0603 3.7979 20.7574 3.25873 20.2183C2.71957 19.6791 2.41667 18.9478 2.41667 18.1853V0.958333C2.41667 0.704168 2.3157 0.460412 2.13598 0.280689C1.95625 0.100967 1.7125 0 1.45833 0C1.20417 0 0.960412 0.100967 0.780689 0.280689C0.600967 0.460412 0.5 0.704168 0.5 0.958333L0.5 18.1853C0.501522 19.4557 1.00685 20.6736 1.90513 21.5719C2.80341 22.4702 4.0213 22.9755 5.29167 22.977H22.5417C22.7958 22.977 23.0396 22.876 23.2193 22.6963C23.399 22.5166 23.5 22.2728 23.5 22.0187C23.5 21.7645 23.399 21.5207 23.2193 21.341C23.0396 21.1613 22.7958 21.0603 22.5417 21.0603Z"
            fill="#058DA6" />
    </g>
    <defs>
        <clipPath id="clip0_2762_6715">
            <rect width="23" height="23" fill="white" transform="translate(0.5)" />
        </clipPath>
    </defs>
</svg>