<svg width="23" height="23" viewBox="0 0 23 23" fill="none" xmlns="http://www.w3.org/2000/svg">
<g clip-path="url(#clip0_154_40)">
<path d="M21.5625 3.8103H18.6051C18.4156 3.81034 18.2303 3.86657 18.0728 3.97188C17.9152 4.07718 17.7924 4.22684 17.7199 4.40193C17.6474 4.57701 17.6284 4.76967 17.6654 4.95554C17.7023 5.14141 17.7936 5.31215 17.9275 5.44618L18.9683 6.48693L15.5317 9.92255C15.3491 10.0971 15.1063 10.1944 14.8537 10.1944C14.6011 10.1944 14.3583 10.0971 14.1757 9.92255L14.0127 9.75868C13.4652 9.2355 12.737 8.94354 11.9796 8.94354C11.2223 8.94354 10.4941 9.2355 9.94654 9.75868L5.05904 14.6462C4.87896 14.8268 4.778 15.0715 4.77836 15.3265C4.77872 15.5815 4.88037 15.826 5.06096 16.0061C5.24154 16.1861 5.48627 16.2871 5.74129 16.2867C5.99632 16.2864 6.24076 16.1847 6.42083 16.0041L11.3083 11.1166C11.4908 10.9419 11.7337 10.8444 11.9864 10.8444C12.239 10.8444 12.4819 10.9419 12.6644 11.1166L12.8273 11.2805C13.3751 11.8033 14.1032 12.0949 14.8604 12.0949C15.6176 12.0949 16.3457 11.8033 16.8935 11.2805L20.3301 7.84393L21.3708 8.88468C21.5053 9.0165 21.6756 9.10577 21.8606 9.14136C22.0455 9.17696 22.2368 9.15728 22.4106 9.0848C22.5844 9.01231 22.733 8.89023 22.8378 8.7338C22.9426 8.57737 22.999 8.39352 23 8.20522V5.2478C23 4.86655 22.8485 4.50092 22.579 4.23134C22.3094 3.96175 21.9437 3.8103 21.5625 3.8103Z" fill="#038FAB"/>
<path d="M22.0417 21.0603H4.79167C4.02917 21.0603 3.2979 20.7574 2.75873 20.2183C2.21957 19.6791 1.91667 18.9478 1.91667 18.1853V0.958333C1.91667 0.704168 1.8157 0.460412 1.63598 0.280689C1.45625 0.100967 1.2125 0 0.958333 0C0.704168 0 0.460412 0.100967 0.280689 0.280689C0.100967 0.460412 0 0.704168 0 0.958333L0 18.1853C0.0015217 19.4557 0.506845 20.6736 1.40513 21.5719C2.30341 22.4702 3.5213 22.9755 4.79167 22.977H22.0417C22.2958 22.977 22.5396 22.876 22.7193 22.6963C22.899 22.5166 23 22.2728 23 22.0187C23 21.7645 22.899 21.5207 22.7193 21.341C22.5396 21.1613 22.2958 21.0603 22.0417 21.0603Z" fill="#038FAB"/>
</g>
<defs>
<clipPath id="clip0_154_40">
<rect width="23" height="23" fill="white"/>
</clipPath>
</defs>
</svg>
