<svg viewBox="0 0 33 32" fill="none" xmlns="http://www.w3.org/2000/svg">
    <path
        d="M8.89844 2.50962L7.68186 4.4857C7.55655 4.66631 7.36679 4.79203 7.15161 4.83697C6.93643 4.88191 6.71221 4.84267 6.52508 4.72731C6.33796 4.61196 6.20217 4.42927 6.14566 4.21683C6.08914 4.0044 6.11621 3.77838 6.22128 3.5853L7.43785 1.60921C7.74293 1.12208 8.16679 0.720452 8.66964 0.442045C9.17249 0.163638 9.73785 0.0175781 10.3126 0.0175781C10.8874 0.0175781 11.4528 0.163638 11.9556 0.442045C12.4585 0.720452 12.8823 1.12208 13.1874 1.60921L16.7959 7.48076L17.1748 5.44883C17.2165 5.22472 17.3455 5.02636 17.5335 4.89738C17.7214 4.7684 17.9529 4.71937 18.177 4.76107C18.4011 4.80276 18.5995 4.93178 18.7285 5.11973C18.8574 5.30769 18.9065 5.53918 18.8648 5.76328L18.4352 8.05726C18.3253 8.6478 18.0125 9.18141 17.551 9.56589C17.0895 9.95038 16.5082 10.1616 15.9075 10.1631C15.74 10.1631 13.1436 9.6682 13.1436 9.6682C12.9238 9.62043 12.7315 9.48837 12.608 9.30038C12.4845 9.1124 12.4396 8.88347 12.483 8.66278C12.5265 8.44208 12.6547 8.24721 12.8402 8.12002C13.0257 7.99283 13.2537 7.94346 13.4752 7.98251L15.3078 8.34422L11.7217 2.50962C11.5726 2.26951 11.3647 2.0714 11.1177 1.93402C10.8707 1.79665 10.5927 1.72455 10.31 1.72455C10.0274 1.72455 9.74944 1.79665 9.50243 1.93402C9.25542 2.0714 9.04754 2.26951 8.89844 2.50962ZM20.1123 12.8703L19.2806 11.5197C19.2248 11.4172 19.1487 11.3271 19.0569 11.2549C18.9652 11.1828 18.8596 11.1301 18.7468 11.1001C18.634 11.0701 18.5163 11.0633 18.4008 11.0804C18.2853 11.0974 18.1744 11.1377 18.0751 11.199C17.9757 11.2603 17.8899 11.3411 17.8228 11.4367C17.7557 11.5322 17.7088 11.6404 17.6849 11.7547C17.6611 11.869 17.6607 11.9869 17.684 12.1013C17.7072 12.2157 17.7535 12.3242 17.82 12.4201L18.6517 13.7707C18.8103 14.0248 18.8974 14.317 18.9036 14.6164C18.9098 14.9159 18.8349 15.2115 18.6869 15.4719C18.5446 15.7316 18.3346 15.9479 18.0793 16.098C17.824 16.248 17.5328 16.3262 17.2367 16.3242H10.8908L11.9828 15.2339C12.1396 15.0721 12.2265 14.8552 12.2249 14.6299C12.2232 14.4046 12.1332 14.189 11.9741 14.0294C11.815 13.8699 11.5997 13.7792 11.3744 13.777C11.1491 13.7747 10.932 13.861 10.7697 14.0173L9.31599 15.465C8.8623 15.9161 8.60246 16.5264 8.59172 17.1661C8.59172 17.1661 8.59172 17.1747 8.59172 17.1782C8.59172 17.1816 8.59172 17.1893 8.59172 17.1954C8.58926 17.526 8.653 17.8537 8.77915 18.1593C8.90531 18.4649 9.09135 18.7421 9.3263 18.9747L10.7714 20.394C10.851 20.477 10.9465 20.5432 11.0522 20.5886C11.1579 20.634 11.2716 20.6578 11.3866 20.6584C11.5016 20.659 11.6156 20.6366 11.7218 20.5924C11.828 20.5481 11.9242 20.483 12.0047 20.4009C12.0853 20.3188 12.1485 20.2214 12.1907 20.1144C12.2329 20.0074 12.2532 19.893 12.2503 19.778C12.2475 19.663 12.2216 19.5498 12.1742 19.445C12.1267 19.3402 12.0588 19.246 11.9743 19.168L10.8333 18.0425H17.2367C17.8394 18.0404 18.4307 17.8778 18.9497 17.5713C19.4687 17.2648 19.8967 16.8256 20.1896 16.2988C20.4825 15.772 20.6297 15.1767 20.6161 14.5741C20.6025 13.9715 20.4286 13.3834 20.1123 12.8703ZM5.8252 6.19716C5.54363 6.00542 5.22667 5.87171 4.89283 5.80385C4.559 5.73599 4.21499 5.73534 3.88091 5.80195L1.62216 6.24699C1.50964 6.26683 1.4022 6.30891 1.30614 6.37077C1.21008 6.43264 1.12733 6.51304 1.06272 6.60727C0.99811 6.7015 0.952945 6.80768 0.929868 6.91958C0.90679 7.03148 0.906264 7.14686 0.92832 7.25896C0.950375 7.37107 0.994569 7.47765 1.05832 7.57247C1.12206 7.66729 1.20408 7.74844 1.29957 7.81118C1.39506 7.87391 1.50211 7.91697 1.61444 7.93783C1.72678 7.9587 1.84214 7.95694 1.95379 7.93268L3.76492 7.57612L0.507816 12.8703C0.191515 13.3833 0.0176049 13.9713 0.00397993 14.5738C-0.00964504 15.1764 0.137507 15.7716 0.430296 16.2984C0.723084 16.8252 1.15094 17.2644 1.66983 17.571C2.18872 17.8775 2.77992 18.0403 3.38259 18.0425H6.08295C6.31081 18.0425 6.52935 17.952 6.69047 17.7909C6.8516 17.6297 6.94212 17.4112 6.94212 17.1833C6.94212 16.9555 6.8516 16.7369 6.69047 16.5758C6.52935 16.4147 6.31081 16.3242 6.08295 16.3242H3.38259C3.08702 16.3256 2.79656 16.2471 2.5419 16.0971C2.28723 15.9471 2.07781 15.7311 1.93575 15.4719C1.78776 15.2115 1.7129 14.9159 1.7191 14.6164C1.7253 14.317 1.81233 14.0248 1.97098 13.7707L5.26846 8.41123L5.65165 10.4681C5.69357 10.6922 5.82281 10.8905 6.01092 11.0193C6.19904 11.1481 6.43062 11.1969 6.65473 11.155C6.87883 11.1131 7.0771 10.9838 7.20592 10.7957C7.33474 10.6076 7.38356 10.376 7.34163 10.1519L6.91205 7.85793C6.85031 7.52278 6.72241 7.2033 6.5358 6.91815C6.34918 6.63299 6.10761 6.38789 5.8252 6.19716Z"
        fill="#4CADBF" />
</svg>