<svg width="24" height="23" viewBox="0 0 24 23" fill="none" xmlns="http://www.w3.org/2000/svg">
    <path
        d="M10.4255 2.79927L9.06846 5.00344C8.92869 5.20489 8.71702 5.34512 8.477 5.39525C8.23699 5.44538 7.98689 5.4016 7.77817 5.27293C7.56945 5.14426 7.41798 4.94048 7.35495 4.70353C7.29191 4.46658 7.3221 4.21448 7.43929 3.9991L8.79629 1.79494C9.13658 1.25157 9.60936 0.803593 10.1703 0.493052C10.7311 0.18251 11.3618 0.0195923 12.0029 0.0195923C12.644 0.0195923 13.2746 0.18251 13.8355 0.493052C14.3964 0.803593 14.8692 1.25157 15.2095 1.79494L19.2345 8.34418L19.6571 6.07773C19.7036 5.82775 19.8475 5.6065 20.0572 5.46263C20.2668 5.31876 20.525 5.26407 20.775 5.31058C21.025 5.35709 21.2462 5.501 21.3901 5.71065C21.5339 5.92029 21.5886 6.17851 21.5421 6.42848L21.063 8.98723C20.9932 9.36075 20.8502 9.71675 20.642 10.0346C20.4339 10.3525 20.1648 10.626 19.8503 10.8393C19.5358 11.0525 19.1822 11.2013 18.8098 11.2771C18.4375 11.3528 18.0538 11.354 17.681 11.2805L15.1606 10.7841C14.9154 10.7308 14.7009 10.5835 14.5632 10.3738C14.4254 10.1642 14.3754 9.9088 14.4238 9.66264C14.4722 9.41647 14.6153 9.19911 14.8222 9.05723C15.0291 8.91536 15.2834 8.86029 15.5305 8.90385L17.5746 9.30731L13.5745 2.79927C13.4082 2.53144 13.1764 2.31047 12.9008 2.15724C12.6253 2.00401 12.3153 1.92359 12 1.92359C11.6847 1.92359 11.3747 2.00401 11.0992 2.15724C10.8236 2.31047 10.5918 2.53144 10.4255 2.79927ZM22.9336 14.3558L22.006 12.8493C21.9437 12.7349 21.8588 12.6344 21.7565 12.554C21.6541 12.4735 21.5364 12.4147 21.4106 12.3812C21.2847 12.3478 21.1534 12.3403 21.0246 12.3593C20.8957 12.3782 20.7721 12.4233 20.6613 12.4916C20.5504 12.5599 20.4547 12.6501 20.3799 12.7567C20.305 12.8633 20.2527 12.984 20.2261 13.1114C20.1995 13.2389 20.1991 13.3704 20.225 13.4981C20.2509 13.6257 20.3026 13.7467 20.3768 13.8536L21.3045 15.3601C21.4814 15.6435 21.5785 15.9695 21.5854 16.3035C21.5923 16.6375 21.5088 16.9672 21.3438 17.2576C21.185 17.5473 20.9508 17.7887 20.666 17.956C20.3812 18.1234 20.0564 18.2106 19.7261 18.2083H12.6478L13.8659 16.9922C14.0407 16.8117 14.1377 16.5697 14.1358 16.3185C14.134 16.0672 14.0336 15.8267 13.8561 15.6487C13.6787 15.4708 13.4385 15.3697 13.1872 15.3671C12.9359 15.3646 12.6937 15.4609 12.5127 15.6352L10.8912 17.25C10.3933 17.745 10.1041 18.4121 10.0833 19.1139V19.1734C10.0801 19.5434 10.1513 19.9104 10.2925 20.2525C10.4337 20.5945 10.6422 20.9048 10.9056 21.1648L12.5175 22.7479C12.6063 22.8405 12.7128 22.9143 12.8307 22.965C12.9486 23.0156 13.0754 23.0421 13.2037 23.0428C13.332 23.0435 13.4591 23.0185 13.5775 22.9692C13.696 22.9198 13.8033 22.8472 13.8931 22.7556C13.983 22.6641 14.0535 22.5554 14.1006 22.436C14.1477 22.3167 14.1703 22.1891 14.1671 22.0608C14.1639 21.9326 14.135 21.8063 14.0821 21.6894C14.0293 21.5725 13.9534 21.4674 13.8592 21.3804L12.5836 20.125H19.7261C20.3984 20.1227 21.058 19.9413 21.6369 19.5994C22.2158 19.2575 22.6932 18.7676 23.0199 18.18C23.3466 17.5924 23.5108 16.9284 23.4956 16.2562C23.4805 15.5841 23.2865 14.9281 22.9336 14.3558ZM8.21171 8.76489C8.142 8.39127 7.99891 8.03518 7.7907 7.71722C7.58249 7.39925 7.3133 7.12573 6.99871 6.91246C6.68411 6.6992 6.33035 6.55042 5.95789 6.47475C5.58543 6.39908 5.20167 6.39801 4.82879 6.4716L2.30933 6.96802C2.18383 6.99015 2.06399 7.03708 1.95685 7.10609C1.8497 7.17509 1.75739 7.26477 1.68533 7.36988C1.61326 7.47499 1.56288 7.59342 1.53714 7.71823C1.5114 7.84305 1.51081 7.97175 1.53541 8.09679C1.56002 8.22184 1.60931 8.34072 1.68042 8.44648C1.75152 8.55225 1.84301 8.64277 1.94952 8.71274C2.05603 8.78272 2.17543 8.83075 2.30073 8.85402C2.42603 8.87729 2.55471 8.87533 2.67925 8.84827L4.69942 8.45056L1.06638 14.3558C0.713566 14.928 0.519583 15.5839 0.504385 16.256C0.489188 16.928 0.653324 17.592 0.979907 18.1796C1.30649 18.7672 1.78373 19.2571 2.36251 19.599C2.94129 19.941 3.60073 20.1225 4.27296 20.125H7.285C7.53917 20.125 7.78292 20.024 7.96265 19.8443C8.14237 19.6646 8.24333 19.4208 8.24333 19.1666C8.24333 18.9125 8.14237 18.6687 7.96265 18.489C7.78292 18.3093 7.53917 18.2083 7.285 18.2083H4.27296C3.94328 18.2099 3.6193 18.1224 3.33523 17.955C3.05117 17.7877 2.81758 17.5468 2.65913 17.2576C2.49405 16.9672 2.41055 16.6375 2.41747 16.3035C2.42438 15.9695 2.52146 15.6435 2.69842 15.3601L6.3765 9.38206L6.80392 11.6763C6.85068 11.9263 6.99484 12.1474 7.20466 12.2911C7.41449 12.4348 7.6728 12.4893 7.92277 12.4425C8.17274 12.3957 8.3939 12.2516 8.53759 12.0418C8.68128 11.8319 8.73573 11.5736 8.68896 11.3236L8.21171 8.76489Z"
        fill="#70B795" />
</svg>