<svg width="23" height="23" viewBox="0 0 23 23" fill="none" xmlns="http://www.w3.org/2000/svg">
<path d="M9.92546 2.79927L8.56846 5.00344C8.42869 5.20489 8.21702 5.34512 7.977 5.39525C7.73699 5.44538 7.48689 5.4016 7.27817 5.27293C7.06945 5.14426 6.91798 4.94048 6.85495 4.70353C6.79191 4.46658 6.8221 4.21448 6.93929 3.9991L8.29629 1.79494C8.63658 1.25157 9.10936 0.803593 9.67025 0.493052C10.2311 0.18251 10.8618 0.0195923 11.5029 0.0195923C12.144 0.0195923 12.7746 0.18251 13.3355 0.493052C13.8964 0.803593 14.3692 1.25157 14.7095 1.79494L18.7345 8.34418L19.1571 6.07773C19.2036 5.82775 19.3475 5.6065 19.5572 5.46263C19.7668 5.31876 20.025 5.26407 20.275 5.31058C20.525 5.35709 20.7462 5.501 20.8901 5.71065C21.0339 5.92029 21.0886 6.17851 21.0421 6.42848L20.563 8.98723C20.4932 9.36075 20.3502 9.71675 20.142 10.0346C19.9339 10.3525 19.6648 10.626 19.3503 10.8393C19.0358 11.0525 18.6822 11.2013 18.3098 11.2771C17.9375 11.3528 17.5538 11.354 17.181 11.2805L14.6606 10.7841C14.4154 10.7308 14.2009 10.5835 14.0632 10.3738C13.9254 10.1642 13.8754 9.9088 13.9238 9.66264C13.9722 9.41647 14.1153 9.19911 14.3222 9.05723C14.5291 8.91536 14.7834 8.86029 15.0305 8.90385L17.0746 9.30731L13.0745 2.79927C12.9082 2.53144 12.6764 2.31047 12.4008 2.15724C12.1253 2.00401 11.8153 1.92359 11.5 1.92359C11.1847 1.92359 10.8747 2.00401 10.5992 2.15724C10.3236 2.31047 10.0918 2.53144 9.92546 2.79927ZM22.4336 14.3558L21.506 12.8493C21.4437 12.7349 21.3588 12.6344 21.2565 12.554C21.1541 12.4735 21.0364 12.4147 20.9106 12.3812C20.7847 12.3478 20.6534 12.3403 20.5246 12.3593C20.3957 12.3782 20.2721 12.4233 20.1613 12.4916C20.0504 12.5599 19.9547 12.6501 19.8799 12.7567C19.805 12.8633 19.7527 12.984 19.7261 13.1114C19.6995 13.2389 19.6991 13.3704 19.725 13.4981C19.7509 13.6257 19.8026 13.7467 19.8768 13.8536L20.8045 15.3601C20.9814 15.6435 21.0785 15.9695 21.0854 16.3035C21.0923 16.6375 21.0088 16.9672 20.8438 17.2576C20.685 17.5473 20.4508 17.7887 20.166 17.956C19.8812 18.1234 19.5564 18.2106 19.2261 18.2083H12.1478L13.3659 16.9922C13.5407 16.8117 13.6377 16.5697 13.6358 16.3185C13.634 16.0672 13.5336 15.8267 13.3561 15.6487C13.1787 15.4708 12.9385 15.3697 12.6872 15.3671C12.4359 15.3646 12.1937 15.4609 12.0127 15.6352L10.3912 17.25C9.89326 17.745 9.60412 18.4121 9.58333 19.1139V19.1734C9.58013 19.5434 9.65126 19.9104 9.7925 20.2525C9.93374 20.5945 10.1422 20.9048 10.4056 21.1648L12.0175 22.7479C12.1063 22.8405 12.2128 22.9143 12.3307 22.965C12.4486 23.0156 12.5754 23.0421 12.7037 23.0428C12.832 23.0435 12.9591 23.0185 13.0775 22.9692C13.196 22.9198 13.3033 22.8472 13.3931 22.7556C13.483 22.6641 13.5535 22.5554 13.6006 22.436C13.6477 22.3167 13.6703 22.1891 13.6671 22.0608C13.6639 21.9326 13.635 21.8063 13.5821 21.6894C13.5293 21.5725 13.4534 21.4674 13.3592 21.3804L12.0836 20.125H19.2261C19.8984 20.1227 20.558 19.9413 21.1369 19.5994C21.7158 19.2575 22.1932 18.7676 22.5199 18.18C22.8466 17.5924 23.0108 16.9284 22.9956 16.2562C22.9805 15.5841 22.7865 14.9281 22.4336 14.3558ZM7.71171 8.76489C7.642 8.39127 7.49891 8.03518 7.2907 7.71722C7.08249 7.39925 6.8133 7.12573 6.49871 6.91246C6.18411 6.6992 5.83035 6.55042 5.45789 6.47475C5.08543 6.39908 4.70167 6.39801 4.32879 6.4716L1.80933 6.96802C1.68383 6.99015 1.56399 7.03708 1.45685 7.10609C1.3497 7.17509 1.25739 7.26477 1.18533 7.36988C1.11326 7.47499 1.06288 7.59342 1.03714 7.71823C1.0114 7.84305 1.01081 7.97175 1.03541 8.09679C1.06002 8.22184 1.10931 8.34072 1.18042 8.44648C1.25152 8.55225 1.34301 8.64277 1.44952 8.71274C1.55603 8.78272 1.67543 8.83075 1.80073 8.85402C1.92603 8.87729 2.05471 8.87533 2.17925 8.84827L4.19942 8.45056L0.566375 14.3558C0.213566 14.928 0.0195828 15.5839 0.00438519 16.256C-0.0108124 16.928 0.153324 17.592 0.479907 18.1796C0.80649 18.7672 1.28373 19.2571 1.86251 19.599C2.44129 19.941 3.10073 20.1225 3.77296 20.125H6.785C7.03917 20.125 7.28292 20.024 7.46265 19.8443C7.64237 19.6646 7.74333 19.4208 7.74333 19.1666C7.74333 18.9125 7.64237 18.6687 7.46265 18.489C7.28292 18.3093 7.03917 18.2083 6.785 18.2083H3.77296C3.44328 18.2099 3.1193 18.1224 2.83523 17.955C2.55117 17.7877 2.31758 17.5468 2.15913 17.2576C1.99405 16.9672 1.91055 16.6375 1.91747 16.3035C1.92438 15.9695 2.02146 15.6435 2.19842 15.3601L5.8765 9.38206L6.30392 11.6763C6.35068 11.9263 6.49484 12.1474 6.70466 12.2911C6.91449 12.4348 7.1728 12.4893 7.42277 12.4425C7.67274 12.3957 7.8939 12.2516 8.03759 12.0418C8.18128 11.8319 8.23573 11.5736 8.18896 11.3236L7.71171 8.76489Z"/>
</svg>
