<svg width="17" height="16" viewBox="0 0 17 16" fill="none" xmlns="http://www.w3.org/2000/svg">
<g clip-path="url(#clip0_3099_16956)">
<rect width="16" height="16" transform="translate(0.367188)" fill="white"/>
<path d="M8.36719 0C3.94522 0 0.367188 3.57834 0.367188 8C0.367188 12.422 3.94553 16 8.36719 16C12.7892 16 16.3672 12.4217 16.3672 8C16.3672 3.57803 12.7888 0 8.36719 0ZM8.36719 14.75C4.63616 14.75 1.61719 11.7308 1.61719 8C1.61719 4.26897 4.63641 1.25 8.36719 1.25C12.0982 1.25 15.1172 4.26922 15.1172 8C15.1172 11.731 12.098 14.75 8.36719 14.75Z" fill="#FE8392"/>
<path d="M8.36719 4.02734C8.022 4.02734 7.74219 4.30716 7.74219 4.65234V8.67713C7.74219 9.02231 8.022 9.30213 8.36719 9.30213C8.71237 9.30213 8.99219 9.02231 8.99219 8.67713V4.65234C8.99219 4.30716 8.71237 4.02734 8.36719 4.02734Z" fill="#FE8392"/>
<path d="M8.36719 11.7559C8.83318 11.7559 9.21094 11.3781 9.21094 10.9121C9.21094 10.4461 8.83318 10.0684 8.36719 10.0684C7.9012 10.0684 7.52344 10.4461 7.52344 10.9121C7.52344 11.3781 7.9012 11.7559 8.36719 11.7559Z" fill="#FE8392"/>
</g>
<defs>
<clipPath id="clip0_3099_16956">
<rect width="16" height="16" fill="white" transform="translate(0.367188)"/>
</clipPath>
</defs>
</svg>
