<svg viewBox="0 0 2500 2378" fill="none" xmlns="http://www.w3.org/2000/svg">
    <path
        d="M2292.31 816.497C2243.86 700.776 2146.95 576.22 2070.56 537.171C2124.95 642.36 2162.74 755.332 2182.58 872.077V874.072C2058.02 562.539 1846.24 437.127 1673.23 163.502C1664.11 149.82 1655.56 135.854 1647.01 121.318C1642.17 112.767 1638.46 105.356 1634.76 98.5157C1627.55 84.5798 1622 69.8481 1618.22 54.6216C1618.24 53.9548 1618.02 53.3044 1617.6 52.7836C1617.18 52.2628 1616.6 51.9046 1615.94 51.7713C1615.03 51.4205 1614.01 51.4205 1613.09 51.7713V52.3414C1613.09 52.9114 1612.24 52.3414 1612.24 52.3414V51.7713C1335.19 214.236 1240.85 515.224 1232.3 665.433C1121.43 673.124 1015.44 714.047 928.175 782.864C919.072 775.134 909.557 767.903 899.672 761.202C874.448 672.834 873.464 579.307 896.822 490.427C794.782 539.834 704.126 609.913 630.607 696.216C586.428 640.921 589.564 457.934 592.129 419.74C579.127 424.872 566.706 431.369 555.075 439.122C516.303 466.736 480.058 497.735 446.765 531.756C409.168 570.154 374.845 611.627 344.156 655.742C273.142 756.403 222.769 870.131 195.942 990.363L193.947 998.059C191.952 1007.46 184.256 1056.2 183.116 1066.47V1069.32C173.537 1119.55 167.63 1170.42 165.444 1221.52L165.444 1227.22C165.89 1503.67 269.965 1769.9 457.122 1973.36C644.278 2176.83 900.914 2302.73 1176.36 2326.21C1451.81 2349.69 1726.06 2269.05 1944.95 2100.2C2163.85 1931.36 2311.49 1686.58 2358.72 1414.2C2360.72 1399.95 2362.14 1385.69 2363.85 1371.44C2386.73 1183.41 2362.24 992.647 2292.6 816.497H2292.31ZM1019.1 1680.98C1024.23 1683.83 1029.07 1686.68 1034.2 1688.68L1035.06 1689.25C1029.93 1686.59 1024.7 1683.74 1019.38 1680.7L1019.1 1680.98ZM2182.86 873.787V872.932V874.072V873.787Z"
        fill="url(#paint0_linear_3506_16895)" />
    <path
        d="M2292.31 816.497C2243.86 700.776 2146.95 576.22 2070.56 537.171C2124.95 642.36 2162.74 755.332 2182.58 872.077V874.357C2267.79 1118.01 2255.54 1385.16 2148.37 1619.99C2021.82 1891.62 1715.13 2170.09 1235.43 2156.41C717.255 2142.15 260.643 1757.37 175.135 1253.44C159.744 1173.64 175.135 1133.73 183.116 1069.03C172.506 1119.11 166.59 1170.06 165.444 1221.23V1226.94C165.89 1503.38 269.965 1769.62 457.122 1973.08C644.278 2176.54 900.914 2302.44 1176.36 2325.92C1451.81 2349.41 1726.06 2268.76 1944.95 2099.92C2163.85 1931.07 2311.49 1686.3 2358.72 1413.91C2360.72 1399.66 2362.14 1385.41 2363.85 1371.16C2386.73 1183.13 2362.24 992.362 2292.6 816.212L2292.31 816.497Z"
        fill="url(#paint1_radial_3506_16895)" />
    <path
        d="M2292.31 816.497C2243.86 700.776 2146.95 576.22 2070.56 537.171C2124.95 642.36 2162.74 755.332 2182.58 872.077V874.357C2267.79 1118.01 2255.54 1385.16 2148.37 1619.99C2021.82 1891.62 1715.13 2170.09 1235.43 2156.41C717.255 2142.15 260.643 1757.37 175.135 1253.44C159.744 1173.64 175.135 1133.73 183.116 1069.03C172.506 1119.11 166.59 1170.06 165.444 1221.23V1226.94C165.89 1503.38 269.965 1769.62 457.122 1973.08C644.278 2176.54 900.914 2302.44 1176.36 2325.92C1451.81 2349.41 1726.06 2268.76 1944.95 2099.92C2163.85 1931.07 2311.49 1686.3 2358.72 1413.91C2360.72 1399.66 2362.14 1385.41 2363.85 1371.16C2386.73 1183.13 2362.24 992.362 2292.6 816.212L2292.31 816.497Z"
        fill="url(#paint2_radial_3506_16895)" />
    <path
        d="M1755.32 946.184C1758.17 947.894 1759.88 949.604 1762.16 951.315C1734.42 902.06 1699.88 856.962 1659.55 817.352C1316.38 474.18 1569.77 72.8633 1612.52 52.6264V51.7713C1335.48 214.236 1241.13 515.224 1232.58 665.433C1245.41 664.578 1258.24 663.723 1271.35 663.723C1369.74 663.865 1466.35 690.045 1551.35 739.605C1636.35 789.166 1706.73 860.34 1755.32 945.899V946.184Z"
        fill="url(#paint3_radial_3506_16895)" />
    <path
        d="M1272.2 1015.16C1270.21 1042.24 1173.3 1137.15 1139.09 1137.15C824.995 1137.15 774.261 1326.98 774.261 1326.98C787.942 1487.16 899.672 1618.85 1034.2 1688.96L1053.02 1697.51C1063.85 1702.26 1074.68 1706.73 1085.51 1710.91C1131.73 1727.34 1180.15 1736.76 1229.16 1738.84C1779.83 1764.49 1886.43 1080.43 1489.11 881.768C1582.83 869.699 1677.7 892.858 1755.32 946.754C1706.73 861.195 1636.35 790.021 1551.35 740.461C1466.35 690.9 1369.74 664.72 1271.35 664.578C1258.24 664.578 1245.69 665.148 1232.58 666.003C1121.71 673.694 1015.73 714.617 928.46 783.434C945.562 797.685 964.373 816.497 1004.56 856.116C1079.52 930.223 1271.63 1006.32 1272.49 1015.73L1272.2 1015.16Z"
        fill="url(#paint4_radial_3506_16895)" />
    <path
        d="M1272.2 1015.16C1270.21 1042.24 1173.3 1137.15 1139.09 1137.15C824.995 1137.15 774.261 1326.98 774.261 1326.98C787.942 1487.16 899.672 1618.85 1034.2 1688.96L1053.02 1697.51C1063.85 1702.26 1074.68 1706.73 1085.51 1710.91C1131.73 1727.34 1180.15 1736.76 1229.16 1738.84C1779.83 1764.49 1886.43 1080.43 1489.11 881.768C1582.83 869.699 1677.7 892.858 1755.32 946.754C1706.73 861.195 1636.35 790.021 1551.35 740.461C1466.35 690.9 1369.74 664.72 1271.35 664.578C1258.24 664.578 1245.69 665.148 1232.58 666.003C1121.71 673.694 1015.73 714.617 928.46 783.434C945.562 797.685 964.373 816.497 1004.56 856.116C1079.52 930.223 1271.63 1006.32 1272.49 1015.73L1272.2 1015.16Z"
        fill="url(#paint5_radial_3506_16895)" />
    <path
        d="M877.155 746.096C885.706 751.796 893.402 756.642 899.957 761.202C874.733 672.834 873.749 579.307 897.107 490.427C795.067 539.834 704.412 609.913 630.893 696.216C636.593 696.216 796.208 693.366 877.155 745.811V746.096Z"
        fill="url(#paint6_radial_3506_16895)" />
    <path
        d="M175.42 1253.44C260.928 1757.08 716.97 2141.87 1235.72 2156.41C1715.42 2170.09 2021.82 1891.33 2148.37 1619.99C2255.54 1385.16 2267.79 1118.01 2182.58 874.357V873.217V872.077L2183.15 874.072C2221.91 1130.03 2091.94 1377.71 1888.43 1545.31L1887.57 1546.73C1491.39 1869.67 1112.3 1741.69 1035.34 1689.25C1029.64 1686.78 1024.23 1684.12 1019.1 1681.27C788.227 1570.96 692.458 1360.33 712.98 1179.62C658.133 1180.45 604.224 1165.35 557.783 1136.16C511.342 1106.97 474.363 1064.94 451.326 1015.16C512.007 978 581.193 956.998 652.292 954.154C723.39 951.31 794.033 966.719 857.488 998.914C988.22 1058.19 1136.94 1064.02 1271.92 1015.16C1271.35 1006.04 1079.24 929.653 1003.99 855.546C964.088 816.212 945.276 797.4 928.175 783.149C919.072 775.419 909.557 768.188 899.672 761.487C893.117 756.927 885.991 752.081 876.87 746.381C796.493 693.936 636.308 696.786 630.892 696.786H630.322C586.713 641.491 589.563 458.504 592.129 420.31C579.126 425.442 566.706 431.939 555.075 439.692C516.291 467.396 480.045 498.491 446.765 532.611C408.884 570.884 374.275 612.263 343.301 656.312C272.287 756.973 221.914 870.701 195.087 990.933C194.517 993.213 155.183 1164.8 174.565 1253.73L175.42 1253.44Z"
        fill="url(#paint7_radial_3506_16895)" />
    <path
        d="M1659.84 817.352C1700.17 856.962 1734.71 902.06 1762.45 951.315C1768.15 956.16 1773.85 960.721 1778.98 964.996C2029.8 1195.87 1898.69 1522.22 1888.71 1545.59C2091.94 1378 2222.19 1130.31 2183.15 874.358C2057.73 562.824 1846.24 437.412 1672.95 163.787C1664.4 150.105 1655.85 136.139 1647.3 121.603C1642.45 113.052 1638.75 105.641 1635.04 98.8007C1627.72 84.7873 1622.07 69.9583 1618.22 54.6216C1618.24 53.9548 1618.02 53.3044 1617.6 52.7836C1617.18 52.2628 1616.6 51.9046 1615.94 51.7713C1615.03 51.4205 1614.01 51.4205 1613.09 51.7713V52.3414C1613.09 52.9115 1612.24 52.3414 1612.24 52.3414C1569.48 72.8633 1315.81 474.181 1659.55 817.352H1659.84Z"
        fill="url(#paint8_radial_3506_16895)" />
    <path
        d="M1778.69 964.996C1773.85 960.435 1768.15 955.875 1762.16 951.315L1755.32 946.184C1677.58 892.318 1582.61 869.259 1488.82 881.483C1886.15 1080.43 1779.55 1765.06 1228.88 1738.84C1179.98 1736.82 1131.65 1727.5 1085.51 1711.19C1074.68 1707.39 1063.85 1703.02 1053.02 1698.08C1046.75 1695.23 1040.76 1692.38 1034.49 1689.53H1035.35C1112.3 1741.98 1491.39 1870.24 1888.14 1547.02L1888.71 1545.88C1898.69 1523.08 2029.8 1196.15 1779.26 965.566L1778.69 964.996Z"
        fill="url(#paint9_radial_3506_16895)" />
    <path
        d="M773.976 1326.98C773.976 1326.98 825.281 1137.15 1138.81 1137.15C1173.01 1137.15 1269.92 1042.24 1272.2 1014.59C1137.1 1063.7 988.137 1057.97 857.204 998.629C793.748 966.434 723.106 951.025 652.007 953.869C580.908 956.713 511.722 977.715 451.041 1014.88C474.16 1064.69 511.245 1106.73 557.795 1135.87C604.344 1165.01 658.354 1180.01 713.265 1179.05C692.458 1359.76 787.942 1570.39 1019.1 1680.7C1024.23 1683.55 1029.07 1685.83 1034.2 1688.39C899.387 1618.56 787.942 1486.88 773.976 1326.41V1326.98Z"
        fill="url(#paint10_radial_3506_16895)" />
    <path
        d="M2292.31 816.497C2243.86 700.776 2146.95 576.22 2070.56 537.171C2124.95 642.36 2162.74 755.332 2182.58 872.077V874.072C2058.02 562.539 1846.25 437.127 1673.23 163.502C1664.11 149.82 1655.56 135.854 1647.01 121.318C1642.17 112.767 1638.46 105.356 1634.76 98.5157C1627.55 84.5798 1622 69.8481 1618.22 54.6216C1618.24 53.9548 1618.02 53.3044 1617.6 52.7836C1617.18 52.2628 1616.6 51.9046 1615.94 51.7713C1615.03 51.4205 1614.01 51.4205 1613.09 51.7713V52.3414C1613.09 52.9114 1612.24 52.3414 1612.24 52.3414V51.7713C1335.19 214.236 1240.85 515.224 1232.3 665.433C1245.12 664.578 1257.95 663.723 1271.06 663.723C1369.46 663.865 1466.06 690.045 1551.07 739.606C1636.07 789.166 1706.44 860.34 1755.04 945.899C1677.34 892.203 1582.48 869.249 1488.82 881.483C1886.15 1080.43 1779.55 1765.06 1228.88 1738.84C1179.88 1736.85 1131.46 1727.53 1085.23 1711.19C1074.39 1707.39 1063.56 1703.02 1052.73 1698.08L1033.92 1689.53H1034.78C1029.64 1687.06 1024.42 1684.4 1019.1 1681.55C1024.23 1684.4 1029.07 1687.25 1034.21 1689.25C899.388 1619.42 787.943 1487.73 773.976 1327.26C773.976 1327.26 825.281 1137.72 1138.81 1137.72C1173.01 1137.72 1269.92 1042.81 1272.2 1015.16C1271.63 1006.61 1079.52 929.653 1004.28 856.116C964.374 816.212 945.277 797.685 928.461 783.434C919.358 775.704 909.843 768.473 899.958 761.772C874.734 673.404 873.749 579.877 897.108 490.997C795.068 540.405 704.412 610.483 630.893 696.786C586.714 641.491 589.849 458.504 592.415 420.31C579.412 425.442 566.992 431.939 555.361 439.692C516.589 467.306 480.343 498.305 447.051 532.326C409.454 570.724 375.131 612.197 344.442 656.312C273.428 756.973 223.054 870.701 196.228 990.933L193.948 998.059C191.953 1007.46 182.547 1057.06 181.122 1067.61C172.62 1118.54 167.194 1169.94 164.875 1221.52V1227.22C165.321 1503.67 269.396 1769.9 456.552 1973.36C643.709 2176.83 900.345 2302.73 1175.79 2326.21C1451.24 2349.69 1725.49 2269.05 1944.38 2100.2C2163.28 1931.36 2310.92 1686.58 2358.15 1414.2C2360.15 1399.95 2361.57 1385.69 2363.28 1371.44C2386.16 1183.41 2361.67 992.647 2292.03 816.497H2292.31ZM2182.58 873.502V874.357V873.502Z"
        fill="url(#paint11_linear_3506_16895)" />
    <defs>
        <linearGradient id="paint0_linear_3506_16895" x1="2147.09" y1="404.706" x2="256.407" y2="2112.43"
            gradientUnits="userSpaceOnUse">
            <stop offset="0.048" stop-color="#FFF44F" />
            <stop offset="0.111" stop-color="#FFE847" />
            <stop offset="0.225" stop-color="#FFC830" />
            <stop offset="0.368" stop-color="#FF980E" />
            <stop offset="0.401" stop-color="#FF8B16" />
            <stop offset="0.462" stop-color="#FF672A" />
            <stop offset="0.534" stop-color="#FF3647" />
            <stop offset="0.705" stop-color="#E31587" />
        </linearGradient>
        <radialGradient id="paint1_radial_3506_16895" cx="0" cy="0" r="1" gradientUnits="userSpaceOnUse"
            gradientTransform="translate(2098.29 304.846) scale(2302.93 2302.93)">
            <stop offset="0.129" stop-color="#FFBD4F" />
            <stop offset="0.186" stop-color="#FFAC31" />
            <stop offset="0.247" stop-color="#FF9D17" />
            <stop offset="0.283" stop-color="#FF980E" />
            <stop offset="0.403" stop-color="#FF563B" />
            <stop offset="0.467" stop-color="#FF3750" />
            <stop offset="0.71" stop-color="#F5156C" />
            <stop offset="0.782" stop-color="#EB0878" />
            <stop offset="0.86" stop-color="#E50080" />
        </radialGradient>
        <radialGradient id="paint2_radial_3506_16895" cx="0" cy="0" r="1" gradientUnits="userSpaceOnUse"
            gradientTransform="translate(1256.78 1246.35) scale(2302.93 2302.93)">
            <stop offset="0.3" stop-color="#960E18" />
            <stop offset="0.351" stop-color="#B11927" stop-opacity="0.74" />
            <stop offset="0.435" stop-color="#DB293D" stop-opacity="0.343" />
            <stop offset="0.497" stop-color="#F5334B" stop-opacity="0.094" />
            <stop offset="0.53" stop-color="#FF3750" stop-opacity="0" />
        </radialGradient>
        <radialGradient id="paint3_radial_3506_16895" cx="0" cy="0" r="1" gradientUnits="userSpaceOnUse"
            gradientTransform="translate(1534.43 -217.778) scale(1668.37 1668.37)">
            <stop offset="0.132" stop-color="#FFF44F" />
            <stop offset="0.252" stop-color="#FFDC3E" />
            <stop offset="0.506" stop-color="#FF9D12" />
            <stop offset="0.526" stop-color="#FF980E" />
        </radialGradient>
        <radialGradient id="paint4_radial_3506_16895" cx="0" cy="0" r="1" gradientUnits="userSpaceOnUse"
            gradientTransform="translate(1002.05 1847.89) scale(1096.52 1096.52)">
            <stop offset="0.353" stop-color="#3A8EE6" />
            <stop offset="0.472" stop-color="#5C79F0" />
            <stop offset="0.669" stop-color="#9059FF" />
            <stop offset="1" stop-color="#C139E6" />
        </radialGradient>
        <radialGradient id="paint5_radial_3506_16895" cx="0" cy="0" r="1" gradientUnits="userSpaceOnUse"
            gradientTransform="translate(1382.63 1057.61) rotate(-13.5916) scale(581.371 680.64)">
            <stop offset="0.206" stop-color="#9059FF" stop-opacity="0" />
            <stop offset="0.278" stop-color="#8C4FF3" stop-opacity="0.064" />
            <stop offset="0.747" stop-color="#7716A8" stop-opacity="0.45" />
            <stop offset="0.975" stop-color="#6E008B" stop-opacity="0.6" />
        </radialGradient>
        <radialGradient id="paint6_radial_3506_16895" cx="0" cy="0" r="1" gradientUnits="userSpaceOnUse"
            gradientTransform="translate(1227.71 210.617) scale(788.839 788.839)">
            <stop stop-color="#FFE226" />
            <stop offset="0.121" stop-color="#FFDB27" />
            <stop offset="0.295" stop-color="#FFC82A" />
            <stop offset="0.502" stop-color="#FFA930" />
            <stop offset="0.732" stop-color="#FF7E37" />
            <stop offset="0.792" stop-color="#FF7139" />
        </radialGradient>
        <radialGradient id="paint7_radial_3506_16895" cx="0" cy="0" r="1" gradientUnits="userSpaceOnUse"
            gradientTransform="translate(1847.76 -289.719) scale(3365.62 3365.62)">
            <stop offset="0.113" stop-color="#FFF44F" />
            <stop offset="0.456" stop-color="#FF980E" />
            <stop offset="0.622" stop-color="#FF5634" />
            <stop offset="0.716" stop-color="#FF3647" />
            <stop offset="0.904" stop-color="#E31587" />
        </radialGradient>
        <radialGradient id="paint8_radial_3506_16895" cx="0" cy="0" r="1" gradientUnits="userSpaceOnUse"
            gradientTransform="translate(1564.09 -102.583) rotate(83.976) scale(2466.74 1618.9)">
            <stop stop-color="#FFF44F" />
            <stop offset="0.06" stop-color="#FFE847" />
            <stop offset="0.168" stop-color="#FFC830" />
            <stop offset="0.304" stop-color="#FF980E" />
            <stop offset="0.356" stop-color="#FF8B16" />
            <stop offset="0.455" stop-color="#FF672A" />
            <stop offset="0.57" stop-color="#FF3647" />
            <stop offset="0.737" stop-color="#E31587" />
        </radialGradient>
        <radialGradient id="paint9_radial_3506_16895" cx="0" cy="0" r="1" gradientUnits="userSpaceOnUse"
            gradientTransform="translate(1209.13 502.797) scale(2101.21 2101.21)">
            <stop offset="0.137" stop-color="#FFF44F" />
            <stop offset="0.48" stop-color="#FF980E" />
            <stop offset="0.592" stop-color="#FF5634" />
            <stop offset="0.655" stop-color="#FF3647" />
            <stop offset="0.904" stop-color="#E31587" />
        </radialGradient>
        <radialGradient id="paint10_radial_3506_16895" cx="0" cy="0" r="1" gradientUnits="userSpaceOnUse"
            gradientTransform="translate(1763.79 625.786) scale(2299.76 2299.76)">
            <stop offset="0.094" stop-color="#FFF44F" />
            <stop offset="0.231" stop-color="#FFE141" />
            <stop offset="0.509" stop-color="#FFAF1E" />
            <stop offset="0.626" stop-color="#FF980E" />
        </radialGradient>
        <linearGradient id="paint11_linear_3506_16895" x1="2124.45" y1="395.591" x2="513.745" y2="1902.55"
            gradientUnits="userSpaceOnUse">
            <stop offset="0.167" stop-color="#FFF44F" stop-opacity="0.8" />
            <stop offset="0.266" stop-color="#FFF44F" stop-opacity="0.634" />
            <stop offset="0.489" stop-color="#FFF44F" stop-opacity="0.217" />
            <stop offset="0.6" stop-color="#FFF44F" stop-opacity="0" />
        </linearGradient>
    </defs>
</svg>