<svg width="280" height="390" viewBox="0 0 280 390" fill="none" xmlns="http://www.w3.org/2000/svg">
<path opacity="0.25" d="M211.499 2.95494C199.471 -3.98977 184.652 -3.98976 172.624 2.95495L67.5595 63.6161C55.532 70.5605 48.1228 83.3939 48.1228 97.2822V218.607C48.1228 232.496 55.532 245.329 67.5595 252.273L172.624 312.934C184.652 319.879 199.471 319.879 211.499 312.934L316.564 252.273C328.591 245.329 336 232.496 336 218.607V97.2822C336 83.3938 328.591 70.5605 316.564 63.6161L211.499 2.95494Z" stroke="#058DA6" stroke-width="3"/>
<path opacity="0.75" d="M152.385 131.015C141.806 124.907 128.772 124.907 118.193 131.015L36.72 178.055C26.1418 184.163 19.6253 195.45 19.6253 207.665V301.748C19.6253 313.963 26.1417 325.25 36.72 331.357L118.193 378.398C128.772 384.506 141.806 384.506 152.385 378.398L233.858 331.357C244.436 325.25 250.953 313.963 250.953 301.748V207.665C250.953 195.45 244.436 184.163 233.858 178.055L152.385 131.015Z" stroke="white" stroke-width="3"/>
<path opacity="0.75" d="M234.62 148.098C240.084 144.944 246.816 144.944 252.281 148.098L307.757 180.129C313.221 183.284 316.587 189.114 316.587 195.423V259.485C316.587 265.794 313.221 271.624 307.757 274.779L252.281 306.809C246.816 309.964 240.084 309.964 234.62 306.809L179.144 274.779C173.68 271.624 170.314 265.794 170.314 259.485V195.423C170.314 189.114 173.68 183.284 179.144 180.129L234.62 148.098Z" fill="white"/>
</svg>
