<svg width="309" height="341" viewBox="0 0 309 341" fill="none" xmlns="http://www.w3.org/2000/svg">
<path opacity="0.75" d="M207.197 7.87268C200.466 3.98349 192.171 3.9835 185.441 7.87268L110.684 51.0706C103.961 54.9554 99.8205 62.1307 99.8205 69.8954V156.325C99.8205 164.09 103.961 171.265 110.684 175.15L185.441 218.348C192.171 222.237 200.466 222.237 207.197 218.348L281.953 175.15C288.676 171.265 292.817 164.09 292.817 156.325V69.8954C292.817 62.1307 288.676 54.9554 281.953 51.0706L207.197 7.87268Z" stroke="white" stroke-width="2.17309"/>
<path opacity="0.75" d="M97.3513 37.3116C88.9797 32.4741 78.6623 32.4741 70.2907 37.3116L1.31389 77.1697C-7.04836 82.0018 -12.1989 90.9267 -12.1989 100.585V180.341C-12.1989 189.999 -7.04836 198.924 1.31389 203.756L70.2907 243.614C78.6623 248.452 88.9797 248.452 97.3513 243.614L166.328 203.756C174.69 198.924 179.841 189.999 179.841 180.341V100.585C179.841 90.9267 174.69 82.0018 166.328 77.1697L97.3513 37.3116Z" fill="white"/>
<path opacity="0.25" d="M38.912 191.803C34.5013 189.255 29.0654 189.255 24.6547 191.803L-26.6838 221.469C-31.0896 224.015 -33.8032 228.717 -33.8032 233.806V293.16C-33.8032 298.249 -31.0896 302.951 -26.6838 305.497L24.6547 335.163C29.0654 337.711 34.5013 337.711 38.912 335.163L90.2506 305.497C94.6563 302.951 97.37 298.249 97.37 293.16V233.806C97.37 228.717 94.6563 224.015 90.2506 221.469L38.912 191.803Z" stroke="#058DA6" stroke-width="1.8189"/>
</svg>
