<svg width="33" height="32" viewBox="0 0 33 32" fill="none" xmlns="http://www.w3.org/2000/svg">
<g clip-path="url(#clip0_1224_12011)">
<path d="M31.9401 16.4733C31.7734 16.4733 28.3468 15.94 25.3534 19.2267C26.1436 15.6077 27.5291 12.1451 29.4534 8.98C29.5256 8.87165 29.5644 8.74454 29.5651 8.61438C29.5659 8.48421 29.5285 8.35668 29.4576 8.24751C29.3867 8.13833 29.2854 8.0523 29.1662 8.00003C29.047 7.94775 28.9151 7.93152 28.7868 7.95334C28.6468 7.95334 25.8268 8.48667 22.7868 11.4867C25.1001 4.22 26.9868 3.58667 26.3801 2.70667C26.3068 2.60203 26.2051 2.52064 26.0869 2.47218C25.9687 2.42372 25.8391 2.41024 25.7134 2.43334C25.5401 2.47334 21.6534 3.38 17.7134 7.84667C14.2868 0.720003 10.1134 0.0333349 9.92676 1.6056e-06C9.80113 -0.023094 9.67151 -0.00961114 9.55332 0.038846C9.43513 0.0873032 9.33336 0.168694 9.2601 0.273335C8.64676 1.12667 10.5934 2.03334 11.6801 9.95334C8.24676 5.58 4.78676 4.88667 4.6201 4.85334C4.49573 4.83579 4.36893 4.85373 4.25432 4.90509C4.1397 4.95646 4.04193 5.03916 3.97225 5.14366C3.90258 5.24817 3.86385 5.37023 3.86052 5.49578C3.85719 5.62134 3.8894 5.74528 3.95343 5.85334C6.11095 9.80236 7.59571 14.0831 8.34676 18.52C5.23343 13.8533 1.27343 14.4733 1.07343 14.52C0.956557 14.5421 0.847719 14.595 0.758204 14.6733C0.668689 14.7517 0.601757 14.8525 0.564349 14.9654C0.526941 15.0783 0.520419 15.1992 0.545461 15.3154C0.570502 15.4317 0.626195 15.5392 0.706763 15.6267C0.733429 15.7 5.56676 21.0133 3.9401 30.6667H2.5001C2.32329 30.6667 2.15372 30.7369 2.02869 30.8619C1.90367 30.987 1.83343 31.1565 1.83343 31.3333C1.83343 31.5101 1.90367 31.6797 2.02869 31.8047C2.15372 31.9298 2.32329 32 2.5001 32H30.5001C30.6769 32 30.8465 31.9298 30.9715 31.8047C31.0965 31.6797 31.1668 31.5101 31.1668 31.3333C31.1668 31.1565 31.0965 30.987 30.9715 30.8619C30.8465 30.7369 30.6769 30.6667 30.5001 30.6667H29.0468C27.4601 22.2867 32.0868 17.8067 32.2868 17.62C32.3783 17.5351 32.4441 17.4262 32.4767 17.3057C32.5093 17.1852 32.5075 17.0579 32.4714 16.9385C32.4352 16.819 32.3663 16.712 32.2724 16.6298C32.1784 16.5476 32.0633 16.4933 31.9401 16.4733ZM24.3134 4.37333C22.7119 7.38286 21.4936 10.5811 20.6868 13.8933C19.0529 16.2113 17.8036 18.7776 16.9868 21.4933C16.4371 19.2512 15.6828 17.0643 14.7334 14.96C17.2868 9.38667 20.8934 6 24.3134 4.37333ZM16.7601 8.98C13.1401 13.6467 14.5801 14.3133 13.2934 12.2333C13.0604 8.69332 12.3149 5.20586 11.0801 1.88C12.5001 2.66667 14.7734 4.56667 16.7601 8.98ZM16.0001 23.1133C16.3268 24.6 16.2734 23.8933 15.8801 25.96C15.5868 27.5 15.3534 29.2933 15.2134 30.6667H11.7801C11.5671 27.7986 11.0075 24.9668 10.1134 22.2333C9.70351 16.8603 8.28309 11.6129 5.92676 6.76667C11.6334 9.64 14.6268 16.8733 16.0001 23.1133ZM2.5401 15.8867C8.12676 16.82 9.9201 25.0533 10.4334 30.6667H5.29343C6.5001 23.0133 3.9801 18 2.5401 15.8867ZM16.5668 30.6667C17.3334 22.7133 20.1534 13.18 27.4134 9.82667C24.1134 15.9467 22.4601 23.5667 23.7401 30.6667H16.5668ZM27.6868 30.6667H25.1001C24.5815 27.9014 24.4915 25.0727 24.8334 22.28C26.6068 19 28.9068 18.0733 30.3534 17.8333C28.8934 19.7933 26.5001 24.14 27.6868 30.6667Z" fill="#058DA6"/>
</g>
<defs>
<clipPath id="clip0_1224_12011">
<rect width="32" height="32" fill="white" transform="translate(0.5)"/>
</clipPath>
</defs>
</svg>
