<svg width="33" height="32" viewBox="0 0 33 32" fill="none" xmlns="http://www.w3.org/2000/svg">
<g clip-path="url(#clip0_1977_6710)">
<path d="M31.9401 16.4736C31.7734 16.4736 28.3468 15.9402 25.3534 19.2269C26.1436 15.608 27.5291 12.1454 29.4534 8.98025C29.5256 8.87189 29.5644 8.74479 29.5651 8.61462C29.5659 8.48446 29.5285 8.35692 29.4576 8.24775C29.3867 8.13858 29.2854 8.05255 29.1662 8.00027C29.047 7.948 28.9151 7.93177 28.7868 7.95358C28.6468 7.95358 25.8268 8.48691 22.7868 11.4869C25.1001 4.22025 26.9868 3.58691 26.3801 2.70691C26.3068 2.60227 26.2051 2.52088 26.0869 2.47242C25.9687 2.42397 25.8391 2.41048 25.7134 2.43358C25.5401 2.47358 21.6534 3.38025 17.7134 7.84691C14.2868 0.720247 10.1134 0.0335791 9.92676 0.000245746C9.80113 -0.0228499 9.67151 -0.009367 9.55332 0.0390902C9.43513 0.0875473 9.33336 0.168939 9.2601 0.273579C8.64676 1.12691 10.5934 2.03358 11.6801 9.95358C8.24676 5.58025 4.78676 4.88691 4.6201 4.85358C4.49573 4.83603 4.36893 4.85397 4.25432 4.90534C4.1397 4.9567 4.04193 5.0394 3.97225 5.14391C3.90258 5.24841 3.86385 5.37047 3.86052 5.49603C3.85719 5.62158 3.8894 5.74553 3.95343 5.85358C6.11095 9.80261 7.59571 14.0834 8.34676 18.5202C5.23343 13.8536 1.27343 14.4736 1.07343 14.5202C0.956557 14.5423 0.847719 14.5953 0.758204 14.6736C0.668689 14.7519 0.601757 14.8527 0.564349 14.9657C0.526941 15.0786 0.520419 15.1994 0.545461 15.3157C0.570502 15.432 0.626195 15.5394 0.706763 15.6269C0.733429 15.7002 5.56676 21.0136 3.9401 30.6669H2.5001C2.32329 30.6669 2.15372 30.7372 2.02869 30.8622C1.90367 30.9872 1.83343 31.1568 1.83343 31.3336C1.83343 31.5104 1.90367 31.68 2.02869 31.805C2.15372 31.93 2.32329 32.0002 2.5001 32.0002H30.5001C30.6769 32.0002 30.8465 31.93 30.9715 31.805C31.0965 31.68 31.1668 31.5104 31.1668 31.3336C31.1668 31.1568 31.0965 30.9872 30.9715 30.8622C30.8465 30.7372 30.6769 30.6669 30.5001 30.6669H29.0468C27.4601 22.2869 32.0868 17.8069 32.2868 17.6202C32.3783 17.5353 32.4441 17.4264 32.4767 17.3059C32.5093 17.1854 32.5075 17.0582 32.4714 16.9387C32.4352 16.8192 32.3663 16.7123 32.2724 16.63C32.1784 16.5478 32.0633 16.4936 31.9401 16.4736ZM24.3134 4.37358C22.7119 7.38311 21.4936 10.5813 20.6868 13.8936C19.0529 16.2116 17.8036 18.7778 16.9868 21.4936C16.4371 19.2515 15.6828 17.0645 14.7334 14.9602C17.2868 9.38691 20.8934 6.00025 24.3134 4.37358ZM16.7601 8.98025C13.1401 13.6469 14.5801 14.3136 13.2934 12.2336C13.0604 8.69357 12.3149 5.20611 11.0801 1.88025C12.5001 2.66691 14.7734 4.56691 16.7601 8.98025ZM16.0001 23.1136C16.3268 24.6002 16.2734 23.8936 15.8801 25.9602C15.5868 27.5002 15.3534 29.2936 15.2134 30.6669H11.7801C11.5671 27.7988 11.0075 24.9671 10.1134 22.2336C9.70351 16.8605 8.28309 11.6131 5.92676 6.76691C11.6334 9.64025 14.6268 16.8736 16.0001 23.1136ZM2.5401 15.8869C8.12676 16.8202 9.9201 25.0536 10.4334 30.6669H5.29343C6.5001 23.0136 3.9801 18.0002 2.5401 15.8869ZM16.5668 30.6669C17.3334 22.7136 20.1534 13.1802 27.4134 9.82691C24.1134 15.9469 22.4601 23.5669 23.7401 30.6669H16.5668ZM27.6868 30.6669H25.1001C24.5815 27.9016 24.4915 25.0729 24.8334 22.2802C26.6068 19.0002 28.9068 18.0736 30.3534 17.8336C28.8934 19.7936 26.5001 24.1402 27.6868 30.6669Z" fill="#058DA6"/>
</g>
<defs>
<clipPath id="clip0_1977_6710">
<rect width="32" height="32" fill="white" transform="translate(0.5)"/>
</clipPath>
</defs>
</svg>
