<svg width="21" height="21" viewBox="0 0 21 21" fill="none" xmlns="http://www.w3.org/2000/svg">
<path d="M20.2205 12.6513C20.0425 12.4352 19.8143 12.2661 19.5557 12.1589C19.2971 12.0516 19.0162 12.0095 18.7375 12.0362C17.2406 12.1545 15.7875 12.5986 14.4802 13.3374C13.1729 14.0762 12.0428 15.0918 11.1691 16.3131V11.9511C12.369 11.7473 13.4582 11.1259 14.2443 10.1967C15.0303 9.26759 15.4627 8.0905 15.465 6.87345C15.465 4.4738 13.7956 2.44702 12.1623 0.781097C11.6671 0.297254 11.0023 0.0263672 10.31 0.0263672C9.61764 0.0263672 8.9528 0.297254 8.45761 0.781097C6.82433 2.44702 5.15497 4.4738 5.15497 6.87345C5.15723 8.0905 5.58959 9.26759 6.37567 10.1967C7.16175 11.1259 8.25094 11.7473 9.4508 11.9511V16.3131C8.57713 15.0918 7.44706 14.0762 6.13973 13.3374C4.83239 12.5986 3.37938 12.1545 1.8824 12.0362C1.60377 12.0096 1.32287 12.0518 1.06434 12.1591C0.8058 12.2663 0.577514 12.4354 0.399482 12.6513C0.222591 12.8614 0.0994264 13.1113 0.0406041 13.3795C-0.0182183 13.6477 -0.0109338 13.9262 0.0618297 14.191C1.81367 20.4955 9.95857 20.6201 10.3048 20.6201H10.3151C10.6588 20.6201 18.8071 20.4955 20.559 14.191C20.6313 13.9261 20.6383 13.6476 20.5794 13.3795C20.5204 13.1113 20.3972 12.8614 20.2205 12.6513ZM6.8733 6.87345C6.8733 4.59322 9.72402 1.95987 9.7412 1.94527C9.42761 2.74945 7.46871 7.6467 9.4508 7.73261C9.67867 7.73261 9.8972 7.6421 10.0583 7.48097C10.2195 7.31985 10.31 7.10131 10.31 6.87345C10.3748 5.34537 10.7419 3.84529 11.3899 2.45991C12.6194 3.77443 13.7466 5.28743 13.7466 6.87345C13.7466 7.78491 13.3846 8.65904 12.7401 9.30354C12.0956 9.94804 11.2214 10.3101 10.31 10.3101C9.39851 10.3101 8.52438 9.94804 7.87988 9.30354C7.23538 8.65904 6.8733 7.78491 6.8733 6.87345ZM1.72346 13.7468C3.27145 13.8722 4.75891 14.404 6.03549 15.2885C7.31207 16.173 8.33253 17.3788 8.99373 18.7841C6.84839 18.4868 2.7493 17.4412 1.72346 13.7468ZM11.6374 18.7824C12.304 17.381 13.3247 16.1779 14.5987 15.2919C15.8727 14.4059 17.3559 13.8677 18.9016 13.7305C17.8758 17.4266 13.7862 18.4816 11.6374 18.7824Z" fill="#4CADBF"/>
</svg>
