<svg width="14" height="14" viewBox="0 0 14 14" fill="none" xmlns="http://www.w3.org/2000/svg">
<path d="M6.9286 0.886719C3.5256 0.886719 0.766602 3.64572 0.766602 7.04872C0.766602 10.4517 3.5256 13.2107 6.9286 13.2107C10.3316 13.2107 13.0906 10.4517 13.0906 7.04872C13.0906 3.64572 10.3316 0.886719 6.9286 0.886719ZM6.9286 11.0487C4.7196 11.0487 2.9286 9.25772 2.9286 7.04872C2.9286 4.83972 4.7196 3.04872 6.9286 3.04872C9.1376 3.04872 10.9286 4.83972 10.9286 7.04872C10.9286 9.25772 9.1376 11.0487 6.9286 11.0487Z" fill="white"/>
<path d="M6.9286 0.886719C3.5256 0.886719 0.766602 3.64572 0.766602 7.04872C0.766602 10.4517 3.5256 13.2107 6.9286 13.2107C10.3316 13.2107 13.0906 10.4517 13.0906 7.04872C13.0906 3.64572 10.3316 0.886719 6.9286 0.886719ZM6.9286 11.0487C4.7196 11.0487 2.9286 9.25772 2.9286 7.04872C2.9286 4.83972 4.7196 3.04872 6.9286 3.04872C9.1376 3.04872 10.9286 4.83972 10.9286 7.04872C10.9286 9.25772 9.1376 11.0487 6.9286 11.0487Z" fill="#058DA6" fill-opacity="0.1"/>
</svg>
