<svg width="33" height="32" viewBox="0 0 33 32" fill="none" xmlns="http://www.w3.org/2000/svg">
<path d="M29.5 16H28.5V12.9C28.5 11.3 27.2 9.90002 25.5 9.90002C23.9 9.90002 22.5 11.2 22.5 12.9C22.5 13.5 22.9 13.9 23.5 13.9C24.1 13.9 24.5 13.4 24.5 12.9C24.5 12.4 24.9 11.9 25.5 11.9C26.1 11.9 26.5 12.3 26.5 12.9V16H19.5V15C19.5 14.4 19.1 14 18.5 14H3.5C2.9 14 2.5 14.4 2.5 15V29C2.5 29.6 2.9 30 3.5 30H29.5C30.1 30 30.5 29.5 30.5 29V17C30.5 16.4 30.1 16 29.5 16ZM17.5 16V17.9H4.5V16H17.5ZM4.5 19.9H17.5V28H4.5V19.9ZM28.5 28H19.5V18H28.5V28Z" fill="#058DA6"/>
<path d="M6.49996 10H16.5C17.5 10 17.7 8.9 17.3 8.4L14.5 4.7V3C14.5 2.4 14.1 2 13.5 2H9.49996C8.89996 2 8.49996 2.4 8.49996 3V4.7L5.69996 8.4C5.29996 9 5.59996 10 6.49996 10ZM10.3 5.6C10.4 5.4 10.5 5.2 10.5 5V4H12.5V5C12.5 5.2 12.6 5.4 12.7 5.6L14.5 8H8.49996L10.3 5.6Z" fill="#058DA6"/>
<path d="M22.5 22H25.5C26.1 22 26.5 21.6 26.5 21C26.5 20.4 26.1 20 25.5 20H22.5C21.9 20 21.5 20.4 21.5 21C21.5 21.6 21.9 22 22.5 22Z" fill="#058DA6"/>
</svg>
