<svg width="33" height="32" viewBox="0 0 33 32" fill="none" xmlns="http://www.w3.org/2000/svg">
<path d="M29.5 16.0004H28.5V12.9004C28.5 11.3004 27.2 9.90039 25.5 9.90039C23.9 9.90039 22.5 11.2004 22.5 12.9004C22.5 13.5004 22.9 13.9004 23.5 13.9004C24.1 13.9004 24.5 13.4004 24.5 12.9004C24.5 12.4004 24.9 11.9004 25.5 11.9004C26.1 11.9004 26.5 12.3004 26.5 12.9004V16.0004H19.5V15.0004C19.5 14.4004 19.1 14.0004 18.5 14.0004H3.5C2.9 14.0004 2.5 14.4004 2.5 15.0004V29.0004C2.5 29.6004 2.9 30.0004 3.5 30.0004H29.5C30.1 30.0004 30.5 29.5004 30.5 29.0004V17.0004C30.5 16.4004 30.1 16.0004 29.5 16.0004ZM17.5 16.0004V17.9004H4.5V16.0004H17.5ZM4.5 19.9004H17.5V28.0004H4.5V19.9004ZM28.5 28.0004H19.5V18.0004H28.5V28.0004Z" fill="#058DA6"/>
<path d="M6.49996 10H16.5C17.5 10 17.7 8.9 17.3 8.4L14.5 4.7V3C14.5 2.4 14.1 2 13.5 2H9.49996C8.89996 2 8.49996 2.4 8.49996 3V4.7L5.69996 8.4C5.29996 9 5.59996 10 6.49996 10ZM10.3 5.6C10.4 5.4 10.5 5.2 10.5 5V4H12.5V5C12.5 5.2 12.6 5.4 12.7 5.6L14.5 8H8.49996L10.3 5.6Z" fill="#058DA6"/>
<path d="M22.5 22H25.5C26.1 22 26.5 21.6 26.5 21C26.5 20.4 26.1 20 25.5 20H22.5C21.9 20 21.5 20.4 21.5 21C21.5 21.6 21.9 22 22.5 22Z" fill="#058DA6"/>
</svg>
