<svg width="25" height="28" viewBox="0 0 25 28" fill="none" xmlns="http://www.w3.org/2000/svg">
<path d="M24.5 1C24.5 0.4 24.1 0 23.5 0H1.5C1 0 0.5 0.4 0.5 1V27C0.5 27.6 0.9 28 1.5 28H23.5C24.1 28 24.5 27.6 24.5 27V1ZM2.5 2H22.5V8H2.5V2ZM22.5 26H2.5V10H22.5V26Z" fill="#058DA6"/>
<path d="M7.6 4H5.5C5 4 4.5 4.4 4.5 5C4.5 5.6 4.9 6 5.5 6H7.6C8.2 6 8.6 5.6 8.6 5C8.6 4.4 8.2 4 7.6 4Z" fill="#058DA6"/>
<path d="M19.4999 4H17.3999C16.7999 4 16.3999 4.4 16.3999 5C16.3999 5.6 16.7999 6 17.3999 6H19.4999C20.0999 6 20.4999 5.6 20.4999 5C20.4999 4.4 20.0999 4 19.4999 4Z" fill="#058DA6"/>
<path d="M12.5 6C13.0523 6 13.5 5.55228 13.5 5C13.5 4.44772 13.0523 4 12.5 4C11.9477 4 11.5 4.44772 11.5 5C11.5 5.55228 11.9477 6 12.5 6Z" fill="#058DA6"/>
<path d="M12.5 23.5C15.5 23.5 18 21 18 18C18 15 15.5 12.5 12.5 12.5C9.5 12.5 7 15 7 18C7 21 9.5 23.5 12.5 23.5ZM12.5 14.5C14.4 14.5 16 16.1 16 18C16 19.9 14.4 21.5 12.5 21.5C10.6 21.5 9 19.9 9 18C9 16.1 10.6 14.5 12.5 14.5Z" fill="#058DA6"/>
</svg>
