<svg width="33" height="32" viewBox="0 0 33 32" fill="none" xmlns="http://www.w3.org/2000/svg">
<path d="M28.5 3C28.5 2.4 28.1 2 27.5 2H5.5C5 2 4.5 2.4 4.5 3V29C4.5 29.6 4.9 30 5.5 30H27.5C28.1 30 28.5 29.6 28.5 29V3ZM6.5 4H26.5V10H6.5V4ZM26.5 28H6.5V12H26.5V28Z" fill="#058DA6"/>
<path d="M11.6 6H9.5C9 6 8.5 6.4 8.5 7C8.5 7.6 8.9 8 9.5 8H11.6C12.2 8 12.6 7.6 12.6 7C12.6 6.4 12.2 6 11.6 6Z" fill="#058DA6"/>
<path d="M23.4999 6H21.3999C20.7999 6 20.3999 6.4 20.3999 7C20.3999 7.6 20.7999 8 21.3999 8H23.4999C24.0999 8 24.4999 7.6 24.4999 7C24.4999 6.4 24.0999 6 23.4999 6Z" fill="#058DA6"/>
<path d="M16.5 8C17.0523 8 17.5 7.55228 17.5 7C17.5 6.44772 17.0523 6 16.5 6C15.9477 6 15.5 6.44772 15.5 7C15.5 7.55228 15.9477 8 16.5 8Z" fill="#058DA6"/>
<path d="M16.5 25.5C19.5 25.5 22 23 22 20C22 17 19.5 14.5 16.5 14.5C13.5 14.5 11 17 11 20C11 23 13.5 25.5 16.5 25.5ZM16.5 16.5C18.4 16.5 20 18.1 20 20C20 21.9 18.4 23.5 16.5 23.5C14.6 23.5 13 21.9 13 20C13 18.1 14.6 16.5 16.5 16.5Z" fill="#058DA6"/>
</svg>
