<svg width="24" height="25" viewBox="0 0 24 25" fill="none" xmlns="http://www.w3.org/2000/svg">
<path d="M20.4499 20.4994H16.8934V14.9299C16.8934 13.6018 16.8698 11.8927 15.0437 11.8927C13.1915 11.8927 12.9077 13.3392 12.9077 14.8341V20.4994H9.35244V9.04592H12.7669V10.6107H12.8143C13.5109 9.42084 14.8048 8.71003 16.1826 8.76089C19.7876 8.76089 20.4511 11.1322 20.4511 14.2156L20.4499 20.4994ZM5.33948 7.48C4.19934 7.48 3.27564 6.5563 3.27564 5.41616C3.27564 4.27602 4.19934 3.35232 5.33948 3.35232C6.47962 3.35232 7.40332 4.27602 7.40332 5.41616C7.40332 6.5563 6.47962 7.48 5.33948 7.48ZM7.11711 20.4994H3.55713V9.04592H7.11711V20.4994ZM22.2228 0.0501724H1.77004C0.80376 0.0395279 0.0113389 0.814208 -0.000488281 1.78049V22.3172C0.0113389 23.2847 0.80376 24.0593 1.77004 24.0487H22.2228C23.1914 24.0605 23.9874 23.2858 24.0004 22.3172V1.77931C23.9862 0.81066 23.1902 0.0359797 22.2228 0.0489896" fill="#058DA6"/>
</svg>
