<svg width="33" height="32" viewBox="0 0 33 32" fill="none" xmlns="http://www.w3.org/2000/svg">
<g clip-path="url(#clip0_1224_11975)">
<path d="M30.6243 12.3238V9.99214C30.6243 7.96277 28.9733 6.31177 26.9439 6.31177H19.2429C18.1539 6.31177 17.1744 6.78752 16.5 7.54158C15.8256 6.78752 14.846 6.31177 13.7571 6.31177H6.056C4.02663 6.31177 2.37563 7.96277 2.37563 9.99214V12.3238C1.28412 12.7109 0.5 13.7532 0.5 14.9758V24.1248H2.37569V25.6881H4.25069V24.1248H28.7494V25.6881H30.6244V24.1248H32.5V14.9758C32.5 13.7532 31.7159 12.7109 30.6243 12.3238ZM17.4375 13.1838V9.99214C17.4375 8.99664 18.2474 8.18677 19.2429 8.18677H26.9439C27.9394 8.18677 28.7493 8.99664 28.7493 9.99214V12.3238C27.6578 12.7109 26.8737 13.7532 26.8737 14.9758V17.248H17.4375V13.1838ZM4.25069 9.99214C4.25069 8.99664 5.06056 8.18677 6.056 8.18677H13.7571C14.7526 8.18677 15.5624 8.99664 15.5624 9.99214V13.1838V17.248H6.12631V14.9758C6.12631 13.7532 5.34219 12.7109 4.25069 12.3238V9.99214ZM30.625 22.2498H2.375V14.9758C2.375 14.4585 2.79588 14.0376 3.31319 14.0376C3.8305 14.0376 4.25131 14.4585 4.25131 14.9758V19.123H28.7487V14.9758C28.7487 14.4585 29.1695 14.0376 29.6868 14.0376C30.2041 14.0376 30.625 14.4585 30.625 14.9758V22.2498Z" fill="#058DA6"/>
</g>
<defs>
<clipPath id="clip0_1224_11975">
<rect width="32" height="32" fill="white" transform="translate(0.5)"/>
</clipPath>
</defs>
</svg>
