<svg width="33" height="32" viewBox="0 0 33 32" fill="none" xmlns="http://www.w3.org/2000/svg">
<g clip-path="url(#clip0_1977_6674)">
<path d="M30.6243 12.3236V9.9919C30.6243 7.96252 28.9733 6.31152 26.9439 6.31152H19.2429C18.1539 6.31152 17.1744 6.78727 16.5 7.54134C15.8256 6.78727 14.846 6.31152 13.7571 6.31152H6.056C4.02663 6.31152 2.37563 7.96252 2.37563 9.9919V12.3236C1.28412 12.7106 0.5 13.753 0.5 14.9755V24.1245H2.37569V25.6879H4.25069V24.1245H28.7494V25.6879H30.6244V24.1245H32.5V14.9755C32.5 13.753 31.7159 12.7106 30.6243 12.3236ZM17.4375 13.1835V9.9919C17.4375 8.9964 18.2474 8.18652 19.2429 8.18652H26.9439C27.9394 8.18652 28.7493 8.9964 28.7493 9.9919V12.3236C27.6578 12.7106 26.8737 13.753 26.8737 14.9755V17.2478H17.4375V13.1835ZM4.25069 9.9919C4.25069 8.9964 5.06056 8.18652 6.056 8.18652H13.7571C14.7526 8.18652 15.5624 8.9964 15.5624 9.9919V13.1835V17.2478H6.12631V14.9755C6.12631 13.753 5.34219 12.7106 4.25069 12.3236V9.9919ZM30.625 22.2495H2.375V14.9755C2.375 14.4582 2.79588 14.0373 3.31319 14.0373C3.8305 14.0373 4.25131 14.4582 4.25131 14.9755V19.1228H28.7487V14.9755C28.7487 14.4582 29.1695 14.0373 29.6868 14.0373C30.2041 14.0373 30.625 14.4582 30.625 14.9755V22.2495Z" fill="#058DA6"/>
</g>
<defs>
<clipPath id="clip0_1977_6674">
<rect width="32" height="32" fill="white" transform="translate(0.5)"/>
</clipPath>
</defs>
</svg>
