<svg width="33" height="32" viewBox="0 0 33 32" fill="none" xmlns="http://www.w3.org/2000/svg">
<g clip-path="url(#clip0_1224_11960)">
<path d="M28.861 14.3564V5.45892C28.861 3.64967 27.3891 2.17773 25.5798 2.17773H7.42006C5.61081 2.17773 4.139 3.64967 4.139 5.45892V14.3564C2.05425 14.8579 0.5 16.7371 0.5 18.9735V25.61C0.5 26.1365 0.926813 26.5633 1.45331 26.5633H4.13894V28.869C4.13894 29.3955 4.56575 29.8223 5.09225 29.8223C5.61875 29.8223 6.04556 29.3955 6.04556 28.869V26.5633H26.9543V28.869C26.9543 29.3955 27.3811 29.8223 27.9076 29.8223C28.4341 29.8223 28.8609 29.3955 28.8609 28.869V26.5633H31.5466C32.0731 26.5633 32.4999 26.1365 32.4999 25.61V18.9735C32.5 16.7371 30.9457 14.8579 28.861 14.3564ZM6.04563 5.45892C6.04563 4.70105 6.66225 4.08442 7.42006 4.08442H25.5799C26.3378 4.08442 26.9544 4.70105 26.9544 5.45892V14.224H23.8041V12.72C23.8041 10.2282 21.7767 8.20092 19.2849 8.20092H13.7152C11.2233 8.20092 9.19606 10.2282 9.19606 12.72V14.224H6.04563V5.45892ZM21.8974 12.72V14.224H11.1026V12.72C11.1026 11.2795 12.2745 10.1075 13.7151 10.1075H19.2849C20.7254 10.1075 21.8974 11.2795 21.8974 12.72ZM2.40663 24.6567V18.9735C2.40663 17.406 3.68194 16.1307 5.2495 16.1307H27.7504C29.3179 16.1307 30.5933 17.406 30.5933 18.9735V24.6567H2.40663Z" fill="#058DA6"/>
</g>
<defs>
<clipPath id="clip0_1224_11960">
<rect width="32" height="32" fill="white" transform="translate(0.5)"/>
</clipPath>
</defs>
</svg>
