<svg width="21" height="18" viewBox="0 0 21 18" fill="none" xmlns="http://www.w3.org/2000/svg">
<path d="M16.3242 4.15493H11.1692C10.3846 4.1578 9.61586 4.37605 8.94682 4.78587C8.27777 5.19569 7.7341 5.78135 7.37509 6.47897C6.85993 6.08787 6.23138 5.87524 5.58458 5.87326C4.78706 5.87326 4.02219 6.19008 3.45825 6.75402C2.89432 7.31795 2.5775 8.08282 2.5775 8.88035C2.58001 9.32712 2.68309 9.76759 2.87907 10.1691H1.71833V1.57743C1.71833 1.34956 1.62781 1.13103 1.46669 0.969906C1.30556 0.808781 1.08703 0.718262 0.859167 0.718262C0.631302 0.718262 0.412769 0.808781 0.251644 0.969906C0.0905191 1.13103 0 1.34956 0 1.57743L0 17.0424C0 17.2703 0.0905191 17.4888 0.251644 17.65C0.412769 17.8111 0.631302 17.9016 0.859167 17.9016C1.08703 17.9016 1.30556 17.8111 1.46669 17.65C1.62781 17.4888 1.71833 17.2703 1.71833 17.0424V15.3241H18.9017V17.0424C18.9017 17.2703 18.9922 17.4888 19.1533 17.65C19.3144 17.8111 19.533 17.9016 19.7608 17.9016C19.9887 17.9016 20.2072 17.8111 20.3684 17.65C20.5295 17.4888 20.62 17.2703 20.62 17.0424V8.45076C20.6186 7.31186 20.1656 6.21999 19.3603 5.41466C18.5549 4.60933 17.4631 4.15629 16.3242 4.15493ZM8.59167 8.45076C8.59167 7.76717 8.86322 7.11157 9.3466 6.62819C9.82997 6.14482 10.4856 5.87326 11.1692 5.87326H16.3242C17.0078 5.87326 17.6634 6.14482 18.1467 6.62819C18.6301 7.11157 18.9017 7.76717 18.9017 8.45076V10.1691H8.59167V8.45076ZM4.29583 8.88035C4.29583 8.62545 4.37142 8.37629 4.51303 8.16435C4.65464 7.95242 4.85591 7.78724 5.0914 7.6897C5.32689 7.59215 5.58601 7.56663 5.83601 7.61636C6.086 7.66609 6.31563 7.78883 6.49587 7.96906C6.6761 8.1493 6.79884 8.37893 6.84857 8.62892C6.8983 8.87892 6.87278 9.13804 6.77523 9.37353C6.67769 9.60902 6.51251 9.81029 6.30057 9.9519C6.08864 10.0935 5.83947 10.1691 5.58458 10.1691C5.24279 10.1691 4.91499 10.0333 4.6733 9.79163C4.43161 9.54994 4.29583 9.22214 4.29583 8.88035ZM1.71833 13.6058V11.8874H18.9017V13.6058H1.71833Z" fill="#4CADBF"/>
</svg>
