<svg width="71" height="75" viewBox="0 0 71 75" fill="none" xmlns="http://www.w3.org/2000/svg">
<path d="M39.7262 2.43999C37.111 0.93012 33.889 0.93012 31.2738 2.43999L8.98228 15.31C6.36711 16.8199 4.7561 19.6102 4.7561 22.63V48.37C4.7561 51.3898 6.36711 54.1801 8.98229 55.69L31.2738 68.56C33.889 70.0699 37.111 70.0699 39.7262 68.56L62.0177 55.69C64.6329 54.1801 66.2439 51.3898 66.2439 48.37V22.63C66.2439 19.6102 64.6329 16.8199 62.0177 15.31L39.7262 2.43999Z" fill="url(#paint0_radial_514_1312)" fill-opacity="0.3"/>
<g filter="url(#filter0_d_514_1312)">
<path d="M38.6694 18.3116C36.708 17.1792 34.2915 17.1792 32.3301 18.3116L22.1994 24.1605C20.238 25.2929 19.0298 27.3857 19.0298 29.6505V41.3484C19.0298 43.6132 20.238 45.7059 22.1994 46.8383L32.3301 52.6873C34.2915 53.8197 36.708 53.8197 38.6694 52.6873L48.8 46.8383C50.7614 45.7059 51.9697 43.6132 51.9697 41.3484V29.6505C51.9697 27.3857 50.7614 25.2929 48.8 24.1605L38.6694 18.3116Z" fill="#E48C36"/>
<path d="M32.8055 19.1351L22.6749 24.984C21.0077 25.9465 19.9807 27.7254 19.9807 29.6505V41.3484C19.9807 43.2735 21.0077 45.0523 22.6749 46.0148L32.8055 51.8638C34.4727 52.8263 36.5267 52.8263 38.1939 51.8638L48.3246 46.0148C49.9918 45.0523 51.0188 43.2735 51.0188 41.3484V29.6505C51.0188 27.7254 49.9918 25.9465 48.3246 24.984L38.1939 19.1351C36.5267 18.1725 34.4727 18.1725 32.8055 19.1351Z" stroke="white" stroke-width="1.90179"/>
</g>
<path d="M32.8058 29.2785L31.4591 30.056C29.7919 31.0185 28.7649 32.7974 28.7649 34.7225V36.2775C28.7649 38.2026 29.7919 39.9815 31.4591 40.944L32.8058 41.7215C34.473 42.6841 36.527 42.6841 38.1942 41.7215L39.5409 40.944C41.2081 39.9815 42.2351 38.2026 42.2351 36.2775V34.7225C42.2351 32.7974 41.2081 31.0185 39.5409 30.056L38.1942 29.2785C36.527 28.3159 34.473 28.3159 32.8058 29.2785Z" fill="white" stroke="white" stroke-width="1.90179"/>
<defs>
<filter id="filter0_d_514_1312" x="5.71729" y="11.7569" width="59.5649" height="62.6993" filterUnits="userSpaceOnUse" color-interpolation-filters="sRGB">
<feFlood flood-opacity="0" result="BackgroundImageFix"/>
<feColorMatrix in="SourceAlpha" type="matrix" values="0 0 0 0 0 0 0 0 0 0 0 0 0 0 0 0 0 0 127 0" result="hardAlpha"/>
<feOffset dy="7.60714"/>
<feGaussianBlur stdDeviation="6.65625"/>
<feComposite in2="hardAlpha" operator="out"/>
<feColorMatrix type="matrix" values="0 0 0 0 0 0 0 0 0 0 0 0 0 0 0 0 0 0 0.5 0"/>
<feBlend mode="normal" in2="BackgroundImageFix" result="effect1_dropShadow_514_1312"/>
<feBlend mode="normal" in="SourceGraphic" in2="effect1_dropShadow_514_1312" result="shape"/>
</filter>
<radialGradient id="paint0_radial_514_1312" cx="0" cy="0" r="1" gradientUnits="userSpaceOnUse" gradientTransform="translate(35.5 35.5) rotate(90) scale(35.5)">
<stop offset="0.664583"/>
<stop offset="0.86918" stop-opacity="0"/>
</radialGradient>
</defs>
</svg>
