<svg width="12" height="12" viewBox="0 0 12 12" fill="none" xmlns="http://www.w3.org/2000/svg">
<path d="M6.16931 1.05538C6.28268 0.989928 6.42235 0.989928 6.53572 1.05538L10.5626 3.38033C10.676 3.44578 10.7458 3.56674 10.7458 3.69764V8.34754C10.7458 8.47844 10.676 8.5994 10.5626 8.66485L6.53572 10.9898C6.42235 11.0553 6.28268 11.0553 6.16931 10.9898L2.14239 8.66485C2.02902 8.5994 1.95918 8.47844 1.95918 8.34754V3.69764C1.95918 3.56674 2.02902 3.44578 2.14239 3.38033L6.16931 1.05538Z" stroke="white" stroke-width="0.732809"/>
<path d="M4.92441 3.54936C5.80801 3.03921 6.89665 3.03921 7.78025 3.54936C8.66385 4.0595 9.20817 5.00229 9.20817 6.02259C9.20817 7.04288 8.66385 7.98567 7.78025 8.49582C6.89665 9.00596 5.80801 9.00596 4.92441 8.49582C4.04081 7.98567 3.49649 7.04288 3.49649 6.02259C3.49649 5.00229 4.04081 4.0595 4.92441 3.54936Z" fill="white" fill-opacity="0.75"/>
</svg>
