<svg width="33" height="32" viewBox="0 0 33 32" fill="none" xmlns="http://www.w3.org/2000/svg">
<g clip-path="url(#clip0_1977_6704)">
<path d="M1.1668 10.6564C1.09677 10.5564 1.04729 10.4435 1.02124 10.3242C0.995187 10.2049 0.99308 10.0817 1.01504 9.96156C1.037 9.84146 1.08259 9.72692 1.14917 9.62458C1.21574 9.52224 1.30198 9.43414 1.40287 9.36539L13.6362 0.929494C14.5354 0.323647 15.595 0 16.6793 0C17.7636 0 18.8232 0.323647 19.7224 0.929494L31.9558 9.36539C32.1573 9.5043 32.2954 9.71758 32.3397 9.95831C32.3839 10.199 32.3308 10.4475 32.1919 10.649C32.0529 10.8506 31.8397 10.9886 31.5989 11.0329C31.3582 11.0772 31.1097 11.024 30.9082 10.8851L18.6786 2.45474C18.0884 2.05703 17.3929 1.84456 16.6812 1.84456C15.9695 1.84456 15.274 2.05703 14.6838 2.45474L2.45044 10.8925C2.35069 10.9614 2.23834 11.0099 2.11981 11.0353C2.00128 11.0607 1.8789 11.0625 1.75968 11.0406C1.64045 11.0187 1.52672 10.9734 1.42499 10.9075C1.32326 10.8416 1.23552 10.7563 1.1668 10.6564ZM32.3578 30.4201C32.3578 30.6646 32.2607 30.8992 32.0877 31.0721C31.9148 31.2451 31.6803 31.3422 31.4357 31.3422H1.92666C1.68209 31.3422 1.44753 31.2451 1.2746 31.0721C1.10166 30.8992 1.0045 30.6646 1.0045 30.4201C1.0045 30.1755 1.10166 29.9409 1.2746 29.768C1.44753 29.5951 1.68209 29.4979 1.92666 29.4979H5.61529V27.4839C5.07775 27.2939 4.61206 26.9424 4.28193 26.4776C3.95179 26.0127 3.77334 25.4573 3.77097 24.8871V21.962C3.77004 21.5989 3.84112 21.2391 3.98009 20.9035C4.11906 20.5679 4.32317 20.2633 4.58063 20.0071L5.23351 19.3542L4.04024 18.1628C3.9545 18.077 3.88649 17.9752 3.84009 17.8632C3.79369 17.7512 3.76981 17.6311 3.76981 17.5099C3.76981 17.3886 3.79369 17.2686 3.84009 17.1565C3.88649 17.0445 3.9545 16.9427 4.04024 16.857C4.2134 16.6838 4.44825 16.5866 4.69313 16.5866C4.81438 16.5866 4.93445 16.6104 5.04647 16.6568C5.15849 16.7032 5.26028 16.7713 5.34602 16.857L6.28477 17.7976L8.89079 12.5837C9.11946 12.1232 9.47249 11.7359 9.90992 11.4657C10.3474 11.1955 10.8517 11.0531 11.3659 11.0548H21.9965C22.5106 11.0531 23.015 11.1955 23.4524 11.4657C23.8898 11.7359 24.2429 12.1232 24.4716 12.5837L27.0776 17.7976L28.0163 16.857C28.1895 16.6838 28.4243 16.5866 28.6692 16.5866C28.9141 16.5866 29.1489 16.6838 29.3221 16.857C29.4953 17.0301 29.5925 17.265 29.5925 17.5099C29.5925 17.7548 29.4953 17.9896 29.3221 18.1628L28.1288 19.3542L28.7817 20.0071C29.0392 20.2633 29.2433 20.5679 29.3823 20.9035C29.5212 21.2391 29.5923 21.5989 29.5914 21.962V24.8871C29.589 25.4573 29.4105 26.0127 29.0804 26.4776C28.7503 26.9424 28.2846 27.2939 27.7471 27.4839V29.4979H31.4357C31.6803 29.4979 31.9148 29.5951 32.0877 29.768C32.2607 29.9409 32.3578 30.1755 32.3578 30.4201ZM27.7471 21.962C27.747 21.718 27.6502 21.4838 27.4778 21.311L26.4431 20.2763H6.91922L5.88456 21.311C5.71217 21.4838 5.61534 21.718 5.61529 21.962V24.8871C5.61529 25.1317 5.71244 25.3663 5.88538 25.5392C6.05832 25.7121 6.29287 25.8093 6.53744 25.8093H26.8249C27.0695 25.8093 27.304 25.7121 27.477 25.5392C27.6499 25.3663 27.7471 25.1317 27.7471 24.8871V21.962ZM8.02949 18.432H25.3328L22.8209 13.4081C22.7442 13.2551 22.6265 13.1265 22.4809 13.0366C22.3353 12.9467 22.1676 12.8991 21.9965 12.8991H11.3659C11.1947 12.8991 11.027 12.9467 10.8814 13.0366C10.7358 13.1265 10.6181 13.2551 10.5414 13.4081L8.02949 18.432ZM11.1482 29.4979V27.6536H7.4596V29.4979H11.1482ZM20.3698 29.4979V27.6536H12.9925V29.4979H20.3698ZM25.9027 29.4979V27.6536H22.2141V29.4979H25.9027ZM10.2261 22.1207H8.38176C8.13719 22.1207 7.90263 22.2178 7.72969 22.3908C7.55676 22.5637 7.4596 22.7982 7.4596 23.0428C7.4596 23.2874 7.55676 23.5219 7.72969 23.6949C7.90263 23.8678 8.13719 23.965 8.38176 23.965H10.2261C10.4706 23.965 10.7052 23.8678 10.8781 23.6949C11.0511 23.5219 11.1482 23.2874 11.1482 23.0428C11.1482 22.7982 11.0511 22.5637 10.8781 22.3908C10.7052 22.2178 10.4706 22.1207 10.2261 22.1207ZM24.9806 22.1207H23.1363C22.8917 22.1207 22.6571 22.2178 22.4842 22.3908C22.3113 22.5637 22.2141 22.7982 22.2141 23.0428C22.2141 23.2874 22.3113 23.5219 22.4842 23.6949C22.6571 23.8678 22.8917 23.965 23.1363 23.965H24.9806C25.2252 23.965 25.4597 23.8678 25.6326 23.6949C25.8056 23.5219 25.9027 23.2874 25.9027 23.0428C25.9027 22.7982 25.8056 22.5637 25.6326 22.3908C25.4597 22.2178 25.2252 22.1207 24.9806 22.1207Z" fill="#058DA6"/>
</g>
<defs>
<clipPath id="clip0_1977_6704">
<rect width="32" height="32" fill="white" transform="translate(0.5)"/>
</clipPath>
</defs>
</svg>
