<svg viewBox="0 0 24 23" fill="none" xmlns="http://www.w3.org/2000/svg">
    <path
        d="M7.6875 12.4583C6.83457 12.4583 6.00079 12.2054 5.2916 11.7315C4.58242 11.2577 4.02967 10.5842 3.70327 9.79616C3.37687 9.00815 3.29146 8.14105 3.45786 7.30451C3.62426 6.46796 4.03499 5.69955 4.6381 5.09644C5.24122 4.49332 6.00963 4.0826 6.84617 3.9162C7.68272 3.7498 8.54982 3.8352 9.33782 4.1616C10.1258 4.48801 10.7993 5.04075 11.2732 5.74994C11.7471 6.45913 12 7.2929 12 8.14583C11.9987 9.28919 11.544 10.3854 10.7355 11.1938C9.92702 12.0023 8.83086 12.4571 7.6875 12.4583ZM7.6875 5.75C7.21365 5.75 6.75044 5.89051 6.35645 6.15377C5.96245 6.41703 5.65537 6.79121 5.47404 7.22899C5.2927 7.66677 5.24526 8.14849 5.3377 8.61324C5.43015 9.07798 5.65833 9.50488 5.99339 9.83994C6.32845 10.175 6.75535 10.4032 7.2201 10.4956C7.68484 10.5881 8.16656 10.5406 8.60435 10.3593C9.04213 10.178 9.4163 9.87088 9.67956 9.47689C9.94282 9.0829 10.0833 8.61969 10.0833 8.14583C10.0833 7.51042 9.83091 6.90103 9.38161 6.45172C8.9323 6.00242 8.32291 5.75 7.6875 5.75ZM14.875 22.0417V21.5625C14.875 19.6563 14.1177 17.8281 12.7698 16.4802C11.4219 15.1323 9.59374 14.375 7.6875 14.375C5.78126 14.375 3.95309 15.1323 2.60517 16.4802C1.25725 17.8281 0.5 19.6563 0.5 21.5625L0.5 22.0417C0.5 22.2958 0.600967 22.5396 0.780689 22.7193C0.960412 22.899 1.20417 23 1.45833 23C1.7125 23 1.95625 22.899 2.13598 22.7193C2.3157 22.5396 2.41667 22.2958 2.41667 22.0417V21.5625C2.41667 20.1646 2.97198 18.8239 3.96046 17.8355C4.94893 16.847 6.28959 16.2917 7.6875 16.2917C9.08541 16.2917 10.4261 16.847 11.4145 17.8355C12.403 18.8239 12.9583 20.1646 12.9583 21.5625V22.0417C12.9583 22.2958 13.0593 22.5396 13.239 22.7193C13.4187 22.899 13.6625 23 13.9167 23C14.1708 23 14.4146 22.899 14.5943 22.7193C14.774 22.5396 14.875 22.2958 14.875 22.0417ZM23.5 17.25C23.5 15.955 23.1251 14.6877 22.4206 13.601C21.7162 12.5144 20.7123 11.6549 19.5301 11.1262C18.3478 10.5976 17.0379 10.4224 15.7583 10.6219C14.4788 10.8214 13.2843 11.387 12.3191 12.2504C12.224 12.3339 12.1464 12.4355 12.0908 12.5492C12.0352 12.663 12.0027 12.7866 11.9951 12.913C11.9875 13.0393 12.0051 13.166 12.0467 13.2855C12.0884 13.4051 12.1533 13.5152 12.2377 13.6095C12.3222 13.7038 12.4245 13.7805 12.5387 13.835C12.6529 13.8896 12.7769 13.921 12.9033 13.9274C13.0297 13.9338 13.1562 13.915 13.2753 13.8723C13.3945 13.8295 13.504 13.7636 13.5975 13.6783C14.287 13.0617 15.1402 12.6579 16.0541 12.5155C16.9681 12.3731 17.9037 12.4983 18.748 12.876C19.5924 13.2536 20.3094 13.8676 20.8125 14.6437C21.3156 15.4199 21.5833 16.325 21.5833 17.25C21.5833 17.5042 21.6843 17.7479 21.864 17.9276C22.0437 18.1074 22.2875 18.2083 22.5417 18.2083C22.7958 18.2083 23.0396 18.1074 23.2193 17.9276C23.399 17.7479 23.5 17.5042 23.5 17.25ZM17.2708 8.625C16.4179 8.625 15.5841 8.37208 14.8749 7.89821C14.1657 7.42435 13.613 6.75083 13.2866 5.96282C12.9602 5.17482 12.8748 4.30772 13.0412 3.47117C13.2076 2.63463 13.6183 1.86622 14.2214 1.2631C14.8245 0.65999 15.593 0.249264 16.4295 0.0828654C17.266 -0.0835333 18.1331 0.00186855 18.9212 0.328271C19.7092 0.654674 20.3827 1.20742 20.8565 1.91661C21.3304 2.62579 21.5833 3.45957 21.5833 4.3125C21.5821 5.45586 21.1273 6.55202 20.3188 7.3605C19.5104 8.16897 18.4142 8.62373 17.2708 8.625ZM17.2708 1.91667C16.797 1.91667 16.3338 2.05718 15.9398 2.32044C15.5458 2.5837 15.2387 2.95787 15.0574 3.39566C14.876 3.83344 14.8286 4.31516 14.921 4.77991C15.0135 5.24465 15.2417 5.67155 15.5767 6.00661C15.9118 6.34167 16.3387 6.56986 16.8034 6.6623C17.2682 6.75474 17.7499 6.7073 18.1877 6.52596C18.6255 6.34463 18.9996 6.03755 19.2629 5.64356C19.5262 5.24956 19.6667 4.78635 19.6667 4.3125C19.6667 3.67709 19.4142 3.0677 18.9649 2.61839C18.5156 2.16909 17.9062 1.91667 17.2708 1.91667Z"
        fill="white" />
</svg>