<svg width="23" height="23" viewBox="0 0 23 23" fill="none" xmlns="http://www.w3.org/2000/svg">
<path d="M7.1875 12.4583C6.33457 12.4583 5.50079 12.2054 4.7916 11.7315C4.08242 11.2577 3.52967 10.5842 3.20327 9.79616C2.87687 9.00815 2.79146 8.14105 2.95786 7.30451C3.12426 6.46796 3.53499 5.69955 4.1381 5.09644C4.74122 4.49332 5.50963 4.0826 6.34617 3.9162C7.18272 3.7498 8.04982 3.8352 8.83782 4.1616C9.62583 4.48801 10.2993 5.04075 10.7732 5.74994C11.2471 6.45913 11.5 7.2929 11.5 8.14583C11.4987 9.28919 11.044 10.3854 10.2355 11.1938C9.42702 12.0023 8.33086 12.4571 7.1875 12.4583ZM7.1875 5.75C6.71365 5.75 6.25044 5.89051 5.85645 6.15377C5.46245 6.41703 5.15537 6.79121 4.97404 7.22899C4.7927 7.66677 4.74526 8.14849 4.8377 8.61324C4.93015 9.07798 5.15833 9.50488 5.49339 9.83994C5.82845 10.175 6.25535 10.4032 6.7201 10.4956C7.18484 10.5881 7.66656 10.5406 8.10435 10.3593C8.54213 10.178 8.9163 9.87088 9.17956 9.47689C9.44282 9.0829 9.58333 8.61969 9.58333 8.14583C9.58333 7.51042 9.33091 6.90103 8.88161 6.45172C8.4323 6.00242 7.82291 5.75 7.1875 5.75ZM14.375 22.0417V21.5625C14.375 19.6563 13.6177 17.8281 12.2698 16.4802C10.9219 15.1323 9.09374 14.375 7.1875 14.375C5.28126 14.375 3.45309 15.1323 2.10517 16.4802C0.757252 17.8281 0 19.6563 0 21.5625L0 22.0417C0 22.2958 0.100967 22.5396 0.280689 22.7193C0.460412 22.899 0.704167 23 0.958333 23C1.2125 23 1.45625 22.899 1.63598 22.7193C1.8157 22.5396 1.91667 22.2958 1.91667 22.0417V21.5625C1.91667 20.1646 2.47198 18.8239 3.46046 17.8355C4.44893 16.847 5.78959 16.2917 7.1875 16.2917C8.58541 16.2917 9.92607 16.847 10.9145 17.8355C11.903 18.8239 12.4583 20.1646 12.4583 21.5625V22.0417C12.4583 22.2958 12.5593 22.5396 12.739 22.7193C12.9187 22.899 13.1625 23 13.4167 23C13.6708 23 13.9146 22.899 14.0943 22.7193C14.274 22.5396 14.375 22.2958 14.375 22.0417ZM23 17.25C23 15.955 22.6251 14.6877 21.9206 13.601C21.2162 12.5144 20.2123 11.6549 19.0301 11.1262C17.8478 10.5976 16.5379 10.4224 15.2583 10.6219C13.9788 10.8214 12.7843 11.387 11.8191 12.2504C11.724 12.3339 11.6464 12.4355 11.5908 12.5492C11.5352 12.663 11.5027 12.7866 11.4951 12.913C11.4875 13.0393 11.5051 13.166 11.5467 13.2855C11.5884 13.4051 11.6533 13.5152 11.7377 13.6095C11.8222 13.7038 11.9245 13.7805 12.0387 13.835C12.1529 13.8896 12.2769 13.921 12.4033 13.9274C12.5297 13.9338 12.6562 13.915 12.7753 13.8723C12.8945 13.8295 13.004 13.7636 13.0975 13.6783C13.787 13.0617 14.6402 12.6579 15.5541 12.5155C16.4681 12.3731 17.4037 12.4983 18.248 12.876C19.0924 13.2536 19.8094 13.8676 20.3125 14.6437C20.8156 15.4199 21.0833 16.325 21.0833 17.25C21.0833 17.5042 21.1843 17.7479 21.364 17.9276C21.5437 18.1074 21.7875 18.2083 22.0417 18.2083C22.2958 18.2083 22.5396 18.1074 22.7193 17.9276C22.899 17.7479 23 17.5042 23 17.25ZM16.7708 8.625C15.9179 8.625 15.0841 8.37208 14.3749 7.89821C13.6657 7.42435 13.113 6.75083 12.7866 5.96282C12.4602 5.17482 12.3748 4.30772 12.5412 3.47117C12.7076 2.63463 13.1183 1.86622 13.7214 1.2631C14.3245 0.65999 15.093 0.249264 15.9295 0.0828654C16.766 -0.0835333 17.6331 0.00186855 18.4212 0.328271C19.2092 0.654674 19.8827 1.20742 20.3565 1.91661C20.8304 2.62579 21.0833 3.45957 21.0833 4.3125C21.0821 5.45586 20.6273 6.55202 19.8188 7.3605C19.0104 8.16897 17.9142 8.62373 16.7708 8.625ZM16.7708 1.91667C16.297 1.91667 15.8338 2.05718 15.4398 2.32044C15.0458 2.5837 14.7387 2.95787 14.5574 3.39566C14.376 3.83344 14.3286 4.31516 14.421 4.77991C14.5135 5.24465 14.7417 5.67155 15.0767 6.00661C15.4118 6.34167 15.8387 6.56986 16.3034 6.6623C16.7682 6.75474 17.2499 6.7073 17.6877 6.52596C18.1255 6.34463 18.4996 6.03755 18.7629 5.64356C19.0262 5.24956 19.1667 4.78635 19.1667 4.3125C19.1667 3.67709 18.9142 3.0677 18.4649 2.61839C18.0156 2.16909 17.4062 1.91667 16.7708 1.91667Z" />
</svg>
