<svg width="21" height="20" viewBox="0 0 21 20" fill="none" xmlns="http://www.w3.org/2000/svg">
<path d="M1.71834 1.71854C1.71834 1.49068 1.80885 1.27214 1.96998 1.11102C2.1311 0.949894 2.34964 0.859375 2.5775 0.859375H6.80117C7.49268 0.859164 8.17402 1.02589 8.7873 1.3454C9.40057 1.6649 9.92765 2.12773 10.3237 2.69456L14.7175 8.98108C14.7822 9.07365 14.8281 9.17807 14.8524 9.28836C14.8768 9.39865 14.8792 9.51265 14.8595 9.62387C14.8398 9.73508 14.7983 9.84133 14.7376 9.93653C14.6768 10.0317 14.5979 10.114 14.5053 10.1788C14.4127 10.2435 14.3083 10.2893 14.198 10.3137C14.0877 10.338 13.9737 10.3404 13.8625 10.3207C13.7513 10.301 13.6451 10.2596 13.5499 10.1988C13.4546 10.138 13.3723 10.0591 13.3076 9.96654L10.3237 5.69648L3.08699 11.0036C2.9031 11.1385 2.67316 11.1948 2.44774 11.1601C2.22233 11.1255 2.01991 11.0027 1.88501 10.8188C1.75012 10.6349 1.6938 10.405 1.72844 10.1796C1.76308 9.95418 1.88585 9.75176 2.06973 9.61686L9.33914 4.29003L8.91386 3.6826C8.6767 3.34192 8.36077 3.06356 7.99294 2.8712C7.62511 2.67883 7.21626 2.57815 6.80117 2.57771H2.5775C2.34964 2.57771 2.1311 2.48719 1.96998 2.32606C1.80885 2.16494 1.71834 1.94641 1.71834 1.71854ZM19.1878 17.6045C18.8733 17.8871 18.4653 18.0432 18.0425 18.0427C17.6687 18.0433 17.3027 17.9354 16.989 17.7321C16.6753 17.5288 16.4274 17.2389 16.2752 16.8974C16.2159 16.7301 16.1062 16.5853 15.9611 16.4828C15.8161 16.3804 15.643 16.3254 15.4654 16.3254C15.2879 16.3254 15.1147 16.3804 14.9697 16.4828C14.8247 16.5853 14.715 16.7301 14.6557 16.8974C14.503 17.2387 14.2549 17.5284 13.9412 17.7317C13.6275 17.935 13.2617 18.0432 12.8879 18.0432C12.5141 18.0432 12.1483 17.935 11.8346 17.7317C11.521 17.5284 11.2728 17.2387 11.1202 16.8974C11.0609 16.7301 10.9512 16.5853 10.8061 16.4828C10.6611 16.3804 10.488 16.3254 10.3104 16.3254C10.1329 16.3254 9.95972 16.3804 9.81472 16.4828C9.66971 16.5853 9.56 16.7301 9.50067 16.8974C9.34802 17.2387 9.09989 17.5284 8.78622 17.7317C8.47254 17.935 8.10673 18.0432 7.73293 18.0432C7.35913 18.0432 6.99332 17.935 6.67965 17.7317C6.36597 17.5284 6.11784 17.2387 5.9652 16.8974C5.90586 16.7301 5.79615 16.5853 5.65115 16.4828C5.50614 16.3804 5.33297 16.3254 5.15543 16.3254C4.9779 16.3254 4.80472 16.3804 4.65972 16.4828C4.51471 16.5853 4.405 16.7301 4.34567 16.8974C4.19328 17.2389 3.94513 17.5288 3.6313 17.7321C3.31747 17.9354 2.95142 18.0433 2.5775 18.0427C2.15474 18.0422 1.74698 17.8859 1.43223 17.6037C1.26208 17.455 1.0402 17.3793 0.814652 17.3931C0.589108 17.4068 0.378059 17.5089 0.227217 17.6771C0.076375 17.8454 -0.00211573 18.0663 0.0087455 18.292C0.0196067 18.5177 0.118946 18.73 0.285246 18.883C0.915186 19.4479 1.73138 19.7605 2.5775 19.761C3.53964 19.7527 4.46203 19.3761 5.155 18.7086C5.84333 19.3832 6.76871 19.761 7.7325 19.761C8.69629 19.761 9.62167 19.3832 10.31 18.7086C10.9983 19.3832 11.9237 19.761 12.8875 19.761C13.8513 19.761 14.7767 19.3832 15.465 18.7086C16.1578 19.3764 17.0803 19.7531 18.0425 19.761C18.889 19.7618 19.7058 19.4487 20.3348 18.8821C20.4227 18.8079 20.4949 18.7168 20.547 18.6142C20.5991 18.5115 20.63 18.3995 20.638 18.2847C20.6459 18.1698 20.6307 18.0546 20.5933 17.9458C20.5558 17.8369 20.4969 17.7367 20.42 17.6511C20.3431 17.5655 20.2497 17.4962 20.1455 17.4474C20.0413 17.3985 19.9283 17.3711 19.8133 17.3668C19.6983 17.3624 19.5836 17.3812 19.476 17.4221C19.3684 17.4629 19.2701 17.525 19.1869 17.6045H19.1878ZM2.5775 15.4652C3.53964 15.4569 4.46203 15.0802 5.155 14.4127C5.84333 15.0873 6.76871 15.4652 7.7325 15.4652C8.69629 15.4652 9.62167 15.0873 10.31 14.4127C10.9983 15.0873 11.9237 15.4652 12.8875 15.4652C13.8513 15.4652 14.7767 15.0873 15.465 14.4127C16.1578 15.0805 17.0803 15.4572 18.0425 15.4652C18.889 15.466 19.7058 15.1528 20.3348 14.5863C20.4227 14.5121 20.4949 14.421 20.547 14.3183C20.5991 14.2157 20.63 14.1036 20.638 13.9888C20.6459 13.874 20.6307 13.7588 20.5933 13.6499C20.5558 13.5411 20.4969 13.4409 20.42 13.3553C20.3431 13.2697 20.2497 13.2004 20.1455 13.1515C20.0413 13.1027 19.9283 13.0753 19.8133 13.0709C19.6983 13.0666 19.5836 13.0854 19.476 13.1262C19.3684 13.1671 19.2701 13.2291 19.1869 13.3087C18.8726 13.5911 18.465 13.7472 18.0425 13.7469C17.6687 13.7475 17.3027 13.6396 16.989 13.4363C16.6753 13.233 16.4274 12.9431 16.2752 12.6016C16.2159 12.4343 16.1062 12.2894 15.9611 12.187C15.8161 12.0846 15.643 12.0296 15.4654 12.0296C15.2879 12.0296 15.1147 12.0846 14.9697 12.187C14.8247 12.2894 14.715 12.4343 14.6557 12.6016C14.503 12.9428 14.2549 13.2326 13.9412 13.4359C13.6275 13.6392 13.2617 13.7474 12.8879 13.7474C12.5141 13.7474 12.1483 13.6392 11.8346 13.4359C11.521 13.2326 11.2728 12.9428 11.1202 12.6016C11.0609 12.4343 10.9512 12.2894 10.8061 12.187C10.6611 12.0846 10.488 12.0296 10.3104 12.0296C10.1329 12.0296 9.95972 12.0846 9.81472 12.187C9.66971 12.2894 9.56 12.4343 9.50067 12.6016C9.34802 12.9428 9.09989 13.2326 8.78622 13.4359C8.47254 13.6392 8.10673 13.7474 7.73293 13.7474C7.35913 13.7474 6.99332 13.6392 6.67965 13.4359C6.36597 13.2326 6.11784 12.9428 5.9652 12.6016C5.90586 12.4343 5.79615 12.2894 5.65115 12.187C5.50614 12.0846 5.33297 12.0296 5.15543 12.0296C4.9779 12.0296 4.80472 12.0846 4.65972 12.187C4.51471 12.2894 4.405 12.4343 4.34567 12.6016C4.19328 12.9431 3.94513 13.233 3.6313 13.4363C3.31747 13.6395 2.95142 13.7474 2.5775 13.7469C2.15474 13.7464 1.74698 13.5901 1.43223 13.3078C1.26208 13.1592 1.0402 13.0835 0.814652 13.0972C0.589108 13.111 0.378059 13.213 0.227217 13.3813C0.076375 13.5495 -0.00211573 13.7704 0.0087455 13.9961C0.0196067 14.2218 0.118946 14.4342 0.285246 14.5871C0.915186 15.152 1.73138 15.4647 2.5775 15.4652ZM15.8946 6.87354C16.3194 6.87354 16.7347 6.74757 17.0879 6.51155C17.4411 6.27554 17.7164 5.94008 17.879 5.5476C18.0416 5.15512 18.0841 4.72324 18.0012 4.30659C17.9184 3.88993 17.7138 3.50721 17.4134 3.20682C17.113 2.90643 16.7303 2.70186 16.3136 2.61898C15.897 2.5361 15.4651 2.57864 15.0726 2.74121C14.6801 2.90378 14.3447 3.17908 14.1087 3.53231C13.8726 3.88553 13.7467 4.30081 13.7467 4.72563C13.7467 5.29529 13.973 5.84162 14.3758 6.24443C14.7786 6.64724 15.3249 6.87354 15.8946 6.87354Z" fill="#4CADBF"/>
</svg>
