<svg width="24" height="20" viewBox="0 0 24 20" fill="none" xmlns="http://www.w3.org/2000/svg">
<path d="M21.5435 4.90317C21.5575 5.11417 21.5575 5.32617 21.5575 5.53917C21.5575 12.0462 16.6035 19.5492 7.54749 19.5492V19.5452C4.87249 19.5492 2.25249 18.7832 0.000488281 17.3382C0.389488 17.3852 0.780488 17.4082 1.17249 17.4092C3.39049 17.4112 5.54449 16.6672 7.28749 15.2972C5.18049 15.2572 3.33249 13.8832 2.68749 11.8772C3.42549 12.0192 4.18549 11.9902 4.91049 11.7932C2.61249 11.3292 0.960488 9.31017 0.960488 6.96617C0.960488 6.94517 0.960488 6.92417 0.960488 6.90417C1.64549 7.28617 2.41149 7.49717 3.19549 7.52017C1.03149 6.07517 0.363488 3.19717 1.67049 0.947169C4.17049 4.02317 7.85949 5.89317 11.8185 6.09217C11.4215 4.38217 11.9645 2.59017 13.2425 1.38717C15.2255 -0.477831 18.3445 -0.381831 20.2095 1.60117C21.3125 1.38417 22.3695 0.979169 23.3365 0.406169C22.9685 1.54617 22.1995 2.51417 21.1715 3.13017C22.1485 3.01317 23.1015 2.75217 24.0005 2.35417C23.3395 3.34317 22.5075 4.20617 21.5435 4.90317Z" fill="#058DA6"/>
</svg>
