<svg width="24" height="25" viewBox="0 0 24 25" fill="none" xmlns="http://www.w3.org/2000/svg">
<path fill-rule="evenodd" clip-rule="evenodd" d="M20.4634 3.53683C18.2174 1.28883 15.2314 0.0498281 12.0504 0.0488281C5.49537 0.0488281 0.160373 5.38283 0.157373 11.9408C0.156373 14.0368 0.704373 16.0828 1.74537 17.8868L0.057373 24.0488L6.36137 22.3948C8.09837 23.3428 10.0544 23.8418 12.0444 23.8428H12.0494C18.6034 23.8428 23.9394 18.5078 23.9424 11.9498C23.9444 8.77283 22.7084 5.78383 20.4634 3.53683ZM12.0504 21.8338H12.0464C10.2724 21.8338 8.53337 21.3568 7.01537 20.4558L6.65437 20.2418L2.91337 21.2228L3.91237 17.5748L3.67737 17.2008C2.68737 15.6268 2.16537 13.8078 2.16637 11.9408C2.16837 6.49083 6.60337 2.05683 12.0554 2.05683C14.6954 2.05683 17.1774 3.08683 19.0434 4.95483C20.9094 6.82383 21.9364 9.30683 21.9354 11.9478C21.9324 17.3998 17.4984 21.8338 12.0504 21.8338ZM17.4724 14.4308C17.1754 14.2818 15.7144 13.5628 15.4414 13.4638C15.1694 13.3648 14.9714 13.3148 14.7724 13.6118C14.5734 13.9088 14.0054 14.5788 13.8314 14.7778C13.6584 14.9758 13.4844 15.0008 13.1874 14.8518C12.8904 14.7028 11.9324 14.3898 10.7974 13.3768C9.91437 12.5888 9.31737 11.6158 9.14437 11.3178C8.97137 11.0198 9.12637 10.8598 9.27437 10.7118C9.40837 10.5788 9.57137 10.3648 9.72037 10.1908C9.87037 10.0188 9.91937 9.89483 10.0194 9.69583C10.1184 9.49783 10.0694 9.32383 9.99437 9.17483C9.91937 9.02683 9.32537 7.56383 9.07837 6.96883C8.83737 6.38883 8.59237 6.46783 8.40937 6.45883C8.23637 6.44983 8.03837 6.44883 7.83937 6.44883C7.64137 6.44883 7.31937 6.52283 7.04737 6.82083C6.77537 7.11883 6.00737 7.83783 6.00737 9.29983C6.00737 10.7628 7.07237 12.1758 7.22037 12.3738C7.36837 12.5718 9.31537 15.5738 12.2964 16.8608C13.0054 17.1668 13.5594 17.3498 13.9904 17.4868C14.7024 17.7128 15.3504 17.6808 15.8624 17.6048C16.4334 17.5198 17.6204 16.8858 17.8684 16.1918C18.1164 15.4978 18.1164 14.9018 18.0414 14.7788C17.9674 14.6538 17.7694 14.5798 17.4724 14.4308Z" fill="#058DA6"/>
</svg>
