<svg width="1726" height="872" viewBox="0 0 1726 872" fill="none" xmlns="http://www.w3.org/2000/svg">
<path d="M1566.06 644L1560.14 662.118C1557.52 670.131 1552.24 677.011 1545.18 681.617L1540.58 684.62C1537.65 686.528 1534.44 687.949 1531.06 688.831L1525.06 690.396C1516.63 692.597 1507.68 689.743 1502.07 683.063V683.063C1497.78 677.952 1491.45 675 1484.78 675H1466.69C1461.57 675 1456.51 673.939 1451.82 671.883L1359.77 631.5L1308.87 603.83C1304.07 601.223 1302.5 595.088 1305.46 590.5V590.5M1305.46 590.5L1235.21 549L1199.42 521.621C1196.72 519.55 1194.31 517.116 1192.27 514.386L1166.19 479.489C1160 471.21 1150.63 465.896 1140.35 464.835L1073.58 457.943C1070.72 457.649 1067.92 457.024 1065.21 456.081L1054.84 452.47C1048.32 450.202 1042.57 446.158 1038.23 440.794L1019.04 417.061C1017.66 415.357 1016.13 413.779 1014.47 412.345L995.05 395.542C990.464 391.575 984.974 388.796 979.062 387.449L899.944 369.424C897.247 368.81 894.491 368.5 891.725 368.5H863.499M1305.46 590.5L1338.55 574.548C1342.01 572.878 1344.97 570.332 1347.15 567.161V567.161C1351.84 560.315 1352.28 551.413 1348.29 544.136L1346.31 540.523C1344.67 537.532 1343.58 534.272 1343.08 530.897L1339.97 509.73C1339.55 506.919 1338.82 504.166 1337.78 501.523L1331.05 484.494C1329.61 480.855 1328.76 477.01 1328.53 473.103L1327.16 450.016C1326.98 447.016 1326.44 444.05 1325.54 441.182L1309.37 389.4C1307.15 382.298 1302.84 376.031 1297.01 371.415L1280.05 358L1261.78 338.789C1260.03 336.95 1258.68 334.767 1257.82 332.379V332.379C1254.04 321.892 1241.84 317.19 1232 322.427L1223.61 326.89C1219.77 328.932 1215.49 330 1211.15 330H1192.19C1188.01 330 1183.87 329.293 1179.93 327.909L1178.97 327.575C1170.57 324.624 1161.39 324.802 1153.11 328.075L1133.06 336L1122.33 339.589C1118.55 340.855 1114.58 341.5 1110.6 341.5H1099.83C1091.79 341.5 1084.12 344.861 1078.67 350.77L1077.75 351.769C1075.78 353.902 1073.41 355.624 1070.77 356.837V356.837C1065.66 359.189 1059.84 359.491 1054.51 357.681L1036.21 351.466C1032.37 350.164 1028.35 349.5 1024.31 349.5H1011.49C1009.17 349.5 1006.85 349.718 1004.57 350.152L979.097 355L966.894 358.641C962.77 359.871 958.464 360.372 954.168 360.122L926.281 358.5M863.499 368.5L813.174 377L775.327 386.495C767.551 388.445 760.619 392.869 755.574 399.099L742.066 415.783C735.041 424.459 724.474 429.5 713.31 429.5H693.091L621.72 439.41C616.543 440.128 611.577 441.936 607.149 444.713L580.787 461.246C576.317 464.05 571.3 465.865 566.071 466.569L543.799 469.572C541.684 469.857 539.598 470.324 537.564 470.969L527.142 474.271C523.526 475.417 519.757 476 515.965 476H503.749C496.773 476 482.324 476 480.33 476C477.839 476 464.884 471.5 462.393 468.5C460.4 466.1 439.306 465.5 429.009 465.5C422.199 465.5 407.882 465.5 405.092 465.5C402.302 465.5 388.317 463.5 381.673 462.5L362.241 458.5L338.51 456.195C333.78 455.736 329.182 454.37 324.969 452.171L322.609 450.94C320.145 449.654 317.893 447.998 315.932 446.03V446.03C312.331 442.416 307.785 439.89 302.815 438.739L297.466 437.5M863.499 368.5L890.553 360.147C894.088 359.055 897.768 358.5 901.468 358.5H926.281M926.281 358.5L909.838 383.5L899.002 400.83C895.652 406.187 890.986 410.598 885.449 413.64L872.966 420.5L840.579 436L815.167 445.5L803.292 451.458C797.366 454.431 792.348 458.942 788.762 464.519L787.935 465.806C785.515 469.571 782.431 472.865 778.834 475.529L769.42 482.502C765.413 485.47 760.844 487.584 756.009 488.806C749.136 490.543 741.352 492.643 739.928 493.5C737.437 495 725.977 500 723.485 501.5C720.994 503 704.053 514 702.06 515C700.752 515.656 692.869 519.948 687.053 523.125C684.772 524.371 682.368 525.375 679.877 526.119L641.769 537.5C634.794 539.167 620.444 542.5 618.849 542.5C617.58 542.5 608.856 543.345 602.083 544.026C598.987 544.338 595.87 544.226 592.766 544.006C589.057 543.744 584.414 543.705 580.981 544.5C574.503 546 561.548 547 556.067 549.5C550.586 552 543.112 558.5 540.621 560.5C538.13 562.5 524.178 571 514.711 568C505.244 565 472.856 551 463.888 551.5C459.402 551.75 454.293 552.795 450.241 553.828C446.375 554.814 442.421 555.5 438.431 555.5H427.258C425.108 555.5 422.961 555.688 420.843 556.06L401.487 559.468C397.604 560.152 393.855 561.451 390.382 563.318L386.622 565.339C383.342 567.103 379.814 568.361 376.157 569.071L357.205 572.752C352.955 573.578 348.593 573.651 344.318 572.968L335.372 571.54C331.087 570.856 327.021 569.184 323.494 566.656V566.656C317.959 562.689 314.234 556.784 312.201 550.285C311.535 548.155 310.893 546.473 310.421 546C309.831 545.408 307.603 542.281 305.036 538.582C300.094 531.459 297.962 522.776 298.812 514.148C299.653 505.608 300.456 497.023 300.456 495.5C300.456 493.1 298.462 475.5 297.466 467C296.469 462.333 294.775 452.2 295.971 449C297.167 445.8 297.466 440 297.466 437.5M297.466 437.5L279.462 428.246C277.847 427.417 276.296 426.469 274.821 425.411L267.403 420.094C264.539 418.042 261.397 416.409 258.072 415.245L247.596 411.578C243.667 410.202 239.534 409.5 235.371 409.5H212.262H194.222C191.64 409.5 189.065 409.77 186.539 410.306L164.428 415C157.452 417 143.202 421.2 142.006 422C140.978 422.688 133.007 426.871 127.518 429.727C125.884 430.577 124.316 431.543 122.825 432.623L116.096 437.5" stroke="#82C9D8" strokeWidth="7" strokeLinecap="round"/>
<path d="M1565.56 645.5L1560.22 662.138C1557.55 670.445 1552.04 677.542 1544.65 682.177L1540.43 684.826C1537.6 686.598 1534.52 687.928 1531.29 688.771L1525.06 690.396C1516.63 692.597 1507.68 689.743 1502.07 683.063V683.063C1497.78 677.952 1491.45 675 1484.78 675H1466.69C1461.57 675 1456.51 673.939 1451.82 671.883L1359.77 631.5L1308.87 603.83C1304.07 601.223 1302.5 595.088 1305.46 590.5V590.5M1305.46 590.5L1235.21 549L1199.45 521.639C1196.73 519.556 1194.31 517.106 1192.26 514.358L1166.62 479.942C1160.47 471.689 1151.17 466.37 1140.93 465.262L1073.48 457.954C1070.69 457.652 1067.95 457.035 1065.3 456.113L1054.84 452.47C1048.32 450.202 1042.57 446.158 1038.23 440.794L1019.04 417.061C1017.66 415.357 1016.13 413.779 1014.47 412.345L995.05 395.542C990.464 391.575 984.974 388.796 979.062 387.449L899.944 369.424C897.247 368.81 894.49 368.5 891.725 368.5H863.499M1305.46 590.5L1338.55 574.548C1342.01 572.878 1344.97 570.332 1347.15 567.161V567.161C1351.84 560.315 1352.28 551.413 1348.29 544.136L1346.31 540.523C1344.67 537.532 1343.58 534.272 1343.08 530.897L1339.97 509.73C1339.55 506.919 1338.82 504.166 1337.78 501.523L1331.05 484.494C1329.61 480.855 1328.76 477.01 1328.53 473.103L1327.16 450.016C1326.98 447.016 1326.44 444.05 1325.54 441.182L1309.37 389.4C1307.15 382.298 1302.84 376.031 1297.01 371.415L1280.05 358L1261.78 338.789C1260.03 336.95 1258.68 334.767 1257.82 332.379V332.379C1254.04 321.892 1241.84 317.19 1232 322.427L1223.61 326.89C1219.77 328.932 1215.49 330 1211.15 330H1192.19C1188.01 330 1183.87 329.293 1179.93 327.909L1178.97 327.575C1170.57 324.624 1161.39 324.802 1153.11 328.075L1133.06 336L1122.33 339.589C1118.55 340.855 1114.58 341.5 1110.6 341.5H1099.83C1091.79 341.5 1084.12 344.861 1078.67 350.77L1077.75 351.769C1075.78 353.902 1073.41 355.624 1070.77 356.837V356.837C1065.66 359.189 1059.84 359.491 1054.51 357.681L1036.21 351.466C1032.37 350.164 1028.35 349.5 1024.31 349.5H1011.49C1009.16 349.5 1006.85 349.718 1004.57 350.152L979.097 355L966.894 358.641C962.77 359.871 958.464 360.372 954.168 360.122L926.281 358.5M863.499 368.5L813.174 377L775.327 386.495C767.551 388.445 760.619 392.869 755.574 399.099L742.066 415.783C735.041 424.459 724.474 429.5 713.31 429.5H693.091L621.72 439.41C616.543 440.128 611.577 441.936 607.149 444.713L580.787 461.246C576.317 464.05 571.3 465.865 566.071 466.569L543.799 469.572C541.684 469.857 539.598 470.324 537.564 470.969L527.142 474.271C523.526 475.417 519.757 476 515.964 476H503.749C496.773 476 482.323 476 480.33 476C477.839 476 464.884 471.5 462.393 468.5C460.4 466.1 439.306 465.5 429.009 465.5C422.199 465.5 407.882 465.5 405.092 465.5C402.302 465.5 388.317 463.5 381.673 462.5L362.241 458.5L338.51 456.195C333.78 455.736 329.182 454.37 324.969 452.171L322.609 450.94C320.145 449.654 317.893 447.998 315.932 446.03V446.03C312.331 442.416 307.785 439.89 302.815 438.739L297.466 437.5M863.499 368.5L890.553 360.147C894.088 359.055 897.768 358.5 901.468 358.5H926.281M926.281 358.5L909.838 383.5L899.002 400.83C895.652 406.187 890.986 410.598 885.449 413.64L872.966 420.5L840.578 436L815.167 445.5L803.292 451.458C797.366 454.431 792.348 458.942 788.762 464.519L787.935 465.806C785.515 469.571 782.431 472.865 778.834 475.529L769.42 482.502C765.413 485.47 760.844 487.584 756.009 488.806C749.136 490.543 741.352 492.643 739.928 493.5C737.437 495 725.977 500 723.485 501.5C720.994 503 704.053 514 702.06 515C700.752 515.656 692.868 519.948 687.053 523.125C684.772 524.371 682.368 525.375 679.877 526.119L641.769 537.5C634.794 539.167 620.443 542.5 618.849 542.5C617.58 542.5 608.856 543.345 602.083 544.026C598.987 544.338 595.87 544.226 592.766 544.006C589.057 543.744 584.414 543.705 580.981 544.5C574.503 546 561.548 547 556.067 549.5C550.586 552 543.112 558.5 540.621 560.5C538.13 562.5 524.178 571 514.711 568C505.244 565 472.856 551 463.888 551.5C459.402 551.75 454.293 552.795 450.241 553.828C446.375 554.814 442.421 555.5 438.431 555.5H427.258C425.108 555.5 422.961 555.688 420.843 556.06L401.487 559.468C397.604 560.152 393.855 561.451 390.382 563.318L386.622 565.339C383.342 567.103 379.814 568.361 376.157 569.071L357.205 572.752C352.955 573.578 348.593 573.651 344.318 572.968L335.372 571.54C331.087 570.856 327.021 569.184 323.494 566.656V566.656C317.959 562.689 314.234 556.784 312.201 550.285C311.535 548.155 310.893 546.473 310.421 546C309.831 545.408 307.603 542.281 305.036 538.582C300.094 531.459 297.962 522.776 298.812 514.148C299.653 505.608 300.456 497.023 300.456 495.5C300.456 493.1 298.462 475.5 297.466 467C296.469 462.333 294.775 452.2 295.971 449C297.167 445.8 297.466 440 297.466 437.5M297.466 437.5L279.462 428.246C277.847 427.417 276.296 426.469 274.821 425.411L267.403 420.094C264.539 418.042 261.397 416.409 258.072 415.245L247.596 411.578C243.667 410.202 239.534 409.5 235.371 409.5H212.262H194.222C191.64 409.5 189.065 409.77 186.539 410.306L164.428 415C157.452 417 143.202 421.2 142.006 422C140.978 422.688 133.007 426.871 127.518 429.727C125.884 430.577 124.316 431.543 122.825 432.623L116.096 437.5" stroke="white" strokeWidth="5" strokeLinecap="round"/>
<path d="M119.645 425.767C117.758 424.674 115.431 424.674 113.544 425.767L107.978 428.992C106.1 430.08 104.944 432.086 104.944 434.257V440.743C104.944 442.914 106.1 444.92 107.978 446.008L113.544 449.233C115.431 450.326 117.758 450.326 119.645 449.233L125.211 446.008C127.089 444.92 128.245 442.914 128.245 440.743V434.257C128.245 432.086 127.089 430.08 125.211 428.992L119.645 425.767Z" fill="#B5D1D7"/>
<path d="M1183.95 317.767C1182.06 316.674 1179.73 316.674 1177.85 317.767L1172.28 320.992C1170.4 322.08 1169.25 324.086 1169.25 326.257V332.743C1169.25 334.914 1170.4 336.92 1172.28 338.008L1177.85 341.233C1179.73 342.326 1182.06 342.326 1183.95 341.233L1189.51 338.008C1191.39 336.92 1192.55 334.914 1192.55 332.743V326.257C1192.55 324.086 1191.39 322.08 1189.51 320.992L1183.95 317.767Z" fill="#B5D1D7"/>
<path d="M1330.39 432.743C1328.53 431.665 1326.24 431.665 1324.38 432.743L1318.73 436.016C1316.88 437.089 1315.74 439.068 1315.74 441.208V447.792C1315.74 449.932 1316.88 451.911 1318.73 452.984L1324.38 456.257C1326.24 457.335 1328.53 457.335 1330.39 456.257L1336.05 452.984C1337.9 451.911 1339.04 449.932 1339.04 447.792V441.208C1339.04 439.068 1337.9 437.089 1336.05 436.016L1330.39 432.743Z" fill="#B5D1D7"/>
<path d="M813.234 364.767C811.348 363.674 809.02 363.674 807.134 364.767L801.567 367.992C799.689 369.08 798.533 371.086 798.533 373.257V379.743C798.533 381.914 799.689 383.92 801.567 385.008L807.134 388.233C809.02 389.326 811.348 389.326 813.234 388.233L818.8 385.008C820.679 383.92 821.835 381.914 821.835 379.743V373.257C821.835 371.086 820.679 369.08 818.8 367.992L813.234 364.767Z" fill="#B5D1D7"/>
<path d="M544.169 456.767C542.283 455.674 539.955 455.674 538.069 456.767L532.502 459.992C530.624 461.08 529.468 463.086 529.468 465.257V471.743C529.468 473.914 530.624 475.92 532.502 477.008L538.069 480.233C539.955 481.326 542.283 481.326 544.169 480.233L549.736 477.008C551.614 475.92 552.77 473.914 552.77 471.743V465.257C552.77 463.086 551.614 461.08 549.736 459.992L544.169 456.767Z" fill="#B5D1D7"/>
<path d="M1500.25 547.584C1500.25 546.677 1500.43 545.883 1500.79 545.2C1501.17 544.507 1501.68 543.973 1502.33 543.6C1502.98 543.227 1503.73 543.04 1504.57 543.04C1505.63 543.04 1506.51 543.296 1507.21 543.808C1507.91 544.309 1508.39 545.029 1508.63 545.968H1506.66C1506.5 545.531 1506.25 545.189 1505.9 544.944C1505.54 544.699 1505.1 544.576 1504.57 544.576C1503.82 544.576 1503.22 544.843 1502.78 545.376C1502.34 545.899 1502.12 546.635 1502.12 547.584C1502.12 548.533 1502.34 549.275 1502.78 549.808C1503.22 550.341 1503.82 550.608 1504.57 550.608C1505.62 550.608 1506.32 550.144 1506.66 549.216H1508.63C1508.38 550.112 1507.9 550.827 1507.19 551.36C1506.49 551.883 1505.61 552.144 1504.57 552.144C1503.73 552.144 1502.98 551.957 1502.33 551.584C1501.68 551.2 1501.17 550.667 1500.79 549.984C1500.43 549.291 1500.25 548.491 1500.25 547.584ZM1512.27 540.16V552H1510.45V540.16H1512.27ZM1515.6 542.016C1515.27 542.016 1514.99 541.904 1514.76 541.68C1514.54 541.456 1514.43 541.179 1514.43 540.848C1514.43 540.517 1514.54 540.24 1514.76 540.016C1514.99 539.792 1515.27 539.68 1515.6 539.68C1515.92 539.68 1516.19 539.792 1516.41 540.016C1516.64 540.24 1516.75 540.517 1516.75 540.848C1516.75 541.179 1516.64 541.456 1516.41 541.68C1516.19 541.904 1515.92 542.016 1515.6 542.016ZM1516.49 543.184V552H1514.67V543.184H1516.49ZM1518.28 547.584C1518.28 546.677 1518.46 545.883 1518.82 545.2C1519.2 544.507 1519.71 543.973 1520.36 543.6C1521.01 543.227 1521.76 543.04 1522.6 543.04C1523.67 543.04 1524.55 543.296 1525.24 543.808C1525.94 544.309 1526.42 545.029 1526.66 545.968H1524.7C1524.54 545.531 1524.28 545.189 1523.93 544.944C1523.58 544.699 1523.13 544.576 1522.6 544.576C1521.85 544.576 1521.26 544.843 1520.81 545.376C1520.37 545.899 1520.15 546.635 1520.15 547.584C1520.15 548.533 1520.37 549.275 1520.81 549.808C1521.26 550.341 1521.85 550.608 1522.6 550.608C1523.66 550.608 1524.35 550.144 1524.7 549.216H1526.66C1526.41 550.112 1525.93 550.827 1525.22 551.36C1524.52 551.883 1523.64 552.144 1522.6 552.144C1521.76 552.144 1521.01 551.957 1520.36 551.584C1519.71 551.2 1519.2 550.667 1518.82 549.984C1518.46 549.291 1518.28 548.491 1518.28 547.584ZM1531.97 547.6L1536.03 552H1533.57L1530.31 548.208V552H1528.48V540.16H1530.31V547.04L1533.51 543.184H1536.03L1531.97 547.6ZM1546.06 543.04C1546.73 543.04 1547.33 543.184 1547.85 543.472C1548.38 543.76 1548.8 544.187 1549.1 544.752C1549.41 545.317 1549.56 546 1549.56 546.8V552H1547.75V547.072C1547.75 546.283 1547.56 545.68 1547.16 545.264C1546.77 544.837 1546.23 544.624 1545.54 544.624C1544.86 544.624 1544.32 544.837 1543.91 545.264C1543.52 545.68 1543.32 546.283 1543.32 547.072V552H1541.5V540.16H1543.32V544.208C1543.63 543.835 1544.02 543.547 1544.49 543.344C1544.97 543.141 1545.49 543.04 1546.06 543.04ZM1559.97 547.376C1559.97 547.707 1559.95 548.005 1559.9 548.272H1553.17C1553.22 548.976 1553.48 549.541 1553.95 549.968C1554.42 550.395 1555 550.608 1555.68 550.608C1556.66 550.608 1557.35 550.197 1557.76 549.376H1559.73C1559.46 550.187 1558.98 550.853 1558.27 551.376C1557.58 551.888 1556.71 552.144 1555.68 552.144C1554.84 552.144 1554.08 551.957 1553.41 551.584C1552.75 551.2 1552.22 550.667 1551.84 549.984C1551.47 549.291 1551.28 548.491 1551.28 547.584C1551.28 546.677 1551.46 545.883 1551.82 545.2C1552.2 544.507 1552.71 543.973 1553.38 543.6C1554.05 543.227 1554.82 543.04 1555.68 543.04C1556.51 543.04 1557.25 543.221 1557.9 543.584C1558.55 543.947 1559.06 544.459 1559.42 545.12C1559.79 545.771 1559.97 546.523 1559.97 547.376ZM1558.06 546.8C1558.05 546.128 1557.81 545.589 1557.34 545.184C1556.87 544.779 1556.29 544.576 1555.6 544.576C1554.97 544.576 1554.43 544.779 1553.98 545.184C1553.54 545.579 1553.27 546.117 1553.18 546.8H1558.06ZM1563.59 544.464C1563.85 544.016 1564.21 543.669 1564.64 543.424C1565.09 543.168 1565.62 543.04 1566.23 543.04V544.928H1565.76C1565.05 544.928 1564.5 545.109 1564.13 545.472C1563.77 545.835 1563.59 546.464 1563.59 547.36V552H1561.76V543.184H1563.59V544.464ZM1575.98 547.376C1575.98 547.707 1575.96 548.005 1575.92 548.272H1569.18C1569.24 548.976 1569.5 549.541 1569.97 549.968C1570.44 550.395 1571.01 550.608 1571.7 550.608C1572.68 550.608 1573.37 550.197 1573.78 549.376H1575.74C1575.48 550.187 1574.99 550.853 1574.29 551.376C1573.59 551.888 1572.73 552.144 1571.7 552.144C1570.85 552.144 1570.1 551.957 1569.42 551.584C1568.76 551.2 1568.24 550.667 1567.86 549.984C1567.48 549.291 1567.3 548.491 1567.3 547.584C1567.3 546.677 1567.48 545.883 1567.84 545.2C1568.21 544.507 1568.73 543.973 1569.39 543.6C1570.06 543.227 1570.83 543.04 1571.7 543.04C1572.53 543.04 1573.27 543.221 1573.92 543.584C1574.57 543.947 1575.08 544.459 1575.44 545.12C1575.8 545.771 1575.98 546.523 1575.98 547.376ZM1574.08 546.8C1574.07 546.128 1573.83 545.589 1573.36 545.184C1572.89 544.779 1572.31 544.576 1571.62 544.576C1570.99 544.576 1570.45 544.779 1570 545.184C1569.55 545.579 1569.28 546.117 1569.2 546.8H1574.08ZM1584.06 544.672V549.552C1584.06 549.883 1584.14 550.123 1584.29 550.272C1584.45 550.411 1584.71 550.48 1585.09 550.48H1586.21V552H1584.77C1583.94 552 1583.32 551.808 1582.88 551.424C1582.44 551.04 1582.22 550.416 1582.22 549.552V544.672H1581.18V543.184H1582.22V540.992H1584.06V543.184H1586.21V544.672H1584.06ZM1591.71 552.144C1590.88 552.144 1590.13 551.957 1589.46 551.584C1588.78 551.2 1588.26 550.667 1587.87 549.984C1587.49 549.291 1587.3 548.491 1587.3 547.584C1587.3 546.688 1587.49 545.893 1587.89 545.2C1588.28 544.507 1588.82 543.973 1589.5 543.6C1590.19 543.227 1590.95 543.04 1591.79 543.04C1592.63 543.04 1593.4 543.227 1594.08 543.6C1594.76 543.973 1595.3 544.507 1595.7 545.2C1596.09 545.893 1596.29 546.688 1596.29 547.584C1596.29 548.48 1596.08 549.275 1595.68 549.968C1595.27 550.661 1594.72 551.2 1594.02 551.584C1593.32 551.957 1592.55 552.144 1591.71 552.144ZM1591.71 550.56C1592.18 550.56 1592.62 550.448 1593.02 550.224C1593.44 550 1593.78 549.664 1594.03 549.216C1594.29 548.768 1594.42 548.224 1594.42 547.584C1594.42 546.944 1594.29 546.405 1594.05 545.968C1593.8 545.52 1593.48 545.184 1593.07 544.96C1592.67 544.736 1592.23 544.624 1591.76 544.624C1591.29 544.624 1590.85 544.736 1590.45 544.96C1590.05 545.184 1589.74 545.52 1589.5 545.968C1589.27 546.405 1589.15 546.944 1589.15 547.584C1589.15 548.533 1589.39 549.269 1589.87 549.792C1590.36 550.304 1590.98 550.56 1591.71 550.56ZM1605.45 552.144C1604.75 552.144 1604.13 552.021 1603.57 551.776C1603.03 551.52 1602.6 551.179 1602.28 550.752C1601.96 550.315 1601.79 549.829 1601.77 549.296H1603.65C1603.69 549.669 1603.86 549.984 1604.18 550.24C1604.51 550.485 1604.92 550.608 1605.41 550.608C1605.93 550.608 1606.32 550.512 1606.6 550.32C1606.89 550.117 1607.03 549.861 1607.03 549.552C1607.03 549.221 1606.87 548.976 1606.55 548.816C1606.24 548.656 1605.75 548.48 1605.06 548.288C1604.4 548.107 1603.86 547.931 1603.45 547.76C1603.03 547.589 1602.67 547.328 1602.36 546.976C1602.06 546.624 1601.91 546.16 1601.91 545.584C1601.91 545.115 1602.05 544.688 1602.33 544.304C1602.6 543.909 1603 543.6 1603.51 543.376C1604.03 543.152 1604.63 543.04 1605.3 543.04C1606.31 543.04 1607.11 543.296 1607.72 543.808C1608.34 544.309 1608.67 544.997 1608.71 545.872H1606.89C1606.85 545.477 1606.69 545.163 1606.41 544.928C1606.12 544.693 1605.73 544.576 1605.24 544.576C1604.76 544.576 1604.39 544.667 1604.13 544.848C1603.88 545.029 1603.75 545.269 1603.75 545.568C1603.75 545.803 1603.84 546 1604.01 546.16C1604.18 546.32 1604.39 546.448 1604.63 546.544C1604.88 546.629 1605.24 546.741 1605.72 546.88C1606.36 547.051 1606.88 547.227 1607.29 547.408C1607.7 547.579 1608.06 547.835 1608.36 548.176C1608.66 548.517 1608.81 548.971 1608.82 549.536C1608.82 550.037 1608.68 550.485 1608.41 550.88C1608.13 551.275 1607.73 551.584 1607.22 551.808C1606.72 552.032 1606.13 552.144 1605.45 552.144ZM1618.87 547.376C1618.87 547.707 1618.85 548.005 1618.81 548.272H1612.07C1612.13 548.976 1612.39 549.541 1612.86 549.968C1613.33 550.395 1613.9 550.608 1614.59 550.608C1615.57 550.608 1616.26 550.197 1616.67 549.376H1618.63C1618.37 550.187 1617.88 550.853 1617.18 551.376C1616.48 551.888 1615.62 552.144 1614.59 552.144C1613.74 552.144 1612.99 551.957 1612.31 551.584C1611.65 551.2 1611.13 550.667 1610.75 549.984C1610.37 549.291 1610.19 548.491 1610.19 547.584C1610.19 546.677 1610.37 545.883 1610.73 545.2C1611.1 544.507 1611.62 543.973 1612.28 543.6C1612.95 543.227 1613.72 543.04 1614.59 543.04C1615.42 543.04 1616.16 543.221 1616.81 543.584C1617.46 543.947 1617.97 544.459 1618.33 545.12C1618.69 545.771 1618.87 546.523 1618.87 547.376ZM1616.97 546.8C1616.96 546.128 1616.72 545.589 1616.25 545.184C1615.78 544.779 1615.2 544.576 1614.51 544.576C1613.88 544.576 1613.34 544.779 1612.89 545.184C1612.44 545.579 1612.18 546.117 1612.09 546.8H1616.97ZM1628.75 547.376C1628.75 547.707 1628.73 548.005 1628.68 548.272H1621.95C1622 548.976 1622.26 549.541 1622.73 549.968C1623.2 550.395 1623.78 550.608 1624.46 550.608C1625.44 550.608 1626.14 550.197 1626.54 549.376H1628.51C1628.24 550.187 1627.76 550.853 1627.05 551.376C1626.36 551.888 1625.5 552.144 1624.46 552.144C1623.62 552.144 1622.86 551.957 1622.19 551.584C1621.53 551.2 1621 550.667 1620.62 549.984C1620.25 549.291 1620.06 548.491 1620.06 547.584C1620.06 546.677 1620.24 545.883 1620.6 545.2C1620.98 544.507 1621.5 543.973 1622.16 543.6C1622.83 543.227 1623.6 543.04 1624.46 543.04C1625.29 543.04 1626.03 543.221 1626.68 543.584C1627.34 543.947 1627.84 544.459 1628.2 545.12C1628.57 545.771 1628.75 546.523 1628.75 547.376ZM1626.84 546.8C1626.83 546.128 1626.59 545.589 1626.12 545.184C1625.66 544.779 1625.07 544.576 1624.38 544.576C1623.75 544.576 1623.21 544.779 1622.76 545.184C1622.32 545.579 1622.05 546.117 1621.96 546.8H1626.84ZM1530.44 564.16V576H1528.61V564.16H1530.44ZM1536.66 576.144C1535.82 576.144 1535.07 575.957 1534.4 575.584C1533.73 575.2 1533.2 574.667 1532.82 573.984C1532.43 573.291 1532.24 572.491 1532.24 571.584C1532.24 570.688 1532.44 569.893 1532.83 569.2C1533.23 568.507 1533.77 567.973 1534.45 567.6C1535.13 567.227 1535.89 567.04 1536.74 567.04C1537.58 567.04 1538.34 567.227 1539.02 567.6C1539.71 567.973 1540.25 568.507 1540.64 569.2C1541.04 569.893 1541.23 570.688 1541.23 571.584C1541.23 572.48 1541.03 573.275 1540.62 573.968C1540.22 574.661 1539.66 575.2 1538.96 575.584C1538.27 575.957 1537.5 576.144 1536.66 576.144ZM1536.66 574.56C1537.13 574.56 1537.56 574.448 1537.97 574.224C1538.38 574 1538.72 573.664 1538.98 573.216C1539.23 572.768 1539.36 572.224 1539.36 571.584C1539.36 570.944 1539.24 570.405 1538.99 569.968C1538.75 569.52 1538.42 569.184 1538.02 568.96C1537.61 568.736 1537.17 568.624 1536.7 568.624C1536.24 568.624 1535.8 568.736 1535.39 568.96C1535 569.184 1534.68 569.52 1534.45 569.968C1534.21 570.405 1534.1 570.944 1534.1 571.584C1534.1 572.533 1534.34 573.269 1534.82 573.792C1535.31 574.304 1535.92 574.56 1536.66 574.56ZM1542.43 571.584C1542.43 570.677 1542.61 569.883 1542.97 569.2C1543.35 568.507 1543.86 567.973 1544.51 567.6C1545.16 567.227 1545.91 567.04 1546.75 567.04C1547.81 567.04 1548.69 567.296 1549.39 567.808C1550.09 568.309 1550.57 569.029 1550.81 569.968H1548.84C1548.68 569.531 1548.43 569.189 1548.08 568.944C1547.72 568.699 1547.28 568.576 1546.75 568.576C1546 568.576 1545.4 568.843 1544.96 569.376C1544.52 569.899 1544.3 570.635 1544.3 571.584C1544.3 572.533 1544.52 573.275 1544.96 573.808C1545.4 574.341 1546 574.608 1546.75 574.608C1547.8 574.608 1548.5 574.144 1548.84 573.216H1550.81C1550.56 574.112 1550.08 574.827 1549.37 575.36C1548.67 575.883 1547.79 576.144 1546.75 576.144C1545.91 576.144 1545.16 575.957 1544.51 575.584C1543.86 575.2 1543.35 574.667 1542.97 573.984C1542.61 573.291 1542.43 572.491 1542.43 571.584ZM1552.02 571.552C1552.02 570.667 1552.2 569.883 1552.57 569.2C1552.94 568.517 1553.44 567.989 1554.07 567.616C1554.71 567.232 1555.41 567.04 1556.18 567.04C1556.87 567.04 1557.48 567.179 1557.99 567.456C1558.51 567.723 1558.93 568.059 1559.24 568.464V567.184H1561.08V576H1559.24V574.688C1558.93 575.104 1558.51 575.451 1557.97 575.728C1557.44 576.005 1556.83 576.144 1556.15 576.144C1555.39 576.144 1554.7 575.952 1554.07 575.568C1553.44 575.173 1552.94 574.629 1552.57 573.936C1552.2 573.232 1552.02 572.437 1552.02 571.552ZM1559.24 571.584C1559.24 570.976 1559.11 570.448 1558.85 570C1558.61 569.552 1558.28 569.211 1557.88 568.976C1557.47 568.741 1557.03 568.624 1556.57 568.624C1556.1 568.624 1555.66 568.741 1555.25 568.976C1554.85 569.2 1554.52 569.536 1554.26 569.984C1554.02 570.421 1553.89 570.944 1553.89 571.552C1553.89 572.16 1554.02 572.693 1554.26 573.152C1554.52 573.611 1554.85 573.963 1555.25 574.208C1555.67 574.443 1556.11 574.56 1556.57 574.56C1557.03 574.56 1557.47 574.443 1557.88 574.208C1558.28 573.973 1558.61 573.632 1558.85 573.184C1559.11 572.725 1559.24 572.192 1559.24 571.584ZM1565.6 568.672V573.552C1565.6 573.883 1565.68 574.123 1565.83 574.272C1565.99 574.411 1566.25 574.48 1566.63 574.48H1567.75V576H1566.31C1565.48 576 1564.85 575.808 1564.42 575.424C1563.98 575.04 1563.76 574.416 1563.76 573.552V568.672H1562.72V567.184H1563.76V564.992H1565.6V567.184H1567.75V568.672H1565.6ZM1570.35 566.016C1570.02 566.016 1569.75 565.904 1569.52 565.68C1569.3 565.456 1569.19 565.179 1569.19 564.848C1569.19 564.517 1569.3 564.24 1569.52 564.016C1569.75 563.792 1570.02 563.68 1570.35 563.68C1570.67 563.68 1570.95 563.792 1571.17 564.016C1571.39 564.24 1571.51 564.517 1571.51 564.848C1571.51 565.179 1571.39 565.456 1571.17 565.68C1570.95 565.904 1570.67 566.016 1570.35 566.016ZM1571.25 567.184V576H1569.43V567.184H1571.25ZM1577.47 576.144C1576.64 576.144 1575.89 575.957 1575.21 575.584C1574.54 575.2 1574.01 574.667 1573.63 573.984C1573.25 573.291 1573.05 572.491 1573.05 571.584C1573.05 570.688 1573.25 569.893 1573.65 569.2C1574.04 568.507 1574.58 567.973 1575.26 567.6C1575.94 567.227 1576.71 567.04 1577.55 567.04C1578.39 567.04 1579.15 567.227 1579.84 567.6C1580.52 567.973 1581.06 568.507 1581.45 569.2C1581.85 569.893 1582.05 570.688 1582.05 571.584C1582.05 572.48 1581.84 573.275 1581.44 573.968C1581.03 574.661 1580.48 575.2 1579.77 575.584C1579.08 575.957 1578.31 576.144 1577.47 576.144ZM1577.47 574.56C1577.94 574.56 1578.38 574.448 1578.78 574.224C1579.2 574 1579.53 573.664 1579.79 573.216C1580.05 572.768 1580.17 572.224 1580.17 571.584C1580.17 570.944 1580.05 570.405 1579.81 569.968C1579.56 569.52 1579.23 569.184 1578.83 568.96C1578.42 568.736 1577.99 568.624 1577.52 568.624C1577.05 568.624 1576.61 568.736 1576.21 568.96C1575.81 569.184 1575.5 569.52 1575.26 569.968C1575.03 570.405 1574.91 570.944 1574.91 571.584C1574.91 572.533 1575.15 573.269 1575.63 573.792C1576.12 574.304 1576.73 574.56 1577.47 574.56ZM1588.3 567.04C1588.99 567.04 1589.61 567.184 1590.15 567.472C1590.71 567.76 1591.14 568.187 1591.45 568.752C1591.76 569.317 1591.91 570 1591.91 570.8V576H1590.1V571.072C1590.1 570.283 1589.91 569.68 1589.51 569.264C1589.12 568.837 1588.58 568.624 1587.9 568.624C1587.21 568.624 1586.67 568.837 1586.26 569.264C1585.87 569.68 1585.67 570.283 1585.67 571.072V576H1583.85V567.184H1585.67V568.192C1585.97 567.829 1586.35 567.547 1586.81 567.344C1587.28 567.141 1587.77 567.04 1588.3 567.04ZM1597.44 576.144C1596.75 576.144 1596.12 576.021 1595.57 575.776C1595.02 575.52 1594.59 575.179 1594.27 574.752C1593.95 574.315 1593.78 573.829 1593.76 573.296H1595.65C1595.68 573.669 1595.86 573.984 1596.18 574.24C1596.51 574.485 1596.92 574.608 1597.41 574.608C1597.92 574.608 1598.31 574.512 1598.59 574.32C1598.88 574.117 1599.02 573.861 1599.02 573.552C1599.02 573.221 1598.86 572.976 1598.54 572.816C1598.23 572.656 1597.74 572.48 1597.06 572.288C1596.39 572.107 1595.86 571.931 1595.44 571.76C1595.02 571.589 1594.66 571.328 1594.35 570.976C1594.05 570.624 1593.9 570.16 1593.9 569.584C1593.9 569.115 1594.04 568.688 1594.32 568.304C1594.6 567.909 1594.99 567.6 1595.5 567.376C1596.03 567.152 1596.62 567.04 1597.3 567.04C1598.3 567.04 1599.1 567.296 1599.71 567.808C1600.33 568.309 1600.66 568.997 1600.7 569.872H1598.88C1598.85 569.477 1598.69 569.163 1598.4 568.928C1598.11 568.693 1597.72 568.576 1597.23 568.576C1596.75 568.576 1596.38 568.667 1596.13 568.848C1595.87 569.029 1595.74 569.269 1595.74 569.568C1595.74 569.803 1595.83 570 1596 570.16C1596.17 570.32 1596.38 570.448 1596.62 570.544C1596.87 570.629 1597.23 570.741 1597.71 570.88C1598.35 571.051 1598.87 571.227 1599.28 571.408C1599.7 571.579 1600.05 571.835 1600.35 572.176C1600.65 572.517 1600.8 572.971 1600.82 573.536C1600.82 574.037 1600.68 574.485 1600.4 574.88C1600.12 575.275 1599.73 575.584 1599.22 575.808C1598.71 576.032 1598.12 576.144 1597.44 576.144Z" fill="#777777" fill-opacity="0.75"/>
<path d="M1568.29 626.811C1565.94 625.456 1563.06 625.456 1560.71 626.811L1548.93 633.626C1546.59 634.979 1545.15 637.475 1545.15 640.175V653.828C1545.15 656.529 1546.59 659.025 1548.93 660.377L1560.71 667.192C1563.06 668.547 1565.94 668.547 1568.29 667.192L1580.07 660.377C1582.41 659.025 1583.85 656.529 1583.85 653.828V640.175C1583.85 637.475 1582.41 634.979 1580.07 633.626L1568.29 626.811Z" fill="#E48C36"/>
<path d="M1470.96 720.04V722.3H1467.24V734H1464.44V722.3H1460.72V720.04H1470.96ZM1479.24 722.76C1480.08 722.76 1480.83 722.947 1481.48 723.32C1482.13 723.68 1482.64 724.22 1483 724.94C1483.37 725.647 1483.56 726.5 1483.56 727.5V734H1480.76V727.88C1480.76 727 1480.54 726.327 1480.1 725.86C1479.66 725.38 1479.06 725.14 1478.3 725.14C1477.53 725.14 1476.91 725.38 1476.46 725.86C1476.02 726.327 1475.8 727 1475.8 727.88V734H1473V719.2H1475.8V724.3C1476.16 723.82 1476.64 723.447 1477.24 723.18C1477.84 722.9 1478.51 722.76 1479.24 722.76ZM1496.52 728.22C1496.52 728.62 1496.5 728.98 1496.44 729.3H1488.34C1488.41 730.1 1488.69 730.727 1489.18 731.18C1489.68 731.633 1490.28 731.86 1491 731.86C1492.04 731.86 1492.78 731.413 1493.22 730.52H1496.24C1495.92 731.587 1495.31 732.467 1494.4 733.16C1493.5 733.84 1492.38 734.18 1491.06 734.18C1490 734.18 1489.04 733.947 1488.18 733.48C1487.34 733 1486.68 732.327 1486.2 731.46C1485.74 730.593 1485.5 729.593 1485.5 728.46C1485.5 727.313 1485.74 726.307 1486.2 725.44C1486.67 724.573 1487.32 723.907 1488.16 723.44C1489 722.973 1489.97 722.74 1491.06 722.74C1492.12 722.74 1493.06 722.967 1493.88 723.42C1494.72 723.873 1495.37 724.52 1495.82 725.36C1496.29 726.187 1496.52 727.14 1496.52 728.22ZM1493.62 727.42C1493.61 726.7 1493.35 726.127 1492.84 725.7C1492.34 725.26 1491.72 725.04 1490.98 725.04C1490.29 725.04 1489.7 725.253 1489.22 725.68C1488.76 726.093 1488.47 726.673 1488.36 727.42H1493.62ZM1508.15 734.14C1507.18 734.14 1506.3 733.973 1505.51 733.64C1504.74 733.307 1504.12 732.827 1503.67 732.2C1503.22 731.573 1502.98 730.833 1502.97 729.98H1505.97C1506.01 730.553 1506.21 731.007 1506.57 731.34C1506.94 731.673 1507.45 731.84 1508.09 731.84C1508.74 731.84 1509.26 731.687 1509.63 731.38C1510 731.06 1510.19 730.647 1510.19 730.14C1510.19 729.727 1510.06 729.387 1509.81 729.12C1509.56 728.853 1509.24 728.647 1508.85 728.5C1508.48 728.34 1507.96 728.167 1507.29 727.98C1506.38 727.713 1505.64 727.453 1505.07 727.2C1504.51 726.933 1504.02 726.54 1503.61 726.02C1503.21 725.487 1503.01 724.78 1503.01 723.9C1503.01 723.073 1503.22 722.353 1503.63 721.74C1504.04 721.127 1504.62 720.66 1505.37 720.34C1506.12 720.007 1506.97 719.84 1507.93 719.84C1509.37 719.84 1510.54 720.193 1511.43 720.9C1512.34 721.593 1512.84 722.567 1512.93 723.82H1509.85C1509.82 723.34 1509.62 722.947 1509.23 722.64C1508.86 722.32 1508.36 722.16 1507.73 722.16C1507.18 722.16 1506.74 722.3 1506.41 722.58C1506.09 722.86 1505.93 723.267 1505.93 723.8C1505.93 724.173 1506.05 724.487 1506.29 724.74C1506.54 724.98 1506.85 725.18 1507.21 725.34C1507.58 725.487 1508.1 725.66 1508.77 725.86C1509.68 726.127 1510.42 726.393 1510.99 726.66C1511.56 726.927 1512.06 727.327 1512.47 727.86C1512.88 728.393 1513.09 729.093 1513.09 729.96C1513.09 730.707 1512.9 731.4 1512.51 732.04C1512.12 732.68 1511.56 733.193 1510.81 733.58C1510.06 733.953 1509.18 734.14 1508.15 734.14ZM1525.98 722.92V734H1523.16V732.6C1522.8 733.08 1522.33 733.46 1521.74 733.74C1521.17 734.007 1520.54 734.14 1519.86 734.14C1518.99 734.14 1518.23 733.96 1517.56 733.6C1516.89 733.227 1516.37 732.687 1515.98 731.98C1515.61 731.26 1515.42 730.407 1515.42 729.42V722.92H1518.22V729.02C1518.22 729.9 1518.44 730.58 1518.88 731.06C1519.32 731.527 1519.92 731.76 1520.68 731.76C1521.45 731.76 1522.06 731.527 1522.5 731.06C1522.94 730.58 1523.16 729.9 1523.16 729.02V722.92H1525.98ZM1532.98 734.18C1532.07 734.18 1531.26 734.02 1530.54 733.7C1529.82 733.367 1529.25 732.92 1528.82 732.36C1528.41 731.8 1528.18 731.18 1528.14 730.5H1530.96C1531.01 730.927 1531.22 731.28 1531.58 731.56C1531.95 731.84 1532.41 731.98 1532.96 731.98C1533.49 731.98 1533.91 731.873 1534.2 731.66C1534.51 731.447 1534.66 731.173 1534.66 730.84C1534.66 730.48 1534.47 730.213 1534.1 730.04C1533.74 729.853 1533.16 729.653 1532.36 729.44C1531.53 729.24 1530.85 729.033 1530.32 728.82C1529.8 728.607 1529.35 728.28 1528.96 727.84C1528.59 727.4 1528.4 726.807 1528.4 726.06C1528.4 725.447 1528.57 724.887 1528.92 724.38C1529.28 723.873 1529.79 723.473 1530.44 723.18C1531.11 722.887 1531.89 722.74 1532.78 722.74C1534.1 722.74 1535.15 723.073 1535.94 723.74C1536.73 724.393 1537.16 725.28 1537.24 726.4H1534.56C1534.52 725.96 1534.33 725.613 1534 725.36C1533.68 725.093 1533.25 724.96 1532.7 724.96C1532.19 724.96 1531.8 725.053 1531.52 725.24C1531.25 725.427 1531.12 725.687 1531.12 726.02C1531.12 726.393 1531.31 726.68 1531.68 726.88C1532.05 727.067 1532.63 727.26 1533.42 727.46C1534.22 727.66 1534.88 727.867 1535.4 728.08C1535.92 728.293 1536.37 728.627 1536.74 729.08C1537.13 729.52 1537.33 730.107 1537.34 730.84C1537.34 731.48 1537.16 732.053 1536.8 732.56C1536.45 733.067 1535.95 733.467 1535.28 733.76C1534.63 734.04 1533.86 734.18 1532.98 734.18ZM1542.9 725.22V730.58C1542.9 730.953 1542.99 731.227 1543.16 731.4C1543.35 731.56 1543.65 731.64 1544.08 731.64H1545.38V734H1543.62C1541.26 734 1540.08 732.853 1540.08 730.56V725.22H1538.76V722.92H1540.08V720.18H1542.9V722.92H1545.38V725.22H1542.9ZM1546.67 728.42C1546.67 727.3 1546.89 726.307 1547.33 725.44C1547.79 724.573 1548.39 723.907 1549.15 723.44C1549.93 722.973 1550.79 722.74 1551.73 722.74C1552.56 722.74 1553.28 722.907 1553.89 723.24C1554.52 723.573 1555.02 723.993 1555.39 724.5V722.92H1558.21V734H1555.39V732.38C1555.03 732.9 1554.53 733.333 1553.89 733.68C1553.27 734.013 1552.54 734.18 1551.71 734.18C1550.78 734.18 1549.93 733.94 1549.15 733.46C1548.39 732.98 1547.79 732.307 1547.33 731.44C1546.89 730.56 1546.67 729.553 1546.67 728.42ZM1555.39 728.46C1555.39 727.78 1555.26 727.2 1554.99 726.72C1554.73 726.227 1554.37 725.853 1553.91 725.6C1553.46 725.333 1552.97 725.2 1552.45 725.2C1551.93 725.2 1551.45 725.327 1551.01 725.58C1550.57 725.833 1550.21 726.207 1549.93 726.7C1549.67 727.18 1549.53 727.753 1549.53 728.42C1549.53 729.087 1549.67 729.673 1549.93 730.18C1550.21 730.673 1550.57 731.053 1551.01 731.32C1551.47 731.587 1551.95 731.72 1552.45 731.72C1552.97 731.72 1553.46 731.593 1553.91 731.34C1554.37 731.073 1554.73 730.7 1554.99 730.22C1555.26 729.727 1555.39 729.14 1555.39 728.46ZM1562.37 721.6C1561.88 721.6 1561.46 721.447 1561.13 721.14C1560.81 720.82 1560.65 720.427 1560.65 719.96C1560.65 719.493 1560.81 719.107 1561.13 718.8C1561.46 718.48 1561.88 718.32 1562.37 718.32C1562.86 718.32 1563.27 718.48 1563.59 718.8C1563.92 719.107 1564.09 719.493 1564.09 719.96C1564.09 720.427 1563.92 720.82 1563.59 721.14C1563.27 721.447 1562.86 721.6 1562.37 721.6ZM1563.75 722.92V734H1560.95V722.92H1563.75ZM1572.65 722.76C1573.97 722.76 1575.04 723.18 1575.85 724.02C1576.67 724.847 1577.07 726.007 1577.07 727.5V734H1574.27V727.88C1574.27 727 1574.05 726.327 1573.61 725.86C1573.17 725.38 1572.57 725.14 1571.81 725.14C1571.04 725.14 1570.43 725.38 1569.97 725.86C1569.53 726.327 1569.31 727 1569.31 727.88V734H1566.51V722.92H1569.31V724.3C1569.69 723.82 1570.16 723.447 1570.73 723.18C1571.32 722.9 1571.96 722.76 1572.65 722.76ZM1579.02 728.42C1579.02 727.3 1579.24 726.307 1579.68 725.44C1580.13 724.573 1580.74 723.907 1581.5 723.44C1582.27 722.973 1583.13 722.74 1584.08 722.74C1584.9 722.74 1585.62 722.907 1586.24 723.24C1586.86 723.573 1587.36 723.993 1587.74 724.5V722.92H1590.56V734H1587.74V732.38C1587.38 732.9 1586.88 733.333 1586.24 733.68C1585.61 734.013 1584.88 734.18 1584.06 734.18C1583.12 734.18 1582.27 733.94 1581.5 733.46C1580.74 732.98 1580.13 732.307 1579.68 731.44C1579.24 730.56 1579.02 729.553 1579.02 728.42ZM1587.74 728.46C1587.74 727.78 1587.6 727.2 1587.34 726.72C1587.07 726.227 1586.71 725.853 1586.26 725.6C1585.8 725.333 1585.32 725.2 1584.8 725.2C1584.28 725.2 1583.8 725.327 1583.36 725.58C1582.92 725.833 1582.56 726.207 1582.28 726.7C1582.01 727.18 1581.88 727.753 1581.88 728.42C1581.88 729.087 1582.01 729.673 1582.28 730.18C1582.56 730.673 1582.92 731.053 1583.36 731.32C1583.81 731.587 1584.29 731.72 1584.8 731.72C1585.32 731.72 1585.8 731.593 1586.26 731.34C1586.71 731.073 1587.07 730.7 1587.34 730.22C1587.6 729.727 1587.74 729.14 1587.74 728.46ZM1596.09 724.54C1596.45 724.007 1596.95 723.573 1597.57 723.24C1598.21 722.907 1598.94 722.74 1599.75 722.74C1600.7 722.74 1601.55 722.973 1602.31 723.44C1603.09 723.907 1603.69 724.573 1604.13 725.44C1604.59 726.293 1604.81 727.287 1604.81 728.42C1604.81 729.553 1604.59 730.56 1604.13 731.44C1603.69 732.307 1603.09 732.98 1602.31 733.46C1601.55 733.94 1600.7 734.18 1599.75 734.18C1598.93 734.18 1598.2 734.02 1597.57 733.7C1596.96 733.367 1596.47 732.94 1596.09 732.42V734H1593.29V719.2H1596.09V724.54ZM1601.95 728.42C1601.95 727.753 1601.81 727.18 1601.53 726.7C1601.27 726.207 1600.91 725.833 1600.45 725.58C1600.01 725.327 1599.53 725.2 1599.01 725.2C1598.51 725.2 1598.03 725.333 1597.57 725.6C1597.13 725.853 1596.77 726.227 1596.49 726.72C1596.23 727.213 1596.09 727.793 1596.09 728.46C1596.09 729.127 1596.23 729.707 1596.49 730.2C1596.77 730.693 1597.13 731.073 1597.57 731.34C1598.03 731.593 1598.51 731.72 1599.01 731.72C1599.53 731.72 1600.01 731.587 1600.45 731.32C1600.91 731.053 1601.27 730.673 1601.53 730.18C1601.81 729.687 1601.95 729.1 1601.95 728.42ZM1609.65 719.2V734H1606.85V719.2H1609.65ZM1622.71 728.22C1622.71 728.62 1622.69 728.98 1622.63 729.3H1614.53C1614.6 730.1 1614.88 730.727 1615.37 731.18C1615.87 731.633 1616.47 731.86 1617.19 731.86C1618.23 731.86 1618.97 731.413 1619.41 730.52H1622.43C1622.11 731.587 1621.5 732.467 1620.59 733.16C1619.69 733.84 1618.57 734.18 1617.25 734.18C1616.19 734.18 1615.23 733.947 1614.37 733.48C1613.53 733 1612.87 732.327 1612.39 731.46C1611.93 730.593 1611.69 729.593 1611.69 728.46C1611.69 727.313 1611.93 726.307 1612.39 725.44C1612.86 724.573 1613.51 723.907 1614.35 723.44C1615.19 722.973 1616.16 722.74 1617.25 722.74C1618.31 722.74 1619.25 722.967 1620.07 723.42C1620.91 723.873 1621.56 724.52 1622.01 725.36C1622.48 726.187 1622.71 727.14 1622.71 728.22ZM1619.81 727.42C1619.8 726.7 1619.54 726.127 1619.03 725.7C1618.53 725.26 1617.91 725.04 1617.17 725.04C1616.48 725.04 1615.89 725.253 1615.41 725.68C1614.95 726.093 1614.66 726.673 1614.55 727.42H1619.81ZM1628.84 727C1628.84 725.627 1629.15 724.4 1629.76 723.32C1630.39 722.227 1631.24 721.38 1632.3 720.78C1633.38 720.167 1634.59 719.86 1635.92 719.86C1637.48 719.86 1638.85 720.26 1640.02 721.06C1641.2 721.86 1642.02 722.967 1642.48 724.38H1639.26C1638.94 723.713 1638.49 723.213 1637.9 722.88C1637.33 722.547 1636.66 722.38 1635.9 722.38C1635.09 722.38 1634.36 722.573 1633.72 722.96C1633.1 723.333 1632.6 723.867 1632.24 724.56C1631.9 725.253 1631.72 726.067 1631.72 727C1631.72 727.92 1631.9 728.733 1632.24 729.44C1632.6 730.133 1633.1 730.673 1633.72 731.06C1634.36 731.433 1635.09 731.62 1635.9 731.62C1636.66 731.62 1637.33 731.453 1637.9 731.12C1638.49 730.773 1638.94 730.267 1639.26 729.6H1642.48C1642.02 731.027 1641.2 732.14 1640.02 732.94C1638.86 733.727 1637.5 734.12 1635.92 734.12C1634.59 734.12 1633.38 733.82 1632.3 733.22C1631.24 732.607 1630.39 731.76 1629.76 730.68C1629.15 729.6 1628.84 728.373 1628.84 727ZM1646.29 721.6C1645.8 721.6 1645.39 721.447 1645.05 721.14C1644.73 720.82 1644.57 720.427 1644.57 719.96C1644.57 719.493 1644.73 719.107 1645.05 718.8C1645.39 718.48 1645.8 718.32 1646.29 718.32C1646.79 718.32 1647.19 718.48 1647.51 718.8C1647.85 719.107 1648.01 719.493 1648.01 719.96C1648.01 720.427 1647.85 720.82 1647.51 721.14C1647.19 721.447 1646.79 721.6 1646.29 721.6ZM1647.67 722.92V734H1644.87V722.92H1647.67ZM1653.7 725.22V730.58C1653.7 730.953 1653.79 731.227 1653.96 731.4C1654.15 731.56 1654.45 731.64 1654.88 731.64H1656.18V734H1654.42C1652.06 734 1650.88 732.853 1650.88 730.56V725.22H1649.56V722.92H1650.88V720.18H1653.7V722.92H1656.18V725.22H1653.7ZM1668.79 722.92L1661.93 739.24H1658.95L1661.35 733.72L1656.91 722.92H1660.05L1662.91 730.66L1665.81 722.92H1668.79ZM1561.18 750.04L1556.46 759.14V764H1553.66V759.14L1548.92 750.04H1552.08L1555.08 756.42L1558.06 750.04H1561.18ZM1564.21 751.6C1563.72 751.6 1563.31 751.447 1562.97 751.14C1562.65 750.82 1562.49 750.427 1562.49 749.96C1562.49 749.493 1562.65 749.107 1562.97 748.8C1563.31 748.48 1563.72 748.32 1564.21 748.32C1564.71 748.32 1565.11 748.48 1565.43 748.8C1565.77 749.107 1565.93 749.493 1565.93 749.96C1565.93 750.427 1565.77 750.82 1565.43 751.14C1565.11 751.447 1564.71 751.6 1564.21 751.6ZM1565.59 752.92V764H1562.79V752.92H1565.59ZM1571.62 755.22V760.58C1571.62 760.953 1571.71 761.227 1571.88 761.4C1572.07 761.56 1572.37 761.64 1572.8 761.64H1574.1V764H1572.34C1569.98 764 1568.8 762.853 1568.8 760.56V755.22H1567.48V752.92H1568.8V750.18H1571.62V752.92H1574.1V755.22H1571.62ZM1577.53 751.6C1577.04 751.6 1576.63 751.447 1576.29 751.14C1575.97 750.82 1575.81 750.427 1575.81 749.96C1575.81 749.493 1575.97 749.107 1576.29 748.8C1576.63 748.48 1577.04 748.32 1577.53 748.32C1578.03 748.32 1578.43 748.48 1578.75 748.8C1579.09 749.107 1579.25 749.493 1579.25 749.96C1579.25 750.427 1579.09 750.82 1578.75 751.14C1578.43 751.447 1578.03 751.6 1577.53 751.6ZM1578.91 752.92V764H1576.11V752.92H1578.91Z" fill="#E48C36"/>
</svg>
