<svg width="32" height="32" viewBox="0 0 32 32" fill="none" xmlns="http://www.w3.org/2000/svg">
    <g clip-path="url(#clip0_1617_9435)">
        <path fill="#777777"
            d="M31.6597 13.0049L16.4912 1.89887C16.1987 1.68475 15.8013 1.68475 15.509 1.89887L0.340349 13.0049C-0.0301513 13.2762 -0.110651 13.7965 0.160661 14.167C0.431974 14.5375 0.952286 14.6179 1.32272 14.3467L16 3.60019L30.6773 14.3466C30.8253 14.4551 30.9973 14.5072 31.1678 14.5072C31.4238 14.5072 31.6765 14.3894 31.8393 14.1669C32.1107 13.7965 32.0302 13.2762 31.6597 13.0049Z" />
        <path fill="#777777"
            d="M27.6404 14.5332C27.1813 14.5332 26.809 14.9055 26.809 15.3646V28.599H20.1576V21.3748C20.1576 19.0823 18.2925 17.2173 16.0001 17.2173C13.7078 17.2173 11.8426 19.0825 11.8426 21.3748V28.599H5.1912V15.3647C5.1912 14.9055 4.81888 14.5333 4.35976 14.5333C3.90063 14.5333 3.52832 14.9055 3.52832 15.3647V29.4305C3.52832 29.8897 3.90063 30.262 4.35976 30.262H12.6741C13.1113 30.262 13.4691 29.9241 13.5023 29.4953C13.5043 29.4758 13.5055 29.4546 13.5055 29.4305V21.3749C13.5055 19.9993 14.6246 18.8803 16.0001 18.8803C17.3757 18.8803 18.4948 19.9994 18.4948 21.3749V29.4305C18.4948 29.4545 18.496 29.4753 18.498 29.4945C18.5308 29.9237 18.8887 30.262 19.3262 30.262H27.6405C28.0997 30.262 28.4719 29.8897 28.4719 29.4305V15.3647C28.4719 14.9055 28.0996 14.5332 27.6404 14.5332Z" />
    </g>
    <defs>
        <clipPath id="clip0_1617_9435">
            <rect width="32" height="32" fill="white" />
        </clipPath>
    </defs>
</svg>