<svg width="33" height="32" viewBox="0 0 33 32" fill="none" xmlns="http://www.w3.org/2000/svg">
    <g clip-path="url(#clip0_1617_9571)">
        <path
            d="M26.1249 5.75H1.125C0.779811 5.75 0.5 6.02981 0.5 6.375V31.3749C0.5 31.7201 0.779811 31.9999 1.125 31.9999H26.1249C26.4701 31.9999 26.7499 31.7201 26.7499 31.3749V6.375C26.7499 6.02981 26.4701 5.75 26.1249 5.75ZM25.4999 30.7499H1.75V7H25.4999V30.7499Z"
            fill="#777777" />
        <path
            d="M25.0044 0.183132C24.7603 -0.0609294 24.3646 -0.0609294 24.1205 0.183132C23.8763 0.427194 23.8764 0.822942 24.1205 1.06707L24.616 1.56256H2.63391L3.12947 1.067C3.37354 0.822942 3.37354 0.427194 3.12947 0.18307C2.88541 -0.0610544 2.48966 -0.0609919 2.24554 0.18307L0.683046 1.74556C0.438985 1.98962 0.438985 2.38537 0.683046 2.6295L2.24554 4.19199C2.3676 4.31405 2.52754 4.37505 2.68748 4.37505C2.84741 4.37505 3.00741 4.31399 3.12941 4.19199C3.37347 3.94793 3.37347 3.55218 3.12941 3.30806L2.63385 2.81256H24.616L24.1205 3.30812C23.8764 3.55224 23.8764 3.94793 24.1205 4.19205C24.2425 4.31412 24.4025 4.37512 24.5624 4.37512C24.7223 4.37512 24.8823 4.31412 25.0043 4.19205L26.5668 2.62956C26.8109 2.38544 26.8109 1.98975 26.5668 1.74563L25.0044 0.183132Z"
            fill="#777777" />
        <path
            d="M32.3171 29.3705C32.073 29.1265 31.6772 29.1265 31.4331 29.3705L30.9376 29.8661V7.88391L31.4331 8.37947C31.5552 8.50154 31.7151 8.56254 31.8751 8.56254C32.035 8.56254 32.195 8.50154 32.317 8.37947C32.5611 8.13535 32.5611 7.73966 32.317 7.49554L30.7545 5.93305C30.5104 5.68898 30.1147 5.68898 29.8706 5.93305L28.3081 7.49554C28.064 7.7396 28.064 8.13535 28.3081 8.37947C28.5522 8.62354 28.9479 8.62354 29.192 8.37947L29.6876 7.88391V29.8661L29.192 29.3705C28.9479 29.1265 28.5522 29.1265 28.3081 29.3705C28.0639 29.6146 28.064 30.0103 28.3081 30.2544L29.8706 31.8169C29.9926 31.939 30.1526 32 30.3125 32C30.4724 32 30.6324 31.939 30.7544 31.8169L32.3169 30.2544C32.5611 30.0103 32.5611 29.6146 32.3171 29.3705Z"
            fill="#777777" />
        <path
            d="M4.875 28.2499H22.3749C22.7201 28.2499 22.9999 27.9701 22.9999 27.6249V10.125C22.9999 9.77981 22.7201 9.5 22.3749 9.5H4.875C4.52981 9.5 4.25 9.77981 4.25 10.125V27.6249C4.25 27.9701 4.52981 28.2499 4.875 28.2499ZM6.81924 12.9531C6.9413 13.0752 7.10124 13.1362 7.26118 13.1362C7.42111 13.1362 7.58111 13.0752 7.70311 12.9531C7.94717 12.709 7.94717 12.3133 7.70311 12.0692L6.38393 10.75H20.8661L13.625 17.9911L11.6806 16.0467C11.4365 15.8026 11.0408 15.8026 10.7967 16.0467C10.5525 16.2907 10.5526 16.6865 10.7967 16.9306L12.7411 18.875L5.49999 26.1161V11.6339L6.81924 12.9531ZM21.7499 26.116L14.5089 18.875L21.7499 11.634V26.116ZM20.866 26.9999H6.38399L13.625 19.7589L20.866 26.9999Z"
            fill="#777777" />
        <path
            d="M9.25019 15.125C9.59538 15.125 9.87519 14.8452 9.87519 14.5C9.87519 14.1548 9.59538 13.875 9.25019 13.875H9.24975C8.90456 13.875 8.625 14.1548 8.625 14.5C8.625 14.8452 8.905 15.125 9.25019 15.125Z"
            fill="#777777" />
    </g>
    <defs>
        <clipPath id="clip0_1617_9571">
            <rect width="32" height="32" fill="white" transform="translate(0.5)" />
        </clipPath>
    </defs>
</svg>