<svg width="33" height="32" viewBox="0 0 33 32" fill="none" xmlns="http://www.w3.org/2000/svg">
    <g clip-path="url(#clip0_1617_9583)">
        <path
            d="M31.8626 25.6252H28.4522V13.7687H30.0458V21.673C30.0458 22.0251 30.3313 22.3105 30.6833 22.3105C31.0352 22.3105 31.3207 22.0251 31.3207 21.673V13.7687H31.8625C32.2145 13.7687 32.4999 13.4833 32.4999 13.1312C32.4999 12.7792 32.2145 12.4938 31.8625 12.4938H25.6155V3.25072C25.6155 2.89866 25.3301 2.61328 24.9781 2.61328H8.02194C7.66994 2.61328 7.3845 2.89866 7.3845 3.25072V12.4937H1.13744C0.785438 12.4937 0.5 12.7792 0.5 13.1312C0.5 13.4833 0.785438 13.7687 1.13744 13.7687H1.67925V25.6252H1.13744C0.785438 25.6252 0.5 25.9106 0.5 26.2627V28.7487C0.5 29.1008 0.785438 29.3862 1.13744 29.3862H31.8626C32.2146 29.3862 32.5 29.1008 32.5 28.7487V26.2627C32.5 25.9106 32.2146 25.6252 31.8626 25.6252ZM25.6156 13.7687H27.1773V25.6252H25.6156V13.7687ZM8.65938 3.88816H24.3406V12.4937H22.8068V6.18297C22.8068 5.83091 22.5214 5.54553 22.1694 5.54553H10.8306C10.4786 5.54553 10.1932 5.83091 10.1932 6.18297V12.4937H8.65938V3.88816ZM24.3406 13.7687V25.6252H22.8068V13.7687H24.3406ZM17.1056 12.4937V6.82041H21.5319V12.4937H17.1056ZM21.5319 13.7687V25.6252H19.9741V13.7687H21.5319ZM18.6992 13.7687V25.6252H17.1056V13.7687H18.6992ZM11.4681 12.4937V6.82041H15.8307V12.4937H11.4681ZM15.8307 13.7687V25.6252H14.3008V13.7687H15.8307ZM13.0259 13.7687V25.6252H11.4681V13.7687H13.0259ZM8.65938 13.7687H10.1932V25.6252H8.65938V13.7687ZM5.75894 13.7687H7.38444V25.6252H5.75894V13.7687ZM2.95419 13.7687H4.48406V25.6252H2.95419V13.7687ZM31.2251 28.1113H1.77488V26.9002H31.2251V28.1113H31.2251Z"
            fill="#777777" />
        <path
            d="M30.6833 23.0762C30.3313 23.0762 30.0459 23.3615 30.0459 23.7136V24.1598C30.0459 24.5119 30.3313 24.7972 30.6833 24.7972C31.0353 24.7972 31.3208 24.5119 31.3208 24.1598V23.7136C31.3208 23.3615 31.0353 23.0762 30.6833 23.0762Z"
            fill="#777777" />
    </g>
    <defs>
        <clipPath id="clip0_1617_9583">
            <rect width="32" height="32" fill="white" transform="translate(0.5)" />
        </clipPath>
    </defs>
</svg>