<svg width="33" height="30" viewBox="0 0 33 30" fill="none" xmlns="http://www.w3.org/2000/svg">
    <path
        d="M30.4585 14.7173V4.65947C30.4585 2.21297 28.4681 0.222656 26.0217 0.222656H6.85075C4.40425 0.222656 2.41394 2.21303 2.41394 4.65947V14.8471C1.22894 16.086 0.5 17.7645 0.5 19.6102V27.2366C0.5 28.6365 1.63894 29.7755 3.03894 29.7755C4.43888 29.7755 5.57781 28.6365 5.57781 27.2366V26.449H27.4223V27.2366C27.4223 28.6365 28.5612 29.7755 29.9611 29.7755C31.3611 29.7755 32.5 28.6366 32.5 27.2366V19.6102C32.5 17.6992 31.7185 15.9675 30.4585 14.7173ZM6.85075 1.47266H26.0217C27.7789 1.47266 29.2085 2.90228 29.2085 4.65947V13.7337C28.8257 13.498 28.4183 13.2986 27.9911 13.1405V11.0621C27.9911 9.21959 26.4921 7.72059 24.6496 7.72059H19.2166C18.0981 7.72059 17.1069 8.27353 16.5001 9.11984C15.8933 8.27353 14.9021 7.72059 13.7836 7.72059H8.35056C6.50806 7.72059 5.00906 9.21953 5.00906 11.0621V13.1405C4.534 13.3163 4.08344 13.543 3.664 13.814V4.65947C3.66394 2.90228 5.0935 1.47266 6.85075 1.47266ZM7.39581 12.7143C7.00863 12.7143 6.62887 12.747 6.25894 12.8086V11.0621C6.25894 9.90884 7.19719 8.97059 8.35044 8.97059H13.7834C14.9367 8.97059 15.8749 9.90884 15.8749 11.0621V12.7144H7.39581V12.7143ZM17.125 11.062C17.125 9.90878 18.0632 8.97053 19.2165 8.97053H24.6495C25.8027 8.97053 26.741 9.90878 26.741 11.062V12.8085C26.371 12.7469 25.9913 12.7143 25.6041 12.7143H17.125V11.062ZM7.39581 13.9643H25.6041C28.7172 13.9643 31.2499 16.497 31.2499 19.6102V21.4643H24.9814C24.6362 21.4643 24.3564 21.7442 24.3564 22.0893C24.3564 22.4345 24.6362 22.7143 24.9814 22.7143H31.25V25.199H1.75V22.7143H18.7314C19.0766 22.7143 19.3564 22.4345 19.3564 22.0893C19.3564 21.7442 19.0766 21.4643 18.7314 21.4643H1.75V19.6102C1.75 16.497 4.28269 13.9643 7.39581 13.9643ZM4.32781 27.2366C4.32781 27.9473 3.74963 28.5255 3.03894 28.5255C2.32825 28.5255 1.75 27.9473 1.75 27.2366V26.449H4.32781V27.2366ZM29.9611 28.5255C29.2504 28.5255 28.6722 27.9473 28.6722 27.2366V26.449H31.25V27.2366C31.25 27.9473 30.6718 28.5255 29.9611 28.5255Z"
        fill="#777777" />
    <path
        d="M21.8563 22.7155C22.2016 22.7155 22.4816 22.4355 22.4816 22.0902C22.4816 21.7448 22.2016 21.4648 21.8563 21.4648C21.5109 21.4648 21.231 21.7448 21.231 22.0902C21.231 22.4355 21.5109 22.7155 21.8563 22.7155Z"
        fill="#777777" />
</svg>