<svg width="33" height="28" viewBox="0 0 33 28" fill="none" xmlns="http://www.w3.org/2000/svg">
    <path
        d="M23.9999 18.3524C24.345 18.3524 24.6248 18.0726 24.6248 17.7274V15.2275C24.6248 14.8824 24.345 14.6026 23.9999 14.6026H17.1251V7.61692H27.4372C27.7206 7.61692 27.9685 7.42624 28.0413 7.15231C28.114 6.87845 27.9933 6.5899 27.7473 6.44928L16.8102 0.199497C16.6181 0.089751 16.3822 0.089751 16.1901 0.199497L5.25295 6.44928C5.0069 6.5899 4.88628 6.87845 4.95896 7.15231C5.03171 7.42624 5.27964 7.61692 5.563 7.61692H15.8751V14.6025H9.00038C8.65521 14.6025 8.3754 14.8824 8.3754 15.2275V17.7274C8.3754 18.0726 8.65521 18.3524 9.00038 18.3524H14.6252V27.2583C14.6252 27.6035 14.905 27.8833 15.2502 27.8833H17.7501C18.0953 27.8833 18.3751 27.6035 18.3751 27.2583V18.3524H23.9999V18.3524ZM19.0577 6.36697H13.9425L16.5001 1.98256L19.0577 6.36697ZM20.5048 6.36697L18.2153 2.44211L25.0839 6.36697H20.5048ZM14.7849 2.44211L12.4954 6.36697H7.91636L14.7849 2.44211ZM9.62536 15.8525H23.3749V17.1025H9.62536V15.8525ZM17.1251 26.6334H15.8751V18.3524H17.1251V26.6334Z"
        fill="#777777" />
    <path
        d="M32.2769 14.3248C32.0402 13.8835 31.6459 13.5607 31.1663 13.416C30.1759 13.1175 29.1279 13.6796 28.8295 14.6688L27.2456 19.9154H23.0068C22.4934 19.9154 22.0143 20.1188 21.6578 20.488C21.3014 20.8571 21.115 21.3433 21.133 21.8572C21.1685 22.8711 22.0047 23.6653 23.0366 23.6653H23.4156L21.5213 26.9464C21.3487 27.2454 21.4511 27.6276 21.75 27.8002C21.8484 27.857 21.9559 27.884 22.0619 27.884C22.2779 27.884 22.488 27.7719 22.6037 27.5714L24.8588 23.6653H27.1077L29.3628 27.5714C29.4786 27.7719 29.6886 27.884 29.9047 27.884C30.0107 27.884 30.1181 27.857 30.2165 27.8002C30.5155 27.6276 30.6179 27.2454 30.4453 26.9464L28.551 23.6653H28.6381C29.4711 23.6653 30.1924 23.1296 30.433 22.3322L30.6736 21.5351C30.7734 21.2047 30.5864 20.856 30.2559 20.7562C29.9254 20.6563 29.5767 20.8435 29.477 21.174L29.2364 21.971C29.1562 22.2368 28.9157 22.4153 28.6381 22.4153H23.0365C22.6873 22.4153 22.3937 22.1454 22.3821 21.8135C22.3761 21.6416 22.4382 21.4792 22.5569 21.3563C22.6757 21.2331 22.8355 21.1654 23.0067 21.1654H27.7096C27.9852 21.1654 28.2283 20.9848 28.3079 20.721L30.026 15.0299C30.1254 14.7004 30.4749 14.5132 30.8052 14.6127C30.9649 14.6609 31.0963 14.7684 31.1752 14.9155C31.254 15.0625 31.2708 15.2313 31.2224 15.3912L30.9861 16.1741C30.8864 16.5045 31.0734 16.8532 31.4039 16.953C31.7345 17.0528 32.083 16.8657 32.1828 16.5352L32.419 15.7529C32.5642 15.2735 32.5137 14.7663 32.2769 14.3248Z"
        fill="#777777" />
    <path
        d="M30.8298 18.2285C30.0255 18.2285 30.0242 19.4785 30.8298 19.4785C31.6341 19.4785 31.6355 18.2285 30.8298 18.2285Z"
        fill="#777777" />
    <path
        d="M9.99353 19.9155H5.75475L4.17086 14.6689C3.87231 13.6796 2.82404 13.1173 1.83388 13.4161C1.35453 13.5608 0.960164 13.8834 0.723423 14.3248C0.486619 14.7663 0.43612 15.2734 0.581178 15.7527L2.56717 22.3322C2.80791 23.1296 3.5292 23.6653 4.36211 23.6653H4.44923L2.55492 26.9465C2.3823 27.2454 2.48474 27.6276 2.78366 27.8002C2.8821 27.857 2.98953 27.8841 3.09559 27.8841C3.31158 27.8841 3.52164 27.7719 3.63738 27.5714L5.89249 23.6653H8.14135L10.3965 27.5714C10.5123 27.7719 10.7223 27.8841 10.9383 27.8841C11.0443 27.8841 11.1518 27.857 11.2502 27.8002C11.5492 27.6276 11.6516 27.2454 11.479 26.9465L9.58467 23.6653H9.96372C10.9956 23.6653 11.8318 22.8711 11.8673 21.8572C11.8853 21.3434 11.6989 20.8571 11.3425 20.488C10.986 20.1188 10.5069 19.9155 9.99353 19.9155ZM9.96372 22.4154H4.36211C4.08449 22.4154 3.844 22.2368 3.76375 21.971L1.77776 15.3913C1.77776 15.3911 1.7777 15.3909 1.77757 15.3908C1.72932 15.2313 1.74614 15.0625 1.82495 14.9155C1.90382 14.7684 2.03519 14.6609 2.19475 14.6127C2.25487 14.5946 2.31555 14.586 2.37536 14.586C2.64398 14.586 2.89278 14.7603 2.97416 15.0299L4.69222 20.7209C4.77184 20.9848 5.01496 21.1653 5.29051 21.1653H9.99347C10.1647 21.1653 10.3244 21.2331 10.4433 21.3562C10.562 21.4792 10.6241 21.6415 10.6181 21.8133C10.6065 22.1453 10.313 22.4154 9.96372 22.4154Z"
        fill="#777777" />
</svg>