<svg width="32" height="32" viewBox="0 0 32 32" fill="none" xmlns="http://www.w3.org/2000/svg">
<path d="M32 7.5625C32 6.35631 31.0187 5.375 29.8125 5.375H10.3125C9.96736 5.375 9.68754 5.65487 9.68754 6C9.68754 6.34512 9.96736 6.625 10.3125 6.625H29.8125C30.3294 6.625 30.75 7.04556 30.75 7.56256C30.75 8.07949 30.3294 8.49999 29.8125 8.49999H2.1875C1.67056 8.49999 1.25 8.07943 1.25 7.5625C1.25 7.04556 1.67056 6.625 2.1875 6.625H4.68755C5.03274 6.625 5.31255 6.34512 5.31255 6C5.31255 5.65487 5.03274 5.375 4.68755 5.375H2.1875C0.981311 5.375 0 6.35631 0 7.56256C0 8.71231 0.891811 9.65699 2.01993 9.74293L1.25268 24.6088C1.19912 25.647 1.94843 26.5294 2.95868 26.6179C3.01362 26.6227 3.06806 26.625 3.12224 26.625C4.06349 26.625 4.86705 25.9111 4.98762 24.9356L6.55542 12.2501H25.4446L27.0124 24.9356C27.133 25.9113 27.9365 26.625 28.8778 26.625C28.9319 26.625 28.9865 26.6227 29.0414 26.6179C30.0516 26.5295 30.8009 25.647 30.7474 24.6088L29.9801 9.74293C31.1082 9.65699 32 8.71224 32 7.5625ZM3.74706 24.7823C3.70256 25.1428 3.40387 25.4026 3.06768 25.3726C2.73124 25.3431 2.48231 25.036 2.50106 24.6733L3.27124 9.74999H5.60486L3.74706 24.7823ZM6.70992 11.0001L6.86442 9.74999H25.1357L25.2902 11.0001H6.70992ZM28.9324 25.3726C28.5959 25.402 28.2976 25.1427 28.2529 24.7823L26.3952 9.74999H28.7288L29.4991 24.6732C29.5178 25.036 29.2688 25.3431 28.9324 25.3726Z" fill="#777777"/>
<path d="M7.50025 6.625C7.84544 6.625 8.12525 6.34512 8.12525 6C8.12525 5.65488 7.84544 5.375 7.50025 5.375H7.49975C7.15456 5.375 6.875 5.65488 6.875 6C6.875 6.34512 7.15506 6.625 7.50025 6.625Z" fill="#777777"/>
</svg>
