<svg width="33" height="32" viewBox="0 0 33 32" fill="none" xmlns="http://www.w3.org/2000/svg">
<g clip-path="url(#clip0_1617_9594)">
<path d="M32.1866 8.92495L16.8116 0.0832031C16.6187 -0.0277344 16.3814 -0.0277344 16.1884 0.0832031L0.813437 8.92495C0.619562 9.03645 0.5 9.24308 0.5 9.46677V31.375C0.5 31.7201 0.779813 32 1.125 32H31.875C32.2202 32 32.5 31.7201 32.5 31.375V9.46677C32.5 9.24308 32.3805 9.03645 32.1866 8.92495ZM10.7099 30.0838C10.7099 30.4512 10.411 30.7501 10.0436 30.7501C9.67625 30.7501 9.37737 30.4511 9.37737 30.0838V29.075H10.7099V30.0838ZM23.6226 30.0838C23.6226 30.4512 23.3237 30.7501 22.9564 30.7501C22.589 30.7501 22.2901 30.4511 22.2901 30.0838V29.075H23.6226V30.0838ZM24.2476 27.825H21.6651H18.5935C18.2483 27.825 17.9685 28.1049 17.9685 28.45C17.9685 28.7951 18.2483 29.075 18.5935 29.075H21.0401V30.0838C21.0401 30.318 21.0825 30.5425 21.1597 30.7501H11.8403C11.9175 30.5425 11.9599 30.318 11.9599 30.0838V29.075H14.0775C14.4227 29.075 14.7025 28.7951 14.7025 28.45C14.7025 28.1049 14.4227 27.825 14.0775 27.825H11.3349H8.75237H8.25C7.90538 27.825 7.625 27.5446 7.625 27.2V24.9981C7.625 24.8442 7.68144 24.6963 7.78394 24.5816L9.36506 22.8125H23.635L25.2161 24.5816C25.3186 24.6963 25.375 24.8442 25.375 24.9981V27.2C25.375 27.5446 25.0946 27.825 24.75 27.825H24.2476ZM18.7485 20.5075C18.8706 20.6295 19.0305 20.6905 19.1904 20.6905C19.3504 20.6905 19.5104 20.6295 19.6324 20.5075L22.1979 17.9419C22.3289 18.1693 22.428 18.4197 22.4883 18.6883L23.1338 21.5625H14.7381L19.6676 16.633H19.9202C20.4376 16.633 20.9225 16.7805 21.3322 17.0397L18.7484 19.6235C18.5044 19.8676 18.5044 20.2633 18.7485 20.5075ZM12.9703 21.5625H9.86644L10.5127 18.6877C10.7846 17.478 11.8406 16.633 13.0805 16.633H17.8997L12.9703 21.5625ZM31.25 30.75H29.125V12.375C29.125 12.0299 28.8452 11.75 28.5 11.75H26.4375C26.0923 11.75 25.8125 12.0299 25.8125 12.375C25.8125 12.7201 26.0923 13 26.4375 13H27.875V30.75H24.753C24.8302 30.5424 24.8726 30.318 24.8726 30.0838V29.0705C25.8495 29.0071 26.625 28.1926 26.625 27.2V24.9981C26.625 24.5365 26.4556 24.0928 26.1481 23.7486L24.4889 21.8921L23.7079 18.4145C23.3071 16.6296 21.7496 15.3831 19.9203 15.3831H13.0806C11.2517 15.3831 9.69425 16.6293 9.29319 18.4136L8.51125 21.8921L6.852 23.7486C6.54438 24.0928 6.375 24.5365 6.375 24.998V27.2C6.375 28.1926 7.1505 29.0071 8.12738 29.0706V30.0838C8.12738 30.318 8.16975 30.5425 8.247 30.7501H5.125V13H21.25C21.5952 13 21.875 12.7201 21.875 12.375C21.875 12.0299 21.5952 11.75 21.25 11.75H4.5C4.15481 11.75 3.875 12.0299 3.875 12.375V30.75H1.75V9.82833L16.5 1.34608L31.25 9.82839V30.75Z" fill="#777777"/>
<path d="M24.3562 11.9331C24.2406 11.8169 24.0793 11.75 23.9143 11.75C23.7499 11.75 23.5887 11.8168 23.4724 11.9331C23.3562 12.0494 23.2893 12.2106 23.2893 12.375C23.2893 12.5394 23.3562 12.7006 23.4724 12.8168C23.5893 12.9331 23.7499 13 23.9143 13C24.0793 13 24.2399 12.9331 24.3562 12.8168C24.4731 12.7006 24.5393 12.5394 24.5393 12.375C24.5393 12.2106 24.4731 12.0494 24.3562 11.9331Z" fill="#777777"/>
<path d="M16.5081 4.8418C15.0606 4.8418 13.8831 6.01936 13.8831 7.4668C13.8831 8.91423 15.0606 10.0918 16.5081 10.0918C17.9555 10.0918 19.1331 8.91423 19.1331 7.4668C19.1331 6.01936 17.9555 4.8418 16.5081 4.8418ZM16.5081 8.8418C15.7499 8.8418 15.1331 8.22498 15.1331 7.4668C15.1331 6.70861 15.7499 6.0918 16.5081 6.0918C17.2662 6.0918 17.8831 6.70861 17.8831 7.4668C17.8831 8.22498 17.2662 8.8418 16.5081 8.8418Z" fill="#777777"/>
<path d="M16.9419 28.0073C16.8256 27.8911 16.6644 27.8242 16.5 27.8242C16.3356 27.8242 16.1744 27.891 16.0581 28.0073C15.9419 28.1236 15.875 28.2848 15.875 28.4492C15.875 28.6136 15.9419 28.7748 16.0581 28.891C16.1744 29.0073 16.3356 29.0742 16.5 29.0742C16.6644 29.0742 16.8256 29.0073 16.9419 28.891C17.0581 28.7748 17.125 28.6136 17.125 28.4492C17.125 28.2848 17.0581 28.1236 16.9419 28.0073Z" fill="#777777"/>
<path d="M20.0625 24.5625H12.9534C12.6082 24.5625 12.3284 24.8424 12.3284 25.1875C12.3284 25.5326 12.6082 25.8125 12.9534 25.8125H20.0625C20.4077 25.8125 20.6875 25.5326 20.6875 25.1875C20.6875 24.8424 20.4077 24.5625 20.0625 24.5625Z" fill="#777777"/>
<path d="M10.1294 24.7456C10.0131 24.6294 9.85188 24.5625 9.6875 24.5625C9.52312 24.5625 9.36187 24.6293 9.24562 24.7456C9.12937 24.8619 9.0625 25.0225 9.0625 25.1875C9.0625 25.3519 9.12937 25.5131 9.24562 25.6293C9.36187 25.7456 9.52312 25.8125 9.6875 25.8125C9.85188 25.8125 10.0131 25.7456 10.1294 25.6293C10.2456 25.5131 10.3125 25.3519 10.3125 25.1875C10.3125 25.0231 10.2456 24.8619 10.1294 24.7456Z" fill="#777777"/>
<path d="M23.9419 24.7456C23.8256 24.6294 23.6644 24.5625 23.5 24.5625C23.3356 24.5625 23.1744 24.6293 23.0581 24.7456C22.9419 24.8619 22.875 25.0231 22.875 25.1875C22.875 25.3519 22.9419 25.5131 23.0581 25.6293C23.1744 25.7456 23.3356 25.8125 23.5 25.8125C23.6644 25.8125 23.8256 25.7456 23.9419 25.6293C24.0581 25.5131 24.125 25.3519 24.125 25.1875C24.125 25.0231 24.0581 24.8619 23.9419 24.7456Z" fill="#777777"/>
</g>
<defs>
<clipPath id="clip0_1617_9594">
<rect width="32" height="32" fill="white" transform="translate(0.5)"/>
</clipPath>
</defs>
</svg>
