<svg width="33" height="28" viewBox="0 0 33 28" fill="none" xmlns="http://www.w3.org/2000/svg">
<path d="M31.8747 26.2092H27.1702C27.1842 25.8019 27.2619 25.1541 27.5396 24.2908C28.0336 22.7551 29.2639 20.2727 32.3201 17.1672C32.5092 16.975 32.5537 16.6832 32.4306 16.4433C32.3074 16.2034 32.0444 16.0696 31.7779 16.1113C31.6897 16.1251 29.5908 16.4658 27.3623 17.8539C25.8871 18.7727 24.1601 20.2904 23.1102 22.6905C23.1766 22.4549 23.2502 22.2107 23.334 21.9565C24.2587 19.1487 26.5239 14.62 32.0643 8.99037C32.2534 8.79819 32.2979 8.50637 32.1748 8.2665C32.0516 8.02663 31.7888 7.89275 31.5221 7.9345C27.7074 8.532 24.1496 10.2012 21.2334 12.7616C20.6699 13.2564 20.1386 13.7777 19.6409 14.3229C19.3183 10.3397 18.9682 7.19288 18.5985 4.95544C18.3832 3.65213 18.1579 2.64639 17.929 1.96601C17.7855 1.53958 17.4495 0.541016 16.6575 0.541016C15.9238 0.541016 15.5721 1.35745 15.3248 2.15608C15.0797 2.94732 14.8389 4.11826 14.6089 5.63638C14.2129 8.25044 13.8424 11.9058 13.5054 16.5177C12.2151 14.8506 10.5973 13.4046 8.68471 12.2133C5.03984 9.94306 1.62116 9.38806 1.47748 9.36556C1.21129 9.32381 0.947915 9.45756 0.82479 9.6975C0.701603 9.93737 0.746166 10.2292 0.935353 10.4214C4.50166 14.0452 6.59303 17.1723 7.81921 19.6079C7.10178 18.8667 6.34091 18.292 5.63734 17.8538C3.40885 16.4657 1.30998 16.125 1.22173 16.1112C0.95554 16.0694 0.692166 16.2032 0.569041 16.4432C0.445854 16.6831 0.490416 16.9749 0.679541 17.1671C3.67754 20.2134 4.91253 22.6571 5.42059 24.1707C5.72828 25.0871 5.81247 25.7792 5.82734 26.2092H5.56291C5.56266 26.2092 5.56247 26.2092 5.56228 26.2092H2.97222C2.6271 26.2092 2.34722 26.489 2.34722 26.8342C2.34722 27.1793 2.6271 27.4592 2.97222 27.4592L31.8747 27.4592C32.2199 27.4592 32.4997 27.1794 32.4997 26.8342C32.4997 26.489 32.2199 26.2092 31.8747 26.2092ZM15.7451 6.50813C16.1214 3.82363 16.4513 2.63601 16.6573 2.1142C16.8441 2.5872 17.1334 3.60788 17.4658 5.79482C17.8311 8.19781 18.1773 11.5292 18.495 15.698C17.3643 17.1884 16.463 18.8228 15.8156 20.5592C15.4836 19.7311 15.0915 18.9385 14.6409 18.1829C14.9762 13.2719 15.3476 9.34425 15.7451 6.50813ZM7.07778 26.2092C7.04184 24.905 6.51059 21.9763 3.1106 17.9709C3.68128 18.2009 4.32353 18.5084 4.97635 18.9149C7.65165 20.5813 9.18334 23.0355 9.5289 26.2092H7.07778ZM10.8923 26.2092C10.9099 25.4133 10.8151 24.0049 10.1966 22.0823C9.07315 18.5897 6.7624 14.909 3.31729 11.1197C4.58697 11.5219 6.30891 12.2006 8.06196 13.2982C10.3381 14.7234 12.1278 16.483 13.4221 18.5629C13.4485 18.6305 13.4858 18.6929 13.5329 18.7469C14.2599 19.9525 14.8234 21.2637 15.2215 22.6777C15.2289 22.7193 15.2406 22.7596 15.256 22.7984C15.5136 23.7396 15.6991 24.7257 15.8108 25.7563C15.8273 25.9083 15.8426 26.0592 15.8571 26.2092H10.8923ZM21.3536 26.2092H20.1918C20.1316 24.0486 20.7209 21.6197 21.9462 18.9841C22.0917 18.6711 21.9559 18.2994 21.6429 18.1539C21.3297 18.0083 20.9581 18.1442 20.8126 18.4571C19.5115 21.256 18.8831 23.8618 18.9415 26.2092H17.1128C17.0946 26.0152 17.0748 25.8188 17.0534 25.6216C16.9386 24.5635 16.7482 23.5441 16.484 22.5657C18.1708 16.3031 23.3732 11.2899 29.7796 9.57862C27.8579 11.6708 26.2377 13.7547 24.9501 15.7923C23.6706 17.8169 22.7132 19.8029 22.1046 21.6951C21.4208 23.8209 21.3289 25.3624 21.3536 26.2092ZM23.4705 26.2092C23.8144 23.051 25.3335 20.6049 27.9855 18.9384C28.6485 18.5219 29.3046 18.2074 29.8871 17.9728C26.4888 21.9772 25.9577 24.9052 25.9217 26.2092H23.4705Z" fill="#777777"/>
<path d="M22.9076 17.0709C23.0831 16.785 23.0015 16.4093 22.7196 16.2229C22.4316 16.0325 22.0438 16.1115 21.8535 16.3995C21.8228 16.446 21.7973 16.4959 21.7848 16.5215C21.6338 16.8319 21.7631 17.2057 22.0735 17.3567C22.1615 17.3995 22.2546 17.4197 22.3463 17.4197C22.577 17.4197 22.7988 17.2914 22.9076 17.0709Z" fill="#777777"/>
<path d="M1.15469 26.209H1.125C0.779875 26.209 0.5 26.4888 0.5 26.834C0.5 27.1792 0.779875 27.459 1.125 27.459H1.15469C1.49987 27.459 1.77969 27.1792 1.77969 26.834C1.77969 26.4888 1.49981 26.209 1.15469 26.209Z" fill="#777777"/>
</svg>
