<svg width="32" height="32" viewBox="0 0 32 32" fill="none" xmlns="http://www.w3.org/2000/svg">
<g clip-path="url(#clip0_1617_9518)">
<path d="M31.7107 7.91383L26.177 4.26526V0.624689C26.177 0.279751 25.8973 0 25.5523 0H21.7186C21.3736 0 21.0939 0.279751 21.0939 0.624689V4.26732L15.6215 7.91558C15.4476 8.03139 15.3433 8.22645 15.3433 8.43533V10.3522C15.3433 10.6971 15.623 10.9769 15.968 10.9769H31.3669C31.7119 10.9769 31.9915 10.6971 31.9915 10.3522V8.43533C31.9915 8.22539 31.886 8.02945 31.7107 7.91383ZM22.3433 1.24938H24.9277V3.97695H22.3433V1.24938ZM16.5926 9.72752V8.76964L21.9077 5.22626H25.3649L30.7422 8.77171V9.72752H16.5926Z" fill="#777777"/>
<path d="M31.3669 15.416H0.63299C0.287989 15.416 0.00830078 15.6958 0.00830078 16.0407V31.3757C0.00830078 31.7206 0.287989 32.0004 0.63299 32.0004H31.3669C31.7119 32.0004 31.9916 31.7206 31.9916 31.3757V16.0407C31.9916 15.6958 31.7119 15.416 31.3669 15.416ZM15.3433 30.751H1.25762V24.083H15.3433V30.751ZM15.3433 22.8337H1.25762V16.6654H15.3433V22.8337ZM30.7422 30.751H16.5926V20.9854H30.7422V30.751H30.7422ZM16.5926 19.736V16.6654H30.7422V19.736H16.5926Z" fill="#777777"/>
<path d="M11.8147 17.8477H4.50701C4.16201 17.8477 3.88232 18.1274 3.88232 18.4723C3.88232 18.8173 4.16201 19.097 4.50701 19.097H11.8147C12.1597 19.097 12.4393 18.8173 12.4393 18.4723C12.4393 18.1274 12.1597 17.8477 11.8147 17.8477Z" fill="#777777"/>
<path d="M11.8147 25.4004H4.50701C4.16201 25.4004 3.88232 25.6801 3.88232 26.0251C3.88232 26.37 4.16201 26.6498 4.50701 26.6498H11.8147C12.1597 26.6498 12.4393 26.37 12.4393 26.0251C12.4393 25.6801 12.1597 25.4004 11.8147 25.4004Z" fill="#777777"/>
<path d="M28.6808 22.2344H27.3042C26.9592 22.2344 26.6795 22.5141 26.6795 22.8591C26.6795 23.204 26.9592 23.4838 27.3042 23.4838H28.0562V28.4811H19.3524V23.4838H22.3068C22.6518 23.4838 22.9315 23.204 22.9315 22.8591C22.9315 22.5141 22.6518 22.2344 22.3068 22.2344H18.7277C18.3827 22.2344 18.103 22.5141 18.103 22.8591V29.1058C18.103 29.4507 18.3827 29.7305 18.7277 29.7305H28.6808C29.0258 29.7305 29.3055 29.4507 29.3055 29.1058V22.8591C29.3055 22.5141 29.0258 22.2344 28.6808 22.2344Z" fill="#777777"/>
<path d="M20.5393 18.1625C20.5311 18.1225 20.5186 18.0832 20.503 18.0457C20.4874 18.0082 20.4686 17.9714 20.4455 17.9377C20.423 17.9033 20.3968 17.8715 20.3681 17.8427C20.2231 17.6978 20.0076 17.6309 19.8046 17.6722C19.7646 17.6803 19.7253 17.6922 19.6878 17.7078C19.6497 17.7234 19.6135 17.7428 19.5798 17.7653C19.5454 17.7877 19.5136 17.8141 19.4848 17.8427C19.4561 17.8715 19.4298 17.9033 19.4074 17.9377C19.3849 17.9714 19.3655 18.0082 19.3499 18.0457C19.3343 18.0832 19.3218 18.1225 19.3143 18.1625C19.3061 18.2031 19.3018 18.2437 19.3018 18.2843C19.3018 18.3256 19.3061 18.3662 19.3143 18.4068C19.3218 18.4462 19.3343 18.4856 19.3499 18.5236C19.3655 18.5612 19.3849 18.5974 19.4073 18.6311C19.4298 18.6655 19.4561 18.6973 19.4848 18.7261C19.5135 18.7548 19.5453 18.7811 19.5797 18.8041C19.6134 18.8266 19.6496 18.846 19.6878 18.8616C19.7253 18.8772 19.7646 18.8891 19.8046 18.8972C19.8446 18.9054 19.8858 18.9091 19.9264 18.9091C20.0913 18.9091 20.2518 18.8429 20.368 18.7261C20.3968 18.6973 20.423 18.6655 20.4454 18.6311C20.4686 18.5974 20.4873 18.5612 20.5029 18.5236C20.5186 18.4856 20.5311 18.4462 20.5392 18.4068C20.5467 18.3662 20.5511 18.3256 20.5511 18.2844C20.5511 18.2438 20.5468 18.2031 20.5393 18.1625Z" fill="#777777"/>
<path d="M24.2794 18.1627C24.2712 18.1227 24.2594 18.0833 24.2437 18.0459C24.2281 18.0083 24.2087 17.9716 24.1863 17.9378C24.1632 17.9035 24.1376 17.8717 24.1089 17.8429C24.0795 17.8142 24.0477 17.7878 24.0133 17.7655C23.9796 17.743 23.9434 17.7236 23.9059 17.708C23.8677 17.6923 23.8291 17.6805 23.7891 17.6723C23.7085 17.6561 23.6254 17.6561 23.5448 17.6723C23.5048 17.6805 23.4655 17.6923 23.428 17.708C23.3899 17.7236 23.3537 17.743 23.3199 17.7655C23.2856 17.7879 23.2537 17.8142 23.225 17.8429C23.1962 17.8717 23.17 17.9035 23.1476 17.9378C23.1251 17.9716 23.1057 18.0084 23.0901 18.0459C23.0745 18.0834 23.0626 18.1227 23.0545 18.1627C23.0464 18.2033 23.042 18.2439 23.042 18.2845C23.042 18.3257 23.0464 18.3663 23.0545 18.4069C23.0626 18.4463 23.0745 18.4857 23.0901 18.5237C23.1057 18.5613 23.1251 18.5975 23.1476 18.6312C23.1701 18.6656 23.1963 18.6974 23.225 18.7262C23.2537 18.7555 23.2856 18.7812 23.3199 18.8042C23.3537 18.8267 23.3899 18.8461 23.428 18.8617C23.4655 18.8773 23.5048 18.8892 23.5448 18.8973C23.5848 18.9055 23.626 18.9092 23.6666 18.9092C23.7072 18.9092 23.7484 18.9054 23.7891 18.8973C23.8291 18.8892 23.8677 18.8773 23.9059 18.8617C23.9434 18.8461 23.9796 18.8267 24.0133 18.8042C24.0477 18.7811 24.0795 18.7555 24.1089 18.7262C24.1376 18.6974 24.1632 18.6656 24.1863 18.6312C24.2088 18.5975 24.2282 18.5613 24.2437 18.5237C24.2594 18.4857 24.2712 18.4463 24.2794 18.4069C24.2875 18.3663 24.2912 18.3257 24.2912 18.2845C24.2912 18.244 24.2875 18.2033 24.2794 18.1627Z" fill="#777777"/>
<path d="M28.0195 18.1627C28.0113 18.1227 27.9995 18.0833 27.9838 18.0459C27.9682 18.0083 27.9488 17.9716 27.9264 17.9378C27.9033 17.9035 27.8777 17.8717 27.849 17.8429C27.8196 17.8142 27.7878 17.7878 27.754 17.7655C27.7197 17.743 27.6835 17.7236 27.646 17.708C27.6085 17.6923 27.5692 17.6805 27.5292 17.6723C27.4486 17.6561 27.3655 17.6561 27.2849 17.6723C27.2449 17.6805 27.2056 17.6923 27.1681 17.708C27.1306 17.7236 27.0944 17.743 27.06 17.7655C27.0257 17.7879 26.9938 17.8142 26.9651 17.8429C26.9363 17.8717 26.9101 17.9035 26.8877 17.9378C26.8652 17.9716 26.8458 18.0084 26.8302 18.0459C26.8146 18.0834 26.8027 18.1227 26.7946 18.1627C26.7865 18.2033 26.7827 18.2439 26.7827 18.2845C26.7827 18.3257 26.7865 18.3663 26.7946 18.4069C26.8027 18.4469 26.8146 18.4856 26.8302 18.5237C26.8458 18.5612 26.8652 18.5974 26.8877 18.6311C26.9108 18.6655 26.9364 18.6973 26.9651 18.7261C27.0813 18.8429 27.2425 18.9091 27.4067 18.9091C27.448 18.9091 27.4885 18.9053 27.5292 18.8973C27.5692 18.8892 27.6085 18.8773 27.646 18.8617C27.6835 18.846 27.7197 18.8267 27.754 18.8042C27.7878 18.781 27.8196 18.7554 27.849 18.7261C27.8777 18.6973 27.9033 18.6655 27.9264 18.6311C27.9489 18.5974 27.9683 18.5612 27.9838 18.5237C27.9995 18.4856 28.0113 18.4462 28.0195 18.4068C28.0276 18.3663 28.032 18.3257 28.032 18.2844C28.032 18.244 28.0276 18.2033 28.0195 18.1627Z" fill="#777777"/>
<path d="M25.4194 22.7155C25.4119 22.6755 25.3994 22.6361 25.3837 22.598C25.3681 22.5605 25.3487 22.5243 25.3263 22.4906C25.3038 22.4562 25.2776 22.4244 25.2489 22.3956C25.2201 22.3669 25.1883 22.3406 25.1539 22.3182C25.1202 22.2957 25.084 22.2763 25.0459 22.2607C25.0084 22.2451 24.9691 22.2326 24.9291 22.2251C24.8485 22.2088 24.7654 22.2088 24.6848 22.2251C24.6454 22.2326 24.6061 22.2451 24.568 22.2607C24.5305 22.2763 24.4943 22.2957 24.4606 22.3182C24.4262 22.3407 24.3944 22.367 24.3656 22.3956C24.3369 22.4244 24.3106 22.4563 24.2876 22.4906C24.2651 22.5243 24.2457 22.5605 24.2301 22.598C24.2145 22.6361 24.2026 22.6755 24.1945 22.7155C24.1864 22.7555 24.1826 22.7967 24.1826 22.8373C24.1826 22.8779 24.1864 22.9191 24.1945 22.9591C24.2026 22.9991 24.2145 23.0385 24.2301 23.0759C24.2457 23.114 24.2651 23.1502 24.2876 23.184C24.3107 23.2183 24.3369 23.2501 24.3656 23.2789C24.3944 23.3076 24.4262 23.3339 24.4606 23.3563C24.4943 23.3788 24.5305 23.3982 24.568 23.4138C24.6061 23.4295 24.6454 23.442 24.6848 23.4495C24.7254 23.4576 24.7666 23.4619 24.8072 23.4619C24.8479 23.4619 24.8891 23.4576 24.9291 23.4495C24.9691 23.442 25.0084 23.4295 25.0459 23.4138C25.084 23.3982 25.1202 23.3788 25.1539 23.3563C25.1883 23.3338 25.2201 23.3076 25.2489 23.2789C25.2776 23.2501 25.3039 23.2183 25.3263 23.184C25.3488 23.1502 25.3682 23.114 25.3837 23.0759C25.3994 23.0384 25.4112 22.9991 25.4194 22.9591C25.4275 22.9191 25.4319 22.8779 25.4319 22.8373C25.4319 22.7967 25.4275 22.7555 25.4194 22.7155Z" fill="#777777"/>
</g>
<defs>
<clipPath id="clip0_1617_9518">
<rect width="32" height="32" fill="white"/>
</clipPath>
</defs>
</svg>
