<svg width="29" height="32" viewBox="0 0 29 32" fill="none" xmlns="http://www.w3.org/2000/svg">
<path d="M10.8982 8.10177C11.0173 8.10177 11.1378 8.06771 11.2445 7.99664C11.5317 7.80521 11.6093 7.41714 11.4178 7.12996C11.2263 6.84277 10.8383 6.76508 10.5511 6.95664L10.5507 6.95689C10.2635 7.14833 10.1861 7.53633 10.3775 7.82346C10.498 8.00402 10.6962 8.10177 10.8982 8.10177Z" fill="#777777"/>
<path d="M28.2499 28.25H26.3749V20.4849C26.3749 20.1398 26.095 19.8599 25.7499 19.8599H23.875V18.5023C24.6024 18.2443 25.125 17.5496 25.125 16.7348C25.125 15.7009 24.2838 14.8598 23.25 14.8598H22.8696C23.6734 12.6068 22.8162 10.1494 20.5563 8.49728L15.8957 5.08992C16.3457 4.82536 16.7197 4.43311 16.964 3.94286C17.0671 3.73592 17.0476 3.48905 16.9132 3.30093C16.7789 3.1128 16.5515 3.0143 16.3225 3.04455C15.9486 3.09443 15.4677 2.81937 15.099 2.34443C14.7096 1.84281 14.5425 1.23156 14.6926 0.858123C14.7776 0.646749 14.7408 0.405938 14.5966 0.229501C14.4524 0.0531265 14.2238 -0.0308732 13.9996 0.0103142C12.6949 0.250313 11.7479 1.3885 11.7479 2.71674C11.7479 3.72586 12.2943 4.60936 13.1063 5.08842L12.48 5.54635C12.2013 5.75004 12.1406 6.1411 12.3443 6.41979C12.548 6.69841 12.939 6.75929 13.2177 6.55541L14.4999 5.61804L19.8185 9.50646C21.7749 10.9366 22.4165 13.0058 21.5145 14.8599H7.48541C6.58341 13.0058 7.22504 10.9367 9.1814 9.5064C9.46003 9.30272 9.52078 8.91165 9.31709 8.63303C9.1134 8.35428 8.7224 8.29353 8.44366 8.49728C6.18373 10.1496 5.32648 12.6069 6.13035 14.8599H5.74998C4.71611 14.8599 3.87499 15.701 3.87499 16.7349C3.87499 17.5496 4.39755 18.2444 5.12498 18.5024V19.86H3.24999C2.9048 19.86 2.62499 20.1399 2.62499 20.485V28.2501H0.749998C0.404811 28.2501 0.125 28.53 0.125 28.8751V31.3751C0.125 31.7202 0.404811 32.0001 0.749998 32.0001H28.2499C28.595 32.0001 28.8749 31.7202 28.8749 31.3751V28.8751C28.8749 28.5299 28.595 28.25 28.2499 28.25ZM13.4334 1.65812C13.5259 2.14918 13.7561 2.65287 14.1117 3.11086C14.4328 3.52455 14.8096 3.84074 15.2083 4.0428C14.9952 4.15642 14.7536 4.21855 14.5006 4.21867C14.5002 4.21867 14.4997 4.21867 14.4993 4.21867C13.6714 4.2183 12.9979 3.54461 12.9979 2.71668C12.9979 2.30768 13.1623 1.93168 13.4334 1.65812ZM5.74998 16.1098H7.10966C7.11028 16.1098 7.11091 16.1099 7.11153 16.1099C7.11216 16.1099 7.11278 16.1098 7.11341 16.1098H21.8865C21.8871 16.1098 21.8877 16.1099 21.8884 16.1099C21.889 16.1099 21.8896 16.1098 21.8903 16.1098H23.25C23.5946 16.1098 23.875 16.3902 23.875 16.7348C23.875 17.0794 23.5946 17.3598 23.25 17.3598H5.75004C5.40542 17.3598 5.12504 17.0794 5.12504 16.7348C5.12504 16.3902 5.40535 16.1098 5.74998 16.1098ZM3.87499 21.1099H18.2499C18.5951 21.1099 18.8749 20.83 18.8749 20.4849C18.8749 20.1398 18.5951 19.8599 18.2499 19.8599H6.37498V18.6098H22.6249V20.4849C22.6249 20.83 22.9048 21.1099 23.2499 21.1099H25.1248V28.25H23.5624V25.75C23.5624 24.3715 22.4409 23.25 21.0624 23.25C19.6839 23.25 18.5624 24.3715 18.5624 25.75V28.25H16.9999V25.75C16.9999 24.3715 15.8784 23.25 14.4999 23.25C13.1214 23.25 12 24.3715 12 25.75V28.25H10.4375V25.75C10.4375 24.3715 9.31596 23.25 7.93747 23.25C6.55898 23.25 5.43748 24.3715 5.43748 25.75V28.25H3.87499V21.1099ZM19.8125 28.25V25.75C19.8125 25.0608 20.3732 24.5 21.0625 24.5C21.7517 24.5 22.3125 25.0608 22.3125 25.75V28.25H19.8125ZM13.2499 28.25V25.75C13.2499 25.0608 13.8107 24.5 14.4999 24.5C15.1892 24.5 15.7499 25.0608 15.7499 25.75V28.25H13.2499ZM6.68747 28.25V25.75C6.68747 25.0608 7.24822 24.5 7.93747 24.5C8.62672 24.5 9.18746 25.0608 9.18746 25.75V28.25H6.68747ZM27.6249 30.75H1.375V29.5H27.6249V30.75Z" fill="#777777"/>
<path d="M20.7502 21.1094C21.0954 21.1094 21.3752 20.8295 21.3752 20.4844C21.3752 20.1393 21.0954 19.8594 20.7502 19.8594H20.7497C20.4046 19.8594 20.125 20.1393 20.125 20.4844C20.125 20.8295 20.4051 21.1094 20.7502 21.1094Z" fill="#777777"/>
</svg>
