<svg width="33" height="30" viewBox="0 0 33 30" fill="none" xmlns="http://www.w3.org/2000/svg">
<path d="M29.8128 24.9381H31.8752C32.2204 24.9381 32.5002 24.6583 32.5002 24.3131C32.5002 23.968 32.2204 23.6881 31.8752 23.6881H29.8128C26.6106 23.6881 24.0053 21.0829 24.0053 17.8806C24.0053 16.8808 24.8187 16.0675 25.8186 16.0675C26.8184 16.0675 27.6319 16.8808 27.6319 17.8806C27.6319 18.1848 27.8509 18.4448 28.1507 18.4965C28.4509 18.5481 28.7439 18.3765 28.8458 18.09C29.5808 16.0231 29.0539 13.6856 27.5034 12.1353C26.9399 11.5718 26.2928 11.1132 25.58 10.7723C25.2689 10.6233 24.8956 10.755 24.7465 11.0665C24.5976 11.3778 24.7293 11.751 25.0407 11.9C25.6253 12.1796 26.1565 12.5561 26.6196 13.0192C27.3316 13.7311 27.7672 14.6555 27.8887 15.6246C27.3432 15.1236 26.616 14.8175 25.8186 14.8175C24.1296 14.8175 22.7554 16.1916 22.7554 17.8806C22.7553 21.7722 25.9213 24.9381 29.8128 24.9381Z" fill="#777777"/>
<path d="M3.70794 23.6874H1.125C0.779875 23.6874 0.5 23.9673 0.5 24.3124C0.5 24.6576 0.779875 24.9374 1.125 24.9374H3.70794C6.60194 24.9374 9.37612 24.0566 11.7307 22.39C13.0803 21.4347 14.2342 20.2649 15.1553 18.9302C15.3209 20.8739 16.1452 22.7716 17.6294 24.2558C17.7515 24.3778 17.9114 24.4389 18.0714 24.4389C18.2313 24.4389 18.3913 24.3778 18.5133 24.2558C18.7574 24.0118 18.7574 23.616 18.5133 23.3719C15.6589 20.5174 15.6589 15.873 18.5133 13.0186C18.9764 12.5555 19.5077 12.1788 20.0926 11.8991C20.4039 11.7501 20.5357 11.377 20.3867 11.0656C20.2377 10.7542 19.8647 10.6228 19.5532 10.7714C18.8403 11.1125 18.1929 11.5712 17.6294 12.1347C17.0859 12.6783 16.6313 13.2776 16.2646 13.914C14.4896 12.7331 13.4384 10.7815 13.4384 8.63562C13.4384 7.52413 14.3427 6.61981 15.4542 6.61981C16.5658 6.61981 17.4701 7.52413 17.4701 8.63562C17.4701 8.93981 17.6891 9.19981 17.9889 9.2515C18.289 9.30306 18.5821 9.13156 18.684 8.845C19.4734 6.625 18.9075 4.11469 17.2424 2.44963C15.824 1.03119 13.9381 0.25 11.9321 0.25C9.92612 0.25 8.04019 1.03119 6.62175 2.44963C5.58731 3.48406 4.82862 4.72075 4.38256 6.0705C3.61112 8.11756 2.34162 9.97594 0.706813 11.4478C0.450312 11.6788 0.429562 12.074 0.660563 12.3305C0.784 12.4675 0.95425 12.5373 1.12525 12.5373C1.27425 12.5373 1.42381 12.4843 1.54325 12.3768C2.45256 11.5581 3.25756 10.6293 3.94025 9.61963C4.09212 11.8434 5.03056 13.9132 6.62175 15.5044C6.74381 15.6264 6.90375 15.6875 7.06369 15.6875C7.22362 15.6875 7.38356 15.6264 7.50562 15.5044C7.74969 15.2604 7.74969 14.8646 7.50562 14.6205C5.99812 13.1131 5.16794 11.1088 5.16794 8.977C5.16794 6.84519 5.99812 4.84094 7.50562 3.3335C8.68794 2.15112 10.2599 1.49994 11.9321 1.49994C13.6041 1.49994 15.1761 2.15112 16.3584 3.3335C17.1727 4.14769 17.6568 5.216 17.7636 6.32856C17.1721 5.73656 16.3551 5.36975 15.4541 5.36975C13.6533 5.36975 12.1883 6.83475 12.1883 8.63556C12.1883 9.96813 12.5386 11.2793 13.2016 12.4271C13.8149 13.4893 14.6829 14.3924 15.7181 15.0494C15.6673 15.1785 15.6205 15.3087 15.5763 15.4396C13.7441 20.3731 8.97244 23.6874 3.70794 23.6874Z" fill="#777777"/>
<path d="M32.3171 27.7725C32.0731 27.5286 31.6775 27.5284 31.4332 27.7725C30.4657 28.7399 28.8916 28.7399 27.9242 27.7724C26.4693 26.3177 24.1022 26.3177 22.6474 27.7725C21.68 28.7399 20.1059 28.7399 19.1384 27.7724C18.4338 27.0678 17.4968 26.6796 16.5001 26.6797C15.5035 26.6797 14.5665 27.0678 13.8617 27.7725C12.8943 28.7399 11.3202 28.7399 10.3527 27.7724C9.64798 27.0678 8.71092 26.6796 7.71436 26.6797C6.71767 26.6797 5.78073 27.0678 5.07598 27.7725C4.10861 28.7399 2.53448 28.7399 1.56698 27.7725C1.32286 27.5285 0.927109 27.5285 0.683047 27.7725C0.438984 28.0166 0.438984 28.4123 0.683047 28.6564C2.13786 30.1111 4.50498 30.1111 5.95986 28.6564C6.42848 28.1878 7.05155 27.9297 7.7143 27.9297C8.37705 27.9297 9.00011 28.1877 9.46873 28.6564C10.9235 30.1111 13.2907 30.1111 14.7455 28.6564C15.2142 28.1878 15.8372 27.9297 16.5 27.9297C17.1627 27.9297 17.7858 28.1877 18.2544 28.6564C19.7092 30.1111 22.0764 30.1112 23.5312 28.6564C24.4987 27.6889 26.0727 27.689 27.0402 28.6564C27.7676 29.3838 28.7231 29.7475 29.6785 29.7475C30.634 29.7475 31.5895 29.3838 32.317 28.6564C32.5612 28.4124 32.5612 28.0166 32.3171 27.7725Z" fill="#777777"/>
</svg>
