<svg width="32" height="32" viewBox="0 0 32 32" fill="none" xmlns="http://www.w3.org/2000/svg">
<path d="M20.375 13.1875C20.375 11.2921 18.8329 9.75 16.9375 9.75H12.25C11.9049 9.75 11.625 10.0299 11.625 10.375V16C11.625 16.3451 11.9049 16.625 12.25 16.625H16.9375C18.8329 16.625 20.375 15.0829 20.375 13.1875ZM12.875 11H16.9375C18.1437 11 19.125 11.9813 19.125 13.1875C19.125 14.3937 18.1437 15.375 16.9375 15.375H12.875V11Z" fill="#777777"/>
<path d="M24.125 13.1875C24.125 9.22431 20.9007 6 16.9375 6H8.5C8.15488 6 7.875 6.27988 7.875 6.625V25.375C7.875 25.7201 8.15488 26 8.5 26H12.25C12.5951 26 12.875 25.7201 12.875 25.375V20.375H16.9375C20.9007 20.375 24.125 17.1507 24.125 13.1875ZM12.25 19.125C11.9049 19.125 11.625 19.4049 11.625 19.75V24.75H9.125V7.25H16.9375C20.2114 7.25 22.875 9.91356 22.875 13.1875C22.875 16.4614 20.2114 19.125 16.9375 19.125H12.25Z" fill="#777777"/>
<path d="M16 32C16.3452 32 16.625 31.7202 16.625 31.375C16.625 31.0298 16.3452 30.75 16 30.75C15.6548 30.75 15.375 31.0298 15.375 31.375C15.375 31.7202 15.6548 32 16 32Z" fill="#777777"/>
<path d="M29.5 0H2.5C1.1215 0 0 1.1215 0 2.5V29.5C0 30.8785 1.1215 32 2.5 32H13.1875C13.5326 32 13.8125 31.7201 13.8125 31.375C13.8125 31.0299 13.5326 30.75 13.1875 30.75H2.5C1.81075 30.75 1.25 30.1893 1.25 29.5V2.5C1.25 1.81075 1.81075 1.25 2.5 1.25H29.5C30.1893 1.25 30.75 1.81075 30.75 2.5V29.5C30.75 30.1893 30.1893 30.75 29.5 30.75H18.8125C18.4674 30.75 18.1875 31.0299 18.1875 31.375C18.1875 31.7201 18.4674 32 18.8125 32H29.5C30.8785 32 32 30.8785 32 29.5V2.5C32 1.1215 30.8785 0 29.5 0Z" fill="#777777"/>
</svg>
