<svg width="32" height="32" viewBox="0 0 32 32" fill="none" xmlns="http://www.w3.org/2000/svg">
<g clip-path="url(#clip0_1617_9475)">
<path d="M30.9797 21.0612C30.3882 21.5322 29.5613 21.5331 28.9693 21.0632L28.9601 21.0559C27.9094 20.222 26.443 20.2237 25.3939 21.0592C24.8015 21.5311 23.9737 21.5312 23.381 21.0592C23.38 21.0584 23.379 21.0576 23.3779 21.0568C22.329 20.2236 20.8641 20.223 19.8149 21.0557L19.8033 21.0649C19.2122 21.5342 18.3862 21.5342 17.7958 21.0657L17.7835 21.0559C16.7328 20.2222 15.2663 20.2236 14.2149 21.061C13.6234 21.5322 12.7965 21.5331 12.2043 21.0629L12.1931 21.054C11.1441 20.2213 9.67889 20.2214 8.62846 21.0554L8.61928 21.0627C8.02685 21.5331 7.19984 21.5325 6.60579 21.0594C5.55674 20.2236 4.09012 20.2222 3.03838 21.0568L3.02845 21.0647C2.43721 21.534 1.61119 21.5339 1.01983 21.0646C0.749433 20.8501 0.356422 20.8953 0.141825 21.1656C-0.0727723 21.4359 -0.0275282 21.829 0.242811 22.0436C1.29155 22.876 2.75667 22.8761 3.80622 22.0429L3.81609 22.0351C4.40852 21.565 5.23541 21.5656 5.82933 22.0387C6.87863 22.8748 8.34563 22.8759 9.39786 22.0404L9.40699 22.0331C9.99847 21.5634 10.8247 21.5634 11.4158 22.0327L11.427 22.0416C12.4776 22.8757 13.9442 22.8743 14.9959 22.0367C15.5874 21.5657 16.4143 21.5648 17.0056 22.0341L17.0179 22.0439C17.5424 22.4601 18.1707 22.6681 18.7991 22.6681C19.4274 22.668 20.0558 22.4601 20.5798 22.0441L20.5915 22.035C21.1838 21.5649 22.0106 21.5656 22.6021 22.0366C22.6032 22.0375 22.6042 22.0382 22.6053 22.0391C23.6561 22.8739 25.1225 22.8729 26.1725 22.0367C26.7641 21.5656 27.5909 21.5647 28.1829 22.0347L28.1921 22.042C29.2427 22.8757 30.7092 22.8744 31.7583 22.0387C32.0282 21.8237 32.0728 21.4306 31.8578 21.1605C31.6428 20.8906 31.2496 20.8461 30.9797 21.0612Z" fill="#777777"/>
<path d="M30.9795 25.7271C30.388 26.1981 29.5612 26.1989 28.9691 25.7291L28.96 25.7219C27.9093 24.8881 26.4427 24.8896 25.3937 25.7251C24.8013 26.1971 23.9735 26.1971 23.3809 25.7252C23.3799 25.7244 23.3789 25.7236 23.3779 25.7228C22.3289 24.8895 20.864 24.8891 19.8132 25.7229L19.8032 25.7309C19.212 26.2001 18.386 26.2001 17.7942 25.7304L17.7834 25.7219C16.7328 24.8882 15.2663 24.8896 14.2171 25.7251C14.2161 25.7259 14.2143 25.7273 14.2126 25.7288C13.6212 26.1982 12.7956 26.1984 12.2025 25.7274L12.193 25.72C11.1441 24.8873 9.67885 24.8874 8.62843 25.7214L8.6193 25.7287C8.02688 26.1991 7.1998 26.1984 6.60575 25.7253C5.55652 24.8895 4.08977 24.8882 3.03834 25.7228L3.02847 25.7307C2.43699 26.2 1.61116 26.2 1.0198 25.7306C0.749519 25.516 0.356383 25.5612 0.141849 25.8316C-0.072748 26.1018 -0.0275664 26.4949 0.242773 26.7095C1.29139 27.5421 2.75651 27.542 3.80618 26.7089L3.81606 26.7011C4.40848 26.231 5.23537 26.2316 5.82929 26.7047C6.87859 27.5406 8.34546 27.5418 9.39782 26.7064L9.40695 26.6991C9.99837 26.2294 10.8245 26.2294 11.4174 26.7L11.4269 26.7075C12.4775 27.5415 13.9441 27.5402 14.9935 26.7046C14.9945 26.7037 14.9962 26.7023 14.9979 26.7009C15.5892 26.2315 16.4148 26.2314 17.007 26.7014L17.0178 26.7099C17.5421 27.1259 18.1701 27.3339 18.7985 27.3339C19.4273 27.3339 20.0563 27.1255 20.5814 26.7088L20.5912 26.7009C21.1836 26.2309 22.0104 26.2315 22.602 26.7026C22.603 26.7034 22.6041 26.7043 22.6052 26.7051C23.6561 27.5398 25.1224 27.5388 26.1724 26.7026C26.7639 26.2314 27.5907 26.2308 28.1827 26.7006L28.1919 26.7079C29.2425 27.5416 30.709 27.5403 31.7582 26.7046C32.0281 26.4896 32.0726 26.0965 31.8576 25.8264C31.6426 25.5566 31.2495 25.512 30.9795 25.7271Z" fill="#777777"/>
<path d="M0.242816 17.3773C0.76731 17.7936 1.39585 18.0018 2.0244 18.0018C2.65256 18.0018 3.28067 17.7938 3.80454 17.378L3.81616 17.3689C4.40858 16.8988 5.23548 16.8994 5.8294 17.3725C6.8787 18.2085 8.34557 18.2097 9.39793 17.3742L9.40712 17.3668C9.99841 16.8972 10.8246 16.8971 11.4175 17.3678L11.427 17.3753C12.4777 18.2094 13.9442 18.208 14.9936 17.3724C14.9946 17.3715 14.9963 17.3702 14.9979 17.3688C15.5894 16.8993 16.4149 16.8992 17.0071 17.3692L17.0179 17.3777C18.0667 18.2099 19.5316 18.2099 20.5815 17.3766L20.5914 17.3687C21.1837 16.8986 22.0104 16.8993 22.6021 17.3704C22.603 17.3712 22.604 17.3719 22.605 17.3727C23.6559 18.2075 25.1224 18.2068 26.1725 17.3705C26.764 16.8993 27.5908 16.8986 28.1828 17.3684L28.192 17.3758C29.2427 18.2095 30.7091 18.208 31.7583 17.3725C32.0282 17.1574 32.0727 16.7643 31.8577 16.4943C31.6427 16.2243 31.2496 16.1797 30.9795 16.3948C30.3881 16.8658 29.5612 16.8666 28.9692 16.3969L28.96 16.3896C27.9094 15.5558 26.4429 15.5572 25.3938 16.3928C24.8014 16.8648 23.9736 16.8649 23.3809 16.3929C23.3802 16.3923 23.3795 16.3917 23.3788 16.3912C23.1561 16.2142 22.9145 16.0751 22.6622 15.9731C22.5911 15.5504 22.4825 15.1338 22.3389 14.7296C22.6555 14.8155 22.9881 14.8623 23.3316 14.8623C25.4222 14.8623 27.123 13.1614 27.123 11.0708C27.123 8.98025 25.4222 7.27941 23.3316 7.27941C22.1556 7.27941 21.1028 7.81765 20.4069 8.66073V7.58374C20.4069 7.22198 20.5873 6.88727 20.8895 6.68842L24.5468 4.28124C25.5707 3.60726 25.8977 2.24488 25.2913 1.17964C24.9748 0.623528 24.4588 0.230517 23.8385 0.0730379C23.2182 -0.0845665 22.5773 0.0147955 22.0338 0.352689L18.9132 2.292C18.5511 2.51709 18.2057 2.77356 17.8864 3.0544C17.6274 3.28237 17.602 3.67725 17.8301 3.93635C18.058 4.1955 18.4529 4.22068 18.712 3.99271C18.9796 3.75724 19.2693 3.54221 19.5729 3.35348L22.6934 1.41417C22.9456 1.25745 23.2431 1.21139 23.5309 1.28444C23.8187 1.35749 24.0582 1.53991 24.2051 1.798C24.4865 2.29231 24.3347 2.92448 23.8595 3.23719L20.2023 5.64437C19.5477 6.07519 19.157 6.80016 19.157 7.58374V11.6319C19.157 11.7561 19.194 11.8776 19.2633 11.9806L20.4768 13.7854C20.8829 14.3893 21.1784 15.0682 21.3476 15.7765C20.8033 15.8242 20.2693 16.0287 19.8131 16.3907L19.8032 16.3986C19.212 16.8678 18.386 16.8678 17.7941 16.3982L17.7833 16.3896C16.7328 15.5558 15.2663 15.5572 14.2171 16.3928C14.2161 16.3937 14.2142 16.3951 14.2126 16.3965C13.6211 16.8658 12.7956 16.8661 12.2025 16.3952L12.193 16.3878C11.7645 16.0476 11.2665 15.8466 10.7558 15.7845L16.2478 11.8701C16.4124 11.7528 16.5101 11.5633 16.5101 11.3612V8.86333C16.5101 8.74815 16.5131 8.63229 16.5192 8.51887C16.5374 8.17417 16.2729 7.87995 15.9283 7.86164C15.5834 7.84427 15.2893 8.10792 15.271 8.45257C15.2639 8.58792 15.2602 8.72616 15.2602 8.86326V11.0391L7.29639 16.7151C7.05105 16.6653 6.81396 16.5588 6.60573 16.393C5.55662 15.5573 4.08994 15.5559 3.03995 16.3892L3.02833 16.3983C2.43697 16.8676 1.61107 16.8676 1.01971 16.3983C0.749438 16.1837 0.356302 16.2289 0.141767 16.4992C-0.0727048 16.7697 -0.0275857 17.1627 0.242816 17.3773ZM23.3316 8.52918C24.733 8.52918 25.8732 9.66934 25.8732 11.0708C25.8732 12.4722 24.733 13.6124 23.3316 13.6124C21.9302 13.6124 20.79 12.4722 20.79 11.0708C20.79 9.66934 21.9302 8.52918 23.3316 8.52918Z" fill="#777777"/>
<path d="M30.9797 30.3933C30.3882 30.8643 29.5613 30.8652 28.9693 30.3953L28.9601 30.3881C27.9096 29.5544 26.4431 29.5558 25.3939 30.3913C24.8028 30.8621 23.9776 30.8634 23.3854 30.3949C23.3839 30.3936 23.3823 30.3924 23.3808 30.3912C22.3316 29.5557 20.865 29.5545 19.8133 30.3892L19.8034 30.3971C19.2121 30.8663 18.3862 30.8664 17.7959 30.3979L17.7835 30.3881C16.7328 29.5545 15.2664 29.5559 14.215 30.3932C13.6234 30.8644 12.7966 30.8652 12.2044 30.3951L12.1931 30.3862C11.1442 29.5534 9.67895 29.5537 8.63021 30.3863L8.61928 30.395C8.02685 30.8654 7.19984 30.8648 6.60579 30.3916C5.55643 29.5559 4.08981 29.5544 3.03838 30.3891L3.02845 30.3969C2.43721 30.8662 1.61119 30.8662 1.01983 30.3969C0.749433 30.1823 0.356422 30.2275 0.141825 30.4979C-0.0727723 30.7682 -0.0275282 31.1613 0.242811 31.3759C1.29155 32.2083 2.75667 32.2084 3.80622 31.3752L3.81609 31.3673C4.40845 30.8972 5.23535 30.898 5.82933 31.371C6.87876 32.2071 8.34575 32.2081 9.39611 31.374L9.40705 31.3653C9.99853 30.8957 10.8247 30.8957 11.4158 31.3649L11.427 31.3738C12.4776 32.2079 13.9442 32.2065 14.9959 31.369C15.5874 30.8978 16.4141 30.8971 17.0056 31.3664L17.0179 31.3762C17.5422 31.7922 18.1702 32.0002 18.7986 32.0002C19.4274 32.0001 20.0564 31.7918 20.5815 31.3751L20.5914 31.3672C21.1823 30.8982 22.0066 30.8978 22.5978 31.3655C22.5993 31.3667 22.6008 31.3679 22.6023 31.3691C23.6531 32.2061 25.1213 32.2061 26.1724 31.369C26.7639 30.8979 27.5907 30.8971 28.1828 31.3669L28.192 31.3742C29.2426 32.2079 30.7091 32.2066 31.7582 31.371C32.0281 31.156 32.0726 30.7628 31.8577 30.4928C31.6428 30.2228 31.2496 30.1783 30.9797 30.3933Z" fill="#777777"/>
<path d="M16.597 6.38656C16.7619 6.38656 16.9225 6.31975 17.0394 6.20345C17.1556 6.08722 17.2219 5.92599 17.2219 5.76164C17.2219 5.59728 17.1556 5.43605 17.0394 5.31919C16.9232 5.20302 16.7619 5.13672 16.597 5.13672C16.4326 5.13672 16.2714 5.20302 16.1551 5.31919C16.039 5.43605 15.9727 5.59728 15.9727 5.76164C15.9727 5.92599 16.039 6.08722 16.1551 6.20345C16.272 6.31975 16.4326 6.38656 16.597 6.38656Z" fill="#777777"/>
</g>
<defs>
<clipPath id="clip0_1617_9475">
<rect width="32" height="32" fill="white"/>
</clipPath>
</defs>
</svg>
