<svg width="33" height="32" viewBox="0 0 33 32" fill="none" xmlns="http://www.w3.org/2000/svg">
<g clip-path="url(#clip0_1617_9485)">
<path d="M27.4973 10.654C27.2679 10.3961 26.8728 10.373 26.6149 10.6024C26.3571 10.8319 26.3339 11.2269 26.5634 11.4848C27.1133 12.1031 27.6224 12.7786 28.0859 13.5H24.5737C23.7838 11.4067 22.6071 9.19962 21.0018 7.65319C21.4514 7.81606 21.8929 8.00369 22.3251 8.21719C22.6346 8.37 23.0094 8.24313 23.1623 7.93363C23.3152 7.62419 23.1882 7.24937 22.8788 7.09644C20.9023 6.12006 18.7561 5.625 16.5 5.625C7.807 5.625 0.5 13.2676 0.5 25.375V25.75C0.5 26.0951 0.779875 26.375 1.125 26.375H31.875C32.2201 26.375 32.5 26.0951 32.5 25.75V25.375C32.5 20.0294 31.0489 14.6468 27.4973 10.654ZM30.494 19.125H26.0383C25.7894 17.5846 25.4438 16.1185 25.0074 14.75H28.8182C29.5812 16.1841 30.111 17.6331 30.494 19.125ZM25.25 25V25.125H20.875V25C20.875 23.4299 20.8365 21.8774 20.7606 20.375H24.9567C25.151 21.8786 25.25 23.4314 25.25 25ZM16.5 22.875C16.1549 22.875 15.875 23.1549 15.875 23.5V25.125H13.375V25C13.375 23.4289 13.4141 21.8761 13.4912 20.375H19.5089C19.5859 21.8761 19.6251 23.4288 19.6251 25V25.125H17.1251V23.5C17.125 23.1549 16.8451 22.875 16.5 22.875ZM8.04325 20.3744H12.2394C12.1635 21.8774 12.125 23.4299 12.125 25V25.125H7.75V25C7.75 23.4314 7.849 21.8786 8.04325 20.3744ZM18.8293 13.5H14.1707C15.0171 8.11556 16.1544 6.875 16.5001 6.875C16.8458 6.875 17.983 8.11556 18.8293 13.5ZM23.6922 14.75C24.1494 16.1082 24.5116 17.5751 24.7719 19.125H20.688C20.5872 17.5829 20.4473 16.1166 20.2704 14.75H23.6922ZM19.4353 19.125H13.5646C13.6673 17.5784 13.81 16.1117 13.9902 14.75H19.0098C19.1899 16.1117 19.3326 17.5784 19.4353 19.125ZM14.5226 7.3595C13.7017 9.03387 13.1889 11.6588 12.9059 13.5H9.76719C11.0049 10.4153 12.6859 8.26719 14.5226 7.3595ZM12.7295 14.75C12.5527 16.1166 12.4128 17.583 12.312 19.125H8.22813C8.48844 17.5751 8.85063 16.1084 9.30781 14.75H12.7295ZM23.2328 13.5H20.0941C19.811 11.6584 19.2983 9.03381 18.4774 7.3595C20.3141 8.26719 21.9951 10.4152 23.2328 13.5ZM11.9915 7.65963C10.3847 9.21044 9.21113 11.4201 8.42625 13.5H4.91281C6.71794 10.6888 9.168 8.68544 11.9915 7.65963ZM4.18194 14.7494H7.99263C7.55619 16.1186 7.21069 17.5846 6.96175 19.125H2.506C2.891 17.6252 3.42231 16.178 4.18194 14.7494ZM2.22181 20.3744H6.78306C6.59544 21.8815 6.5 23.4337 6.5 25V25.125H1.75112C1.76562 23.4799 1.924 21.8857 2.22181 20.3744ZM26.5 25.125V25C26.5 23.4337 26.4046 21.8815 26.2169 20.375H30.7782C31.076 21.8857 31.2344 23.4798 31.2489 25.125H26.5Z" fill="#777777"/>
<path d="M25 9.75C25.3452 9.75 25.625 9.47018 25.625 9.125C25.625 8.77982 25.3452 8.5 25 8.5C24.6548 8.5 24.375 8.77982 24.375 9.125C24.375 9.47018 24.6548 9.75 25 9.75Z" fill="#777777"/>
</g>
<defs>
<clipPath id="clip0_1617_9485">
<rect width="32" height="32" fill="white" transform="translate(0.5)"/>
</clipPath>
</defs>
</svg>
