<svg width="214" height="54" viewBox="0 0 214 54" fill="none" xmlns="http://www.w3.org/2000/svg">
<path d="M178.271 33.2413L178.265 39.9543L182.02 39.9573C183.777 39.9587 184.974 39.6852 185.611 39.1367C185.955 38.7951 186.219 38.3818 186.384 37.9265C186.55 37.4711 186.613 36.9849 186.569 36.5024C186.57 35.3122 186.241 34.4951 185.582 34.051C184.534 33.4476 183.333 33.1585 182.125 33.2181L178.271 33.2413ZM170.786 51.2726L170.789 47.0762L173.128 47.0781L173.139 33.2438L170.8 33.2419L170.803 29.1641L181.864 29.173C185.439 29.1759 187.99 29.7577 189.518 30.9184C191.045 32.0791 191.801 33.944 191.799 36.5198C191.796 40.064 190.339 42.3422 187.419 43.3741L190.052 47.0918L193.28 47.0944L193.276 51.2908L186.952 51.2857L181.819 44.226L178.262 44.2231L178.26 47.0822L180.598 47.0841L180.595 51.2805L170.786 51.2726Z" fill="#777777"/>
<path d="M25.1633 51.141L25.1666 46.9578L26.5698 46.9589L26.581 33.118L25.1779 33.1169L25.1812 29.0391L43.1987 29.0536L43.1942 34.6071L38.6486 34.6034L38.6498 33.1278L31.7261 33.1222L31.7222 37.9708L38.6459 37.9764L38.6425 42.186L31.7188 42.1804L31.7149 46.9631L38.632 46.9687L38.6332 45.4667L43.1788 45.4703L43.1742 51.1556L25.1633 51.141Z" fill="#777777"/>
<path d="M68.5571 51.1761L68.5604 46.9929L69.9636 46.9941L69.9748 33.1532L68.5717 33.152L68.575 29.0742L86.5925 29.0888L86.588 34.6423L82.0358 34.6386L82.037 33.1629L75.1133 33.1573L75.1094 38.0059L82.0331 38.0115L82.0297 42.2211L75.106 42.2155L75.1021 46.9982L82.0192 47.0038L82.0205 45.5018L86.566 45.5055L86.5614 51.1907L68.5571 51.1761Z" fill="#777777"/>
<path d="M151.444 51.2426L151.447 47.0593L152.851 47.0605L152.862 33.2196L151.459 33.2184L151.462 29.1406L169.479 29.1552L169.475 34.7087L164.923 34.705L164.924 33.2293L158 33.2237L157.996 38.0723L164.92 38.0779L164.917 42.2875L157.993 42.2819L157.989 47.0646L164.906 47.0702L164.907 45.5682L169.46 45.5719L169.455 51.2571L151.444 51.2426Z" fill="#777777"/>
<path d="M46.3445 33.0945L44.5197 33.093L44.5229 29.0547L53.0739 29.0616L53.0706 33.0999L51.8914 33.0989L55.9215 43.1485L59.968 33.1055L58.7888 33.1045L58.792 29.0662L67.3429 29.0732L67.3397 33.1115L65.5083 33.11L58.0824 51.1676L53.7411 51.1641L46.3445 33.0945Z" fill="#777777"/>
<path d="M87.8984 51.1918L87.9018 47.0085L89.6343 47.0099L89.6455 33.1691L87.913 33.1677L87.9163 29.0898L97.126 29.0973L97.1227 33.1751L94.784 33.1732L94.7728 47.0141L100.043 47.0184L100.045 45.1606L104.597 45.1643L104.592 51.2053L87.8984 51.1918Z" fill="#777777"/>
<path d="M110.53 40.1035C110.509 41.0315 110.672 41.9545 111.011 42.8188C111.349 43.6832 111.856 44.4715 112.502 45.1381C113.13 45.7945 113.883 46.317 114.718 46.6742C115.553 47.0315 116.451 47.216 117.359 47.2167C118.267 47.2175 119.166 47.0344 120.001 46.6785C120.836 46.3226 121.591 45.8013 122.219 45.146C123.491 43.7766 124.199 41.9771 124.2 40.108C124.202 38.2389 123.497 36.4382 122.227 35.0667C121.602 34.4062 120.849 33.8799 120.014 33.52C119.179 33.16 118.28 32.974 117.371 32.9733C116.461 32.9726 115.561 33.1571 114.726 33.5157C113.89 33.8742 113.136 34.3993 112.51 35.0589C111.864 35.7277 111.356 36.5177 111.016 37.3834C110.677 38.2492 110.511 39.1736 110.53 40.1035ZM105.26 40.0992C105.229 38.5705 105.525 37.0529 106.128 35.648C106.732 34.2431 107.628 32.9833 108.758 31.953C111.128 29.8458 114.19 28.683 117.361 28.6856C120.532 28.6881 123.592 29.8559 125.958 31.9669C127.061 33.0192 127.938 34.2843 128.536 35.6855C129.135 37.0868 129.443 38.595 129.442 40.1188C129.441 41.6426 129.13 43.1503 128.529 44.5506C127.928 45.9508 127.049 47.2145 125.945 48.265C123.575 50.3722 120.514 51.535 117.342 51.5324C114.171 51.5299 111.111 50.3621 108.745 48.2511C107.617 47.219 106.722 45.9578 106.121 44.5519C105.52 43.1459 105.226 41.6278 105.26 40.0992Z" fill="#777777"/>
<path d="M136.979 40.8224L140.438 40.8252C142.151 40.8266 143.315 40.4937 143.93 39.8267C144.596 39.0112 144.927 37.9727 144.855 36.9222C144.856 35.6442 144.455 34.5569 143.652 34.016C142.848 33.4752 141.61 33.2107 139.917 33.2093L136.985 33.2069L136.979 40.8224ZM130.1 51.2255L130.103 47.0422L131.836 47.0437L131.847 33.2094L130.114 33.208L130.118 29.1367L139.999 29.1447C143.535 29.1476 146.108 29.8084 147.719 31.1273C149.329 32.4462 150.136 34.4714 150.138 37.2032C150.136 39.9349 149.306 41.9325 147.65 43.196C145.993 44.4595 143.46 45.0899 140.052 45.0872L136.989 45.0847L136.987 47.061L138.72 47.0624L138.717 51.2456L130.1 51.2255Z" fill="#777777"/>
<path d="M203.525 37.7988C200.89 37.487 199.481 36.8666 199.508 35.3119C199.543 33.4806 201.631 32.8103 203.832 32.8121C204.924 32.7619 206.015 32.9331 207.04 33.3154L207.038 35.7133L211.57 35.717L211.574 31.0397C209.987 29.9514 207.906 29.0604 204.019 28.8662C199.724 28.6651 194.795 31.1644 194.791 35.3411C194.787 40.3675 198.555 41.4575 203.014 41.9355C204.555 42.22 207.974 42.2228 207.972 44.5746C207.971 46.8408 205.665 47.2078 203.273 47.2059C201.81 47.2487 200.354 46.9942 198.992 46.458L198.993 44.765L194.599 44.7614L194.596 48.9051C196.834 50.6 199.133 51.5439 203.29 51.5472C209.416 51.5522 212.719 48.8275 212.722 44.5719C212.819 39.1436 208.327 38.3033 203.551 37.7395" fill="#777777"/>
<path d="M113.236 24.5956L113.24 20.2345L114.643 20.2356L114.654 6.86247L113.251 6.86133L113.254 2.49364L119.473 2.49868L130.766 16.7242L130.774 6.84257L129.371 6.84144L129.375 2.49352L137.319 2.49995L137.316 6.86763L135.913 6.8665L135.902 20.2528L137.305 20.254L137.302 24.6151L130.753 24.6098L119.789 10.7666L119.782 20.2398L121.185 20.2409L121.181 24.602L113.236 24.5956Z" fill="#777777"/>
<path d="M25.1913 24.5121L25.1949 20.151L26.631 20.1522L26.6418 6.779L25.2057 6.77784L25.2092 2.41016L33.1607 2.41659L33.1571 6.78428L31.7539 6.78314L31.7431 20.1563L33.1463 20.1574L33.1428 24.5185L25.1913 24.5121Z" fill="#777777"/>
<path d="M34.467 24.5199L34.4705 20.1588L36.4468 20.1604L42.4525 6.79211L41.6883 6.79149L41.6919 2.4238L49.3995 2.43004L57.3498 20.1773L59.3261 20.1789L59.3226 24.54L51.2262 24.5335L51.2298 20.1724L51.8885 20.1729L51.54 19.3623L42.3172 19.3549L41.8751 20.1648L42.5339 20.1653L42.5304 24.5264L34.467 24.5199ZM44.02 15.4233L49.7843 15.428L46.9238 9.00921L44.02 15.4233Z" fill="#777777"/>
<path d="M106.888 14.6234C106.534 16.0746 105.693 17.3604 104.505 18.266C103.317 19.1715 101.855 19.6419 100.362 19.5985C96.7056 19.5955 93.7302 16.8658 93.7329 13.5126C93.7355 10.3307 96.4187 7.80322 99.8182 7.54905L99.8223 2.46988C93.6691 2.74159 88.7639 7.57304 88.7591 13.5086C88.7542 19.6155 93.9479 24.5671 100.358 24.5723C106.379 24.5771 111.33 20.22 111.921 14.6275L106.888 14.6234Z" fill="#777777"/>
<path d="M87.4339 6.82686L87.4374 2.45917L86.0408 2.45804L80.6982 2.45371L74.0418 13.9967L67.4107 2.44296L62.068 2.43864L60.6648 2.4375L60.6613 6.80519L62.0645 6.80632L62.0536 20.1729L60.6504 20.1717L60.6469 24.5394L68.5983 24.5459L68.6019 20.1782L67.2053 20.1771L67.2115 12.5089L72.3032 21.3736L74.0358 21.375L75.775 21.3764L80.8811 12.52L80.8749 20.1881L79.4783 20.187L79.4747 24.5547L87.4196 24.5611L87.4231 20.1934L86.0265 20.1923L86.0373 6.82572L87.4339 6.82686Z" fill="#777777"/>
<path d="M101.861 7.55182L106.894 7.55589L106.89 12.5889L111.923 12.593L111.931 2.4808L101.865 2.47266L101.861 7.55182Z" fill="#777777"/>
<path d="M1.2431 51.1215L1.24663 46.7538L2.97921 46.7552L2.99004 33.382L1.25746 33.3806L1.26099 29.0195L11.1426 29.0275C15.249 29.0309 18.3972 29.9974 20.5871 31.9272C22.7771 33.857 23.8729 36.5391 23.8745 39.9735C23.8717 43.4123 22.7979 46.1322 20.6531 48.1332C18.5082 50.1341 15.2443 51.1328 10.8612 51.1292L1.2431 51.1215ZM8.11108 46.7593L11.372 46.762C13.7173 46.7639 15.5228 46.1988 16.7885 45.0667C18.0477 43.9346 18.7078 42.2948 18.7096 40.134C18.7113 37.9732 18.0539 36.306 16.8229 35.139C15.592 33.972 13.6227 33.3906 11.0139 33.3885L8.1219 33.3862L8.11108 46.7593Z" fill="#777777"/>
<path d="M1.26458 24.4926L1.26811 20.1315L3.00069 20.1329L3.01152 6.75971L1.27894 6.75831L1.28247 2.39062L11.1641 2.39862C15.2705 2.40195 18.4186 3.3685 20.6086 5.2983C22.7986 7.22809 23.8944 9.91239 23.896 13.3512C23.8932 16.79 22.8194 19.5077 20.6746 21.5042C18.5297 23.5008 15.2592 24.4995 10.8629 24.5003L1.26458 24.4926ZM8.13255 20.137L11.3935 20.1397C13.7387 20.1416 15.5442 19.5743 16.81 18.4378C18.0758 17.3013 18.7161 15.6637 18.731 13.5249C18.7328 11.3641 18.0754 9.69687 16.8444 8.53643C15.6134 7.37599 13.6441 6.78808 11.0354 6.78597L8.14336 6.78363L8.13255 20.137Z" fill="#777777"/>
<path d="M138.619 24.6058L138.623 20.2447L140.362 20.2462L140.373 6.873L138.634 6.87159L138.637 2.50391L148.519 2.5119C152.625 2.51523 155.773 3.48179 157.963 5.41158C160.153 7.34137 161.249 10.0257 161.251 13.4645C161.248 16.9033 160.174 19.621 158.029 21.6175C155.884 23.6141 152.621 24.6128 148.237 24.6136L138.619 24.6058ZM145.494 20.2503L148.755 20.2529C151.1 20.2548 152.906 19.6876 154.171 18.5511C155.437 17.4146 156.073 15.777 156.079 13.6382C156.081 11.4774 155.423 9.81015 154.193 8.64971C152.962 7.48926 150.992 6.90136 148.384 6.89925L145.518 6.89693L145.494 20.2503Z" fill="#777777"/>
</svg>
