<svg width="318" height="74" viewBox="0 0 318 74" fill="none" xmlns="http://www.w3.org/2000/svg">
<path d="M265.42 46.3015L265.412 56.3467L271.031 56.3512C273.66 56.3534 275.451 55.9441 276.405 55.1233C276.919 54.6121 277.313 53.9937 277.561 53.3123C277.809 52.6309 277.903 51.9033 277.837 51.1813C277.839 49.4003 277.347 48.1775 276.361 47.513C274.792 46.61 272.996 46.1774 271.187 46.2667L265.42 46.3015ZM254.219 73.2834L254.224 67.0039L257.724 67.0068L257.741 46.3051L254.241 46.3023L254.246 40.2002L270.798 40.2136C276.147 40.2179 279.965 41.0885 282.25 42.8254C284.536 44.5622 285.667 47.3529 285.664 51.2074C285.66 56.511 283.479 59.92 279.11 61.4642L283.049 67.0273L287.879 67.0312L287.874 73.3107L278.411 73.303L270.73 62.7389L265.407 62.7346L265.403 67.013L268.903 67.0158L268.898 73.2953L254.219 73.2834Z" fill="#777777"/>
<path d="M36.3094 73.0871L36.3145 66.8273L38.4142 66.829L38.431 46.1174L36.3312 46.1157L36.3362 40.0137L63.2977 40.0355L63.2909 48.3457L56.489 48.3402L56.4907 46.1321L46.13 46.1237L46.1242 53.3791L56.4849 53.3875L56.4798 59.6867L46.1191 59.6783L46.1133 66.8352L56.4641 66.8436L56.4659 64.596L63.2679 64.6015L63.261 73.1089L36.3094 73.0871Z" fill="#777777"/>
<path d="M101.244 73.1398L101.249 66.88L103.349 66.8817L103.366 46.1702L101.266 46.1685L101.271 40.0664L128.232 40.0882L128.226 48.3985L121.414 48.393L121.416 46.1848L111.055 46.1764L111.049 53.4318L121.41 53.4402L121.405 59.7395L111.044 59.7311L111.038 66.8879L121.389 66.8963L121.391 64.6487L128.193 64.6542L128.186 73.1616L101.244 73.1398Z" fill="#777777"/>
<path d="M225.276 73.2399L225.282 66.9801L227.381 66.9818L227.398 46.2703L225.298 46.2686L225.303 40.1665L252.265 40.1883L252.258 48.4986L245.446 48.4931L245.448 46.2849L235.087 46.2765L235.081 53.5319L245.442 53.5403L245.437 59.8396L235.076 59.8312L235.07 66.988L245.421 66.9964L245.423 64.7488L252.235 64.7543L252.228 73.2617L225.276 73.2399Z" fill="#777777"/>
<path d="M68.0048 46.0827L65.2742 46.0805L65.2791 40.0376L78.0747 40.048L78.0698 46.0909L76.3052 46.0894L82.3359 61.1277L88.391 46.0992L86.6265 46.0978L86.6314 40.0549L99.427 40.0652L99.4221 46.1082L96.6816 46.1059L85.5695 73.1274L79.0731 73.1222L68.0048 46.0827Z" fill="#777777"/>
<path d="M130.187 73.1637L130.192 66.9039L132.785 66.906L132.801 46.1945L130.209 46.1924L130.214 40.0903L143.995 40.1015L143.99 46.2036L140.491 46.2007L140.474 66.9123L148.36 66.9186L148.362 64.1387L155.174 64.1442L155.167 73.1839L130.187 73.1637Z" fill="#777777"/>
<path d="M164.053 56.5707C164.021 57.9594 164.265 59.3406 164.772 60.6339C165.278 61.9273 166.037 63.107 167.004 64.1045C167.943 65.0867 169.071 65.8686 170.32 66.4032C171.569 66.9377 172.913 67.2139 174.272 67.215C175.63 67.2161 176.975 66.9421 178.225 66.4096C179.475 65.877 180.604 65.0969 181.544 64.1163C183.448 62.0671 184.507 59.3743 184.509 56.5774C184.511 53.7804 183.457 51.0859 181.557 49.0336C180.621 48.0452 179.495 47.2576 178.245 46.7191C176.996 46.1805 175.65 45.9021 174.289 45.901C172.928 45.8999 171.582 46.1761 170.331 46.7126C169.081 47.2492 167.953 48.0349 167.016 49.0219C166.049 50.0227 165.289 51.2049 164.781 52.5004C164.272 53.7959 164.025 55.1792 164.053 56.5707ZM156.166 56.5643C156.12 54.2768 156.563 52.0058 157.466 49.9034C158.369 47.8011 159.71 45.9159 161.401 44.3742C164.947 41.2211 169.529 39.481 174.274 39.4849C179.02 39.4887 183.598 41.2362 187.14 44.3951C188.789 45.9698 190.101 47.8628 190.997 49.9596C191.894 52.0565 192.355 54.3133 192.353 56.5936C192.351 58.8738 191.886 61.1299 190.987 63.2253C190.087 65.3206 188.772 67.2116 187.12 68.7836C183.574 71.9368 178.992 73.6768 174.247 73.673C169.501 73.6691 164.922 71.9217 161.381 68.7628C159.693 67.2183 158.354 65.331 157.455 63.2272C156.556 61.1234 156.116 58.8517 156.166 56.5643Z" fill="#777777"/>
<path d="M203.631 57.6471L208.807 57.6513C211.37 57.6534 213.112 57.1553 214.033 56.1571C215.029 54.9368 215.524 53.3828 215.416 51.8109C215.418 49.8984 214.818 48.2714 213.616 47.4621C212.414 46.6527 210.561 46.2569 208.027 46.2549L203.641 46.2513L203.631 57.6471ZM193.337 73.2143L193.342 66.9545L195.935 66.9566L195.951 46.255L193.359 46.2529L193.364 40.1606L208.151 40.1726C213.441 40.1769 217.291 41.1658 219.702 43.1393C222.112 45.1129 223.319 48.1435 223.322 52.2313C223.319 56.3191 222.078 59.3083 219.598 61.199C217.119 63.0897 213.33 64.033 208.23 64.0289L203.646 64.0252L203.644 66.9826L206.236 66.9847L206.231 73.2445L193.337 73.2143Z" fill="#777777"/>
<path d="M303.21 53.124C299.267 52.6575 297.158 51.7291 297.2 49.4027C297.251 46.6622 300.377 45.6592 303.669 45.6619C305.304 45.5867 306.937 45.8429 308.47 46.415L308.467 50.0033L315.249 50.0087L315.255 43.0096C312.88 41.3811 309.766 40.0478 303.95 39.7572C297.523 39.4563 290.146 43.1963 290.141 49.4462C290.135 56.9679 295.773 58.599 302.446 59.3141C304.752 59.7399 309.868 59.744 309.866 63.2633C309.863 66.6545 306.412 67.2037 302.834 67.2008C300.644 67.2648 298.465 66.8841 296.427 66.0817L296.429 63.5482L289.854 63.5429L289.849 69.7435C293.198 72.2797 296.638 73.6922 302.858 73.6972C312.026 73.7046 316.968 69.6275 316.973 63.2592C317.118 55.1364 310.396 53.879 303.249 53.0353" fill="#777777"/>
<path d="M168.103 33.3685L168.108 26.8425L170.208 26.8442L170.224 6.83262L168.124 6.83092L168.13 0.295107L177.436 0.302639L194.335 21.5898L194.347 6.80286L192.247 6.80116L192.252 0.294915L204.141 0.304538L204.135 6.84035L202.036 6.83865L202.019 26.87L204.119 26.8717L204.114 33.3977L194.315 33.3897L177.909 12.6747L177.897 26.8505L179.997 26.8522L179.992 33.3781L168.103 33.3685Z" fill="#777777"/>
<path d="M36.3514 33.2414L36.3567 26.7154L38.5057 26.7172L38.5219 6.70553L36.3729 6.70379L36.3782 0.167969L48.2767 0.177599L48.2714 6.71342L46.1717 6.71172L46.1555 26.7233L48.2552 26.725L48.2499 33.251L36.3514 33.2414Z" fill="#777777"/>
<path d="M50.2315 33.2526L50.2368 26.7266L53.1942 26.729L62.1811 6.72467L61.0376 6.72375L61.0429 0.187928L72.5767 0.197264L84.4734 26.7544L87.4308 26.7567L87.4255 33.2827L75.3101 33.2729L75.3154 26.7469L76.3012 26.7477L75.7797 25.5348L61.9786 25.5236L61.3171 26.7356L62.3029 26.7364L62.2976 33.2624L50.2315 33.2526ZM64.5267 19.6405L73.1524 19.6475L68.872 10.0424L64.5267 19.6405Z" fill="#777777"/>
<path d="M158.602 18.4451C158.073 20.6166 156.814 22.5407 155.037 23.8958C153.259 25.2509 151.071 25.9548 148.836 25.8898C143.365 25.8854 138.913 21.8006 138.917 16.7829C138.921 12.0215 142.936 8.23933 148.023 7.85898L148.029 0.258506C138.822 0.665087 131.481 7.89488 131.474 16.7769C131.467 25.9152 139.239 33.3248 148.83 33.3326C157.841 33.3399 165.249 26.8199 166.133 18.4512L158.602 18.4451Z" fill="#777777"/>
<path d="M129.491 6.77869L129.497 0.242876L127.407 0.241184L119.412 0.234713L109.451 17.5076L99.5284 0.21862L91.5336 0.212149L89.4338 0.210449L89.4285 6.74627L91.5283 6.74797L91.5121 26.7497L89.4124 26.748L89.4071 33.2838L101.306 33.2935L101.311 26.7577L99.221 26.756L99.2303 15.2813L106.85 28.5464L109.442 28.5485L112.045 28.5506L119.686 15.2979L119.676 26.7725L117.586 26.7708L117.581 33.3066L129.47 33.3163L129.475 26.7805L127.385 26.7788L127.401 6.777L129.491 6.77869Z" fill="#777777"/>
<path d="M151.08 7.86171L158.611 7.8678L158.605 15.3993L166.136 15.4054L166.149 0.273422L151.086 0.26123L151.08 7.86171Z" fill="#777777"/>
<path d="M0.515223 73.0587L0.520513 66.5229L3.11315 66.525L3.12935 46.5134L0.53671 46.5113L0.541992 39.9854L15.3289 39.9973C21.4737 40.0023 26.1846 41.4487 29.4617 44.3364C32.7388 47.2241 34.3785 51.2377 34.3809 56.3769C34.3768 61.5228 32.7699 65.5928 29.5604 68.587C26.3508 71.5812 21.4666 73.0757 14.9078 73.0704L0.515223 73.0587ZM10.7925 66.5312L15.6722 66.5352C19.1816 66.538 21.8834 65.6924 23.7775 63.9984C25.6617 62.3044 26.6495 59.8505 26.6521 56.6171C26.6547 53.3837 25.6709 50.8889 23.8289 49.1425C21.9869 47.3962 19.0401 46.5263 15.1363 46.5231L10.8087 46.5196L10.7925 66.5312Z" fill="#777777"/>
<path d="M0.547693 33.213L0.552975 26.6871L3.14562 26.6892L3.16181 6.67756L0.569173 6.67547L0.574463 0.139648L15.3614 0.151617C21.5062 0.15659 26.2171 1.60295 29.4942 4.4907C32.7712 7.37844 34.411 11.3952 34.4134 16.5411C34.4092 21.6869 32.8024 25.7537 29.5928 28.7413C26.3833 31.729 21.4893 33.2234 14.9107 33.2247L0.547693 33.213ZM10.8249 26.6954L15.7046 26.6994C19.2141 26.7022 21.9158 25.8533 23.8099 24.1527C25.704 22.4521 26.6622 20.0015 26.6845 16.801C26.6872 13.5676 25.7034 11.0727 23.8614 9.33625C22.0193 7.59976 19.0725 6.72001 15.1688 6.71685L10.8411 6.71335L10.8249 26.6954Z" fill="#777777"/>
<path d="M206.086 33.3791L206.091 26.8531L208.693 26.8552L208.71 6.84359L206.107 6.84148L206.112 0.305664L220.899 0.317633C227.044 0.322606 231.755 1.76896 235.032 4.65671C238.309 7.54446 239.949 11.5613 239.951 16.7071C239.947 21.853 238.34 25.9197 235.131 28.9073C231.921 31.895 227.037 33.3894 220.478 33.3907L206.086 33.3791ZM216.373 26.8614L221.252 26.8654C224.762 26.8682 227.464 26.0193 229.358 24.3187C231.252 22.6181 232.203 20.1675 232.213 16.967C232.215 13.7336 231.231 11.2387 229.389 9.50226C227.547 7.76577 224.6 6.88602 220.697 6.88286L216.409 6.87939L216.373 26.8614Z" fill="#777777"/>
</svg>
