<svg width="60" height="50" viewBox="0 0 60 50" fill="none" xmlns="http://www.w3.org/2000/svg">
<path d="M32.7029 26.8288L27.054 26.8242L27.0357 49.4264L32.6846 49.431L32.7029 26.8288Z" fill="#777777"/>
<path d="M17.4624 38.1123C17.4877 38.8708 17.3601 39.6267 17.0871 40.3349C16.8141 41.043 16.4014 41.689 15.8736 42.2343C15.3457 42.7797 14.7135 43.2132 14.0146 43.509C13.3157 43.8049 12.5644 43.957 11.8054 43.9564C11.0465 43.9558 10.2954 43.8024 9.59698 43.5054C8.89854 43.2085 8.26703 42.7739 7.74006 42.2278C7.21308 41.6816 6.80143 41.0349 6.52963 40.3263C6.25782 39.6177 6.13142 38.8616 6.15795 38.1032L6.1671 26.8054L0.518192 26.8008L0.509048 38.0986C0.471408 39.6056 0.735575 41.105 1.286 42.5084C1.83643 43.9118 2.662 45.191 3.71414 46.2706C4.76627 47.3502 6.02372 48.2085 7.41249 48.7949C8.80125 49.3813 10.2933 49.684 11.8008 49.6853C13.3083 49.6865 14.8008 49.3862 16.1905 48.802C17.5802 48.2178 18.8391 47.3616 19.893 46.2837C20.9468 45.2058 21.7745 43.9279 22.3272 42.5254C22.8799 41.1229 23.1465 39.624 23.1113 38.1169L23.1204 26.8191L17.4715 26.8145L17.4624 38.1123Z" fill="#777777"/>
<path d="M14.276 29.269C14.2777 28.7818 14.1348 28.3052 13.8655 27.8993C13.5961 27.4934 13.2124 27.1766 12.7629 26.9889C12.3134 26.8012 11.8183 26.7511 11.3403 26.845C10.8623 26.9388 10.4229 27.1724 10.0777 27.5161C9.73251 27.8598 9.49706 28.2982 9.40116 28.7758C9.30526 29.2533 9.35322 29.7487 9.53897 30.199C9.72471 30.6493 10.0399 31.0344 10.4446 31.3055C10.8493 31.5765 11.3254 31.7215 11.8125 31.7219C12.4642 31.7224 13.0895 31.4645 13.5513 31.0046C14.0131 30.5448 14.2737 29.9206 14.276 29.269Z" fill="#777777"/>
<path d="M44.0048 13.3222L49.6669 13.3268L49.6682 11.611C49.664 9.8806 49.2625 8.17425 48.4948 6.62345C47.727 5.07265 46.6135 3.71881 45.24 2.66623C43.8665 1.61366 42.2697 0.890451 40.5726 0.55234C38.8756 0.21423 37.1235 0.270242 35.4515 0.716058C33.7795 1.16187 32.2321 1.98559 30.9287 3.12375C29.6252 4.2619 28.6004 5.6841 27.9333 7.28077C27.2662 8.87744 26.9745 10.606 27.0808 12.3331C27.1871 14.0603 27.6884 15.74 28.5463 17.2428L21.6105 17.2372C22.8557 15.0845 23.3558 12.581 23.0333 10.1151C22.7107 7.64918 21.5836 5.35859 19.8266 3.59854C18.0695 1.8385 15.7809 0.707366 13.3155 0.380564C10.8502 0.0537621 8.34585 0.549551 6.19096 1.79104C4.03608 3.03254 2.35104 4.95036 1.39717 7.24709C0.443294 9.54381 0.27389 12.0911 0.915227 14.4939C1.55656 16.8967 2.9728 19.0208 4.94431 20.5367C6.91582 22.0526 9.33243 22.8757 11.8194 22.8782L49.6591 22.9088L49.6637 17.2599L38.3329 17.2508C37.2138 17.2512 36.1197 16.9195 35.1891 16.2978C34.2586 15.6762 33.5334 14.7924 33.1054 13.7583C32.6773 12.7243 32.5657 11.5866 32.7846 10.4891C33.0035 9.39156 33.5431 8.38367 34.335 7.59298C35.127 6.80229 36.1358 6.26433 37.2336 6.04721C38.3315 5.83009 39.4691 5.94357 40.5024 6.37327C41.5357 6.80298 42.4183 7.5296 43.0385 8.46116C43.6587 9.39271 43.9886 10.4873 43.9863 11.6064C43.9863 11.679 43.9862 11.7516 43.9862 11.8176L44.0048 13.3222ZM11.8239 17.2557C10.7051 17.2548 9.61165 16.9221 8.68196 16.2996C7.75228 15.6771 7.02812 14.7929 6.6011 13.7587C6.17408 12.7246 6.06339 11.587 6.28303 10.4899C6.50267 9.39289 7.04278 8.38562 7.83502 7.59559C8.62725 6.80556 9.63602 6.26826 10.7337 6.05167C11.8314 5.83509 12.9686 5.94895 14.0016 6.37885C15.0345 6.80875 15.9167 7.53537 16.5366 8.46679C17.1565 9.3982 17.4862 10.4925 17.484 11.6114C17.4834 12.3538 17.3365 13.0887 17.0516 13.7743C16.7668 14.4599 16.3496 15.0825 15.8239 15.6068C15.2982 16.131 14.6744 16.5464 13.988 16.8294C13.3017 17.1123 12.5663 17.2572 11.8239 17.2557Z" fill="#777777"/>
<path d="M43.9916 38.1358C43.9892 38.8791 43.8404 39.6146 43.5536 40.3003C43.2669 40.986 42.8477 41.6084 42.3202 42.132C41.7927 42.6556 41.1672 43.0701 40.4793 43.3517C39.7915 43.6334 39.0549 43.7767 38.3117 43.7735L36.5959 43.7721L36.5914 49.3815L37.4097 49.3821C37.7066 49.3824 38.0036 49.4222 38.3071 49.4224C41.3052 49.4249 44.1815 48.2362 46.3032 46.1179C48.4249 43.9997 49.6183 41.1253 49.6207 38.1272L49.6298 26.8426L44.0007 26.838L43.9916 38.1358Z" fill="#777777"/>
<path d="M56.5008 49.4506C54.6992 49.4492 53.5651 48.2538 53.5667 46.3004C53.5684 44.2217 54.8163 43.3252 56.5189 43.3266C58.3337 43.3281 59.4679 44.4245 59.4662 46.4636C59.4646 48.5028 58.3287 49.4521 56.5008 49.4506ZM56.5046 44.7256C55.4355 44.7248 54.6432 45.2191 54.6423 46.3739C54.6414 47.5288 55.4328 48.0573 56.4821 48.0582C57.5314 48.059 58.3764 47.5978 58.3774 46.4363C58.3784 45.1759 57.5671 44.7265 56.5046 44.7256Z" fill="#777777"/>
<path d="M59.3709 42.4708L53.6626 42.4662L53.6639 40.79L58.1461 39.2033L53.6667 37.3717L53.668 35.7812L59.3763 35.7859L59.3752 37.1585L57.2502 37.1568L55.9106 37.0963L55.9106 37.1293L59.3741 38.4783L59.3728 40.0093L55.9008 41.1416L55.9007 41.1746L57.247 41.0965L59.372 41.0982L59.3709 42.4708Z" fill="#777777"/>
<path d="M53.6688 34.578L53.6706 32.354C53.6717 31.0342 54.2597 30.1504 55.5399 30.1514C55.856 30.1475 56.167 30.2312 56.4383 30.3934C56.7096 30.5555 56.9306 30.7897 57.0768 31.07L59.3814 29.2702L59.38 31.0256L57.399 32.4824C57.399 32.5748 57.3989 32.7068 57.3988 32.8124L57.3984 33.2282L59.3782 33.2298L59.3771 34.6156L53.6688 34.578ZM56.4486 32.7258C56.4492 31.9141 56.1063 31.5641 55.5652 31.5637C55.0241 31.5632 54.7533 31.8006 54.7527 32.5331L54.7522 33.193L56.4482 33.1944L56.4486 32.7258Z" fill="#777777"/>
<path d="M53.6752 26.801L53.6767 25.0324L59.3865 23.1101L59.3854 24.5355L57.7153 25.0753L57.7138 27.0089L59.3829 27.6305L59.3818 29.0032L53.6752 26.801ZM56.7186 25.3978L54.5206 25.9702L56.7176 26.6319L56.7186 25.3978Z" fill="#777777"/>
<path d="M59.387 22.4401L53.6787 22.4355L53.68 20.8451L57.5951 18.6243L57.5951 18.5979L56.9615 18.637L53.6818 18.6343L53.6829 17.2617L59.3912 17.2663L59.3898 18.9095L55.5672 21.0644L55.5671 21.0974L56.3261 21.065L59.3881 21.0675L59.387 22.4401Z" fill="#777777"/>
</svg>
