<svg viewBox="0 0 90 74" fill="none" xmlns="http://www.w3.org/2000/svg">
    <path d="M49.1689 39.7373L40.7158 39.7305L40.6884 73.5525L49.1415 73.5593L49.1689 39.7373Z" fill="#777777" />
    <path
        d="M26.3629 56.6249C26.4008 57.7599 26.2098 58.891 25.8014 59.9507C25.3929 61.0104 24.7754 61.9771 23.9855 62.7931C23.1956 63.6091 22.2495 64.2578 21.2037 64.7005C20.1578 65.1432 19.0336 65.3709 17.8979 65.37C16.7622 65.3691 15.6383 65.1396 14.5931 64.6952C13.548 64.2507 12.603 63.6005 11.8144 62.7832C11.0259 61.9659 10.4099 60.9983 10.0031 59.9379C9.59642 58.8775 9.40727 57.7462 9.44698 56.6112L9.46066 39.7051L1.00762 39.6982L0.99394 56.6043C0.937614 58.8594 1.33292 61.1031 2.15658 63.2031C2.98024 65.3032 4.21563 67.2174 5.79005 68.8329C7.36447 70.4484 9.24611 71.7328 11.3243 72.6103C13.4024 73.4878 15.6351 73.9408 17.8909 73.9426C20.1468 73.9445 22.3802 73.4951 24.4597 72.6209C26.5393 71.7468 28.423 70.4655 30.0001 68.8525C31.5771 67.2395 32.8156 65.3274 33.6427 63.2286C34.4697 61.1299 34.8686 58.8869 34.816 56.6317L34.8297 39.7256L26.3766 39.7188L26.3629 56.6249Z"
        fill="#777777" />
    <path
        d="M21.5945 43.3887C21.597 42.6598 21.3833 41.9465 20.9802 41.3391C20.5771 40.7318 20.0029 40.2577 19.3303 39.9768C18.6576 39.696 17.9168 39.621 17.2015 39.7614C16.4862 39.9019 15.8287 40.2514 15.3122 40.7657C14.7956 41.28 14.4433 41.936 14.2998 42.6507C14.1563 43.3653 14.2281 44.1065 14.506 44.7804C14.784 45.4542 15.2556 46.0304 15.8612 46.4361C16.4668 46.8418 17.1792 47.0586 17.9081 47.0592C18.8833 47.06 19.819 46.6741 20.5101 45.986C21.2011 45.2979 21.5911 44.3639 21.5945 43.3887Z"
        fill="#777777" />
    <path
        d="M66.0811 19.5263L74.5539 19.5331L74.556 16.9656C74.5496 14.3762 73.9489 11.8228 72.8 9.50218C71.6512 7.18156 69.9849 5.15566 67.9296 3.58058C65.8743 2.00551 63.4848 0.9233 60.9453 0.417351C58.4058 -0.0885978 55.784 -0.00478171 53.282 0.662338C50.78 1.32946 48.4645 2.56207 46.514 4.26521C44.5635 5.96835 43.03 8.09654 42.0318 10.4858C41.0335 12.8751 40.597 15.4616 40.7561 18.0461C40.9151 20.6307 41.6654 23.1442 42.949 25.3931L32.5704 25.3847C34.4337 22.1633 35.1821 18.4171 34.6994 14.7271C34.2167 11.0371 32.53 7.60943 29.9008 4.9757C27.2716 2.34196 23.8469 0.649333 20.1577 0.160305C16.4685 -0.328723 12.721 0.413178 9.49647 2.27095C6.27189 4.12873 3.7504 6.99856 2.32302 10.4354C0.895644 13.8722 0.642147 17.684 1.60185 21.2796C2.56154 24.8752 4.68081 28.0536 7.63098 30.322C10.5811 32.5904 14.1974 33.8221 17.9188 33.8259L74.5423 33.8717L74.5492 25.4187L57.5937 25.4049C55.9191 25.4055 54.2819 24.9093 52.8894 23.979C51.4969 23.0487 50.4118 21.7262 49.7712 20.1789C49.1307 18.6315 48.9637 16.929 49.2912 15.2867C49.6188 13.6444 50.4262 12.1362 51.6114 10.953C52.7965 9.76979 54.306 8.96479 55.9488 8.6399C57.5916 8.315 59.2939 8.4848 60.8402 9.12781C62.3865 9.77083 63.7072 10.8581 64.6353 12.2521C65.5633 13.6461 66.0569 15.2841 66.0536 16.9587C66.0535 17.0674 66.0534 17.176 66.0533 17.2747L66.0811 19.5263ZM17.9256 25.4123C16.2514 25.411 14.6152 24.913 13.224 23.9816C11.8328 23.0501 10.7492 21.7269 10.1102 20.1794C9.47121 18.6319 9.30557 16.9297 9.63424 15.288C9.96292 13.6464 10.7711 12.1391 11.9566 10.9569C13.1421 9.77468 14.6517 8.97067 16.2942 8.64657C17.9368 8.32247 19.6386 8.49285 21.1843 9.13616C22.73 9.77946 24.0501 10.8668 24.9777 12.2606C25.9053 13.6543 26.3987 15.2919 26.3954 16.9661C26.3945 18.077 26.1746 19.1769 25.7484 20.2027C25.3221 21.2286 24.6978 22.1604 23.9112 22.9448C23.1246 23.7292 22.1911 24.3509 21.164 24.7743C20.137 25.1977 19.0365 25.4145 17.9256 25.4123Z"
        fill="#777777" />
    <path
        d="M66.0613 56.6572C66.0578 57.7694 65.8351 58.87 65.4059 59.8961C64.9768 60.9222 64.3496 61.8536 63.5602 62.6371C62.7709 63.4206 61.8348 64.0408 60.8056 64.4623C59.7763 64.8838 58.6741 65.0983 57.5619 65.0935L54.9944 65.0914L54.9876 73.4852L56.2121 73.4862C56.6565 73.4866 57.1008 73.5462 57.555 73.5465C62.0414 73.5502 66.3455 71.7714 69.5204 68.6017C72.6954 65.4319 74.4811 61.1307 74.4847 56.6443L74.4984 39.758L66.0749 39.7511L66.0613 56.6572Z"
        fill="#777777" />
    <path
        d="M84.78 73.588C82.0842 73.5858 80.3871 71.7971 80.3895 68.874C80.392 65.7634 82.2594 64.4219 84.8072 64.424C87.5228 64.4262 89.22 66.0668 89.2176 69.1182C89.2151 72.1696 87.5154 73.5902 84.78 73.588ZM84.7858 66.5175C83.186 66.5162 82.0004 67.2558 81.999 68.984C81.9976 70.7121 83.182 71.5031 84.7521 71.5043C86.3222 71.5056 87.5868 70.8154 87.5882 69.0774C87.5897 67.1912 86.3756 66.5188 84.7858 66.5175Z"
        fill="#777777" />
    <path
        d="M89.0743 63.1436L80.5324 63.1367L80.5345 60.6285L87.2415 58.254L80.5386 55.5132L80.5405 53.1333L89.0824 53.1402L89.0808 55.1942L85.901 55.1916L83.8965 55.1011L83.8964 55.1505L89.0792 57.1692L89.0773 59.4602L83.8817 61.1545L83.8816 61.2039L85.8962 61.087L89.076 61.0896L89.0743 63.1436Z"
        fill="#777777" />
    <path
        d="M80.5421 51.3361L80.5448 48.0082C80.5464 46.0332 81.4264 44.7107 83.3421 44.7122C83.8151 44.7063 84.2804 44.8316 84.6864 45.0743C85.0924 45.3169 85.4232 45.6674 85.6419 46.0867L89.0905 43.3936L89.0884 46.0204L86.1241 48.2004C86.124 48.3386 86.1238 48.5361 86.1237 48.6941L86.1232 49.3163L89.0857 49.3187L89.084 51.3924L80.5421 51.3361ZM84.7018 48.5646C84.7028 47.35 84.1897 46.8262 83.3799 46.8255C82.5702 46.8249 82.165 47.18 82.1641 48.2762L82.1633 49.2637L84.7012 49.2657L84.7018 48.5646Z"
        fill="#777777" />
    <path
        d="M80.5519 39.6931L80.5541 37.0466L89.0983 34.17L89.0966 36.303L86.5975 37.1107L86.5952 40.0041L89.0928 40.9344L89.0912 42.9884L80.5519 39.6931ZM85.106 37.5934L81.8169 38.4499L85.1045 39.44L85.106 37.5934Z"
        fill="#777777" />
    <path
        d="M89.0986 33.1728L80.5567 33.1659L80.5586 30.786L86.4172 27.4628L86.4173 27.4233L85.4692 27.4818L80.5613 27.4778L80.563 25.4238L89.1049 25.4307L89.1029 27.8896L83.3826 31.1141L83.3826 31.1635L84.5183 31.1151L89.1003 31.1188L89.0986 33.1728Z"
        fill="#777777" />
</svg>