<svg width="243" height="139" viewBox="0 0 243 139" fill="none" xmlns="http://www.w3.org/2000/svg">
<path d="M119.573 73.6265L96.3471 60.1151C94.8679 59.2611 93.6631 57.1566 93.6631 55.4333L93.7241 26.6567L87.5632 30.21C85.4282 31.43 83.9184 33.321 83.1255 35.4407L83.0645 59.6576C83.0645 62.4026 84.9859 65.7728 87.3497 67.1453L119.527 85.8722C120.412 86.3907 121.144 85.9637 121.144 84.9419V76.4325C121.159 75.4107 120.442 74.145 119.558 73.6265H119.573Z" fill="url(#paint0_linear_113_2049)"/>
<path d="M120.412 51.7735L114.327 48.2356C113.595 47.8086 112.985 46.7563 112.985 45.9023V37.8961L109.935 39.6651C108.868 40.2751 108.12 41.2053 107.724 42.2728V48.0068C107.709 49.3641 108.669 51.0568 109.844 51.743L120.396 57.8888C120.839 58.148 121.205 57.9345 121.205 57.4313V53.1918C121.205 52.6733 120.854 52.048 120.412 51.7888V51.7735Z" fill="url(#paint1_linear_113_2049)"/>
<path d="M142.935 36.0507L137.872 33.1074L137.827 50.2941C137.827 51.3921 137.049 52.7493 136.088 53.2983L122.226 61.274C121.662 61.6095 121.189 62.4178 121.189 63.0735V69.8445C121.174 70.5002 121.631 70.7747 122.211 70.4545L142.935 58.529C144.46 57.6598 145.711 55.4943 145.711 53.7406L145.741 39.4361C145.238 38.0789 144.277 36.8742 142.92 36.0812L142.935 36.0507Z" fill="url(#paint2_linear_113_2049)"/>
<path d="M117.041 1.02162L87.4712 18.0405C85.1075 19.413 83.1555 22.768 83.1555 25.4977L83.125 35.4559C83.918 33.321 85.443 31.4452 87.5627 30.2252L118.627 12.3523C120.106 11.4983 122.531 11.4983 124.01 12.3523L147.236 25.8637C148.12 26.3822 149.569 26.3822 150.469 25.8637L157.834 21.6243C158.719 21.1058 158.719 20.267 157.834 19.7485L125.657 1.03687C124.468 0.350626 122.912 -0.00012207 121.357 -0.00012207C119.801 -0.00012207 118.23 0.335376 117.041 1.02162Z" fill="url(#paint3_linear_113_2049)"/>
<path d="M118.551 15.9208L97.8265 27.8463C97.2623 28.1818 97.2623 28.7155 97.8265 29.051L103.667 32.4517C104.231 32.7872 105.177 32.7872 105.741 32.4517L119.603 24.476C120.549 23.927 122.12 23.927 123.065 24.476L142.951 36.0507C144.308 36.8437 145.284 38.0485 145.788 39.4209V31.7502C145.788 29.9965 144.552 27.831 143.043 26.9465L124.102 15.9208C123.34 15.4786 122.333 15.2498 121.342 15.2498C120.351 15.2498 119.344 15.4633 118.582 15.9056" fill="url(#paint4_linear_113_2049)"/>
<path d="M119.192 28.2426L109.889 33.5953C108.715 34.2816 107.739 35.9438 107.739 37.3163V42.2725C108.121 41.205 108.883 40.2748 109.935 39.6648L119.985 33.8851C120.717 33.4581 121.937 33.4581 122.669 33.8851L128.754 37.4231C129.196 37.6823 129.928 37.6823 130.37 37.4231L134.045 35.3033C134.488 35.0441 134.488 34.6323 134.045 34.3731L123.492 28.2274C122.898 27.8766 122.12 27.7089 121.342 27.7089C120.564 27.7089 119.787 27.8766 119.192 28.2121" fill="url(#paint5_linear_113_2049)"/>
<path fill-rule="evenodd" clip-rule="evenodd" d="M22.7682 105.666C22.5875 105.485 22.4902 105.261 22.4902 105.009C22.4902 104.758 22.5875 104.534 22.7682 104.352C22.9489 104.184 23.1713 104.101 23.4215 104.101C23.6717 104.101 23.8941 104.184 24.0748 104.352C24.2555 104.534 24.3389 104.744 24.3528 105.023C24.3528 105.275 24.2555 105.499 24.0748 105.666C23.8941 105.834 23.6717 105.918 23.4215 105.918C23.1713 105.918 22.9489 105.834 22.7821 105.666" fill="white"/>
<path fill-rule="evenodd" clip-rule="evenodd" d="M20.4333 105.666C20.2526 105.485 20.1553 105.261 20.1553 105.009C20.1553 104.758 20.2526 104.534 20.4333 104.352C20.614 104.184 20.8364 104.101 21.0866 104.101C21.3368 104.101 21.5592 104.184 21.7399 104.352C21.9206 104.534 22.004 104.744 22.0179 105.023C22.0179 105.275 21.9206 105.499 21.7399 105.666C21.5592 105.834 21.3368 105.918 21.0866 105.918C20.8364 105.918 20.614 105.834 20.4472 105.666" fill="white"/>
<path d="M23.7139 107.162V111.692C23.9641 114.39 26.5773 114.124 26.5773 114.124C26.5773 114.124 29.1905 114.39 29.4407 111.692V107.162H28.3565V106.072H30.5249V111.091C30.5249 114.11 29.4824 115.187 26.5912 115.187C23.6861 115.187 22.6436 114.11 22.6436 111.091V107.162" fill="white"/>
<path d="M17.0273 114.124H19.6962C19.6962 114.124 22.3094 114.39 22.5596 111.692V107.162H23.6438V111.091C23.6438 114.111 22.6013 115.187 19.7101 115.187H17.0412" fill="white"/>
<path d="M17.0275 115.187C14.1223 115.187 13.0798 114.11 13.0798 111.091L12.9408 108.323H10.0774C8.54841 108.323 7.79781 108.854 7.79781 110.825C7.79781 112.335 8.35381 112.992 9.50752 113.02H11.0365V115.173C11.0365 115.173 11.2172 118.235 7.29741 118.235H4.23939C1.15357 118.235 0.514166 115.173 0.514166 115.173C-0.097438 111.804 2.29338 110.755 2.29338 110.755C2.44628 110.671 2.59918 110.615 2.76598 110.587C3.54438 110.476 4.12819 110.867 4.22549 111.566C4.32279 112.307 3.83629 112.81 3.30808 112.922C3.30808 112.922 2.82158 113.034 2.37678 112.796C2.37678 112.796 1.48717 113.3 1.77907 115.173C1.77907 115.173 2.14048 117.116 4.85099 117.116H6.6858C9.93842 117.116 9.75772 115.173 9.75772 115.173V114.096C6.3105 114.208 6.5746 110.783 6.5746 110.783C6.5468 106.925 10.2025 107.148 10.2025 107.148H14.164V111.678C14.4142 114.376 17.0275 114.11 17.0275 114.11" fill="white"/>
<path fill-rule="evenodd" clip-rule="evenodd" d="M28.9538 117.843C28.7731 117.675 28.6758 117.438 28.6758 117.186C28.6758 116.934 28.7731 116.711 28.9538 116.529C29.1345 116.361 29.3569 116.277 29.6071 116.277C29.8573 116.277 30.0797 116.361 30.2604 116.529C30.4411 116.711 30.5245 116.934 30.5384 117.2C30.5384 117.452 30.4411 117.675 30.2604 117.843C30.0797 118.011 29.8573 118.095 29.6071 118.095C29.3569 118.095 29.1345 118.011 28.9677 117.843" fill="white"/>
<path fill-rule="evenodd" clip-rule="evenodd" d="M26.6325 117.843C26.4518 117.675 26.3545 117.438 26.3545 117.186C26.3545 116.934 26.4518 116.711 26.6325 116.529C26.8132 116.361 27.0356 116.277 27.2858 116.277C27.536 116.277 27.7584 116.361 27.9391 116.529C28.1198 116.711 28.2032 116.934 28.2171 117.2C28.2171 117.452 28.1198 117.675 27.9391 117.843C27.7584 118.011 27.536 118.095 27.2858 118.095C27.0356 118.095 26.8132 118.011 26.6464 117.843" fill="white"/>
<path fill-rule="evenodd" clip-rule="evenodd" d="M6.61687 120.905C6.43617 120.737 6.33887 120.499 6.33887 120.248C6.33887 119.996 6.43617 119.772 6.61687 119.591C6.79757 119.423 7.01997 119.339 7.27017 119.339C7.52037 119.339 7.74278 119.423 7.92348 119.591C8.10418 119.772 8.18758 119.996 8.20148 120.262C8.20148 120.513 8.10418 120.737 7.92348 120.905C7.74278 121.072 7.52037 121.156 7.27017 121.156C7.01997 121.156 6.79757 121.072 6.63077 120.905" fill="white"/>
<path fill-rule="evenodd" clip-rule="evenodd" d="M4.29558 120.905C4.11488 120.737 4.01758 120.499 4.01758 120.248C4.01758 119.996 4.11488 119.772 4.29558 119.591C4.47628 119.423 4.69868 119.339 4.94888 119.339C5.19908 119.339 5.42149 119.423 5.60219 119.591C5.78289 119.772 5.86629 119.996 5.88019 120.262C5.88019 120.513 5.78289 120.737 5.60219 120.905C5.42149 121.072 5.19908 121.156 4.94888 121.156C4.69868 121.156 4.47628 121.072 4.30948 120.905" fill="white"/>
<path d="M2.98921 132.836H7.85987V131.061H6.41801V122.99H8.56321V124.818H10.4447V121.266H0.404423V124.818H2.28587V122.99H4.43107V131.061H2.98921V132.836ZM11.503 132.836H16.2505V131.061H14.8087V127.843H20.1541V131.061H18.7122V132.836H23.4598V131.061H22.1411V123.042H23.4598V121.266H18.7122V123.042H20.1541V126.102H14.8087V123.042H16.2505V121.266H11.503V123.042H12.8217V131.061H11.503V132.836ZM24.7594 132.836H33.4105V129.531H31.5115V131.078H28.0651V127.808H31.5642V126.12H28.0651V123.025H31.4939V124.572H33.3929V121.266H24.7594V123.042H26.0781V131.061H24.7594V132.836ZM42.9562 133.047C45.33 133.047 47.0356 131.799 47.0356 129.601C47.0356 127.456 45.4706 126.735 43.3958 125.996C42.2353 125.574 41.2682 125.152 41.2682 124.203C41.2682 123.359 41.9363 122.779 43.0793 122.779C43.8002 122.779 44.2925 122.937 44.609 123.13C44.5387 123.271 44.486 123.394 44.486 123.675C44.486 124.256 44.9431 124.854 45.752 124.854C46.4202 124.854 46.9301 124.379 46.9301 123.552C46.9301 122.163 45.2596 121.055 43.0969 121.055C40.7582 121.055 39.2636 122.497 39.2636 124.344C39.2636 126.489 40.7758 127.175 42.921 127.948C44.0815 128.353 45.0486 128.81 45.0486 129.759C45.0486 130.762 44.2398 131.324 42.9738 131.324C42.2177 131.324 41.5671 131.131 41.1451 130.832C41.2506 130.621 41.3033 130.41 41.3033 130.129C41.3033 129.566 40.811 128.986 40.0373 128.986C39.3164 128.986 38.824 129.531 38.824 130.357C38.824 131.764 40.6703 133.047 42.9562 133.047ZM53.8898 133.047C56.4394 133.047 58.2153 131.606 58.2153 128.581V123.042H59.4813V121.266H54.892V123.042H56.2811V128.581C56.2811 130.375 55.3844 131.236 53.8898 131.236C52.4127 131.236 51.516 130.287 51.516 128.511V123.042H52.9051V121.266H48.263V123.042H49.529V128.616C49.529 131.606 51.305 133.047 53.8898 133.047ZM64.5407 133.047C66.9145 133.047 68.6201 131.799 68.6201 129.601C68.6201 127.456 67.0552 126.735 64.9803 125.996C63.8198 125.574 62.8527 125.152 62.8527 124.203C62.8527 123.359 63.5209 122.779 64.6638 122.779C65.3848 122.779 65.8771 122.937 66.1936 123.13C66.1233 123.271 66.0705 123.394 66.0705 123.675C66.0705 124.256 66.5277 124.854 67.3365 124.854C68.0047 124.854 68.5146 124.379 68.5146 123.552C68.5146 122.163 66.8442 121.055 64.6814 121.055C62.3428 121.055 60.8482 122.497 60.8482 124.344C60.8482 126.489 62.3604 127.175 64.5056 127.948C65.6661 128.353 66.6332 128.81 66.6332 129.759C66.6332 130.762 65.8243 131.324 64.5583 131.324C63.8022 131.324 63.1516 131.131 62.7296 130.832C62.8351 130.621 62.8879 130.41 62.8879 130.129C62.8879 129.566 62.3955 128.986 61.6219 128.986C60.9009 128.986 60.4086 129.531 60.4086 130.357C60.4086 131.764 62.2549 133.047 64.5407 133.047ZM72.1903 132.836H77.061V131.061H75.6191V122.99H77.7643V124.818H79.6457V121.266H69.6055V124.818H71.487V122.99H73.6322V131.061H72.1903V132.836ZM79.4063 132.836H83.855V131.078H82.4483L83.0989 129.179H87.4244L88.075 131.078H86.7387V132.836H91.1873V131.061H90.1851L87.3013 123.025H88.5674V121.266H82.0263V123.025H83.2923L80.4086 131.061H79.4063V132.836ZM83.644 127.526L85.2616 122.972L86.8793 127.526H83.644ZM92.0716 132.836H96.8719V131.061H95.4652V123.042H96.8719V121.266H92.0716V123.042H93.4783V131.061H92.0716V132.836ZM107.733 132.889L108.806 132.854V123.042H110.072V121.266H105.429V123.042H106.871V128.528L101.174 121.266H98.1675V123.042H99.4862V131.061H98.1675V132.836H102.862V131.061H101.42V124.854L107.733 132.889ZM110.813 132.836H115.262V131.078H113.855L114.506 129.179H118.831L119.482 131.078H118.145V132.836H122.594V131.061H121.592L118.708 123.025H119.974V121.266H113.433V123.025H114.699L111.815 131.061H110.813V132.836ZM115.051 127.526L116.668 122.972L118.286 127.526H115.051ZM123.478 132.836H128.296C131.11 132.836 132.657 131.518 132.657 129.601C132.657 128.159 131.795 127.315 130.353 126.893C131.496 126.506 132.323 125.645 132.323 124.308C132.323 122.568 130.934 121.266 128.103 121.266H123.478V123.042H124.797V131.061H123.478V132.836ZM126.766 131.096V127.755H128.279C129.773 127.755 130.617 128.353 130.617 129.425C130.617 130.533 129.703 131.096 128.331 131.096H126.766ZM126.766 126.172V123.007H128.068C129.474 123.007 130.283 123.552 130.283 124.537C130.283 125.539 129.509 126.172 128.12 126.172H126.766ZM133.953 132.836H142.358V129.443H140.441V131.078H137.259V123.042H138.788V121.266H133.953V123.042H135.272V131.061H133.953V132.836ZM143.586 132.836H152.237V129.531H150.338V131.078H146.892V127.808H150.391V126.12H146.892V123.025H150.321V124.572H152.22V121.266H143.586V123.042H144.905V131.061H143.586V132.836ZM163.875 133.047C165.722 133.047 167.392 132.291 168.517 131.043L167.199 129.671C166.337 130.603 165.229 131.201 163.875 131.201C161.431 131.201 159.813 129.355 159.813 127.034C159.813 124.625 161.537 122.902 163.787 122.902C164.842 122.902 165.511 123.165 165.845 123.429C165.774 123.57 165.722 123.798 165.722 124.027C165.722 124.783 166.267 125.276 167.058 125.276C167.779 125.276 168.324 124.695 168.324 123.851C168.324 122.462 166.53 121.055 163.84 121.055C160.464 121.055 157.756 123.57 157.756 127.051C157.756 130.656 160.306 133.047 163.875 133.047ZM169.944 132.836H174.745V131.061H173.338V123.042H174.745V121.266H169.944V123.042H171.351V131.061H169.944V132.836ZM178.379 132.836H183.249V131.061H181.808V122.99H183.953V124.818H185.834V121.266H175.794V124.818H177.675V122.99H179.821V131.061H178.379V132.836ZM189.288 132.836H194.194V131.061H192.734V128.423L196.023 123.042H197.183V121.266H192.805V123.042H193.895L191.785 126.753L189.657 123.042H190.677V121.266H186.299V123.042H187.459L190.747 128.423V131.061H189.288V132.836Z" fill="white"/>
<path d="M201.321 128.441H205.014V127.526H201.321V128.441Z" fill="white"/>
<path d="M211.092 132.836H215.523V131.957H213.817V128.089L217.299 122.146H218.582V121.266H214.908V122.146H216.226L213.325 127.245L210.459 122.146H211.725V121.266H208.05V122.146H209.316L212.797 128.106V131.957H211.092V132.836ZM219.877 132.836H224.15V131.957H222.515V122.146H224.15V121.266H219.877V122.146H221.512V131.957H219.877V132.836ZM228.539 132.836H232.812V131.957H231.177V122.11H234.43V123.974H235.397V121.266H225.955V123.974H226.922V122.11H230.175V131.957H228.539V132.836ZM237.203 132.836H241.476V131.957H239.841V122.146H241.476V121.266H237.203V122.146H238.838V131.957H237.203V132.836Z" fill="white"/>
<path fill-rule="evenodd" clip-rule="evenodd" d="M206.013 118.584C205.776 118.36 205.665 118.081 205.651 117.759C205.651 117.438 205.776 117.158 205.999 116.934C206.221 116.725 206.499 116.627 206.819 116.613C207.125 116.613 207.417 116.711 207.639 116.934C207.861 117.158 207.973 117.438 207.987 117.773C207.987 118.081 207.861 118.374 207.639 118.584C207.417 118.794 207.125 118.906 206.819 118.906C206.513 118.906 206.235 118.794 206.013 118.584Z" fill="white"/>
<path d="M206.013 118.584C205.776 118.36 205.665 118.081 205.651 117.759C205.651 117.438 205.776 117.158 205.999 116.934C206.221 116.725 206.499 116.627 206.819 116.613C207.125 116.613 207.417 116.711 207.639 116.934C207.861 117.158 207.973 117.438 207.987 117.773C207.987 118.081 207.861 118.374 207.639 118.584C207.417 118.794 207.125 118.906 206.819 118.906C206.513 118.906 206.235 118.794 206.013 118.584Z" fill="white"/>
<path fill-rule="evenodd" clip-rule="evenodd" d="M203.08 118.584C202.844 118.36 202.733 118.081 202.719 117.759C202.719 117.438 202.844 117.158 203.066 116.934C203.289 116.725 203.567 116.627 203.886 116.613C204.192 116.613 204.484 116.711 204.706 116.934C204.929 117.158 205.04 117.438 205.054 117.773C205.054 118.081 204.929 118.374 204.706 118.584C204.484 118.794 204.192 118.906 203.886 118.906C203.581 118.906 203.303 118.794 203.08 118.584Z" fill="white"/>
<path d="M203.08 118.584C202.844 118.36 202.733 118.081 202.719 117.759C202.719 117.438 202.844 117.158 203.066 116.934C203.289 116.725 203.567 116.627 203.886 116.613C204.192 116.613 204.484 116.711 204.706 116.934C204.929 117.158 205.04 117.438 205.054 117.773C205.054 118.081 204.929 118.374 204.706 118.584C204.484 118.794 204.192 118.906 203.886 118.906C203.581 118.906 203.303 118.794 203.08 118.584Z" fill="white"/>
<path d="M94.7705 113.761C95.9381 113.761 96.647 113.076 96.647 111.664V107.302H95.5628V105.904H98.1621V111.664C98.1621 114.04 96.7721 115.173 94.7705 115.173" fill="white"/>
<path d="M94.7705 113.761C95.9381 113.761 96.647 113.076 96.647 111.664V107.302H95.5628V105.904H98.1621V111.664C98.1621 114.04 96.7721 115.173 94.7705 115.173" fill="white"/>
<path d="M146.34 110.462V111.72C146.34 113.132 145.631 113.747 144.464 113.747V115.173C146.465 115.173 147.855 114.096 147.855 111.706V110.503L146.34 110.448V110.462Z" fill="white"/>
<path d="M146.34 110.462V111.72C146.34 113.132 145.631 113.747 144.464 113.747V115.173C146.465 115.173 147.855 114.096 147.855 111.706V110.503L146.34 110.448V110.462Z" fill="white"/>
<path d="M98.1489 110.462V111.72C98.1489 113.132 98.8578 113.747 100.025 113.747V115.173C98.0238 115.173 96.6338 114.096 96.6338 111.706V110.503L98.1489 110.448V110.462Z" fill="white"/>
<path d="M98.1489 110.462V111.72C98.1489 113.132 98.8578 113.747 100.025 113.747V115.173C98.0238 115.173 96.6338 114.096 96.6338 111.706V110.503L98.1489 110.448V110.462Z" fill="white"/>
<path d="M155.625 110.462V111.72C155.625 113.132 156.32 113.747 157.502 113.747V115.173C155.5 115.173 154.11 114.096 154.11 111.706V110.503L155.625 110.448V110.462Z" fill="white"/>
<path d="M155.625 110.462V111.72C155.625 113.132 156.32 113.747 157.502 113.747V115.173C155.5 115.173 154.11 114.096 154.11 111.706V110.503L155.625 110.448V110.462Z" fill="white"/>
<path d="M146.34 110.462C146.34 107.792 148.272 105.737 151.024 105.737C153.776 105.737 155.639 107.806 155.639 110.462C155.639 113.118 153.707 115.187 150.955 115.187C148.202 115.187 146.34 113.118 146.34 110.462ZM154.013 110.462C154.013 108.56 152.734 107.19 150.982 107.19C149.231 107.19 147.938 108.547 147.938 110.462C147.938 112.377 149.217 113.733 150.982 113.733C152.748 113.733 154.013 112.377 154.013 110.462Z" fill="white"/>
<path d="M146.34 110.462C146.34 107.792 148.272 105.737 151.024 105.737C153.776 105.737 155.639 107.806 155.639 110.462C155.639 113.118 153.707 115.187 150.955 115.187C148.202 115.187 146.34 113.118 146.34 110.462ZM154.013 110.462C154.013 108.56 152.734 107.19 150.982 107.19C149.231 107.19 147.938 108.547 147.938 110.462C147.938 112.377 149.217 113.733 150.982 113.733C152.748 113.733 154.013 112.377 154.013 110.462Z" fill="white"/>
<path d="M70.5152 110.462V111.72C70.5152 113.132 69.8063 113.747 68.6387 113.747V115.173C70.6403 115.173 72.0303 114.096 72.0303 111.706V110.503L70.5152 110.448V110.462Z" fill="white"/>
<path d="M70.5152 110.462V111.72C70.5152 113.132 69.8063 113.747 68.6387 113.747V115.173C70.6403 115.173 72.0303 114.096 72.0303 111.706V110.503L70.5152 110.448V110.462Z" fill="white"/>
<path d="M70.5146 110.462C70.5146 107.792 72.4468 105.737 75.199 105.737C77.9512 105.737 79.8138 107.806 79.8138 110.462C79.8138 113.118 77.8817 115.187 75.1295 115.187C72.3773 115.187 70.5146 113.118 70.5146 110.462ZM78.1875 110.462C78.1875 108.56 76.9087 107.19 75.1573 107.19C73.4059 107.19 72.1132 108.547 72.1132 110.462C72.1132 112.377 73.392 113.733 75.1573 113.733C76.9226 113.733 78.1875 112.377 78.1875 110.462Z" fill="white"/>
<path d="M70.5146 110.462C70.5146 107.792 72.4468 105.737 75.199 105.737C77.9512 105.737 79.8138 107.806 79.8138 110.462C79.8138 113.118 77.8817 115.187 75.1295 115.187C72.3773 115.187 70.5146 113.118 70.5146 110.462ZM78.1875 110.462C78.1875 108.56 76.9087 107.19 75.1573 107.19C73.4059 107.19 72.1132 108.547 72.1132 110.462C72.1132 112.377 73.392 113.733 75.1573 113.733C76.9226 113.733 78.1875 112.377 78.1875 110.462Z" fill="white"/>
<path d="M92.8945 111.678V105.918H90.2952V107.316H91.3794V111.678C91.3794 113.09 90.0033 113.775 88.8218 113.775C87.8488 113.775 87.3067 113.411 87.3067 113.411C87.3484 113.272 87.3762 113.16 87.3206 112.922C87.2233 112.461 86.7924 112.041 86.153 112.125C85.5692 112.209 85.2217 112.712 85.319 113.383C85.4719 114.446 87.0148 115.187 88.8218 115.187C90.0172 115.187 91.2265 114.781 92.0188 113.943C92.6165 114.767 93.5756 115.187 94.7571 115.187V113.761C93.5895 113.761 92.8806 113.076 92.8806 111.664" fill="white"/>
<path d="M92.8945 111.678V105.918H90.2952V107.316H91.3794V111.678C91.3794 113.09 90.0033 113.775 88.8218 113.775C87.8488 113.775 87.3067 113.411 87.3067 113.411C87.3484 113.272 87.3762 113.16 87.3206 112.922C87.2233 112.461 86.7924 112.041 86.153 112.125C85.5692 112.209 85.2217 112.712 85.319 113.383C85.4719 114.446 87.0148 115.187 88.8218 115.187C90.0172 115.187 91.2265 114.781 92.0188 113.943C92.6165 114.767 93.5756 115.187 94.7571 115.187V113.761C93.5895 113.761 92.8806 113.076 92.8806 111.664" fill="white"/>
<path d="M165.05 113.873V103.695H162.492V105.038H163.465V113.873H162.492V115.187H165.995V113.873H165.05Z" fill="white"/>
<path d="M165.05 113.873V103.695H162.492V105.038H163.465V113.873H162.492V115.187H165.995V113.873H165.05Z" fill="white"/>
<path d="M83.0391 113.873V103.695H80.4814V105.038H81.4683V113.873H80.4814V115.187H83.9843V113.873H83.0391Z" fill="white"/>
<path d="M83.0391 113.873V103.695H80.4814V105.038H81.4683V113.873H80.4814V115.187H83.9843V113.873H83.0391Z" fill="white"/>
<path d="M142.601 111.678V106.002H141.085V111.678C141.085 113.09 140.377 113.775 139.209 113.775V115.201C140.321 115.201 141.238 114.837 141.836 114.096C142.434 114.823 143.351 115.201 144.463 115.201V113.775C143.296 113.775 142.587 113.09 142.587 111.678" fill="white"/>
<path d="M142.601 111.678V106.002H141.085V111.678C141.085 113.09 140.377 113.775 139.209 113.775V115.201C140.321 115.201 141.238 114.837 141.836 114.096C142.434 114.823 143.351 115.201 144.463 115.201V113.775C143.296 113.775 142.587 113.09 142.587 111.678" fill="white"/>
<path d="M132.051 111.678V106.002H130.536V111.678C130.536 113.09 129.827 113.775 128.659 113.775V115.201C129.771 115.201 130.689 114.837 131.286 114.096C131.884 114.823 132.801 115.201 133.913 115.201V113.775C132.746 113.775 132.037 113.09 132.037 111.678" fill="white"/>
<path d="M132.051 111.678V106.002H130.536V111.678C130.536 113.09 129.827 113.775 128.659 113.775V115.201C129.771 115.201 130.689 114.837 131.286 114.096C131.884 114.823 132.801 115.201 133.913 115.201V113.775C132.746 113.775 132.037 113.09 132.037 111.678" fill="white"/>
<path d="M157.502 113.761C158.67 113.761 159.378 113.09 159.378 111.678V105.093V103.695H161.88V105.093H160.894V111.678C160.894 114.055 159.504 115.187 157.502 115.187" fill="white"/>
<path d="M157.502 113.761C158.67 113.761 159.378 113.09 159.378 111.678V105.093V103.695H161.88V105.093H160.894V111.678C160.894 114.055 159.504 115.187 157.502 115.187" fill="white"/>
<path d="M51.6947 111.622V105.862H50.1379V106.855C49.3455 106.17 48.303 105.75 47.0798 105.75C44.3276 105.75 42.3955 107.792 42.3955 110.476C42.3955 112.587 43.4797 114.236 45.4257 114.949C45.8983 115.117 46.4404 115.215 46.9269 115.215C48.8034 115.215 49.7209 114.432 49.8738 113.328C49.9711 112.629 49.6235 112.097 49.0119 112.013C48.3586 111.93 47.8721 112.363 47.8026 112.838C47.7748 113.076 47.8026 113.342 47.8582 113.523C47.8582 113.523 47.8026 113.719 46.7879 113.719C45.3006 113.719 44.0079 112.279 44.0079 110.476C44.0079 108.56 45.2867 107.204 47.052 107.204C48.8173 107.204 50.1379 108.574 50.1379 110.476V111.706C50.1379 114.055 51.5279 115.201 53.5573 115.201V113.775C52.4036 113.775 51.6947 113.02 51.6947 111.622Z" fill="white"/>
<path d="M51.6947 111.622V105.862H50.1379V106.855C49.3455 106.17 48.303 105.75 47.0798 105.75C44.3276 105.75 42.3955 107.792 42.3955 110.476C42.3955 112.587 43.4797 114.236 45.4257 114.949C45.8983 115.117 46.4404 115.215 46.9269 115.215C48.8034 115.215 49.7209 114.432 49.8738 113.328C49.9711 112.629 49.6235 112.097 49.0119 112.013C48.3586 111.93 47.8721 112.363 47.8026 112.838C47.7748 113.076 47.8026 113.342 47.8582 113.523C47.8582 113.523 47.8026 113.719 46.7879 113.719C45.3006 113.719 44.0079 112.279 44.0079 110.476C44.0079 108.56 45.2867 107.204 47.052 107.204C48.8173 107.204 50.1379 108.574 50.1379 110.476V111.706C50.1379 114.055 51.5279 115.201 53.5573 115.201V113.775C52.4036 113.775 51.6947 113.02 51.6947 111.622Z" fill="white"/>
<path fill-rule="evenodd" clip-rule="evenodd" d="M47.4268 104.478C47.1905 104.255 47.0793 103.975 47.0654 103.653C47.0654 103.332 47.1905 103.052 47.4129 102.829C47.6353 102.619 47.9133 102.521 48.233 102.507C48.5388 102.507 48.8307 102.605 49.0531 102.829C49.2755 103.052 49.3867 103.332 49.4006 103.667C49.4006 103.975 49.2755 104.269 49.0531 104.478C48.8307 104.688 48.5388 104.8 48.233 104.8C47.9272 104.8 47.6492 104.688 47.4268 104.478Z" fill="white"/>
<path d="M47.4268 104.478C47.1905 104.255 47.0793 103.975 47.0654 103.653C47.0654 103.332 47.1905 103.052 47.4129 102.829C47.6353 102.619 47.9133 102.521 48.233 102.507C48.5388 102.507 48.8307 102.605 49.0531 102.829C49.2755 103.052 49.3867 103.332 49.4006 103.667C49.4006 103.975 49.2755 104.269 49.0531 104.478C48.8307 104.688 48.5388 104.8 48.233 104.8C47.9272 104.8 47.6492 104.688 47.4268 104.478Z" fill="white"/>
<path fill-rule="evenodd" clip-rule="evenodd" d="M44.4942 104.478C44.2579 104.255 44.1467 103.975 44.1328 103.653C44.1328 103.332 44.2579 103.052 44.4803 102.829C44.7027 102.619 44.9807 102.521 45.3004 102.507C45.6062 102.507 45.8981 102.605 46.1205 102.829C46.3429 103.052 46.4541 103.332 46.468 103.667C46.468 103.975 46.3429 104.269 46.1205 104.478C45.8981 104.688 45.6062 104.8 45.3004 104.8C44.9946 104.8 44.7166 104.688 44.4942 104.478Z" fill="white"/>
<path d="M44.4942 104.478C44.2579 104.255 44.1467 103.975 44.1328 103.653C44.1328 103.332 44.2579 103.052 44.4803 102.829C44.7027 102.619 44.9807 102.521 45.3004 102.507C45.6062 102.507 45.8981 102.605 46.1205 102.829C46.3429 103.052 46.4541 103.332 46.468 103.667C46.468 103.975 46.3429 104.269 46.1205 104.478C45.8981 104.688 45.6062 104.8 45.3004 104.8C44.9946 104.8 44.7166 104.688 44.4942 104.478Z" fill="white"/>
<path fill-rule="evenodd" clip-rule="evenodd" d="M98.1065 104.478C97.8702 104.255 97.759 103.975 97.7451 103.653C97.7451 103.332 97.8702 103.052 98.0926 102.829C98.315 102.619 98.593 102.521 98.9127 102.507C99.2185 102.507 99.5104 102.605 99.7328 102.829C99.9552 103.052 100.066 103.332 100.08 103.667C100.08 103.975 99.9552 104.269 99.7328 104.478C99.5104 104.688 99.2185 104.8 98.9127 104.8C98.6069 104.8 98.3289 104.688 98.1065 104.478Z" fill="white"/>
<path d="M98.1065 104.478C97.8702 104.255 97.759 103.975 97.7451 103.653C97.7451 103.332 97.8702 103.052 98.0926 102.829C98.315 102.619 98.593 102.521 98.9127 102.507C99.2185 102.507 99.5104 102.605 99.7328 102.829C99.9552 103.052 100.066 103.332 100.08 103.667C100.08 103.975 99.9552 104.269 99.7328 104.478C99.5104 104.688 99.2185 104.8 98.9127 104.8C98.6069 104.8 98.3289 104.688 98.1065 104.478Z" fill="white"/>
<path fill-rule="evenodd" clip-rule="evenodd" d="M95.1319 104.478C94.8956 104.255 94.7844 103.975 94.7705 103.653C94.7705 103.332 94.8956 103.052 95.118 102.829C95.3404 102.619 95.6184 102.521 95.9381 102.507C96.2439 102.507 96.5358 102.605 96.7582 102.829C96.9806 103.052 97.0918 103.332 97.1057 103.667C97.1057 103.975 96.9806 104.269 96.7582 104.478C96.5358 104.688 96.2439 104.8 95.9381 104.8C95.6323 104.8 95.3543 104.688 95.1319 104.478Z" fill="white"/>
<path d="M95.1319 104.478C94.8956 104.255 94.7844 103.975 94.7705 103.653C94.7705 103.332 94.8956 103.052 95.118 102.829C95.3404 102.619 95.6184 102.521 95.9381 102.507C96.2439 102.507 96.5358 102.605 96.7582 102.829C96.9806 103.052 97.0918 103.332 97.1057 103.667C97.1057 103.975 96.9806 104.269 96.7582 104.478C96.5358 104.688 96.2439 104.8 95.9381 104.8C95.6323 104.8 95.3543 104.688 95.1319 104.478Z" fill="white"/>
<path d="M139.209 113.761C138.056 113.761 137.347 113.02 137.347 111.608V107.162H135.79V111.692C135.79 114.041 137.18 115.173 139.209 115.173" fill="white"/>
<path d="M139.209 113.761C138.056 113.761 137.347 113.02 137.347 111.608V107.162H135.79V111.692C135.79 114.041 137.18 115.173 139.209 115.173" fill="white"/>
<path d="M133.927 113.761C135.08 113.761 135.789 113.02 135.789 111.608V107.162H137.346V111.692C137.346 114.041 135.956 115.173 133.927 115.173" fill="white"/>
<path d="M133.927 113.761C135.08 113.761 135.789 113.02 135.789 111.608V107.162H137.346V111.692C137.346 114.041 135.956 115.173 133.927 115.173" fill="white"/>
<path d="M128.66 113.761H100.025V115.187H128.66V113.761Z" fill="white"/>
<path d="M68.6392 113.761H53.5576V115.187H68.6392V113.761Z" fill="white"/>
<path d="M202.51 111.664C202.51 113.062 203.928 113.761 205.082 113.761C206.235 113.761 206.958 113.076 206.958 111.664V107.302H205.874V105.904H208.473V111.664C208.473 114.04 207.083 115.173 205.095 115.173C203.108 115.173 201.009 114.054 201.009 111.692" fill="white"/>
<path d="M202.51 111.664C202.51 113.062 203.928 113.761 205.082 113.761C206.235 113.761 206.958 113.076 206.958 111.664V107.302H205.874V105.904H208.473V111.664C208.473 114.04 207.083 115.173 205.095 115.173C203.108 115.173 201.009 114.054 201.009 111.692" fill="white"/>
<path d="M200.995 106.995V111.664C200.995 113.076 199.619 113.747 198.451 113.747V115.173C200.453 115.173 202.51 114.04 202.51 111.664V106.995H200.995Z" fill="white"/>
<path d="M200.995 106.995V111.664C200.995 113.076 199.619 113.747 198.451 113.747V115.173C200.453 115.173 202.51 114.04 202.51 111.664V106.995H200.995Z" fill="white"/>
<path d="M218.147 111.664V105.904H215.548V107.302H216.632V111.664C216.632 113.076 215.256 113.761 214.075 113.761C213.102 113.761 212.56 113.397 212.56 113.397C212.601 113.258 212.629 113.146 212.574 112.908C212.476 112.447 212.045 112.027 211.406 112.111C210.822 112.195 210.475 112.698 210.572 113.369C210.725 114.432 212.268 115.173 214.075 115.173C215.27 115.173 216.479 114.767 217.272 113.929C217.869 114.753 218.829 115.173 220.01 115.173V113.747C218.842 113.747 218.134 113.062 218.134 111.65" fill="white"/>
<path d="M218.147 111.664V105.904H215.548V107.302H216.632V111.664C216.632 113.076 215.256 113.761 214.075 113.761C213.102 113.761 212.56 113.397 212.56 113.397C212.601 113.258 212.629 113.146 212.574 112.908C212.476 112.447 212.045 112.027 211.406 112.111C210.822 112.195 210.475 112.698 210.572 113.369C210.725 114.432 212.268 115.173 214.075 115.173C215.27 115.173 216.479 114.767 217.272 113.929C217.869 114.753 218.829 115.173 220.01 115.173V113.747C218.842 113.747 218.134 113.062 218.134 111.65" fill="white"/>
<path fill-rule="evenodd" clip-rule="evenodd" d="M200.745 104.478C200.509 104.255 200.398 103.975 200.384 103.653C200.384 103.332 200.509 103.052 200.731 102.829C200.954 102.619 201.232 102.521 201.551 102.507C201.857 102.507 202.149 102.605 202.371 102.829C202.594 103.052 202.705 103.332 202.719 103.667C202.719 103.975 202.594 104.269 202.371 104.478C202.149 104.688 201.857 104.8 201.551 104.8C201.246 104.8 200.968 104.688 200.745 104.478Z" fill="white"/>
<path d="M200.745 104.478C200.509 104.255 200.398 103.975 200.384 103.653C200.384 103.332 200.509 103.052 200.731 102.829C200.954 102.619 201.232 102.521 201.551 102.507C201.857 102.507 202.149 102.605 202.371 102.829C202.594 103.052 202.705 103.332 202.719 103.667C202.719 103.975 202.594 104.269 202.371 104.478C202.149 104.688 201.857 104.8 201.551 104.8C201.246 104.8 200.968 104.688 200.745 104.478Z" fill="white"/>
<path d="M179.853 111.608V105.848H178.296V106.841C177.504 106.156 176.461 105.737 175.238 105.737C172.486 105.737 170.554 107.778 170.554 110.462C170.554 112.573 171.638 114.222 173.584 114.935C174.057 115.103 174.599 115.187 175.085 115.187C176.962 115.187 177.879 114.404 178.032 113.3C178.129 112.601 177.782 112.069 177.17 111.986C176.517 111.888 176.03 112.335 175.961 112.81C175.933 113.048 175.961 113.314 176.016 113.495C176.016 113.495 175.961 113.691 174.946 113.691C173.459 113.691 172.166 112.251 172.166 110.448C172.166 108.533 173.445 107.176 175.21 107.176C176.976 107.176 178.296 108.547 178.296 110.448V111.678C178.296 114.027 179.686 115.159 181.715 115.159V113.733C180.562 113.733 179.853 112.978 179.853 111.58" fill="white"/>
<path d="M179.853 111.608V105.848H178.296V106.841C177.504 106.156 176.461 105.737 175.238 105.737C172.486 105.737 170.554 107.778 170.554 110.462C170.554 112.573 171.638 114.222 173.584 114.935C174.057 115.103 174.599 115.187 175.085 115.187C176.962 115.187 177.879 114.404 178.032 113.3C178.129 112.601 177.782 112.069 177.17 111.986C176.517 111.888 176.03 112.335 175.961 112.81C175.933 113.048 175.961 113.314 176.016 113.495C176.016 113.495 175.961 113.691 174.946 113.691C173.459 113.691 172.166 112.251 172.166 110.448C172.166 108.533 173.445 107.176 175.21 107.176C176.976 107.176 178.296 108.547 178.296 110.448V111.678C178.296 114.027 179.686 115.159 181.715 115.159V113.733C180.562 113.733 179.853 112.978 179.853 111.58" fill="white"/>
<path fill-rule="evenodd" clip-rule="evenodd" d="M175.669 104.478C175.433 104.255 175.322 103.975 175.308 103.653C175.308 103.332 175.433 103.052 175.655 102.829C175.878 102.619 176.156 102.521 176.475 102.507C176.781 102.507 177.073 102.605 177.295 102.829C177.518 103.052 177.629 103.332 177.643 103.667C177.643 103.975 177.518 104.269 177.295 104.478C177.073 104.688 176.781 104.8 176.475 104.8C176.169 104.8 175.891 104.688 175.669 104.478Z" fill="white"/>
<path d="M175.669 104.478C175.433 104.255 175.322 103.975 175.308 103.653C175.308 103.332 175.433 103.052 175.655 102.829C175.878 102.619 176.156 102.521 176.475 102.507C176.781 102.507 177.073 102.605 177.295 102.829C177.518 103.052 177.629 103.332 177.643 103.667C177.643 103.975 177.518 104.269 177.295 104.478C177.073 104.688 176.781 104.8 176.475 104.8C176.169 104.8 175.891 104.688 175.669 104.478Z" fill="white"/>
<path fill-rule="evenodd" clip-rule="evenodd" d="M172.736 104.478C172.5 104.255 172.389 103.975 172.375 103.653C172.375 103.332 172.5 103.052 172.723 102.829C172.945 102.619 173.223 102.521 173.543 102.507C173.848 102.507 174.14 102.605 174.363 102.829C174.585 103.052 174.696 103.332 174.71 103.667C174.71 103.975 174.585 104.269 174.363 104.478C174.14 104.688 173.848 104.8 173.543 104.8C173.237 104.8 172.959 104.688 172.736 104.478Z" fill="white"/>
<path d="M172.736 104.478C172.5 104.255 172.389 103.975 172.375 103.653C172.375 103.332 172.5 103.052 172.723 102.829C172.945 102.619 173.223 102.521 173.543 102.507C173.848 102.507 174.14 102.605 174.363 102.829C174.585 103.052 174.696 103.332 174.71 103.667C174.71 103.975 174.585 104.269 174.363 104.478C174.14 104.688 173.848 104.8 173.543 104.8C173.237 104.8 172.959 104.688 172.736 104.478Z" fill="white"/>
<path d="M198.452 113.761H181.716V115.187H198.452V113.761Z" fill="white"/>
<path d="M198.452 113.761H181.716V115.187H198.452V113.761Z" fill="white"/>
<path d="M221.887 110.448V111.706C221.887 113.118 221.178 113.733 220.011 113.733V115.159C222.012 115.159 223.402 114.082 223.402 111.692V110.49L221.887 110.434V110.448Z" fill="white"/>
<path d="M221.887 110.448V111.706C221.887 113.118 221.178 113.733 220.011 113.733V115.159C222.012 115.159 223.402 114.082 223.402 111.692V110.49L221.887 110.434V110.448Z" fill="white"/>
<path d="M231.172 110.448V111.706C231.172 113.118 231.867 113.733 233.049 113.733V115.159C231.047 115.159 229.657 114.082 229.657 111.692V110.49L231.172 110.434V110.448Z" fill="white"/>
<path d="M231.172 110.448V111.706C231.172 113.118 231.867 113.733 233.049 113.733V115.159C231.047 115.159 229.657 114.082 229.657 111.692V110.49L231.172 110.434V110.448Z" fill="white"/>
<path d="M221.887 110.448C221.887 107.778 223.819 105.723 226.571 105.723C229.323 105.723 231.186 107.792 231.186 110.448C231.186 113.104 229.254 115.173 226.502 115.173C223.749 115.173 221.887 113.104 221.887 110.448ZM229.56 110.448C229.56 108.546 228.281 107.176 226.529 107.176C224.778 107.176 223.485 108.532 223.485 110.448C223.485 112.363 224.764 113.719 226.529 113.719C228.295 113.719 229.56 112.363 229.56 110.448Z" fill="white"/>
<path d="M221.887 110.448C221.887 107.778 223.819 105.723 226.571 105.723C229.323 105.723 231.186 107.792 231.186 110.448C231.186 113.104 229.254 115.173 226.502 115.173C223.749 115.173 221.887 113.104 221.887 110.448ZM229.56 110.448C229.56 108.546 228.281 107.176 226.529 107.176C224.778 107.176 223.485 108.532 223.485 110.448C223.485 112.363 224.764 113.719 226.529 113.719C228.295 113.719 229.56 112.363 229.56 110.448Z" fill="white"/>
<path d="M240.597 113.859V103.681H238.039V105.024H239.026V113.859H238.039V115.173H241.542V113.859H240.597Z" fill="white"/>
<path d="M240.597 113.859V103.681H238.039V105.024H239.026V113.859H238.039V115.173H241.542V113.859H240.597Z" fill="white"/>
<path d="M233.049 113.747C234.216 113.747 234.925 113.076 234.925 111.664V105.079V103.681H237.427V105.079H236.44V111.664C236.44 114.041 235.05 115.173 233.049 115.173" fill="white"/>
<path d="M233.049 113.747C234.216 113.747 234.925 113.076 234.925 111.664V105.079V103.681H237.427V105.079H236.44V111.664C236.44 114.041 235.05 115.173 233.049 115.173" fill="white"/>
<path d="M34.6113 110.14H38.3088V111.063H34.6113V110.14Z" fill="white"/>
<defs>
<linearGradient id="paint0_linear_113_2049" x1="113.916" y1="87.8407" x2="72.1862" y2="16.5135" gradientUnits="userSpaceOnUse">
<stop stop-color="#67B996"/>
<stop offset="0.35" stop-color="#67B996"/>
<stop offset="0.5" stop-color="#50A286"/>
<stop offset="0.83" stop-color="#27796A"/>
<stop offset="1" stop-color="#17695F"/>
</linearGradient>
<linearGradient id="paint1_linear_113_2049" x1="114.442" y1="57.9522" x2="114.484" y2="39.3168" gradientUnits="userSpaceOnUse">
<stop stop-color="#E58E35"/>
<stop offset="1" stop-color="#D06640"/>
</linearGradient>
<linearGradient id="paint2_linear_113_2049" x1="154.474" y1="23.4406" x2="127.871" y2="66.8426" gradientUnits="userSpaceOnUse">
<stop stop-color="#1D5273"/>
<stop offset="0.59" stop-color="#0C7A95"/>
<stop offset="1" stop-color="#0391A9"/>
</linearGradient>
<linearGradient id="paint3_linear_113_2049" x1="84.3984" y1="17.6849" x2="187.777" y2="17.9195" gradientUnits="userSpaceOnUse">
<stop stop-color="#67B996"/>
<stop offset="0.21" stop-color="#5CAE8E"/>
<stop offset="0.57" stop-color="#40927B"/>
<stop offset="1" stop-color="#17695F"/>
</linearGradient>
<linearGradient id="paint4_linear_113_2049" x1="80.8741" y1="32.0577" x2="143.885" y2="26.3904" gradientUnits="userSpaceOnUse">
<stop stop-color="#1D5273"/>
<stop offset="0.59" stop-color="#0C7A95"/>
<stop offset="1" stop-color="#0391A9"/>
</linearGradient>
<linearGradient id="paint5_linear_113_2049" x1="108.013" y1="34.9861" x2="148.593" y2="35.0782" gradientUnits="userSpaceOnUse">
<stop stop-color="#E58E35"/>
<stop offset="1" stop-color="#D06640"/>
</linearGradient>
</defs>
</svg>
