<svg width="21" height="22" viewBox="0 0 21 22" fill="none" xmlns="http://www.w3.org/2000/svg">
<g clip-path="url(#clip0_1977_6591)">
<path d="M19.1311 10.0334H9.80725C7.67453 10.0334 5.59876 9.6391 3.6256 8.8607V2.90498C3.6256 2.34981 4.07727 1.89814 4.63244 1.89814H5.43791C5.99308 1.89814 6.44474 2.34981 6.44474 2.90498V3.19076C5.51616 3.45443 4.8338 4.30944 4.8338 5.32139V6.12686C4.8338 6.46048 5.10428 6.73096 5.43791 6.73096H8.65978C8.99341 6.73096 9.26388 6.46048 9.26388 6.12686V5.32139C9.26388 4.30944 8.58153 3.45447 7.65295 3.19076V2.90498C7.65295 1.68361 6.65928 0.689941 5.43791 0.689941H4.63244C3.41106 0.689941 2.4174 1.68361 2.4174 2.90498V8.43416C1.65345 8.34979 0.888336 8.76058 0.560269 9.49855C0.363654 9.94079 0.351089 10.4332 0.524788 10.8851C0.698487 11.337 1.03775 11.6942 1.48007 11.8908C1.52401 11.9103 1.56815 11.9293 1.61217 11.9485V14.2621C1.61217 16.1293 2.5584 17.7795 3.9964 18.7588L2.92182 20.3707C2.73673 20.6483 2.81176 21.0234 3.08936 21.2084C3.19238 21.2771 3.30873 21.3099 3.42391 21.3099C3.61912 21.3099 3.8107 21.2155 3.92709 21.0408L5.07021 19.3261C5.68377 19.5667 6.35123 19.699 7.04904 19.699H14.2983C14.9961 19.699 15.6635 19.5667 16.2771 19.3261L17.4203 21.0408C17.5367 21.2155 17.7282 21.3099 17.9234 21.3099C18.0386 21.3099 18.155 21.2771 18.258 21.2084C18.5356 21.0234 18.6106 20.6483 18.4255 20.3707L17.351 18.7589C18.789 17.7795 19.7352 16.1293 19.7352 14.2621V13.5542C20.4384 13.3048 20.9434 12.6333 20.9434 11.8458C20.9434 10.8464 20.1305 10.0334 19.1311 10.0334ZM7.04884 4.31455C7.60401 4.31455 8.05568 4.76622 8.05568 5.32139V5.52275H6.04201V5.32139C6.04201 4.76622 6.49367 4.31455 7.04884 4.31455ZM18.527 14.2621C18.527 16.5938 16.63 18.4908 14.2983 18.4908H7.04909C4.71737 18.4908 2.82037 16.5938 2.82037 14.2621V12.4314C5.0599 13.2457 7.40373 13.658 9.80725 13.658H18.527V14.2621ZM19.1311 12.4498H9.80725C7.08976 12.4498 4.45322 11.8903 1.97081 10.7867C1.66646 10.6515 1.52897 10.2937 1.66432 9.98932C1.76416 9.76464 1.98579 9.63105 2.21756 9.63105C2.29932 9.63105 2.38236 9.64768 2.4617 9.68284C4.78874 10.7172 7.26012 11.2416 9.80725 11.2416H19.1311C19.4642 11.2416 19.7352 11.5126 19.7352 11.8457C19.7352 12.1788 19.4642 12.4498 19.1311 12.4498Z" fill="#058DA6"/>
</g>
<defs>
<clipPath id="clip0_1977_6591">
<rect width="20.62" height="20.62" fill="white" transform="translate(0.363281 0.689941)"/>
</clipPath>
</defs>
</svg>
