<svg width="22" height="22" viewBox="0 0 22 22" fill="none" xmlns="http://www.w3.org/2000/svg">
<g clip-path="url(#clip0_1977_6587)">
<path d="M17.0673 5.84487H11.9123C11.1278 5.84775 10.359 6.06599 9.68998 6.47581C9.02094 6.88563 8.47726 7.47129 8.11825 8.16892C7.60309 7.77781 6.97454 7.56518 6.32775 7.5632C5.53022 7.5632 4.76536 7.88002 4.20142 8.44396C3.63748 9.0079 3.32066 9.77276 3.32066 10.5703C3.32318 11.0171 3.42625 11.4575 3.62223 11.859H2.4615V3.26737C2.4615 3.0395 2.37098 2.82097 2.20985 2.65985C2.04873 2.49872 1.8302 2.4082 1.60233 2.4082C1.37447 2.4082 1.15593 2.49872 0.994808 2.65985C0.833683 2.82097 0.743164 3.0395 0.743164 3.26737L0.743164 18.7324C0.743164 18.9602 0.833683 19.1788 0.994808 19.3399C1.15593 19.501 1.37447 19.5915 1.60233 19.5915C1.8302 19.5915 2.04873 19.501 2.20985 19.3399C2.37098 19.1788 2.4615 18.9602 2.4615 18.7324V17.014H19.6448V18.7324C19.6448 18.9602 19.7353 19.1788 19.8965 19.3399C20.0576 19.501 20.2761 19.5915 20.504 19.5915C20.7319 19.5915 20.9504 19.501 21.1115 19.3399C21.2726 19.1788 21.3632 18.9602 21.3632 18.7324V10.1407C21.3618 9.0018 20.9088 7.90993 20.1034 7.1046C19.2981 6.29927 18.2062 5.84623 17.0673 5.84487V5.84487ZM9.33483 10.1407C9.33483 9.45711 9.60639 8.80151 10.0898 8.31814C10.5731 7.83476 11.2287 7.5632 11.9123 7.5632H17.0673C17.7509 7.5632 18.4065 7.83476 18.8899 8.31814C19.3733 8.80151 19.6448 9.45711 19.6448 10.1407V11.859H9.33483V10.1407ZM5.039 10.5703C5.039 10.3154 5.11458 10.0662 5.25619 9.8543C5.3978 9.64236 5.59908 9.47718 5.83456 9.37964C6.07005 9.28209 6.32918 9.25657 6.57917 9.3063C6.82916 9.35603 7.0588 9.47877 7.23903 9.659C7.41927 9.83924 7.54201 10.0689 7.59173 10.3189C7.64146 10.5689 7.61594 10.828 7.5184 11.0635C7.42085 11.299 7.25567 11.5002 7.04374 11.6418C6.8318 11.7835 6.58264 11.859 6.32775 11.859C5.98595 11.859 5.65815 11.7233 5.41646 11.4816C5.17478 11.2399 5.039 10.9121 5.039 10.5703ZM2.4615 15.2957V13.5774H19.6448V15.2957H2.4615Z" fill="#058DA6"/>
</g>
<defs>
<clipPath id="clip0_1977_6587">
<rect width="20.62" height="20.62" fill="white" transform="translate(0.743164 0.689941)"/>
</clipPath>
</defs>
</svg>
