<svg width="21" height="22" viewBox="0 0 21 22" fill="none" xmlns="http://www.w3.org/2000/svg">
<g clip-path="url(#clip0_1977_6583)">
<path d="M20.3437 13.3413C20.1657 13.1252 19.9375 12.9561 19.6789 12.8488C19.4203 12.7416 19.1394 12.6994 18.8608 12.7261C17.3638 12.8445 15.9108 13.2886 14.6034 14.0274C13.2961 14.7661 12.166 15.7817 11.2924 17.0031V12.6411C12.4922 12.4372 13.5814 11.8158 14.3675 10.8867C15.1536 9.95753 15.5859 8.78044 15.5882 7.56339C15.5882 5.16374 13.9188 3.13696 12.2856 1.47104C11.7904 0.987195 11.1255 0.716309 10.4332 0.716309C9.74086 0.716309 9.07601 0.987195 8.58083 1.47104C6.94755 3.13696 5.27819 5.16374 5.27819 7.56339C5.28045 8.78044 5.71281 9.95753 6.49889 10.8867C7.28497 11.8158 8.37416 12.4372 9.57402 12.6411V17.0031C8.70035 15.7817 7.57028 14.7661 6.26295 14.0274C4.95561 13.2886 3.50259 12.8445 2.00562 12.7261C1.72699 12.6996 1.44609 12.7418 1.18755 12.849C0.929019 12.9563 0.700732 13.1253 0.522701 13.3413C0.34581 13.5513 0.222645 13.8012 0.163823 14.0694C0.105 14.3376 0.112285 14.6161 0.185048 14.8809C1.93689 21.1855 10.0818 21.3101 10.428 21.3101H10.4383C10.782 21.3101 18.9303 21.1855 20.6822 14.8809C20.7545 14.616 20.7615 14.3376 20.7026 14.0694C20.6436 13.8012 20.5205 13.5514 20.3437 13.3413V13.3413ZM6.99652 7.56339C6.99652 5.28316 9.84724 2.64982 9.86442 2.63521C9.55083 3.43939 7.59192 8.33664 9.57402 8.42256C9.80189 8.42256 10.0204 8.33204 10.1815 8.17091C10.3427 8.00979 10.4332 7.79125 10.4332 7.56339C10.498 6.03531 10.8651 4.53523 11.5132 3.14985C12.7426 4.46438 13.8699 5.97737 13.8699 7.56339C13.8699 8.47485 13.5078 9.34898 12.8633 9.99348C12.2188 10.638 11.3447 11.0001 10.4332 11.0001C9.52173 11.0001 8.6476 10.638 8.0031 9.99348C7.3586 9.34898 6.99652 8.47485 6.99652 7.56339V7.56339ZM1.84668 14.4367C3.39467 14.5621 4.88212 15.0939 6.15871 15.9784C7.43529 16.8629 8.45575 18.0687 9.11695 19.474C6.97161 19.1767 2.87252 18.1311 1.84668 14.4367ZM11.7606 19.4723C12.4272 18.071 13.4479 16.8678 14.7219 15.9818C15.996 15.0958 17.4791 14.5576 19.0249 14.4204C17.999 18.1165 13.9094 19.1716 11.7606 19.4723Z" fill="#058DA6"/>
</g>
<defs>
<clipPath id="clip0_1977_6583">
<rect width="20.62" height="20.62" fill="white" transform="translate(0.123291 0.689941)"/>
</clipPath>
</defs>
</svg>
