<svg viewBox="0 0 28 29" fill="none" xmlns="http://www.w3.org/2000/svg">
    <path
        d="M15.2889 2.55897C14.4913 2.09849 13.5087 2.09849 12.7111 2.55897L3.92009 7.63447C3.12252 8.09494 2.6312 8.94593 2.6312 9.86688V20.0179C2.6312 20.9388 3.12253 21.7898 3.92009 22.2503L12.7111 27.3258C13.5087 27.7863 14.4913 27.7863 15.2889 27.3258L24.0799 22.2503C24.8775 21.7898 25.3688 20.9388 25.3688 20.0179V9.86688C25.3688 8.94593 24.8775 8.09494 24.0799 7.63447L15.2889 2.55897Z"
        fill="#058DA6" stroke="white" stroke-width="1.51112" />
    <path
        d="M15.2907 10.0265C14.4931 9.56602 13.5105 9.56602 12.7129 10.0265L10.3882 11.3687C9.59068 11.8291 9.09935 12.6801 9.09935 13.6011V16.2854C9.09935 17.2064 9.59068 18.0574 10.3882 18.5178L12.7129 19.86C13.5105 20.3205 14.4931 20.3205 15.2907 19.86L17.6154 18.5178C18.413 18.0574 18.9043 17.2064 18.9043 16.2854V13.6011C18.9043 12.6801 18.413 11.8291 17.6154 11.3687L15.2907 10.0265Z"
        fill="white" stroke="white" stroke-width="1.51112" />
</svg>