<svg width="22" height="22" viewBox="0 0 22 22" fill="none" xmlns="http://www.w3.org/2000/svg">
<g clip-path="url(#clip0_1977_6579)">
<path d="M16.8268 2.40723H4.79652C2.42742 2.40723 0.5 4.33465 0.5 6.70375V18.734C0.5 19.2092 0.884968 19.5933 1.3593 19.5933C1.83364 19.5933 2.21861 19.2092 2.21861 18.734V17.0154H19.4047V18.734C19.4047 19.2092 19.7888 19.5933 20.264 19.5933C20.7392 19.5933 21.1233 19.2092 21.1233 18.734V6.70375C21.1233 4.33465 19.1959 2.40723 16.8268 2.40723ZM4.79652 4.12583H16.8268C18.2481 4.12583 19.4047 5.28246 19.4047 6.70375V11.8596H17.6861C17.6861 9.96395 16.1445 8.42236 14.2489 8.42236H13.3896C12.3636 8.42236 11.4424 8.87435 10.8116 9.58843C10.1809 8.87349 9.25975 8.42236 8.23374 8.42236H7.37443C5.47881 8.42236 3.93722 9.96395 3.93722 11.8596H2.21861V6.70375C2.21861 5.28246 3.37523 4.12583 4.79652 4.12583ZM11.671 11.8596C11.671 10.9118 12.4417 10.141 13.3896 10.141H14.2489C15.1967 10.141 15.9675 10.9118 15.9675 11.8596H11.671ZM5.65582 11.8596C5.65582 10.9118 6.42662 10.141 7.37443 10.141H8.23374C9.18155 10.141 9.95234 10.9118 9.95234 11.8596H5.65582ZM2.21861 15.2968V13.5782H19.4047V15.2968H2.21861Z" fill="#058DA6"/>
</g>
<defs>
<clipPath id="clip0_1977_6579">
<rect width="20.6233" height="20.6233" fill="white" transform="translate(0.5 0.688477)"/>
</clipPath>
</defs>
</svg>
