<svg width="22" height="22" viewBox="0 0 22 22" fill="none" xmlns="http://www.w3.org/2000/svg">
<g clip-path="url(#clip0_1977_6596)">
<path d="M21.5097 6.23488C21.4584 6.33552 21.3879 6.42507 21.302 6.49842C21.2162 6.57177 21.1167 6.62747 21.0093 6.66234C20.9019 6.69721 20.7886 6.71057 20.6761 6.70164C20.5635 6.69272 20.4538 6.66169 20.3532 6.61034L12.7986 2.75182C12.3274 2.52377 11.8105 2.4058 11.287 2.40684C10.7635 2.40789 10.2472 2.52791 9.77687 2.75783L2.23339 6.6069C2.03036 6.71058 1.79446 6.72936 1.57759 6.65911C1.36071 6.58886 1.18063 6.43533 1.07695 6.2323C0.973271 6.02927 0.954491 5.79338 1.02474 5.5765C1.09499 5.35963 1.24852 5.17954 1.45155 5.07586L9.00706 1.22508C9.71673 0.876909 10.4965 0.695383 11.287 0.69434C12.0775 0.693298 12.8578 0.872768 13.5684 1.21907L21.1351 5.0793C21.3379 5.1829 21.4914 5.36283 21.5616 5.57953C21.6319 5.79623 21.6132 6.03196 21.5097 6.23488ZM19.952 11.9621C20.4705 12.8714 20.7435 13.9 20.7441 14.9468V16.1548C20.744 16.7579 20.5851 17.3504 20.2835 17.8726C19.9819 18.3949 19.5481 18.8286 19.0258 19.1301V19.5915C19.0258 20.0472 18.8448 20.4843 18.5225 20.8065C18.2003 21.1288 17.7632 21.3098 17.3075 21.3098C16.8517 21.3098 16.4147 21.1288 16.0924 20.8065C15.7702 20.4843 15.5891 20.0472 15.5891 19.5915H6.99747C6.99747 20.0472 6.81643 20.4843 6.49418 20.8065C6.17193 21.1288 5.73486 21.3098 5.27913 21.3098C4.8234 21.3098 4.38634 21.1288 4.06409 20.8065C3.74184 20.4843 3.5608 20.0472 3.5608 19.5915V19.1301C3.0385 18.8286 2.60475 18.3949 2.30313 17.8726C2.00151 17.3504 1.84263 16.7579 1.84247 16.1548V14.9468C1.84311 13.9 2.1161 12.8714 2.63462 11.9621L4.40278 8.86909C4.7793 8.21223 5.32232 7.66623 5.97711 7.28612C6.63189 6.90601 7.37531 6.70522 8.13243 6.70399H14.4542C15.2113 6.70522 15.9547 6.90601 16.6095 7.28612C17.2643 7.66623 17.8073 8.21223 18.1838 8.86909L19.952 11.9621ZM4.18198 12.7182H18.4046L16.6923 9.72138C16.4663 9.32728 16.1404 8.99971 15.7475 8.77165C15.3546 8.54359 14.9085 8.4231 14.4542 8.42232H8.13243C7.67885 8.42386 7.23366 8.5447 6.84156 8.77272C6.44946 9.00074 6.12425 9.32791 5.89859 9.72138L4.18198 12.7182ZM19.0258 14.9468C19.0254 14.7763 19.0151 14.6059 18.9949 14.4365H17.3075V15.2957C17.3075 15.5235 17.2169 15.7421 17.0558 15.9032C16.8947 16.0643 16.6762 16.1548 16.4483 16.1548C16.2204 16.1548 16.0019 16.0643 15.8408 15.9032C15.6797 15.7421 15.5891 15.5235 15.5891 15.2957V14.4365H6.99747V15.2957C6.99747 15.5235 6.90695 15.7421 6.74582 15.9032C6.5847 16.0643 6.36617 16.1548 6.1383 16.1548C5.91044 16.1548 5.6919 16.0643 5.53078 15.9032C5.36965 15.7421 5.27913 15.5235 5.27913 15.2957V14.4365H3.59173C3.57153 14.6059 3.56121 14.7763 3.5608 14.9468V16.1548C3.5608 16.6105 3.74184 17.0476 4.06409 17.3699C4.38634 17.6921 4.8234 17.8732 5.27913 17.8732H17.3075C17.7632 17.8732 18.2003 17.6921 18.5225 17.3699C18.8448 17.0476 19.0258 16.6105 19.0258 16.1548V14.9468Z" fill="#058DA6"/>
</g>
<defs>
<clipPath id="clip0_1977_6596">
<rect width="20.62" height="20.62" fill="white" transform="translate(0.983398 0.689941)"/>
</clipPath>
</defs>
</svg>
