<svg width="20" height="20" viewBox="0 0 20 20" fill="none" xmlns="http://www.w3.org/2000/svg">
<rect x="0.5" y="0.5" width="19" height="19" rx="9.5" fill="white"/>
<rect x="0.5" y="0.5" width="19" height="19" rx="9.5" fill="#058DA6" fill-opacity="0.1"/>
<path d="M9.49286 13.3672C9.55981 13.3008 9.61294 13.2218 9.64921 13.1347C9.68547 13.0476 9.70414 12.9542 9.70414 12.8599C9.70414 12.7656 9.68547 12.6722 9.64921 12.5851C9.61294 12.4981 9.55981 12.4191 9.49286 12.3526L7.14286 10.002L14.2857 10.002C14.4752 10.002 14.6568 9.9267 14.7908 9.79271C14.9247 9.65871 15 9.47698 15 9.28749C15 9.09799 14.9247 8.91626 14.7908 8.78227C14.6568 8.64828 14.4752 8.573 14.2857 8.573L7.14286 8.573L9.49286 6.22234C9.55981 6.15592 9.61294 6.07689 9.64921 5.98983C9.68547 5.90276 9.70414 5.80937 9.70414 5.71505C9.70414 5.62073 9.68547 5.52734 9.64921 5.44028C9.61294 5.35321 9.55981 5.27419 9.49286 5.20777C9.35903 5.07469 9.17799 5 8.98929 5C8.80058 5 8.61954 5.07469 8.48571 5.20777L5.42143 8.28006C5.15315 8.54681 5.00159 8.90911 5 9.28749C5.00348 9.66338 5.15489 10.0228 5.42143 10.2878L8.48571 13.3601C8.6186 13.4941 8.79911 13.5701 8.98781 13.5714C9.17652 13.5727 9.35809 13.4993 9.49286 13.3672Z" fill="#058DA6"/>
<rect x="0.5" y="0.5" width="19" height="19" rx="9.5" stroke="#058DA6"/>
</svg>
