<svg width="32" height="33" viewBox="0 0 32 33" fill="none" xmlns="http://www.w3.org/2000/svg">
<path d="M30.9333 0.5H1.06667C0.477563 0.5 0 0.977563 0 1.56667V3.7C0 4.2891 0.477563 4.76667 1.06667 4.76667H1.1344L4.26667 27.7357V30.3667C4.26667 31.5449 5.22179 32.5 6.4 32.5H25.6C26.7782 32.5 27.7333 31.5449 27.7333 30.3667V27.7357L30.8656 4.76667H30.9333C31.5224 4.76667 32 4.2891 32 3.7V1.56667C32 0.977563 31.5224 0.5 30.9333 0.5ZM26.6667 29.3H5.33333V28.2333H26.6667V29.3ZM25.6 31.4333H6.4C5.8109 31.4333 5.33333 30.9558 5.33333 30.3667H26.6667C26.6667 30.9558 26.1891 31.4333 25.6 31.4333ZM26.7344 27.1667H5.2656L2.2112 4.76667H29.7888L26.7344 27.1667ZM1.06667 3.7V1.56667H30.9333V3.7H1.06667Z" fill="#058DA6"/>
<path d="M8.13434 21.289C8.32176 21.6252 8.67637 21.8337 9.06127 21.8341H14.9333C15.2278 21.8341 15.4666 21.5953 15.4666 21.3007C15.4666 21.0062 15.2278 20.7674 14.9333 20.7674L9.0666 20.7711L12.1727 15.7578L12.3909 16.6922C12.4471 16.9335 12.6621 17.1042 12.9098 17.1045C12.9508 17.1046 12.9916 17.0998 13.0314 17.0901C13.3178 17.023 13.4959 16.7366 13.4293 16.4501L12.9151 14.2463C12.8483 13.9597 12.5619 13.7814 12.2751 13.8479L10.0714 14.3621C9.88581 14.4053 9.7374 14.5443 9.68206 14.7266C9.62673 14.909 9.67288 15.107 9.80313 15.2461C9.93338 15.3852 10.1279 15.4442 10.3135 15.401L11.2783 15.1759L8.15994 20.209C7.95625 20.5377 7.94646 20.951 8.13434 21.289Z" fill="#058DA6"/>
<path d="M13.4476 12.6881C13.5679 12.7625 13.7129 12.7861 13.8507 12.7536C13.9884 12.7211 14.1076 12.6351 14.182 12.5147L15.9948 9.56752L19.83 15.7622L18.8732 15.5393C18.6855 15.49 18.4858 15.5465 18.3518 15.6869C18.2179 15.8273 18.1707 16.0294 18.2288 16.2146C18.2868 16.3998 18.4409 16.5388 18.631 16.5777L20.8342 17.0918C20.8741 17.1014 20.9149 17.1062 20.9558 17.1062C21.2036 17.106 21.4185 16.9352 21.4748 16.6939L21.9889 14.4902C22.0382 14.3025 21.9816 14.1028 21.8412 13.9689C21.7008 13.8349 21.4987 13.7878 21.3135 13.8458C21.1283 13.9039 20.9893 14.0579 20.9505 14.2481L20.7302 15.191L16.9014 9.00432C16.7091 8.69097 16.3678 8.5 16.0001 8.5C15.6324 8.5 15.2911 8.69097 15.0988 9.00432L13.2748 11.9537C13.2002 12.0739 13.1766 12.2189 13.209 12.3567C13.2414 12.4944 13.3272 12.6136 13.4476 12.6881Z" fill="#058DA6"/>
<path d="M21.7841 18.9148L22.9398 20.7676H18.3532L19.0428 20.078C19.2449 19.8687 19.242 19.5361 19.0363 19.3303C18.8305 19.1246 18.4979 19.1217 18.2886 19.3238L16.6886 20.9238C16.4804 21.1321 16.4804 21.4697 16.6886 21.678L18.2886 23.278C18.4979 23.4801 18.8305 23.4772 19.0363 23.2715C19.242 23.0658 19.2449 22.7331 19.0428 22.5238L18.3542 21.8342H22.9409C23.3258 21.831 23.6791 21.6206 23.8654 21.2838C24.0517 20.9469 24.042 20.5358 23.8401 20.2081L22.6913 18.3537C22.5939 18.1857 22.4129 18.0839 22.2187 18.088C22.0246 18.0921 21.848 18.2014 21.7577 18.3733C21.6674 18.5452 21.6777 18.7526 21.7846 18.9148H21.7841Z" fill="#058DA6"/>
</svg>
