<svg width="32" height="27" viewBox="0 0 32 27" fill="none" xmlns="http://www.w3.org/2000/svg">
<path d="M30.3997 19.5045V16.1318C30.4015 15.6562 30.1904 15.2048 29.8242 14.9014L27.3064 12.7995C27.0187 12.5606 26.6564 12.43 26.2824 12.4305H25.9837L23.1395 3.89722H23.9998C24.8834 3.89722 25.5998 3.18087 25.5998 2.29724C25.5998 1.41361 24.8834 0.697266 23.9998 0.697266H5.33329C4.15508 0.697266 3.19995 1.65239 3.19995 2.8306C3.19995 3.41971 3.67752 3.89727 4.26662 3.89727H4.79993V8.16389H3.73331C2.84968 8.16389 2.13334 8.88024 2.13334 9.76387V14.1286C1.49636 14.3538 1.0695 14.9549 1.06667 15.6305V16.262C0.429691 16.4871 0.00278202 17.0881 0 17.7638V20.9637C0 21.8473 0.716344 22.5637 1.59998 22.5637C1.59998 24.6255 3.27145 26.297 5.33329 26.297C7.39513 26.297 9.0666 24.6255 9.0666 22.5637H24.5331C24.531 24.3364 25.7756 25.8661 27.5117 26.2244C29.2477 26.5828 30.9964 25.6709 31.6963 24.0423C32.3963 22.4138 31.8544 20.5175 30.3997 19.5045ZM24.9134 12.5905C24.4246 12.825 24.0882 13.2915 24.02 13.8294L19.6873 9.49716L20.6435 8.54088C20.8456 8.3316 20.8427 7.99897 20.637 7.79325C20.4313 7.58754 20.0987 7.58465 19.8894 7.78675L17.2227 10.4534C17.0841 10.5873 17.0285 10.7856 17.0773 10.9721C17.1261 11.1585 17.2717 11.3042 17.4582 11.3529C17.6446 11.4017 17.8429 11.3462 17.9768 11.2075L18.9331 10.2512L23.9998 15.3178V17.7636C23.9998 18.3528 23.5222 18.8303 22.9331 18.8303H18.6665C18.0774 18.8303 17.5998 18.3528 17.5998 17.7636V14.5637C17.5998 13.3855 16.6447 12.4304 15.4665 12.4304H11.1998C10.9053 12.4304 10.6665 12.1916 10.6665 11.897V8.69709C10.6665 7.81346 9.95018 7.09712 9.06655 7.09712H7.99988V3.89717H22.0158L24.9134 12.5905ZM11.1999 13.4971H15.4665C16.0556 13.4971 16.5332 13.9747 16.5332 14.5638V15.5345L7.99993 14.1121V8.16384H9.0666C9.36113 8.16384 9.59991 8.40262 9.59991 8.69715V11.8971C9.59991 12.7808 10.3163 13.4971 11.1999 13.4971ZM4.26662 2.83055C4.26662 2.24144 4.74418 1.76388 5.33329 1.76388H23.9998C24.2943 1.76388 24.5331 2.00266 24.5331 2.29719C24.5331 2.59172 24.2943 2.8305 23.9998 2.8305H4.26662V2.83055ZM6.93327 3.89722V14.0304H5.8666V3.89722H6.93327ZM3.19995 9.76382C3.19995 9.46929 3.43873 9.23051 3.73326 9.23051H4.79993V10.2972H3.19995V9.76382ZM3.19995 11.3638H4.79993V14.0304H3.19995V11.3638ZM2.13334 15.6304C2.13334 15.3359 2.37212 15.0971 2.66664 15.0971H7.42232L16.5332 16.6155V17.7638C16.5354 18.1394 16.6377 18.5075 16.8297 18.8304H10.6239C9.84767 18.8292 9.12823 18.4232 8.72578 17.7595C8.43545 17.2713 8.02182 16.8681 7.52631 16.5904C7.03316 16.3111 6.47607 16.1641 5.90927 16.1638H2.13334V15.6304ZM5.33329 25.2303C3.86055 25.2303 2.66664 24.0364 2.66664 22.5637C2.66664 21.0909 3.86055 19.897 5.33329 19.897C6.80603 19.897 7.99993 21.0909 7.99993 22.5637C7.99815 24.0357 6.80529 25.2285 5.33329 25.2303ZM24.6931 21.497H8.90656C8.43004 19.9221 6.97862 18.845 5.33324 18.845C3.68786 18.845 2.23648 19.9222 1.75992 21.497H1.59992C1.3054 21.497 1.06662 21.2582 1.06662 20.9637V17.7638C1.06662 17.4692 1.3054 17.2304 1.59992 17.2304H5.90922C6.29204 17.2309 6.66824 17.3301 7.00145 17.5185C7.33524 17.7051 7.61392 17.9764 7.80944 18.3051C8.40522 19.2908 9.4721 19.8943 10.6238 19.8971H22.933C24.1112 19.8971 25.0664 18.942 25.0664 17.7638V14.0305C25.0664 13.736 25.3051 13.4972 25.5997 13.4972H26.2823C26.4066 13.4972 26.5269 13.5402 26.6231 13.6188L29.1431 15.7223C29.2652 15.823 29.335 15.9736 29.3329 16.1319V18.9905C28.3852 18.7064 27.3634 18.8111 26.493 19.2813C25.6226 19.7514 24.975 20.5487 24.6931 21.497ZM28.2664 25.2303C26.7936 25.2303 25.5997 24.0364 25.5997 22.5637C25.5997 21.0909 26.7936 19.897 28.2664 19.897C29.7391 19.897 30.933 21.0909 30.933 22.5637C30.9312 24.0357 29.7384 25.2285 28.2664 25.2303Z" fill="#058DA6"/>
</svg>
