<svg width="24" height="33" viewBox="0 0 24 33" fill="none" xmlns="http://www.w3.org/2000/svg">
<path d="M1.33338 8.5004C2.08738 8.55506 2.81086 8.82043 3.42138 9.26627C3.73512 9.49823 4.01544 9.77226 4.25445 10.0807C2.20645 13.6935 1.05445 17.1079 0.838449 20.2289C0.630499 23.3753 1.70322 26.4721 3.81285 28.8156C5.80104 31.0598 8.62289 32.39 11.6192 32.4956C11.7487 32.4999 11.8779 32.502 12.007 32.502C18.1905 32.4982 23.2009 27.4839 23.2001 21.3004C23.2001 11.6012 13.8256 1.8924 12.7558 0.816665C12.5576 0.607339 12.2797 0.492319 11.9915 0.500399C11.7098 0.502702 11.4408 0.617988 11.2448 0.820399C9.91965 2.18236 8.68012 3.62512 7.53338 5.1404C6.91184 3.86338 6.6142 2.453 6.66672 1.03373C6.66672 0.73918 6.42793 0.500399 6.13338 0.500399C5.83883 0.500399 5.60005 0.73918 5.60005 1.03373C5.60005 7.31053 1.51472 7.43373 1.33338 7.43373C1.03883 7.43373 0.800049 7.67251 0.800049 7.96707C0.800049 8.26162 1.03883 8.5004 1.33338 8.5004ZM12 1.56973C13.0374 2.61293 22.1334 12.0289 22.1334 21.3004C22.1329 24.0477 21.0173 26.6772 19.0419 28.5866C17.0666 30.496 14.4007 31.5217 11.655 31.4289C8.94861 31.3327 6.4002 30.1305 4.60485 28.1031C2.68814 25.974 1.7135 23.1605 1.90245 20.302C2.09498 17.4919 3.10618 14.4103 4.88912 11.1351C5.39269 12.3249 5.63512 13.6089 5.60005 14.9004C5.60005 15.195 5.83883 15.4337 6.13338 15.4337C6.42793 15.4337 6.66672 15.195 6.66672 14.9004C6.66672 8.61613 10.7616 8.5004 10.9334 8.5004C11.2279 8.5004 11.4667 8.26162 11.4667 7.96707C11.4667 7.67251 11.2279 7.43373 10.9334 7.43373C10.1794 7.37907 9.4559 7.1137 8.84538 6.66787C8.60191 6.48658 8.3789 6.27931 8.18032 6.04973C9.35529 4.47533 10.6312 2.97885 12 1.56973ZM6.13338 4.59853C6.34335 5.21459 6.64428 5.79577 7.02618 6.3228C7.04393 6.35192 7.06448 6.37925 7.08752 6.4044C7.58512 7.0643 8.2295 7.5993 8.96965 7.96707C7.60815 8.66085 6.58515 9.87583 6.13338 11.3356C5.94163 10.7799 5.67634 10.2524 5.34458 9.76707C5.3293 9.73899 5.31144 9.71238 5.29125 9.6876C4.78037 8.95681 4.09487 8.36536 3.29712 7.96707C4.65862 7.27328 5.68161 6.0583 6.13338 4.59853Z" fill="#058DA6"/>
<path d="M7.94672 16.3153C8.11333 16.5581 8.44518 16.6199 8.68805 16.4534C10.4495 15.2472 12.7275 15.094 14.6346 16.0535C16.5417 17.013 17.7764 18.9334 17.8577 21.0667L16.6459 19.855C16.4367 19.6529 16.104 19.6558 15.8983 19.8615C15.6926 20.0672 15.6897 20.3999 15.8918 20.6091L18.0251 22.7425C18.2334 22.9507 18.571 22.9507 18.7793 22.7425L20.9126 20.6091C21.1147 20.3999 21.1118 20.0672 20.9061 19.8615C20.7004 19.6558 20.3677 19.6529 20.1585 19.855L18.9233 21.0865C18.849 18.5532 17.3975 16.2627 15.1385 15.1139C12.8795 13.9652 10.1735 14.1416 8.08272 15.5739C7.84064 15.7412 7.77979 16.0729 7.94672 16.3153Z" fill="#058DA6"/>
<path d="M15.3143 26.1454C13.5539 27.3512 11.2774 27.5051 9.37082 26.5472C7.4642 25.5894 6.22871 23.6711 6.14523 21.539L7.36016 22.7449C7.49447 22.8831 7.6929 22.9381 7.87919 22.8888C8.06549 22.8394 8.21068 22.6934 8.25897 22.5069C8.30725 22.3203 8.25113 22.1222 8.11216 21.9886L5.96763 19.8553C5.86324 19.7607 5.72871 19.7061 5.58789 19.7012C5.44592 19.7022 5.31021 19.7598 5.21083 19.8612L3.08869 21.9945C2.88709 22.2043 2.89088 22.537 3.09722 22.7422C3.30356 22.9474 3.63628 22.9493 3.84496 22.7465L5.07696 21.5081C5.15054 24.0417 6.60153 26.333 8.86047 27.4827C11.1194 28.6324 13.8258 28.457 15.9175 27.0254C16.1605 26.8589 16.2225 26.5268 16.0559 26.2838C15.8893 26.0408 15.5573 25.9789 15.3143 26.1454Z" fill="#058DA6"/>
</svg>
