<svg width="32" height="33" viewBox="0 0 32 33" fill="none" xmlns="http://www.w3.org/2000/svg">
<path d="M28.8 10.7972V4.76681C28.8 4.1777 28.3224 3.70014 27.7333 3.70014H25.0667C24.4776 3.70014 24 4.1777 24 4.76681V6.81481L16.6864 0.747607C16.2883 0.417464 15.7116 0.417464 15.3136 0.747607L0.388791 13.1295C0.164655 13.3151 0.025486 13.5838 0.00316501 13.874C-0.019156 14.1641 0.0772833 14.4509 0.270392 14.6687L1.59999 16.1695C1.98369 16.6076 2.64724 16.6585 3.09333 16.2841L3.19999 16.1924V17.6649C2.563 17.8901 2.13613 18.4912 2.13332 19.1668V25.5668C2.13613 26.2424 2.563 26.8435 3.19999 27.0687V31.4335C3.19999 32.0226 3.67755 32.5001 4.26666 32.5001H27.7333C28.3224 32.5001 28.8 32.0226 28.8 31.4335V27.0687C29.437 26.8435 29.8639 26.2424 29.8667 25.5668V19.1668C29.8639 18.4912 29.437 17.8901 28.8 17.6649V16.1924L28.9104 16.2841C29.3553 16.6581 30.0176 16.6071 30.4 16.1695L31.7285 14.6692C31.9217 14.4514 32.0181 14.1645 31.9958 13.8742C31.9735 13.584 31.8343 13.3152 31.6101 13.1295L28.8 10.7972ZM25.0667 4.76681H27.7333V9.91187L25.0667 7.70014V4.76681ZM3.73333 18.6335H5.64586L3.19999 21.0793V19.1668C3.19999 18.8723 3.43877 18.6335 3.73333 18.6335ZM28.8 19.1668V20.546L24 25.346V22.5876L27.9541 18.6335H28.2667C28.5612 18.6335 28.8 18.8723 28.8 19.1668ZM24 21.0793V18.6335H26.4459L24 21.0793ZM22.9333 24.5001H19.2C18.9054 24.5001 18.6667 24.7389 18.6667 25.0335C18.6667 25.328 18.9054 25.5668 19.2 25.5668H22.9333V27.7001H15.4667V25.5668H17.0667C17.3612 25.5668 17.6 25.328 17.6 25.0335C17.6 24.7389 17.3612 24.5001 17.0667 24.5001H15.4667V17.5668C15.4667 17.2723 15.7054 17.0335 16 17.0335H22.4C22.6945 17.0335 22.9333 17.2723 22.9333 17.5668V24.5001ZM14.4 22.6793L10.9792 26.1001H8.22079L14.4 19.9209V22.6793ZM14.4 24.1876V26.1001H12.4875L14.4 24.1876ZM6.71253 26.1001H3.95413L11.4208 18.6335H14.1792L6.71253 26.1001ZM3.19999 25.346V22.5876L7.15412 18.6335H9.91253L3.19999 25.346ZM4.26666 31.4335V27.1668H14.4V29.8335C14.4 30.128 14.6388 30.3668 14.9333 30.3668C15.2279 30.3668 15.4667 30.128 15.4667 29.8335V28.7668H16.5333V29.8335C16.5333 30.128 16.7721 30.3668 17.0667 30.3668C17.3612 30.3668 17.6 30.128 17.6 29.8335V28.7668H18.6667V29.8335C18.6667 30.128 18.9054 30.3668 19.2 30.3668C19.4945 30.3668 19.7333 30.128 19.7333 29.8335V28.7668H20.8V29.8335C20.8 30.128 21.0388 30.3668 21.3333 30.3668C21.6279 30.3668 21.8667 30.128 21.8667 29.8335V28.7668H22.9333V29.8335C22.9333 30.128 23.1721 30.3668 23.4667 30.3668C23.7612 30.3668 24 30.128 24 29.8335V27.1668H27.7333V31.4335H4.26666ZM28.2667 26.1001H24.7541L28.8 22.0543V25.5668C28.8 25.8614 28.5612 26.1001 28.2667 26.1001ZM27.7333 17.5668H24C24 16.6832 23.2836 15.9668 22.4 15.9668H16C15.1163 15.9668 14.4 16.6832 14.4 17.5668H4.26666V15.3076L16 5.57374L27.7333 15.3076V17.5668ZM29.6027 15.4623C29.5994 15.4649 29.5947 15.4649 29.5915 15.4623L16.3408 4.47027C16.1432 4.30615 15.8568 4.30615 15.6592 4.47027L2.39999 15.4623L1.06986 13.9503L16.0048 1.56681L30.9333 13.9615L29.6027 15.4623Z" fill="#058DA6"/>
</svg>
