<svg width="32" height="33" viewBox="0 0 32 33" fill="none" xmlns="http://www.w3.org/2000/svg">
<g clip-path="url(#clip0_2142_20560)">
<path d="M25.9259 31.397H17.1012V28.8212C17.1208 28.7985 17.1394 28.775 17.1564 28.7496C17.9935 27.0754 19.128 25.7987 20.09 24.7773C23.2607 24.7518 25.1837 24.1958 26.4223 22.9033C27.6357 21.6899 28.1872 19.8147 28.1321 17.057C28.1321 16.726 27.8563 16.5054 27.5806 16.5054C22.5084 16.5054 19.3782 17.7466 19.309 24.0139C18.61 24.7539 17.8283 25.6172 17.1012 26.6643V19.2631C17.1012 18.5757 17.8617 17.2296 18.9935 15.9532C24.0705 15.9288 26.4774 15.0757 26.4774 8.23221C26.4774 7.90126 26.2567 7.68064 25.9258 7.68064C20.7378 7.68064 18.2538 8.43871 18.2053 15.1998C17.9278 15.5145 17.51 16.0129 17.1116 16.5893C17.108 16.5691 17.1051 16.5489 17.1011 16.5287V10.4383C17.1011 9.77383 17.1446 9.19608 17.2373 8.66732C19.0116 8.34742 20.6468 7.2944 21.5686 5.8605C22.4511 4.48164 22.6165 2.71672 22.065 0.896634C21.9547 0.62085 21.7341 0.455404 21.4583 0.510574C18.5903 0.951803 16.5496 2.11005 15.7223 3.93013C15.0943 5.29081 15.2614 6.85004 16.1753 8.32524C16.0549 8.95954 15.9981 9.64943 15.9981 10.4384V14.2563C15.5553 13.6364 15.1059 13.1439 14.8932 12.9214C14.8631 10.4411 14.4169 8.96753 13.4058 7.95643C12.413 6.96363 10.9239 6.57757 8.828 6.57757C8.49705 6.57757 8.27643 6.85335 8.27643 7.12914C8.27643 11.0391 9.29241 13.6658 14.1145 13.7458C14.7481 14.4255 15.998 15.9956 15.998 17.0569V24.1472C15.4787 23.4732 14.9782 23.0071 14.564 22.6275C14.4882 22.5517 14.4127 22.4762 14.3421 22.4057C14.2903 14.7195 10.658 13.1961 4.41558 13.1961C4.08463 13.1961 3.86401 13.4168 3.86401 13.7477C3.86401 19.8915 7.13362 23.0337 13.5139 23.1218C13.6249 23.2328 13.7359 23.3438 13.8469 23.4548C14.4392 23.9933 15.2417 24.7423 15.9979 26.0605V31.3971H7.17342C6.84247 31.3971 6.62185 31.6177 6.62185 31.9486C6.62185 32.2796 6.84247 32.5002 7.17342 32.5002H25.9259C26.2568 32.5002 26.4774 32.2796 26.4774 31.9486C26.4774 31.6176 26.2568 31.397 25.9259 31.397ZM27.0289 17.6084C26.9738 19.7595 26.5325 21.1934 25.6501 22.1311C24.7246 23.108 23.2713 23.5575 20.9336 23.6586C21.5474 22.7544 22.3515 21.8762 23.4439 21.414C23.7196 21.3037 23.8299 20.9728 23.7196 20.697C23.6093 20.4213 23.2784 20.311 23.0026 20.4212C21.9485 20.8824 21.1503 21.5797 20.5137 22.3486C21.0101 18.5194 23.141 17.6583 27.0289 17.6084ZM16.7151 4.37142C17.3218 2.99257 18.8661 2.05494 21.1274 1.66888C21.4584 3.04774 21.2929 4.26115 20.631 5.30905C19.8707 6.49716 18.6191 7.19349 17.5463 7.50464C17.7561 6.93045 18.0453 6.38601 18.4248 5.80545C18.5903 5.52967 18.5352 5.19878 18.2594 5.03327C17.9836 4.86782 17.6527 4.92293 17.4872 5.19871C17.1418 5.72591 16.8627 6.23525 16.6432 6.76014C16.3649 5.93291 16.3883 5.10681 16.7151 4.37142ZM9.37957 7.68071C10.8687 7.73588 11.9167 8.06677 12.6337 8.72861C13.2225 9.36271 13.5879 10.2947 13.7304 11.6766L12.5785 10.4384C12.3579 10.2177 12.0269 10.1626 11.8063 10.3832C11.5857 10.6038 11.5305 10.9348 11.7512 11.1554L13.0487 12.5827C10.1436 12.2246 9.43068 10.5907 9.37957 7.68071ZM4.96727 14.2992C9.93551 14.4017 12.6677 15.5514 13.1649 20.7501C12.0088 19.2399 10.8206 18.2107 9.60024 17.6636C9.32446 17.5533 8.99357 17.6636 8.88323 17.9394C8.77289 18.2152 8.88323 18.5461 9.15902 18.6564C10.3997 19.1813 11.5991 20.2847 12.7929 22.0014C7.63558 21.7154 5.12816 19.2326 4.96727 14.2992ZM25.3692 8.78672C25.2738 13.8126 23.825 14.7092 20.0164 14.8332C20.6782 14.1068 21.582 13.1855 22.396 12.5343C22.6718 12.3688 22.6718 11.9827 22.5064 11.7621C22.3409 11.4863 21.9548 11.4863 21.7342 11.6518C20.9027 12.2942 20.0196 13.1698 19.3507 13.888C19.6306 9.439 21.3094 8.83051 25.3692 8.78672Z" fill="#058DA6"/>
</g>
<defs>
<clipPath id="clip0_2142_20560">
<rect width="32" height="32" fill="white" transform="translate(0 0.5)"/>
</clipPath>
</defs>
</svg>
