<svg width="32" height="33" viewBox="0 0 32 33" fill="none" xmlns="http://www.w3.org/2000/svg">
<g clip-path="url(#clip0_2142_20570)">
<path d="M13.3333 17.5664H10.1333C9.54453 17.5671 9.06734 18.0443 9.06665 18.6331V21.8331C9.06734 22.4219 9.54446 22.8991 10.1333 22.8998H13.3333C13.9222 22.8991 14.3993 22.4219 14.4 21.8331V18.6331C14.3993 18.0442 13.9222 17.5671 13.3333 17.5664ZM10.1333 21.833V18.633H13.3333L13.3339 21.833H10.1333Z" fill="#058DA6"/>
<path d="M18.6667 22.8998H21.8667C22.4555 22.8991 22.9327 22.4219 22.9333 21.8331V18.6331C22.9327 18.0443 22.4555 17.5671 21.8667 17.5664H18.6667C18.0778 17.5671 17.6007 18.0443 17.6 18.6331V21.8331C17.6007 22.422 18.0778 22.8991 18.6667 22.8998ZM18.6667 18.6331H21.8667L21.8672 21.8331H18.6667V18.6331H18.6667Z" fill="#058DA6"/>
<path d="M30.5872 18.968C30.55 18.5486 30.3443 18.1623 30.0172 17.8973L17.0234 7.26447C16.4275 6.77903 15.5725 6.77903 14.9765 7.26447L1.98336 17.8973C1.65605 18.1622 1.45017 18.5485 1.41286 18.9678C1.37555 19.3872 1.50998 19.8038 1.78542 20.1223C2.3598 20.7787 3.3503 20.8637 4.02811 20.3147L5.86667 18.8105V30.9004C5.86761 31.7837 6.58342 32.4995 7.46667 32.5004H12.8C13.3888 32.4997 13.866 32.0226 13.8667 31.4337V25.0337H18.1334V31.4337C18.134 32.0225 18.6112 32.4997 19.2 32.5004H24.5334C25.4166 32.4995 26.1324 31.7837 26.1334 30.9004V18.8108L27.9714 20.3147C28.6492 20.864 29.6402 20.779 30.2146 20.1223C30.4899 19.8038 30.6244 19.3873 30.5872 18.968ZM25.0667 30.9004C25.0664 31.1948 24.8278 31.4335 24.5334 31.4337H19.2V25.0337C19.1993 24.4449 18.7221 23.9677 18.1333 23.967H13.8666C13.2778 23.9677 12.8006 24.4449 12.7999 25.0337V31.4337H7.46661C7.17217 31.4334 6.93355 31.1948 6.9333 30.9004V17.9379L15.6525 10.8043C15.8549 10.6392 16.1455 10.6392 16.3479 10.8043L25.0666 17.9381V30.9004H25.0667ZM29.4062 19.4259C29.2111 19.6474 28.8759 19.6753 28.6469 19.4892L17.0234 9.97884C16.4277 9.49341 15.5729 9.49341 14.977 9.97884L3.35261 19.4892C3.12373 19.6753 2.78867 19.6474 2.59373 19.426C2.50655 19.3267 2.46367 19.1962 2.47498 19.0645C2.48742 18.9304 2.5538 18.8071 2.65886 18.7228L15.6515 8.09003C15.8545 7.92509 16.1454 7.92509 16.3484 8.09003L29.3417 18.7228C29.4464 18.8073 29.5125 18.9305 29.525 19.0645C29.5364 19.1961 29.4934 19.3267 29.4062 19.4259Z" fill="#058DA6"/>
<path d="M12.6768 6.25184C12.6957 6.44228 12.8152 6.60797 12.99 6.68609C13.1647 6.76416 13.3679 6.74259 13.5224 6.62959C15.0102 5.58897 16.9897 5.58897 18.4776 6.62959C18.6321 6.74259 18.8352 6.76409 19.0099 6.68609C19.1847 6.60803 19.3042 6.44234 19.3231 6.25184C19.3421 6.06141 19.2575 5.87541 19.1015 5.76447C17.2474 4.43528 14.7525 4.43528 12.8984 5.76447C12.7425 5.87547 12.6579 6.06141 12.6768 6.25184Z" fill="#058DA6"/>
<path d="M19.7063 4.87812C19.9385 4.87831 20.1442 4.72819 20.2148 4.50694C20.2853 4.28569 20.2046 4.04419 20.0151 3.90987C17.6092 2.20712 14.3909 2.20712 11.9849 3.90987C11.8291 4.01981 11.7438 4.20469 11.7614 4.39469C11.779 4.58462 11.8968 4.75069 12.0702 4.83019C12.2436 4.90969 12.4463 4.89037 12.6016 4.77969C14.6384 3.33944 17.3618 3.33944 19.3985 4.77969C19.4883 4.84387 19.5959 4.87831 19.7063 4.87812Z" fill="#058DA6"/>
<path d="M11.7813 3.0625C14.2596 1.10012 17.7522 1.06518 20.2693 2.97762C20.3817 3.0635 20.5237 3.10112 20.6639 3.08218C20.8042 3.06325 20.9311 2.98925 21.0167 2.87656C21.1949 2.64206 21.1494 2.30756 20.9151 2.12918C18.0108 -0.0784403 13.9801 -0.0387529 11.1198 2.2255C10.8887 2.40818 10.8494 2.74356 11.0321 2.97475C11.2147 3.20587 11.5501 3.24518 11.7813 3.0625Z" fill="#058DA6"/>
</g>
<defs>
<clipPath id="clip0_2142_20570">
<rect width="32" height="32" fill="white" transform="translate(0 0.5)"/>
</clipPath>
</defs>
</svg>
