<svg width="32" height="33" viewBox="0 0 32 33" fill="none" xmlns="http://www.w3.org/2000/svg">
<g clip-path="url(#clip0_2142_20581)">
<path d="M17.0666 2.63281H5.33329C4.44964 2.63281 3.73328 3.34918 3.73328 4.23282V8.49952C3.73328 9.38316 4.44964 10.0995 5.33329 10.0995H17.0666C17.9503 10.0995 18.6667 9.38316 18.6667 8.49952V4.23282C18.6667 3.34912 17.9503 2.63281 17.0666 2.63281ZM17.6 8.49947C17.6 8.79403 17.3612 9.0328 17.0666 9.0328H5.33329C5.03872 9.0328 4.79995 8.79403 4.79995 8.49947V4.23282C4.79995 3.93826 5.03872 3.69949 5.33329 3.69949H17.0666C17.3612 3.69949 17.6 3.93826 17.6 4.23282V8.49947Z" fill="#058DA6"/>
<path d="M31.4667 4.23336H30.4V1.03334C30.4 0.738771 30.1612 0.5 29.8667 0.5C29.5721 0.5 29.3334 0.738771 29.3334 1.03334V4.23336H27.2V1.03334C27.2 0.738771 26.9613 0.5 26.6667 0.5C26.3721 0.5 26.1333 0.738771 26.1333 1.03334V4.23336H25.0667C24.7721 4.23336 24.5333 4.47213 24.5333 4.7667C24.5333 5.06126 24.7721 5.30003 25.0667 5.30003V7.43338C25.0696 8.99318 26.1956 10.3241 27.7334 10.5854V27.9667C27.7334 28.7031 27.1364 29.3 26.4 29.3C25.6637 29.3 25.0667 28.7031 25.0667 27.9667V14.9C25.0667 14.0163 24.3504 13.3 23.4667 13.3H22.9334V12.2333C22.9334 11.3497 22.217 10.6333 21.3334 10.6333H20.8V2.63335C20.8 1.45514 19.8449 0.5 18.6667 0.5H3.73336C2.55515 0.5 1.60001 1.45514 1.60001 2.63335V28.7667H1.06667C0.477542 28.7667 0 29.2442 0 29.8334V31.4334C0 32.0225 0.477542 32.5001 1.06667 32.5001H21.3334C21.9224 32.5001 22.4 32.0225 22.4 31.4334V29.8334C22.4 29.2443 21.9225 28.7667 21.3334 28.7667H20.8V17.0333H21.3334C22.217 17.0333 22.9334 16.317 22.9334 15.4333V14.3667H23.4667C23.7613 14.3667 24.0001 14.6054 24.0001 14.9V27.9667C24.0001 29.2922 25.0746 30.3667 26.4 30.3667C27.7255 30.3667 28.8 29.2922 28.8 27.9667V10.5853C30.3378 10.3241 31.4638 8.99313 31.4667 7.43333V5.29998C31.7613 5.29998 32.0001 5.06121 32.0001 4.76664C32 4.47213 31.7612 4.23336 31.4667 4.23336ZM21.3334 31.4334H1.06667V29.8334H21.3334V31.4334ZM2.66668 28.7667V2.63335C2.66668 2.04427 3.14423 1.56667 3.73336 1.56667H18.6667C19.2558 1.56667 19.7334 2.04422 19.7334 2.63335V28.7667H2.66668ZM21.8667 15.4333C21.8667 15.7279 21.6279 15.9667 21.3334 15.9667H20.8V11.7H21.3334C21.6279 11.7 21.8667 11.9388 21.8667 12.2334V15.4333ZM30.4 7.43333C30.4 8.61154 29.4449 9.56667 28.2667 9.56667C27.0885 9.56667 26.1333 8.61154 26.1333 7.43333V5.29998H30.4V7.43333Z" fill="#058DA6"/>
<path d="M14.4 16.4993H12.9205L13.6384 12.9974C13.7086 12.6816 13.6317 12.351 13.4293 12.0986C13.2269 11.8462 12.9209 11.6993 12.5973 11.6992H10.5024C9.97443 11.6971 9.52524 12.0835 9.44855 12.6059L8.54564 18.4726C8.49903 18.7798 8.58874 19.0922 8.79134 19.3279C8.99395 19.5635 9.28925 19.6992 9.60003 19.6992H10.5601L9.99527 22.8064C9.90809 23.265 10.159 23.7208 10.5931 23.8923C10.7117 23.9405 10.8384 23.9652 10.9665 23.9654C11.2955 23.9645 11.6018 23.7979 11.7814 23.5222L15.287 18.1579C15.5054 17.8307 15.5258 17.4098 15.3403 17.0629C15.1547 16.716 14.7934 16.4994 14.4 16.4993ZM11.121 22.5835L11.7248 19.2619C11.7533 19.1063 11.7111 18.946 11.6098 18.8244C11.5084 18.7028 11.3582 18.6326 11.2 18.6327H9.59998L10.5024 12.766L12.5957 12.7746L11.7424 16.926C11.7103 17.0832 11.7506 17.2465 11.8523 17.3707C11.954 17.4948 12.1062 17.5666 12.2666 17.566L14.3968 17.5703L11.121 22.5835Z" fill="#058DA6"/>
<path d="M7.46663 23.9668H4.79995C4.21087 23.9668 3.73328 24.4443 3.73328 25.0335V26.6335C3.73328 27.2226 4.21082 27.7002 4.79995 27.7002H7.46663C8.05571 27.7002 8.53331 27.2226 8.53331 26.6335V25.0335C8.53331 24.4444 8.05577 23.9668 7.46663 23.9668ZM4.79995 26.6335V25.0335H7.46663V26.6335H4.79995Z" fill="#058DA6"/>
<path fill-rule="evenodd" clip-rule="evenodd" d="M7.31044 4.92374C7.10217 4.71552 6.76456 4.71552 6.55628 4.92374L6.02295 5.45708C5.88432 5.59098 5.82869 5.78928 5.8775 5.97577C5.92632 6.16227 6.07192 6.30787 6.25841 6.35668C6.4449 6.4055 6.64315 6.34991 6.7771 6.21124L7.31044 5.6779C7.51866 5.46957 7.51866 5.13202 7.31044 4.92374Z" fill="#058DA6"/>
<path fill-rule="evenodd" clip-rule="evenodd" d="M9.75627 4.92316L7.62292 7.05651C7.4843 7.19041 7.42866 7.38871 7.47748 7.5752C7.52629 7.76169 7.67189 7.9073 7.85839 7.95611C8.04488 8.00493 8.24313 7.94934 8.37708 7.81067L10.5104 5.67732C10.7126 5.46805 10.7097 5.13543 10.5039 4.92967C10.2982 4.72392 9.96554 4.72103 9.75627 4.92316Z" fill="#058DA6"/>
</g>
<defs>
<clipPath id="clip0_2142_20581">
<rect width="32" height="32" fill="white" transform="translate(0 0.5)"/>
</clipPath>
</defs>
</svg>
