<svg width="32" height="33" viewBox="0 0 32 33" fill="none" xmlns="http://www.w3.org/2000/svg">
<g clip-path="url(#clip0_2142_20565)">
<path d="M30.2343 12.8624C30.0718 12.8299 29.9052 12.8233 29.7406 12.843C29.3453 10.1178 28.1546 7.56974 26.3177 5.51815C22.6658 1.40482 16.9619 -0.220821 11.6903 1.34926C6.41866 2.91933 2.5337 7.40087 1.7275 12.842C1.56617 12.8238 1.403 12.8309 1.24383 12.8629C0.498983 13.0429 -0.019178 13.7184 2.83553e-05 14.4844C0.0341267 18.549 0.0346513 18.602 0.0524874 19.8274L0.073471 21.8046C0.068426 22.7025 0.297894 23.5862 0.739176 24.3682C1.17664 25.0931 1.75258 25.7246 2.43413 26.2269L2.78508 26.5238C4.23137 27.7665 5.64986 28.9804 6.63662 29.8182C6.75326 29.9173 6.82025 30.0628 6.8197 30.2159V31.1879C6.8197 31.7674 7.28943 32.2371 7.86888 32.2371H12.5902C13.1672 32.2371 13.6359 31.7712 13.6394 31.1942V31.0479C13.6394 30.347 13.6436 29.6042 13.6289 28.9311C15.0268 29.1427 16.4486 29.1427 17.8466 28.9311C17.8319 29.6047 17.8335 30.3475 17.8361 31.0484V31.1947C17.8398 31.7715 18.3085 32.2371 18.8853 32.2371H23.6066C24.186 32.2371 24.6558 31.7674 24.6558 31.1879V30.2159C24.6552 30.063 24.7217 29.9176 24.8378 29.8182C25.8256 28.9789 27.243 27.7665 28.6904 26.5238L29.0434 26.2248C29.7258 25.7236 30.3027 25.0927 30.741 24.3682C31.1824 23.5859 31.4117 22.7018 31.4062 21.8035L31.4293 19.8295C31.4445 18.602 31.445 18.5516 31.4817 14.4844C31.5008 13.7171 30.9808 13.0409 30.2343 12.8624ZM28.7507 13.3345C28.5202 13.5832 28.3745 13.8985 28.3347 14.2353L28.223 15.2509C27.9297 17.9373 27.8726 18.4624 27.7545 19.5766C27.258 19.4249 26.7198 19.5018 26.2857 19.7865L23.3443 21.7385L22.7074 22.1613C22.6232 21.4638 22.6886 20.7563 22.8994 20.086C23.1706 19.2245 23.2284 18.3099 23.0678 17.4211C22.7263 16.0572 21.3047 15.9806 20.1632 15.9202C18.7095 15.8442 18.005 15.7104 17.8272 14.8228C17.4521 12.9442 18.6067 12.0425 19.371 11.445C19.5144 11.3375 19.6517 11.2223 19.7823 11.0998C19.9786 10.8784 20.136 10.6252 20.2476 10.3512C20.7105 9.2613 21.6259 8.42758 22.7541 8.06818C23.809 7.63724 24.8306 7.12875 25.8104 6.54687C27.4295 8.47507 28.4513 10.8335 28.7507 13.3335V13.3345ZM8.10547 4.26228C8.81711 4.71968 9.64588 4.96144 10.4918 4.95841C11.2178 4.92936 11.9388 4.82385 12.6427 4.64366C14.4609 4.24864 15.0227 4.25756 15.2294 5.08379C15.408 5.70984 15.3127 6.38229 14.9671 6.93402C14.452 7.74871 13.3844 8.35408 11.9623 8.63894C9.31308 9.16825 8.51465 9.75159 7.89564 11.6102C7.52108 12.736 6.474 12.8273 5.24593 12.8273C4.47111 12.8273 4.02468 13.6037 3.55203 14.4262C3.44711 14.6067 3.33904 14.7934 3.22573 14.977L3.1439 14.229C3.1034 13.8917 2.95638 13.5762 2.72422 13.3282C3.16793 9.68557 5.12027 6.39641 8.10547 4.26228ZM12.5902 31.0442V31.1879H7.86888V30.2159C7.86963 29.7548 7.66739 29.3167 7.31596 29.0182C6.32973 28.1815 4.91282 26.9686 3.46757 25.7275L3.1098 25.4237C2.5258 25.0011 2.03078 24.4676 1.65301 23.8536C1.29973 23.2243 1.11691 22.5137 1.12265 21.792L1.10167 19.8148C1.08645 18.5899 1.08593 18.5369 1.04921 14.4761C1.03544 14.2083 1.20632 13.9657 1.46311 13.8885C1.50142 13.8805 1.54044 13.8765 1.57957 13.8764C1.68637 13.8767 1.7904 13.9105 1.87701 13.973C2.00074 14.0611 2.08211 14.1969 2.10154 14.3475L2.26626 15.8604C2.55688 18.5301 2.58416 18.7798 2.74573 20.3195C2.2711 21.0868 2.45552 22.089 3.17222 22.6371L8.66836 26.7981C8.81782 26.9113 9.01628 26.936 9.18896 26.8631C9.36165 26.7903 9.48233 26.6308 9.50555 26.4448C9.52877 26.2588 9.451 26.0745 9.30154 25.9614L3.8075 21.7978C3.50663 21.5646 3.44447 21.1351 3.66691 20.8262C3.69263 20.7998 3.71533 20.7706 3.73459 20.7391C3.97569 20.5136 4.33941 20.4814 4.61642 20.661L7.45918 22.5495C9.8555 24.1395 10.9498 24.8656 11.0154 24.9101C11.7621 25.5162 12.2746 26.3633 12.4648 27.306C12.589 28.5479 12.6309 29.7967 12.5902 31.0442ZM7.02954 19.8568C6.68451 19.2429 6.43676 18.5793 6.29511 17.8896C6.29511 16.533 6.62927 16.118 7.99583 15.7755C9.13419 15.4906 9.46783 15.7193 10.0187 16.0986C10.4322 16.4041 10.8896 16.6454 11.3752 16.8141C12.618 17.2275 14.164 17.7432 14.164 18.4142C14.164 18.7814 13.7779 19.2745 13.3692 19.7996C12.8177 20.4377 12.3819 21.1671 12.0813 21.9551C11.8902 22.6116 11.6345 23.2475 11.3181 23.8536C10.8853 23.5646 9.95098 22.9445 8.03727 21.675L7.70678 21.4557C7.51434 20.9092 7.28815 20.3752 7.02954 19.8568ZM13.5869 27.8578C13.5715 27.6035 13.5409 27.3504 13.4951 27.0998C13.3007 26.1263 12.8278 25.2302 12.1338 24.5204C12.5459 23.8074 12.8664 23.0453 13.0875 22.2521C13.3529 21.5911 13.728 20.9798 14.197 20.4438C14.72 19.7728 15.2131 19.1391 15.2131 18.4142C15.2131 16.9867 13.4295 16.3924 11.7068 15.818C11.3148 15.6802 10.9462 15.4835 10.6135 15.2346C9.95885 14.7835 9.34088 14.3575 7.74141 14.7578C5.92213 15.2141 5.24593 16.0624 5.24593 17.8896C5.24593 18.5395 5.65196 19.3978 6.08527 20.3069C6.10101 20.3404 6.11622 20.374 6.13196 20.4071L5.19347 19.7854C4.75896 19.502 4.22165 19.4242 3.72462 19.573C3.62757 18.6518 3.57091 18.1298 3.38836 16.4517C3.81554 16.0038 4.17756 15.498 4.46377 14.9492C4.6736 14.582 5.06914 13.8953 5.24803 13.8764C6.29721 13.8764 8.24921 13.8764 8.89288 11.9439C9.32304 10.6549 9.60213 10.1833 12.1705 9.66923C13.877 9.32825 15.1859 8.55657 15.8568 7.4969C16.3549 6.70229 16.497 5.73527 16.2487 4.83094C15.765 2.89572 13.9127 3.29703 12.4192 3.62071C11.7882 3.78201 11.1424 3.87868 10.4918 3.90923C10.0155 3.90877 9.54486 3.80609 9.11163 3.60812C14.2998 0.568513 20.8909 1.45081 25.0969 5.74792C24.2183 6.26032 23.3047 6.71013 22.3628 7.09402C20.9909 7.5514 19.8778 8.56989 19.3007 9.89585C19.2329 10.0602 19.1448 10.2155 19.0385 10.358C18.9383 10.4511 18.8333 10.5386 18.7237 10.6203C17.9368 11.2362 16.2954 12.5178 16.7979 15.0305C17.1546 16.8141 18.8611 16.9054 20.107 16.9715C21.323 17.0355 21.9111 17.1258 22.048 17.6787C22.1611 18.407 22.102 19.1517 21.8754 19.8531C21.5668 20.7988 21.5351 21.813 21.7842 22.7761C20.3001 23.7608 19.8815 24.0399 19.8101 24.0928C18.8669 24.8473 18.2209 25.9112 17.9866 27.0961C17.9402 27.3477 17.9092 27.6019 17.8938 27.8573C16.468 28.0947 15.0128 28.0949 13.5869 27.8578ZM30.3796 19.8169L30.356 21.7915C30.3618 22.5133 30.179 23.2242 29.8256 23.8536C29.4485 24.4668 28.9544 24.9998 28.3714 25.4221L28.011 25.7275C26.5658 26.9686 25.1489 28.1815 24.1627 29.0187C23.8116 29.3172 23.6095 29.755 23.6103 30.2159V31.1879L18.8889 31.1905V31.0447C18.8482 29.7958 18.8911 28.5455 19.0175 27.3023C19.2044 26.3684 19.7095 25.5282 20.4465 24.9248C20.532 24.864 21.5948 24.1589 23.925 22.613L26.8627 20.6625C26.9761 20.5874 27.1091 20.5474 27.2451 20.5477C27.4355 20.5479 27.618 20.6233 27.7529 20.7575C27.7712 20.7847 27.7919 20.8101 27.8148 20.8336C28.0376 21.1411 27.9756 21.5701 27.6748 21.802L22.1771 25.9599C22.0276 26.073 21.9498 26.2572 21.9731 26.4432C21.9963 26.6292 22.117 26.7887 22.2896 26.8616C22.4623 26.9345 22.6608 26.9097 22.8103 26.7966L28.309 22.634C29.0271 22.0864 29.2105 21.0823 28.7324 20.3163C28.9044 18.6901 28.9249 18.5033 29.2669 15.3642L29.3771 14.3522C29.3953 14.2 29.4768 14.0626 29.6016 13.9735C29.7203 13.8859 29.8714 13.8549 30.015 13.8885C30.272 13.9655 30.4431 14.2081 30.4294 14.4761C30.3948 18.5395 30.3943 18.5899 30.3796 19.8169Z" fill="#058DA6"/>
</g>
<defs>
<clipPath id="clip0_2142_20565">
<rect width="32" height="32" fill="white" transform="translate(0 0.5)"/>
</clipPath>
</defs>
</svg>
