<svg width="48" height="48" viewBox="0 0 48 48" fill="none" xmlns="http://www.w3.org/2000/svg">
    <rect width="48" height="48" rx="10" fill="white" />
    <rect width="48" height="48" rx="10" fill="#058DA6" fill-opacity="0.1" />
    <g clip-path="url(#clip0_2799_18450)">
        <path
            d="M35.0749 28.7635C35.6544 29.3446 35.9799 30.1318 35.9799 30.9525C35.9799 31.7732 35.6544 32.5604 35.0749 33.1415L34.1629 34.1915C25.9719 42.0295 6.04394 22.1075 13.7629 13.8915L14.9129 12.8915C15.4946 12.3281 16.2747 12.0163 17.0844 12.0236C17.8942 12.0309 18.6686 12.3567 19.2399 12.9305C19.2709 12.9605 21.1229 15.3685 21.1229 15.3685C21.6709 15.9471 21.9757 16.7139 21.9746 17.5107C21.9735 18.3075 21.6665 19.0735 21.1169 19.6505L19.9589 21.1065C20.5999 22.6636 21.5422 24.0786 22.7316 25.2704C23.9211 26.4623 25.3342 27.4074 26.8899 28.0515L28.3549 26.8865C28.9308 26.3355 29.6967 26.0275 30.4937 26.0264C31.2907 26.0253 32.0575 26.3311 32.6349 26.8805C32.6349 26.8805 35.0439 28.7335 35.0749 28.7635ZM33.6999 30.2175C33.6999 30.2175 31.3069 28.3755 31.2759 28.3455C31.0699 28.1413 30.7916 28.0266 30.5014 28.0266C30.2113 28.0266 29.933 28.1413 29.7269 28.3455C29.6999 28.3715 27.6829 29.9795 27.6829 29.9795C27.547 30.0877 27.3853 30.1586 27.2136 30.1853C27.0419 30.2119 26.8663 30.1934 26.7039 30.1315C24.6874 29.3813 22.8557 28.2062 21.333 26.686C19.8104 25.1657 18.6324 23.3359 17.8789 21.3205C17.8121 21.156 17.7904 20.9766 17.8158 20.8009C17.8413 20.6251 17.9132 20.4593 18.0239 20.3205C18.0239 20.3205 19.6319 18.3065 19.6589 18.2805C19.8632 18.0745 19.9778 17.7961 19.9778 17.506C19.9778 17.2159 19.8632 16.9375 19.6589 16.7315C19.6289 16.7015 17.7869 14.3065 17.7869 14.3065C17.5778 14.119 17.3049 14.0186 17.0242 14.0259C16.7434 14.0331 16.4761 14.1475 16.2769 14.3455L15.1269 15.3455C9.48494 22.1285 26.7569 38.4425 32.6999 32.8285L33.6119 31.7775C33.827 31.5802 33.9565 31.3068 33.9729 31.0154C33.9893 30.724 33.8914 30.4378 33.6999 30.2175Z"
            fill="#058DA6" />
    </g>
    <defs>
        <clipPath id="clip0_2799_18450">
            <rect width="24" height="24" fill="white" transform="translate(12 12)" />
        </clipPath>
    </defs>
</svg>