<svg width="48" height="48" viewBox="0 0 48 48" fill="none" xmlns="http://www.w3.org/2000/svg">
<rect width="48" height="48" rx="10" fill="white"/>
<rect width="48" height="48" rx="10" fill="#058DA6" fill-opacity="0.1"/>
<g clip-path="url(#clip0_2072_13359)">
<path d="M35 23C34.7348 23 34.4804 23.1054 34.2929 23.2929C34.1053 23.4804 34 23.7348 34 24C34.0081 26.3253 33.2084 28.5812 31.7375 30.3822C30.2666 32.1831 28.2159 33.4173 25.9359 33.8738C23.6558 34.3303 21.288 33.9807 19.2372 32.8849C17.1863 31.789 15.5797 30.0148 14.692 27.8657C13.8043 25.7165 13.6906 23.3257 14.3703 21.102C15.05 18.8783 16.4809 16.9597 18.4185 15.6741C20.3561 14.3885 22.68 13.8158 24.9931 14.0538C27.3062 14.2918 29.4648 15.3258 31.1 16.979C31.0671 16.988 31.0337 16.995 31 17H28C27.7348 17 27.4804 17.1054 27.2929 17.2929C27.1053 17.4804 27 17.7348 27 18C27 18.2652 27.1053 18.5196 27.2929 18.7071C27.4804 18.8946 27.7348 19 28 19H31C31.7956 19 32.5587 18.6839 33.1213 18.1213C33.6839 17.5587 34 16.7957 34 16V13C34 12.7348 33.8946 12.4804 33.7071 12.2929C33.5195 12.1054 33.2652 12 33 12C32.7348 12 32.4804 12.1054 32.2929 12.2929C32.1053 12.4804 32 12.7348 32 13V15.065C29.9525 13.2345 27.3389 12.1622 24.5958 12.0271C21.8527 11.892 19.1464 12.7025 16.929 14.3229C14.7117 15.9434 13.1176 18.2758 12.4132 20.9303C11.7088 23.5848 11.9367 26.4007 13.0589 28.9074C14.1811 31.414 16.1295 33.4596 18.5787 34.7024C21.0278 35.9451 23.8292 36.3097 26.5149 35.7353C29.2005 35.1608 31.6076 33.682 33.334 31.5461C35.0604 29.4101 36.0015 26.7464 36 24C36 23.7348 35.8946 23.4804 35.7071 23.2929C35.5195 23.1054 35.2652 23 35 23Z" fill="#058DA6"/>
<path d="M24 18C23.7348 18 23.4804 18.1054 23.2929 18.2929C23.1054 18.4804 23 18.7348 23 19V24C23.0001 24.2652 23.1055 24.5195 23.293 24.707L26.293 27.707C26.4816 27.8892 26.7342 27.99 26.9964 27.9877C27.2586 27.9854 27.5094 27.8802 27.6948 27.6948C27.8802 27.5094 27.9854 27.2586 27.9877 26.9964C27.99 26.7342 27.8892 26.4816 27.707 26.293L25 23.586V19C25 18.7348 24.8946 18.4804 24.7071 18.2929C24.5196 18.1054 24.2652 18 24 18Z" fill="#058DA6"/>
</g>
<defs>
<clipPath id="clip0_2072_13359">
<rect width="24" height="24" fill="white" transform="translate(12 12)"/>
</clipPath>
</defs>
</svg>
