<svg width="48" height="48" viewBox="0 0 48 48" fill="none" xmlns="http://www.w3.org/2000/svg">
<rect width="48" height="48" rx="10" fill="white"/>
<rect width="48" height="48" rx="10" fill="#058DA6" fill-opacity="0.1"/>
<g clip-path="url(#clip0_2072_13337)">
<path d="M24.0001 12C20.8185 12.0034 17.7683 13.2688 15.5186 15.5185C13.2689 17.7682 12.0035 20.8185 12.0001 24C11.8741 33.573 23.1591 39.429 30.9001 33.817C31.0113 33.743 31.1066 33.6475 31.1803 33.536C31.254 33.4246 31.3046 33.2995 31.3292 33.1682C31.3537 33.0369 31.3517 32.902 31.3233 32.7714C31.2948 32.6409 31.2405 32.5174 31.1635 32.4082C31.0865 32.299 30.9885 32.2063 30.8751 32.1357C30.7617 32.065 30.6353 32.0178 30.5033 31.9968C30.3714 31.9758 30.2366 31.9815 30.1069 32.0135C29.9771 32.0454 29.8551 32.1031 29.7481 32.183C23.3001 36.856 13.9001 31.978 14.0001 24C14.5491 10.734 33.4531 10.737 34.0001 24V26C34.0001 26.5304 33.7894 27.0391 33.4143 27.4142C33.0392 27.7893 32.5305 28 32.0001 28C31.4696 28 30.9609 27.7893 30.5859 27.4142C30.2108 27.0391 30.0001 26.5304 30.0001 26V24C29.7481 16.071 18.2511 16.072 18.0001 24C18.0117 25.216 18.3915 26.3999 19.0895 27.3958C19.7874 28.3916 20.7707 29.1526 21.9097 29.5784C23.0488 30.0043 24.2901 30.075 25.4702 29.7812C26.6502 29.4875 27.7136 28.8431 28.5201 27.933C28.9539 28.6986 29.628 29.2998 30.4382 29.6435C31.2483 29.9871 32.1491 30.0541 33.0011 29.8339C33.8531 29.6137 34.6087 29.1187 35.1509 28.4256C35.693 27.7325 35.9915 26.8799 36.0001 26V24C35.9966 20.8185 34.7312 17.7682 32.4816 15.5185C30.2319 13.2688 27.1816 12.0034 24.0001 12V12ZM24.0001 28C22.9392 28 21.9218 27.5786 21.1716 26.8284C20.4215 26.0783 20.0001 25.0609 20.0001 24C20.0001 22.9391 20.4215 21.9217 21.1716 21.1716C21.9218 20.4214 22.9392 20 24.0001 20C25.0609 20 26.0784 20.4214 26.8285 21.1716C27.5786 21.9217 28.0001 22.9391 28.0001 24C28.0001 25.0609 27.5786 26.0783 26.8285 26.8284C26.0784 27.5786 25.0609 28 24.0001 28Z" fill="#058DA6"/>
</g>
<defs>
<clipPath id="clip0_2072_13337">
<rect width="24" height="24" fill="white" transform="translate(12 12)"/>
</clipPath>
</defs>
</svg>
