<svg width="24" height="24" viewBox="0 0 24 24" fill="none" xmlns="http://www.w3.org/2000/svg">
<rect x="0.000976562" width="24" height="24" rx="9" fill="#058DA6"/>
<path d="M12.001 2.162C15.205 2.162 15.585 2.174 16.85 2.232C18.158 2.292 19.505 2.59 20.458 3.543C21.42 4.505 21.709 5.839 21.769 7.151C21.827 8.416 21.839 8.796 21.839 12C21.839 15.204 21.827 15.584 21.769 16.849C21.71 18.15 21.405 19.51 20.458 20.457C19.496 21.419 18.163 21.708 16.85 21.768C15.585 21.826 15.205 21.838 12.001 21.838C8.79698 21.838 8.41698 21.826 7.15198 21.768C5.86098 21.709 4.48298 21.397 3.54398 20.457C2.58698 19.5 2.29298 18.153 2.23298 16.849C2.17498 15.584 2.16298 15.204 2.16298 12C2.16298 8.796 2.17498 8.416 2.23298 7.151C2.29198 5.855 2.59998 4.487 3.54398 3.543C4.50398 2.583 5.84298 2.292 7.15198 2.232C8.41698 2.174 8.79698 2.162 12.001 2.162ZM12.001 0C8.74198 0 8.33298 0.014 7.05298 0.072C5.19798 0.157 3.35598 0.673 2.01498 2.014C0.668977 3.36 0.157977 5.198 0.0729766 7.052C0.0149766 8.332 0.000976562 8.741 0.000976562 12C0.000976562 15.259 0.0149766 15.668 0.0729766 16.948C0.157977 18.801 0.675977 20.648 2.01498 21.986C3.35998 23.331 5.20098 23.843 7.05298 23.928C8.33298 23.986 8.74198 24 12.001 24C15.26 24 15.669 23.986 16.949 23.928C18.803 23.843 20.647 23.326 21.987 21.986C23.334 20.639 23.844 18.802 23.929 16.948C23.987 15.668 24.001 15.259 24.001 12C24.001 8.741 23.987 8.332 23.929 7.052C23.844 5.197 23.327 3.354 21.987 2.014C20.644 0.671 18.798 0.156 16.949 0.072C15.669 0.014 15.26 0 12.001 0Z" fill="#058DA6"/>
<path d="M11.9291 5.83984C8.52609 5.83984 5.76709 8.59884 5.76709 12.0018C5.76709 15.4048 8.52609 18.1638 11.9291 18.1638C15.3321 18.1638 18.0911 15.4048 18.0911 12.0018C18.0911 8.59884 15.3321 5.83984 11.9291 5.83984ZM11.9291 16.0018C9.72009 16.0018 7.92909 14.2108 7.92909 12.0018C7.92909 9.79284 9.72009 8.00184 11.9291 8.00184C14.1381 8.00184 15.9291 9.79284 15.9291 12.0018C15.9291 14.2108 14.1381 16.0018 11.9291 16.0018Z" fill="white"/>
<path d="M11.9291 5.83984C8.52609 5.83984 5.76709 8.59884 5.76709 12.0018C5.76709 15.4048 8.52609 18.1638 11.9291 18.1638C15.3321 18.1638 18.0911 15.4048 18.0911 12.0018C18.0911 8.59884 15.3321 5.83984 11.9291 5.83984ZM11.9291 16.0018C9.72009 16.0018 7.92909 14.2108 7.92909 12.0018C7.92909 9.79284 9.72009 8.00184 11.9291 8.00184C14.1381 8.00184 15.9291 9.79284 15.9291 12.0018C15.9291 14.2108 14.1381 16.0018 11.9291 16.0018Z" fill="#058DA6" fill-opacity="0.1"/>
<path d="M18.3353 7.03234C19.1306 7.03234 19.7753 6.38763 19.7753 5.59234C19.7753 4.79705 19.1306 4.15234 18.3353 4.15234C17.54 4.15234 16.8953 4.79705 16.8953 5.59234C16.8953 6.38763 17.54 7.03234 18.3353 7.03234Z" fill="white"/>
<path d="M18.3353 7.03234C19.1306 7.03234 19.7753 6.38763 19.7753 5.59234C19.7753 4.79705 19.1306 4.15234 18.3353 4.15234C17.54 4.15234 16.8953 4.79705 16.8953 5.59234C16.8953 6.38763 17.54 7.03234 18.3353 7.03234Z" fill="#058DA6" fill-opacity="0.1"/>
</svg>
