<svg width="48" height="48" viewBox="0 0 48 48" fill="none" xmlns="http://www.w3.org/2000/svg">
<rect width="48" height="48" rx="10" fill="white"/>
<rect width="48" height="48" rx="10" fill="#058DA6" fill-opacity="0.1"/>
<g clip-path="url(#clip0_2072_13344)">
<path d="M24 18C23.2089 18 22.4355 18.2346 21.7777 18.6741C21.1199 19.1136 20.6072 19.7384 20.3045 20.4693C20.0017 21.2002 19.9225 22.0044 20.0769 22.7804C20.2312 23.5563 20.6122 24.269 21.1716 24.8284C21.731 25.3878 22.4437 25.7688 23.2196 25.9231C23.9956 26.0775 24.7998 25.9983 25.5307 25.6955C26.2616 25.3928 26.8864 24.8801 27.3259 24.2223C27.7654 23.5645 28 22.7911 28 22C28 20.9391 27.5786 19.9217 26.8284 19.1716C26.0783 18.4214 25.0609 18 24 18ZM24 24C23.6044 24 23.2178 23.8827 22.8889 23.6629C22.56 23.4432 22.3036 23.1308 22.1522 22.7654C22.0009 22.3999 21.9613 21.9978 22.0384 21.6098C22.1156 21.2219 22.3061 20.8655 22.5858 20.5858C22.8655 20.3061 23.2219 20.1156 23.6098 20.0384C23.9978 19.9613 24.3999 20.0009 24.7654 20.1522C25.1308 20.3036 25.4432 20.56 25.6629 20.8889C25.8827 21.2178 26 21.6044 26 22C26 22.5304 25.7893 23.0391 25.4142 23.4142C25.0391 23.7893 24.5304 24 24 24Z" fill="#058DA6"/>
<path d="M24.0001 35.9981C23.158 36.0024 22.3272 35.8049 21.5771 35.4221C20.8271 35.0394 20.1797 34.4825 19.6891 33.7981C15.8781 28.5411 13.9451 24.5891 13.9451 22.0511C13.9451 19.3843 15.0044 16.8268 16.8901 14.9411C18.7758 13.0555 21.3333 11.9961 24.0001 11.9961C26.6668 11.9961 29.2243 13.0555 31.11 14.9411C32.9957 16.8268 34.0551 19.3843 34.0551 22.0511C34.0551 24.5891 32.1221 28.5411 28.3111 33.7981C27.8205 34.4825 27.173 35.0394 26.423 35.4221C25.673 35.8049 24.8421 36.0024 24.0001 35.9981ZM24.0001 14.1791C21.9125 14.1815 19.9111 15.0118 18.4349 16.488C16.9588 17.9641 16.1285 19.9655 16.1261 22.0531C16.1261 24.0631 18.0191 27.7801 21.4551 32.5191C21.7468 32.9209 22.1294 33.2479 22.5718 33.4734C23.0141 33.6988 23.5036 33.8164 24.0001 33.8164C24.4966 33.8164 24.986 33.6988 25.4284 33.4734C25.8707 33.2479 26.2534 32.9209 26.5451 32.5191C29.9811 27.7801 31.8741 24.0631 31.8741 22.0531C31.8717 19.9655 31.0413 17.9641 29.5652 16.488C28.0891 15.0118 26.0877 14.1815 24.0001 14.1791Z" fill="#058DA6"/>
</g>
<defs>
<clipPath id="clip0_2072_13344">
<rect width="24" height="24" fill="white" transform="translate(12 12)"/>
</clipPath>
</defs>
</svg>
