<svg width="48" height="48" viewBox="0 0 48 48" fill="none" xmlns="http://www.w3.org/2000/svg">
<rect width="48" height="48" rx="10" fill="white"/>
<rect width="48" height="48" rx="10" fill="#058DA6" fill-opacity="0.1"/>
<g clip-path="url(#clip0_2072_13352)">
<path d="M26.9799 19.024V15.024C26.9799 14.7588 27.0853 14.5044 27.2728 14.3169C27.4604 14.1294 27.7147 14.024 27.9799 14.024C28.2452 14.024 28.4995 14.1294 28.687 14.3169C28.8746 14.5044 28.9799 14.7588 28.9799 15.024V17.635C29.6099 17.001 33.6809 12.909 34.2729 12.317C34.3652 12.2215 34.4755 12.1453 34.5975 12.0929C34.7195 12.0405 34.8508 12.0129 34.9835 12.0118C35.1163 12.0106 35.248 12.0359 35.3709 12.0862C35.4938 12.1365 35.6054 12.2107 35.6993 12.3046C35.7932 12.3985 35.8675 12.5102 35.9178 12.6331C35.968 12.7559 35.9933 12.8876 35.9922 13.0204C35.991 13.1532 35.9634 13.2844 35.911 13.4064C35.8586 13.5284 35.7824 13.6388 35.6869 13.731C35.0949 14.323 31.0449 18.396 30.4189 19.024H32.9799C33.2452 19.024 33.4995 19.1294 33.687 19.3169C33.8746 19.5044 33.9799 19.7588 33.9799 20.024C33.9799 20.2892 33.8746 20.5436 33.687 20.7311C33.4995 20.9186 33.2452 21.024 32.9799 21.024H28.9799C28.4495 21.024 27.9408 20.8133 27.5657 20.4382C27.1907 20.0631 26.9799 19.5544 26.9799 19.024ZM35.0749 28.763C35.6544 29.3441 35.9799 30.1313 35.9799 30.952C35.9799 31.7727 35.6544 32.5599 35.0749 33.141L34.1629 34.191C25.9719 42.029 6.04394 22.107 13.7629 13.891L14.9129 12.891C15.4946 12.3276 16.2747 12.0157 17.0844 12.023C17.8942 12.0303 18.6686 12.3562 19.2399 12.93C19.2709 12.96 21.1229 15.368 21.1229 15.368C21.6709 15.9465 21.9757 16.7134 21.9746 17.5102C21.9735 18.307 21.6665 19.073 21.1169 19.65L19.9589 21.106C20.5999 22.663 21.5422 24.0781 22.7316 25.2699C23.9211 26.4618 25.3342 27.4069 26.8899 28.051L28.3549 26.886C28.9308 26.335 29.6967 26.027 30.4937 26.0259C31.2907 26.0247 32.0575 26.3306 32.6349 26.88C32.6349 26.88 35.0439 28.733 35.0749 28.763ZM33.6999 30.217C33.6999 30.217 31.3069 28.375 31.2759 28.345C31.0699 28.1407 30.7916 28.0261 30.5014 28.0261C30.2113 28.0261 29.933 28.1407 29.7269 28.345C29.6999 28.371 27.6829 29.979 27.6829 29.979C27.547 30.0872 27.3853 30.1581 27.2136 30.1848C27.0419 30.2114 26.8663 30.1929 26.7039 30.131C24.6874 29.3807 22.8557 28.2057 21.333 26.6854C19.8104 25.1652 18.6324 23.3354 17.8789 21.32C17.8121 21.1555 17.7904 20.9761 17.8158 20.8003C17.8413 20.6246 17.9132 20.4588 18.0239 20.32C18.0239 20.32 19.6319 18.306 19.6589 18.28C19.8632 18.074 19.9778 17.7956 19.9778 17.5055C19.9778 17.2154 19.8632 16.937 19.6589 16.731C19.6289 16.701 17.7869 14.306 17.7869 14.306C17.5778 14.1185 17.3049 14.0181 17.0242 14.0254C16.7434 14.0326 16.4761 14.147 16.2769 14.345L15.1269 15.345C9.48494 22.128 26.7569 38.442 32.6999 32.828L33.6119 31.777C33.827 31.5797 33.9565 31.3063 33.9729 31.0149C33.9893 30.7235 33.8914 30.4372 33.6999 30.217Z" fill="#058DA6"/>
</g>
<defs>
<clipPath id="clip0_2072_13352">
<rect width="24" height="24" fill="white" transform="translate(12 12)"/>
</clipPath>
</defs>
</svg>
