<svg width="24" height="24" viewBox="0 0 24 24" fill="none" xmlns="http://www.w3.org/2000/svg">
<path d="M21.544 6.85434C21.558 7.06534 21.558 7.27734 21.558 7.49034C21.558 13.9973 16.604 21.5003 7.54798 21.5003V21.4963C4.87298 21.5003 2.25298 20.7343 0.000976562 19.2893C0.389977 19.3363 0.780977 19.3593 1.17298 19.3603C3.39098 19.3623 5.54498 18.6183 7.28798 17.2483C5.18098 17.2083 3.33298 15.8343 2.68798 13.8283C3.42598 13.9703 4.18598 13.9413 4.91098 13.7443C2.61298 13.2803 0.960977 11.2613 0.960977 8.91734C0.960977 8.89634 0.960977 8.87534 0.960977 8.85534C1.64598 9.23734 2.41198 9.44834 3.19598 9.47134C1.03198 8.02634 0.363976 5.14834 1.67098 2.89834C4.17098 5.97434 7.85998 7.84434 11.819 8.04334C11.422 6.33334 11.965 4.54134 13.243 3.33834C15.226 1.47334 18.345 1.56934 20.21 3.55234C21.313 3.33534 22.37 2.93034 23.337 2.35734C22.969 3.49734 22.2 4.46534 21.172 5.08134C22.149 4.96434 23.102 4.70334 24.001 4.30534C23.34 5.29434 22.508 6.15734 21.544 6.85434Z" fill="#058DA6"/>
</svg>
